0
SECTION
2
HEADER
9
$INSUNITS
70
4
0
ENDSEC
0
SECTION
2
TABLES
0
TABLE
2
LTYPE
0
LTYPE
72
65
70
64
2
CONTINUOUS
3
______
73
0
40
0
0
ENDTAB
0
TABLE
2
LAYER
0
ENDTAB
0
ENDSEC
0
SECTION
2
ENTITIES
0
LINE
8
front_outsideCutPath
10
0
20
28
11
0
21
3
0
LINE
8
front_outsideCutPath
10
0
20
3
11
518
21
3
0
LINE
8
front_outsideCutPath
10
518
20
3
11
518
21
28
0
LINE
8
front_outsideCutPath
10
518
20
28
11
0
21
28
0
LINE
8
front_labelLayer
10
254.8581543
20
16.2874064
11
254.8581543
21
15.972465
0
LINE
8
front_labelLayer
10
254.8581543
20
15.972465
11
254.177002
21
15.972465
0
LINE
8
front_labelLayer
10
254.177002
20
15.972465
11
254.177002
21
13.6116252
0
LINE
8
front_labelLayer
10
254.177002
20
13.6116252
11
253.7717285
21
13.6116252
0
LINE
8
front_labelLayer
10
253.7717285
20
13.6116252
11
253.7717285
21
15.972465
0
LINE
8
front_labelLayer
10
253.7717285
20
15.972465
11
253.2932129
21
15.972465
0
LINE
8
front_labelLayer
10
253.2932129
20
15.972465
11
253.2932129
21
16.1555705
0
LINE
8
front_labelLayer
10
253.2932129
20
16.1555705
11
253.7717285
21
16.3020548
0
LINE
8
front_labelLayer
10
253.7717285
20
16.3020548
11
253.7717285
21
16.4509806
0
LINE
8
front_labelLayer
10
255.1315918
20
17.3518595
11
255.0266113
21
17.0271525
0
LINE
8
front_labelLayer
10
254.177002
20
16.4607463
11
254.177002
21
16.2874064
0
LINE
8
front_labelLayer
10
254.177002
20
16.2874064
11
254.8581543
21
16.2874064
0
ARC
8
front_labelLayer
10
255.4141677
20
16.4698621
40
1.6425477
50
167.5776283
51
180.6586437
0
ARC
8
front_labelLayer
10
254.6417815
20
16.6499373
40
0.8495627
50
141.7433413
51
168.2322422
0
ARC
8
front_labelLayer
10
254.5160253
20
16.7155725
40
0.7106607
50
98.2551437
51
139.6203136
0
ARC
8
front_labelLayer
10
254.6264444
20
16.2054783
40
1.231851
50
89.669739
51
99.9314354
0
ARC
8
front_labelLayer
10
254.6267513
20
16.1322453
40
1.3050811
50
81.5641331
51
89.7017438
0
ARC
8
front_labelLayer
10
254.5350001
20
15.4921415
40
1.9517221
50
75.9740582
51
81.6564947
0
ARC
8
front_labelLayer
10
254.3775832
20
14.8392077
40
2.6233468
50
73.2962995
51
76.0946657
0
ARC
8
front_labelLayer
10
254.4171822
20
15.1558105
40
1.9680764
50
71.9614234
51
76.5917286
0
ARC
8
front_labelLayer
10
254.5698873
20
15.8035894
40
1.302545
50
76.5182849
51
83.0217313
0
ARC
8
front_labelLayer
10
254.623069
20
16.2312872
40
0.8715546
50
83.0760007
51
89.7928058
0
ARC
8
front_labelLayer
10
254.6213161
20
16.5563039
40
0.5465542
50
89.485836
51
103.4196916
0
ARC
8
front_labelLayer
10
254.5720408
20
16.7456159
40
0.3509978
50
102.7677295
51
144.3380635
0
ARC
8
front_labelLayer
10
254.6713149
20
16.6817423
40
0.4689317
50
145.0689248
51
162.1800984
0
ARC
8
front_labelLayer
10
255.0116768
20
16.5672286
40
0.8280226
50
161.8437984
51
171.7847242
0
ARC
8
front_labelLayer
10
255.5667932
20
16.4838501
40
1.3893604
50
171.6527305
51
178.4384165
0
ARC
8
front_labelLayer
10
256.0904863
20
16.4615139
40
1.9134847
50
178.197175
51
180.0229845
0
LINE
8
front_labelLayer
10
256.8869629
20
16.3069377
11
256.8308105
21
15.9309611
0
LINE
8
front_labelLayer
10
255.751709
20
15.047172
11
255.751709
21
13.6116252
0
LINE
8
front_labelLayer
10
255.751709
20
13.6116252
11
255.3464355
21
13.6116252
0
LINE
8
front_labelLayer
10
255.3464355
20
13.6116252
11
255.3464355
21
16.2874064
0
LINE
8
front_labelLayer
10
255.3464355
20
16.2874064
11
255.6809082
21
16.2874064
0
LINE
8
front_labelLayer
10
255.6809082
20
16.2874064
11
255.7272949
21
15.7918009
0
LINE
8
front_labelLayer
10
255.7272949
20
15.7918009
11
255.7468262
21
15.7918009
0
ARC
8
front_labelLayer
10
256.5713007
20
14.4757104
40
1.8605288
50
84.99231
51
90.1281706
0
ARC
8
front_labelLayer
10
256.6159775
20
14.9762844
40
1.3579658
50
78.4892132
51
85.026549
0
ARC
8
front_labelLayer
10
256.4425597
20
14.1875494
40
1.7861195
50
77.4453267
51
81.6360495
0
ARC
8
front_labelLayer
10
256.5203766
20
14.7239486
40
1.2441066
50
81.5883502
51
87.1916744
0
ARC
8
front_labelLayer
10
256.537273
20
15.0169879
40
0.9505947
50
87.343484
51
89.9657156
0
ARC
8
front_labelLayer
10
256.5333505
20
15.2653774
40
0.7022192
50
89.63354
51
137.088063
0
ARC
8
front_labelLayer
10
256.7056189
20
15.071643
40
0.9606123
50
135.6207359
51
138.8378665
0
ARC
8
front_labelLayer
10
256.6804353
20
15.0962289
40
0.9254726
50
138.9575937
51
174.5422358
0
ARC
8
front_labelLayer
10
256.9818385
20
15.049069
40
1.2301308
50
173.6908194
51
180.0883533
0
ARC
8
front_labelLayer
10
256.9392373
20
15.1200006
40
1.3686343
50
139.4139858
51
150.6032391
0
ARC
8
front_labelLayer
10
256.6938291
20
15.3302881
40
1.0454532
50
124.2320942
51
139.4161144
0
ARC
8
front_labelLayer
10
256.5626219
20
15.5283465
40
0.8079007
50
89.6796707
51
124.440559
0
ARC
8
front_labelLayer
10
257.6036694
20
14.9378435
40
2.0933997
50
349.1761997
51
0.3862913
0
ARC
8
front_labelLayer
10
258.3084674
20
14.797341
40
1.3747671
50
330.2506745
51
349.4116456
0
ARC
8
front_labelLayer
10
258.5253684
20
14.6846036
40
1.1305538
50
318.1439562
51
329.7566217
0
ARC
8
front_labelLayer
10
258.5645141
20
14.6532321
40
1.0804677
50
278.8959328
51
317.997902
0
ARC
8
front_labelLayer
10
258.4636449
20
15.1365053
40
1.5737233
50
269.7503239
51
279.8033396
0
ARC
8
front_labelLayer
10
258.4472869
20
14.8642112
40
1.3014489
50
253.5437237
51
270.4182479
0
ARC
8
front_labelLayer
10
258.4039651
20
14.6966285
40
1.128474
50
238.8115731
51
253.242827
0
ARC
8
front_labelLayer
10
258.3899824
20
14.6685092
40
1.0971809
50
207.7946997
51
238.6758022
0
ARC
8
front_labelLayer
10
258.5905711
20
14.7913658
40
1.3320013
50
205.6560381
51
208.4462371
0
ARC
8
front_labelLayer
10
258.7451456
20
14.8557735
40
1.4992488
50
188.9102689
51
205.3171318
0
ARC
8
front_labelLayer
10
259.2659158
20
14.9439757
40
2.0274062
50
179.7744369
51
189.0933127
0
ARC
8
front_labelLayer
10
259.3427521
20
14.9662099
40
2.104275
50
169.2442975
51
180.3880788
0
ARC
8
front_labelLayer
10
258.6281526
20
15.1074606
40
1.3758799
50
150.7111035
51
169.4695583
0
ARC
8
front_labelLayer
10
258.4000343
20
15.2246089
40
1.1196525
50
138.1759271
51
150.2287439
0
ARC
8
front_labelLayer
10
258.3620898
20
15.2537273
40
1.0719651
50
99.1759431
51
137.9832829
0
ARC
8
front_labelLayer
10
258.4665319
20
14.7622163
40
1.5740354
50
89.7326341
51
100.0760179
0
ARC
8
front_labelLayer
10
258.4874069
20
14.9744828
40
1.3618189
50
73.5222697
51
90.5692545
0
ARC
8
front_labelLayer
10
258.5672699
20
15.2646443
40
1.0609371
50
41.1445375
51
73.2134081
0
ARC
8
front_labelLayer
10
258.4148167
20
15.1336126
40
1.2619572
50
13.5014371
51
41.0703286
0
ARC
8
front_labelLayer
10
257.8258136
20
14.9794794
40
1.870709
50
1.1277525
51
13.8799735
0
ARC
8
front_labelLayer
10
257.3182442
20
14.9522862
40
2.3787775
50
359.9920745
51
1.5419923
0
ARC
8
front_labelLayer
10
259.7107175
20
14.941425
40
2.0522972
50
179.7059623
51
187.9160759
0
ARC
8
front_labelLayer
10
258.9580101
20
14.8333006
40
1.2918759
50
187.7639807
51
200.0976275
0
ARC
8
front_labelLayer
10
258.5433342
20
14.6813648
40
0.8502419
50
200.0846249
51
216.9130786
0
ARC
8
front_labelLayer
10
258.3919054
20
14.5732383
40
0.6642415
50
217.3009192
51
261.7099505
0
ARC
8
front_labelLayer
10
258.4622005
20
14.9086727
40
1.0065296
50
260.5032898
51
270.2477491
0
ARC
8
front_labelLayer
10
258.4756197
20
14.8434502
40
0.9413414
50
269.4481197
51
284.7256031
0
ARC
8
front_labelLayer
10
258.5501401
20
14.5670807
40
0.6551096
50
284.5662238
51
322.6334155
0
ARC
8
front_labelLayer
10
258.3759031
20
14.6929594
40
0.8700038
50
323.0089434
51
342.6389802
0
ARC
8
front_labelLayer
10
257.8775762
20
14.8558281
40
1.3942436
50
342.3614914
51
353.7538041
0
ARC
8
front_labelLayer
10
257.1423436
20
14.9444526
40
2.1347692
50
353.536284
51
0.2014178
0
ARC
8
front_labelLayer
10
257.2549815
20
14.9622768
40
2.0221445
50
359.7076012
51
7.8973002
0
ARC
8
front_labelLayer
10
257.9955564
20
15.0684473
40
1.2740104
50
7.7439373
51
20.0690458
0
ARC
8
front_labelLayer
10
258.408223
20
15.2198815
40
0.8344361
50
20.0256764
51
37.4350845
0
ARC
8
front_labelLayer
10
258.5451417
20
15.3170371
40
0.6666874
50
37.9577905
51
80.4006294
0
ARC
8
front_labelLayer
10
258.4673347
20
14.9698725
40
1.0221393
50
79.345333
51
90.3175412
0
ARC
8
front_labelLayer
10
258.4529264
20
15.0275318
40
0.964504
50
89.4805913
51
103.8804949
0
ARC
8
front_labelLayer
10
258.3718836
20
15.3361443
40
0.6454783
50
103.4685436
51
142.3118899
0
ARC
8
front_labelLayer
10
258.5294374
20
15.2253415
40
0.8379439
50
142.9025848
51
162.3749848
0
ARC
8
front_labelLayer
10
259.0258991
20
15.0598969
40
1.3612153
50
162.0653286
51
173.1674421
0
ARC
8
front_labelLayer
10
259.7999802
20
14.9611664
40
2.1415529
50
173.0085677
51
180.2463882
0
LINE
8
front_labelLayer
10
262.6437988
20
13.6116252
11
262.2385254
21
13.6116252
0
LINE
8
front_labelLayer
10
262.2385254
20
13.6116252
11
262.2385254
21
15.3425822
0
LINE
8
front_labelLayer
10
260.8127441
20
15.0154338
11
260.8127441
21
13.6116252
0
LINE
8
front_labelLayer
10
260.8127441
20
13.6116252
11
260.4074707
21
13.6116252
0
LINE
8
front_labelLayer
10
260.4074707
20
13.6116252
11
260.4074707
21
16.2874064
0
LINE
8
front_labelLayer
10
260.4074707
20
16.2874064
11
260.7370605
21
16.2874064
0
LINE
8
front_labelLayer
10
260.7370605
20
16.2874064
11
260.8029785
21
15.9211955
0
LINE
8
front_labelLayer
10
260.8029785
20
15.9211955
11
260.8225098
21
15.9211955
0
LINE
8
front_labelLayer
10
262.6437988
20
15.3572306
11
262.6437988
21
13.6116252
0
ARC
8
front_labelLayer
10
261.0929435
20
15.3491521
40
1.1456007
50
359.6714119
51
8.6877663
0
ARC
8
front_labelLayer
10
261.5175365
20
15.416491
40
0.7157121
50
8.4931106
51
22.6580452
0
ARC
8
front_labelLayer
10
261.733259
20
15.5061397
40
0.4821038
50
22.7023903
51
42.3420753
0
ARC
8
front_labelLayer
10
261.7575028
20
15.517044
40
0.4569146
50
43.3791446
51
71.5385507
0
ARC
8
front_labelLayer
10
261.6668264
20
15.2636702
40
0.7259861
50
71.0827818
51
84.3690559
0
ARC
8
front_labelLayer
10
261.6261239
20
14.9175937
40
1.0744062
50
84.0198126
51
90.1510699
0
ARC
8
front_labelLayer
10
261.6145847
20
14.7654589
40
1.2265682
50
89.5933059
51
100.3718551
0
ARC
8
front_labelLayer
10
261.5279043
20
15.220237
40
0.7636232
50
100.1176776
51
118.1602542
0
ARC
8
front_labelLayer
10
261.4405514
20
15.3915297
40
0.5713939
50
118.5439691
51
139.192689
0
ARC
8
front_labelLayer
10
261.5167205
20
15.3404194
40
0.6625415
50
140.1519467
51
160.3145717
0
ARC
8
front_labelLayer
10
261.9766746
20
15.1681425
40
1.1536695
50
159.9535027
51
171.3800561
0
ARC
8
front_labelLayer
10
262.7279978
20
15.0473723
40
1.914619
50
171.1766208
51
178.3217795
0
ARC
8
front_labelLayer
10
263.4093584
20
15.0165
40
2.5966145
50
178.0811637
51
180.0235277
0
ARC
8
front_labelLayer
10
261.5157925
20
15.4821167
40
0.8206285
50
116.9443284
51
147.6525737
0
ARC
8
front_labelLayer
10
261.6012227
20
15.3392222
40
0.9867877
50
115.8071665
51
117.6066939
0
ARC
8
front_labelLayer
10
261.6448776
20
15.2374289
40
1.0974449
50
94.3227173
51
115.5453892
0
ARC
8
front_labelLayer
10
261.6711414
20
15.0092863
40
1.3269487
50
89.9577806
51
94.7110242
0
ARC
8
front_labelLayer
10
261.6820003
20
14.7361785
40
1.6000865
50
80.5585227
51
90.3538264
0
ARC
8
front_labelLayer
10
261.781998
20
15.315396
40
1.0123182
50
65.1093591
51
80.7638742
0
ARC
8
front_labelLayer
10
261.8988868
20
15.574298
40
0.7282738
50
46.5584481
51
64.8782677
0
ARC
8
front_labelLayer
10
261.908242
20
15.6012671
40
0.7023577
50
19.3848814
51
45.5997402
0
ARC
8
front_labelLayer
10
261.501895
20
15.4488002
40
1.1363098
50
6.9634107
51
19.8362741
0
ARC
8
front_labelLayer
10
260.8751984
20
15.3645402
40
1.7686156
50
359.7631981
51
7.2115807
0
LINE
8
front_labelLayer
10
264.7067871
20
13.9460978
11
264.7067871
21
13.6360392
0
LINE
8
front_labelLayer
10
263.5056152
20
14.3806681
11
263.5056152
21
15.972465
0
LINE
8
front_labelLayer
10
263.5056152
20
15.972465
11
263.1223145
21
15.972465
0
LINE
8
front_labelLayer
10
263.1223145
20
15.972465
11
263.1223145
21
16.1677775
0
LINE
8
front_labelLayer
10
263.1223145
20
16.1677775
11
263.5056152
21
16.3362345
0
LINE
8
front_labelLayer
10
263.5056152
20
16.3362345
11
263.6765137
21
16.9075236
0
LINE
8
front_labelLayer
10
263.6765137
20
16.9075236
11
263.9108887
21
16.9075236
0
LINE
8
front_labelLayer
10
263.9108887
20
16.9075236
11
263.9108887
21
16.2874064
0
LINE
8
front_labelLayer
10
263.9108887
20
16.2874064
11
264.6872559
21
16.2874064
0
LINE
8
front_labelLayer
10
264.6872559
20
16.2874064
11
264.6872559
21
15.972465
0
LINE
8
front_labelLayer
10
264.6872559
20
15.972465
11
263.9108887
21
15.972465
0
LINE
8
front_labelLayer
10
263.9108887
20
15.972465
11
263.9108887
21
14.397758
0
ARC
8
front_labelLayer
10
264.3433568
20
15.2282309
40
1.3309642
50
269.8802997
51
278.3028363
0
ARC
8
front_labelLayer
10
264.3561196
20
15.1240095
40
1.2259943
50
278.4159829
51
279.0089104
0
ARC
8
front_labelLayer
10
264.2066872
20
16.0786981
40
2.1923063
50
278.9591523
51
280.5106391
0
ARC
8
front_labelLayer
10
264.3489019
20
15.3156183
40
1.4160879
50
280.4851954
51
282.6264461
0
ARC
8
front_labelLayer
10
264.4738501
20
14.7604754
40
0.847058
50
282.587502
51
285.5796152
0
ARC
8
front_labelLayer
10
264.5360512
20
14.5316118
40
0.6098994
50
285.7253995
51
286.2566896
0
ARC
8
front_labelLayer
10
264.5364011
20
13.9964134
40
0.3986239
50
287.9888329
51
295.3049282
0
ARC
8
front_labelLayer
10
264.4402614
20
14.2872734
40
0.7049584
50
283.3068847
51
288.1199544
0
ARC
8
front_labelLayer
10
264.3386647
20
14.7110818
40
1.140773
50
280.0070995
51
283.3733034
0
ARC
8
front_labelLayer
10
264.2708768
20
15.0788529
40
1.5147311
50
279.1862642
51
280.1148614
0
ARC
8
front_labelLayer
10
264.229025
20
15.316949
40
1.756458
50
275.5259205
51
279.2940497
0
ARC
8
front_labelLayer
10
264.2760185
20
14.8260817
40
1.2633467
50
270.8932729
51
275.5483032
0
ARC
8
front_labelLayer
10
264.2819405
20
14.600615
40
1.0378179
50
270.0023145
51
270.7604253
0
ARC
8
front_labelLayer
10
264.2656278
20
14.6211814
40
1.0585107
50
253.7847598
51
270.8852869
0
ARC
8
front_labelLayer
10
264.1402225
20
14.1935039
40
0.6128283
50
190.3817649
51
253.8772393
0
ARC
8
front_labelLayer
10
264.7794191
20
14.3663308
40
1.2738846
50
179.3551319
51
192.847745
0
ARC
8
front_labelLayer
10
264.7269435
20
14.3926529
40
0.8160708
50
179.6415763
51
189.7507023
0
ARC
8
front_labelLayer
10
264.438869
20
14.3412702
40
0.5234589
50
189.5480204
51
205.7872936
0
ARC
8
front_labelLayer
10
264.3204718
20
14.2866742
40
0.3931082
50
206.1294381
51
221.4083293
0
ARC
8
front_labelLayer
10
264.3071953
20
14.2766013
40
0.3764902
50
221.5949792
51
262.3504868
0
ARC
8
front_labelLayer
10
264.3387686
20
14.4389664
40
0.5416998
50
261.3266402
51
270.1911896
0
LINE
8
left_outsideCutPath
10
521
20
28
11
521
21
3
0
LINE
8
left_outsideCutPath
10
521
20
3
11
1151
21
3
0
LINE
8
left_outsideCutPath
10
1151
20
3
11
1151
21
28
0
LINE
8
left_outsideCutPath
10
1151
20
28
11
521
21
28
0
LINE
8
left_labelLayer
10
832.907959
20
17.4104533
11
832.907959
21
13.6116252
0
LINE
8
left_labelLayer
10
832.907959
20
13.6116252
11
832.5026855
21
13.6116252
0
LINE
8
left_labelLayer
10
832.5026855
20
13.6116252
11
832.5026855
21
17.4104533
0
LINE
8
left_labelLayer
10
832.5026855
20
17.4104533
11
832.907959
21
17.4104533
0
LINE
8
left_labelLayer
10
835.8815918
20
15.1326213
11
835.8815918
21
14.8762736
0
LINE
8
left_labelLayer
10
835.8815918
20
14.8762736
11
834.0383301
21
14.8762736
0
LINE
8
left_labelLayer
10
835.7668457
20
14.097465
11
835.7668457
21
13.7361369
0
LINE
8
left_labelLayer
10
834.0480957
20
15.2058634
11
835.4470215
21
15.2058634
0
ARC
8
left_labelLayer
10
834.8843792
20
15.1376151
40
1.5748744
50
256.0088004
51
270.4848157
0
ARC
8
left_labelLayer
10
834.7696982
20
14.692397
40
1.1151438
50
223.5465863
51
256.1956754
0
ARC
8
left_labelLayer
10
834.8329612
20
14.738377
40
1.1927196
50
194.0877038
51
223.0538203
0
ARC
8
left_labelLayer
10
835.4126372
20
14.8968975
40
1.7935911
50
181.3574441
51
194.4919932
0
ARC
8
left_labelLayer
10
835.9332332
20
14.9270809
40
2.3148249
50
179.9885586
51
181.7990718
0
ARC
8
left_labelLayer
10
835.7464512
20
14.9418174
40
2.1280908
50
168.9539475
51
180.3843165
0
ARC
8
left_labelLayer
10
835.0514207
20
15.0833368
40
1.4188336
50
149.4071083
51
169.1853861
0
ARC
8
left_labelLayer
10
834.8577742
20
15.1856514
40
1.200116
50
140.1056099
51
148.9067443
0
ARC
8
left_labelLayer
10
834.7388069
20
15.2953335
40
1.0385233
50
92.4762588
51
140.5386223
0
ARC
8
left_labelLayer
10
834.791817
20
14.903652
40
1.4325828
50
89.9637009
51
93.9177355
0
ARC
8
left_labelLayer
10
834.8044699
20
15.1015809
40
1.2347095
50
74.2125748
51
90.5450382
0
ARC
8
left_labelLayer
10
834.8818031
20
15.3865089
40
0.9394947
50
41.2064711
51
74.0232724
0
ARC
8
left_labelLayer
10
834.7353462
20
15.2597622
40
1.1331782
50
11.5994283
51
41.1495697
0
ARC
8
left_labelLayer
10
834.2321392
20
15.1437121
40
1.6494899
50
359.6147505
51
12.0336637
0
ARC
8
left_labelLayer
10
835.6646253
20
14.9087708
40
1.6266199
50
181.1447515
51
190.8007418
0
ARC
8
left_labelLayer
10
835.0907695
20
14.7955893
40
1.041727
50
190.6005762
51
206.0275437
0
ARC
8
left_labelLayer
10
834.8368766
20
14.6755594
40
0.760922
50
206.295016
51
222.5558261
0
ARC
8
left_labelLayer
10
834.814381
20
14.6637811
40
0.7364146
50
223.0645044
51
258.1401473
0
ARC
8
left_labelLayer
10
834.9039419
20
15.0325584
40
1.1157891
50
257.5311994
51
270.4319409
0
ARC
8
left_labelLayer
10
834.9049421
20
16.0572609
40
2.1404728
50
270.1983886
51
292.2090272
0
ARC
8
left_labelLayer
10
834.8021193
20
16.3525509
40
2.4527759
50
291.8254309
51
293.1612526
0
ARC
8
left_labelLayer
10
834.7972528
20
15.9675135
40
2.4329308
50
287.902222
51
293.4862357
0
ARC
8
left_labelLayer
10
834.9737094
20
15.4230793
40
1.8606151
50
281.9936581
51
287.8850582
0
ARC
8
left_labelLayer
10
835.0164988
20
15.269279
40
1.7013093
50
275.9054094
51
281.6604124
0
ARC
8
left_labelLayer
10
834.9308609
20
16.0686333
40
2.5052341
50
271.912059
51
275.9726642
0
ARC
8
left_labelLayer
10
834.8996169
20
16.8644624
40
3.3016658
50
269.9668234
51
271.9931594
0
ARC
8
left_labelLayer
10
834.7800641
20
15.1980302
40
0.7988867
50
89.4421818
51
106.2089452
0
ARC
8
left_labelLayer
10
834.7320042
20
15.3732677
40
0.6172054
50
106.4657548
51
137.9175782
0
ARC
8
left_labelLayer
10
834.8697987
20
15.2522627
40
0.8005754
50
138.0995098
51
160.5866564
0
ARC
8
left_labelLayer
10
835.2240045
20
15.1219572
40
1.1779655
50
160.335389
51
172.5315255
0
ARC
8
left_labelLayer
10
835.5727836
20
15.0660703
40
1.5310832
50
172.1543794
51
174.7614035
0
ARC
8
left_labelLayer
10
834.0660093
20
15.2137076
40
1.3810345
50
359.6745649
51
8.922455
0
ARC
8
left_labelLayer
10
834.5594904
20
15.2941126
40
0.8810591
50
8.7342306
51
23.2772249
0
ARC
8
left_labelLayer
10
834.7937632
20
15.392456
40
0.6269961
50
23.4820553
51
39.7072274
0
ARC
8
left_labelLayer
10
834.8513052
20
15.4355164
40
0.5552298
50
40.0822728
51
80.6243494
0
ARC
8
left_labelLayer
10
834.7920731
20
15.1640012
40
0.8328885
50
79.6468224
51
90.291078
0
LINE
8
left_labelLayer
10
837.7785645
20
16.2874064
11
837.7785645
21
15.972465
0
LINE
8
left_labelLayer
10
837.7785645
20
15.972465
11
837.0974121
21
15.972465
0
LINE
8
left_labelLayer
10
837.0974121
20
15.972465
11
837.0974121
21
13.6116252
0
LINE
8
left_labelLayer
10
837.0974121
20
13.6116252
11
836.6921387
21
13.6116252
0
LINE
8
left_labelLayer
10
836.6921387
20
13.6116252
11
836.6921387
21
15.972465
0
LINE
8
left_labelLayer
10
836.6921387
20
15.972465
11
836.213623
21
15.972465
0
LINE
8
left_labelLayer
10
836.213623
20
15.972465
11
836.213623
21
16.1555705
0
LINE
8
left_labelLayer
10
836.213623
20
16.1555705
11
836.6921387
21
16.3020548
0
LINE
8
left_labelLayer
10
836.6921387
20
16.3020548
11
836.6921387
21
16.4509806
0
LINE
8
left_labelLayer
10
838.052002
20
17.3518595
11
837.9470215
21
17.0271525
0
LINE
8
left_labelLayer
10
837.0974121
20
16.4607463
11
837.0974121
21
16.2874064
0
LINE
8
left_labelLayer
10
837.0974121
20
16.2874064
11
837.7785645
21
16.2874064
0
ARC
8
left_labelLayer
10
838.3345778
20
16.4698621
40
1.6425477
50
167.5776283
51
180.6586437
0
ARC
8
left_labelLayer
10
837.5621917
20
16.6499373
40
0.8495627
50
141.7433413
51
168.2322422
0
ARC
8
left_labelLayer
10
837.4364355
20
16.7155725
40
0.7106607
50
98.2551437
51
139.6203136
0
ARC
8
left_labelLayer
10
837.5468546
20
16.2054783
40
1.231851
50
89.669739
51
99.9314354
0
ARC
8
left_labelLayer
10
837.5471614
20
16.1322453
40
1.3050811
50
81.5641331
51
89.7017438
0
ARC
8
left_labelLayer
10
837.4554103
20
15.4921415
40
1.9517221
50
75.9740582
51
81.6564947
0
ARC
8
left_labelLayer
10
837.2979934
20
14.8392077
40
2.6233468
50
73.2962995
51
76.0946657
0
ARC
8
left_labelLayer
10
837.3375923
20
15.1558105
40
1.9680764
50
71.9614234
51
76.5917286
0
ARC
8
left_labelLayer
10
837.4902974
20
15.8035894
40
1.302545
50
76.5182849
51
83.0217313
0
ARC
8
left_labelLayer
10
837.5434791
20
16.2312872
40
0.8715546
50
83.0760007
51
89.7928058
0
ARC
8
left_labelLayer
10
837.5417262
20
16.5563039
40
0.5465542
50
89.485836
51
103.4196916
0
ARC
8
left_labelLayer
10
837.492451
20
16.7456159
40
0.3509978
50
102.7677295
51
144.3380635
0
ARC
8
left_labelLayer
10
837.5917251
20
16.6817423
40
0.4689317
50
145.0689248
51
162.1800984
0
ARC
8
left_labelLayer
10
837.932087
20
16.5672286
40
0.8280226
50
161.8437984
51
171.7847242
0
ARC
8
left_labelLayer
10
838.4872033
20
16.4838501
40
1.3893604
50
171.6527305
51
178.4384165
0
ARC
8
left_labelLayer
10
839.0108965
20
16.4615139
40
1.9134847
50
178.197175
51
180.0229845
0
LINE
8
left_labelLayer
10
839.4973145
20
13.9460978
11
839.4973145
21
13.6360392
0
LINE
8
left_labelLayer
10
838.2961426
20
14.3806681
11
838.2961426
21
15.972465
0
LINE
8
left_labelLayer
10
838.2961426
20
15.972465
11
837.9128418
21
15.972465
0
LINE
8
left_labelLayer
10
837.9128418
20
15.972465
11
837.9128418
21
16.1677775
0
LINE
8
left_labelLayer
10
837.9128418
20
16.1677775
11
838.2961426
21
16.3362345
0
LINE
8
left_labelLayer
10
838.2961426
20
16.3362345
11
838.467041
21
16.9075236
0
LINE
8
left_labelLayer
10
838.467041
20
16.9075236
11
838.701416
21
16.9075236
0
LINE
8
left_labelLayer
10
838.701416
20
16.9075236
11
838.701416
21
16.2874064
0
LINE
8
left_labelLayer
10
838.701416
20
16.2874064
11
839.4777832
21
16.2874064
0
LINE
8
left_labelLayer
10
839.4777832
20
16.2874064
11
839.4777832
21
15.972465
0
LINE
8
left_labelLayer
10
839.4777832
20
15.972465
11
838.701416
21
15.972465
0
LINE
8
left_labelLayer
10
838.701416
20
15.972465
11
838.701416
21
14.397758
0
ARC
8
left_labelLayer
10
839.1338841
20
15.2282309
40
1.3309642
50
269.8802997
51
278.3028363
0
ARC
8
left_labelLayer
10
839.1466469
20
15.1240095
40
1.2259943
50
278.4159829
51
279.0089104
0
ARC
8
left_labelLayer
10
838.9972146
20
16.0786981
40
2.1923063
50
278.9591523
51
280.5106391
0
ARC
8
left_labelLayer
10
839.1394292
20
15.3156183
40
1.4160879
50
280.4851954
51
282.6264461
0
ARC
8
left_labelLayer
10
839.2643774
20
14.7604754
40
0.847058
50
282.587502
51
285.5796152
0
ARC
8
left_labelLayer
10
839.3265785
20
14.5316118
40
0.6098994
50
285.7253995
51
286.2566896
0
ARC
8
left_labelLayer
10
839.3269284
20
13.9964134
40
0.3986239
50
287.9888329
51
295.3049282
0
ARC
8
left_labelLayer
10
839.2307887
20
14.2872734
40
0.7049584
50
283.3068847
51
288.1199544
0
ARC
8
left_labelLayer
10
839.129192
20
14.7110818
40
1.140773
50
280.0070995
51
283.3733034
0
ARC
8
left_labelLayer
10
839.0614041
20
15.0788529
40
1.5147311
50
279.1862642
51
280.1148614
0
ARC
8
left_labelLayer
10
839.0195524
20
15.316949
40
1.756458
50
275.5259205
51
279.2940497
0
ARC
8
left_labelLayer
10
839.0665458
20
14.8260817
40
1.2633467
50
270.8932729
51
275.5483032
0
ARC
8
left_labelLayer
10
839.0724678
20
14.600615
40
1.0378179
50
270.0023145
51
270.7604253
0
ARC
8
left_labelLayer
10
839.0561552
20
14.6211814
40
1.0585107
50
253.7847598
51
270.8852869
0
ARC
8
left_labelLayer
10
838.9307499
20
14.1935039
40
0.6128283
50
190.3817649
51
253.8772393
0
ARC
8
left_labelLayer
10
839.5699465
20
14.3663308
40
1.2738846
50
179.3551319
51
192.847745
0
ARC
8
left_labelLayer
10
839.5174709
20
14.3926529
40
0.8160708
50
179.6415763
51
189.7507023
0
ARC
8
left_labelLayer
10
839.2293964
20
14.3412702
40
0.5234589
50
189.5480204
51
205.7872936
0
ARC
8
left_labelLayer
10
839.1109991
20
14.2866742
40
0.3931082
50
206.1294381
51
221.4083293
0
ARC
8
left_labelLayer
10
839.0977227
20
14.2766013
40
0.3764902
50
221.5949792
51
262.3504868
0
ARC
8
left_labelLayer
10
839.1292959
20
14.4389664
40
0.5416998
50
261.3266402
51
270.1911896
0
LINE
8
top_outsideCutPath
10
1154
20
651
11
1154
21
3
0
LINE
8
top_outsideCutPath
10
1154
20
3
11
1672
21
3
0
LINE
8
top_outsideCutPath
10
1672
20
3
11
1672
21
651
0
LINE
8
top_outsideCutPath
10
1672
20
651
11
1154
21
651
0
LINE
8
top_labelLayer
10
1368.1804309
20
312.2289062
11
1368.1804309
21
305.8044922
0
LINE
8
top_labelLayer
10
1343.2921497
20
321.2332031
11
1343.2921497
21
354.2152344
0
LINE
8
top_labelLayer
10
1343.2921497
20
354.2152344
11
1335.3501575
21
354.2152344
0
LINE
8
top_labelLayer
10
1335.3501575
20
354.2152344
11
1335.3501575
21
358.2621094
0
LINE
8
top_labelLayer
10
1335.3501575
20
358.2621094
11
1343.2921497
21
361.7525391
0
LINE
8
top_labelLayer
10
1343.2921497
20
361.7525391
11
1346.8331653
21
373.5896484
0
LINE
8
top_labelLayer
10
1346.8331653
20
373.5896484
11
1351.6894153
21
373.5896484
0
LINE
8
top_labelLayer
10
1351.6894153
20
373.5896484
11
1351.6894153
21
360.7408203
0
LINE
8
top_labelLayer
10
1351.6894153
20
360.7408203
11
1367.7757434
21
360.7408203
0
LINE
8
top_labelLayer
10
1367.7757434
20
360.7408203
11
1367.7757434
21
354.2152344
0
LINE
8
top_labelLayer
10
1367.7757434
20
354.2152344
11
1351.6894153
21
354.2152344
0
LINE
8
top_labelLayer
10
1351.6894153
20
354.2152344
11
1351.6894153
21
321.5873047
0
ARC
8
top_labelLayer
10
1360.6501277
20
338.7949109
40
27.5777835
50
269.880356
51
278.3028292
0
ARC
8
top_labelLayer
10
1360.9125277
20
336.6507373
40
25.4182411
50
278.4154898
51
279.0080525
0
ARC
8
top_labelLayer
10
1357.8183032
20
356.4176127
40
45.4258081
50
278.9589839
51
280.510429
0
ARC
8
top_labelLayer
10
1360.7672131
20
340.5948505
40
29.3306036
50
280.4847782
51
282.6268129
0
ARC
8
top_labelLayer
10
1363.3535549
20
329.1044543
40
17.5527376
50
282.587674
51
285.5794978
0
ARC
8
top_labelLayer
10
1364.6484999
20
324.3415709
40
12.6170987
50
285.7240197
51
286.2561527
0
ARC
8
top_labelLayer
10
1364.6499888
20
313.2715824
40
8.2596282
50
287.988827
51
295.3047961
0
ARC
8
top_labelLayer
10
1362.6578322
20
319.2987881
40
14.6074834
50
283.3069409
51
288.1197647
0
ARC
8
top_labelLayer
10
1360.5533744
20
328.0771268
40
23.6345267
50
280.0069947
51
283.3735248
0
ARC
8
top_labelLayer
10
1359.1450243
20
335.7200491
40
31.4059554
50
279.1863299
51
280.1143142
0
ARC
8
top_labelLayer
10
1358.2809149
20
340.6351019
40
36.3959851
50
275.5260404
51
279.2939443
0
ARC
8
top_labelLayer
10
1359.2549194
20
330.4616827
40
26.1760536
50
270.8932571
51
275.5483745
0
ARC
8
top_labelLayer
10
1359.3772947
20
325.8129452
40
21.5260311
50
270.0031491
51
270.7604694
0
ARC
8
top_labelLayer
10
1359.0396216
20
326.2167212
40
21.9324249
50
253.784794
51
270.8852556
0
ARC
8
top_labelLayer
10
1356.441213
20
317.35516
40
12.6978016
50
190.3817654
51
253.8772403
0
ARC
8
top_labelLayer
10
1369.6852718
20
320.9361181
40
26.394794
50
179.3550972
51
192.8477588
0
ARC
8
top_labelLayer
10
1368.5984028
20
321.4815506
40
16.9093182
50
179.6416591
51
189.7505868
0
ARC
8
top_labelLayer
10
1362.6290823
20
320.4168506
40
10.8459793
50
189.5479534
51
205.7873609
0
ARC
8
top_labelLayer
10
1360.1759427
20
319.2856315
40
8.1451643
50
206.1294358
51
221.4083983
0
ARC
8
top_labelLayer
10
1359.900883
20
319.0769216
40
7.8008618
50
221.5949205
51
262.350515
0
ARC
8
top_labelLayer
10
1360.555065
20
322.440983
40
11.223858
50
261.3266276
51
270.1913051
0
ARC
8
top_labelLayer
10
1383.7387232
20
332.7778961
40
43.3753106
50
349.1761913
51
0.3862648
0
ARC
8
top_labelLayer
10
1398.3421599
20
329.8666729
40
28.4852227
50
330.2507071
51
349.4116464
0
ARC
8
top_labelLayer
10
1402.8363605
20
327.5307656
40
23.4251157
50
318.143976
51
329.7566215
0
ARC
8
top_labelLayer
10
1403.6475038
20
326.8807149
40
22.3872759
50
278.8959164
51
317.9979138
0
ARC
8
top_labelLayer
10
1401.5575051
20
336.8940779
40
32.6074735
50
269.7502868
51
279.8033249
0
ARC
8
top_labelLayer
10
1401.2185481
20
331.252173
40
26.9659774
50
253.5436951
51
270.4182462
0
ARC
8
top_labelLayer
10
1400.3209039
20
327.7798588
40
23.3819368
50
238.8115531
51
253.2428348
0
ARC
8
top_labelLayer
10
1400.0312033
20
327.1972732
40
22.7335941
50
207.7947018
51
238.6757969
0
ARC
8
top_labelLayer
10
1404.1885381
20
329.7434076
40
27.6003313
50
205.6560372
51
208.4461082
0
ARC
8
top_labelLayer
10
1407.3901192
20
331.0773653
40
31.0643708
50
188.9102474
51
205.3171439
0
ARC
8
top_labelLayer
10
1418.180795
20
332.9049573
40
42.0081113
50
179.7744679
51
189.0932869
0
ARC
8
top_labelLayer
10
1419.7725749
20
333.3656276
40
43.600566
50
169.244294
51
180.3880784
0
ARC
8
top_labelLayer
10
1404.966173
20
336.2923185
40
28.5083213
50
150.7111479
51
169.4695434
0
ARC
8
top_labelLayer
10
1400.2395115
20
338.7196321
40
23.1992447
50
138.1759456
51
150.2287395
0
ARC
8
top_labelLayer
10
1399.4532619
20
339.3229857
40
22.2111166
50
99.1759371
51
137.9832744
0
ARC
8
top_labelLayer
10
1401.6173041
20
329.1387518
40
32.6141424
50
89.7326364
51
100.0759791
0
ARC
8
top_labelLayer
10
1402.0498198
20
333.5369878
40
28.2169438
50
73.5222743
51
90.5692248
0
ARC
8
top_labelLayer
10
1403.7045777
20
339.54916
40
21.9826507
50
41.1445649
51
73.213385
0
ARC
8
top_labelLayer
10
1400.5457779
20
336.8342149
40
26.1477412
50
13.5014367
51
41.0703408
0
ARC
8
top_labelLayer
10
1388.3418038
20
333.6405983
40
38.7609059
50
1.1277198
51
13.8800015
0
ARC
8
top_labelLayer
10
1377.8297873
20
333.0772723
40
49.2832615
50
359.9919087
51
1.541984
0
ARC
8
top_labelLayer
10
1427.3968069
20
332.8520859
40
42.5235765
50
179.7059627
51
187.9160805
0
ARC
8
top_labelLayer
10
1411.8004851
20
330.6116875
40
26.7674156
50
187.763924
51
200.0976881
0
ARC
8
top_labelLayer
10
1403.2085319
20
327.4635833
40
17.6168857
50
200.0845885
51
216.9131632
0
ARC
8
top_labelLayer
10
1400.0710564
20
325.2232787
40
13.7631071
50
217.3009575
51
261.709908
0
ARC
8
top_labelLayer
10
1401.5275813
20
332.1736761
40
20.8555114
50
260.5033219
51
270.2476792
0
ARC
8
top_labelLayer
10
1401.8055894
20
330.8221486
40
19.5046938
50
269.448164
51
284.7255682
0
ARC
8
top_labelLayer
10
1403.349661
20
325.0956847
40
13.5738845
50
284.5662307
51
322.6333835
0
ARC
8
top_labelLayer
10
1399.7395411
20
327.7038354
40
18.026401
50
323.0089267
51
342.6390474
0
ARC
8
top_labelLayer
10
1389.4138369
20
331.078573
40
28.8890346
50
342.3615687
51
353.7537594
0
ARC
8
top_labelLayer
10
1374.1799392
20
332.9148186
40
44.232601
50
353.53631
51
0.2014162
0
ARC
8
top_labelLayer
10
1376.514008
20
333.2841603
40
41.8988046
50
359.7075661
51
7.8972712
0
ARC
8
top_labelLayer
10
1391.8585305
20
335.4839405
40
26.3976601
50
7.7439903
51
20.0690212
0
ARC
8
top_labelLayer
10
1400.4090965
20
338.6216793
40
17.289569
50
20.0257016
51
37.4350565
0
ARC
8
top_labelLayer
10
1403.2460978
20
340.6347738
40
13.8137601
50
37.9577669
51
80.4006174
0
ARC
8
top_labelLayer
10
1401.6339181
20
333.4413898
40
21.1788572
50
79.3453426
51
90.3174837
0
ARC
8
top_labelLayer
10
1401.3353998
20
334.6362319
40
19.9845112
50
89.4805942
51
103.8805066
0
ARC
8
top_labelLayer
10
1399.6561842
20
341.0306746
40
13.3743037
50
103.4685223
51
142.3118913
0
ARC
8
top_labelLayer
10
1402.9207169
20
338.7348232
40
17.3622139
50
142.9025766
51
162.3749593
0
ARC
8
top_labelLayer
10
1413.2072711
20
335.306858
40
28.2042544
50
162.065319
51
173.1674819
0
ARC
8
top_labelLayer
10
1429.2466734
20
333.2611269
40
44.3732933
50
173.0086162
51
180.2463845
0
LINE
8
top_labelLayer
10
1450.2308216
20
312.43125
11
1449.6237903
21
312.43125
0
LINE
8
top_labelLayer
10
1450.2308216
20
303.2246094
11
1450.2308216
21
280.4103516
0
LINE
8
top_labelLayer
10
1450.2308216
20
280.4103516
11
1441.8335559
21
280.4103516
0
LINE
8
top_labelLayer
10
1441.8335559
20
280.4103516
11
1441.8335559
21
360.7408203
0
LINE
8
top_labelLayer
10
1441.8335559
20
360.7408203
11
1448.6626575
21
360.7408203
0
LINE
8
top_labelLayer
10
1448.6626575
20
360.7408203
11
1449.8261341
21
353.1529297
0
LINE
8
top_labelLayer
10
1449.8261341
20
353.1529297
11
1450.2308216
21
353.1529297
0
LINE
8
top_labelLayer
10
1450.2308216
20
334.9419922
11
1450.2308216
21
333.0703125
0
ARC
8
top_labelLayer
10
1467.4907766
20
329.7572469
40
25.4707265
50
255.7755377
51
270.3185443
0
ARC
8
top_labelLayer
10
1466.7639098
20
326.5278593
40
22.1619222
50
245.9801584
51
255.545578
0
ARC
8
top_labelLayer
10
1465.3560487
20
323.253869
40
18.5984293
50
215.5850204
51
245.836165
0
ARC
8
top_labelLayer
10
1370.7817396
20
302.4682571
40
79.4690518
50
2.9503244
51
7.2020927
0
ARC
8
top_labelLayer
10
1383.6392117
20
303.187618
40
66.5916202
50
0.0318276
51
2.9015981
0
ARC
8
top_labelLayer
10
1468.7283252
20
340.1621111
40
22.6035177
50
132.3565068
51
144.919587
0
ARC
8
top_labelLayer
10
1465.2656571
20
343.9397749
40
17.4790104
50
115.4006139
51
132.3118344
0
ARC
8
top_labelLayer
10
1466.6163276
20
340.6517226
40
21.029433
50
97.7066282
51
114.8821495
0
ARC
8
top_labelLayer
10
1467.5596251
20
334.5340585
40
27.2185779
50
89.8468405
51
97.9474303
0
ARC
8
top_labelLayer
10
1467.8922756
20
336.0140727
40
25.7397784
50
74.1923547
51
90.5785187
0
ARC
8
top_labelLayer
10
1469.6733242
20
342.4885604
40
19.025038
50
38.0523427
51
74.0417321
0
ARC
8
top_labelLayer
10
1464.7608786
20
338.7233808
40
25.2141978
50
16.3356004
51
37.9090574
0
ARC
8
top_labelLayer
10
1451.8557432
20
334.7485209
40
38.7167836
50
4.5766583
51
16.6088745
0
ARC
8
top_labelLayer
10
1435.9679168
20
333.1654223
40
54.6811516
50
359.9003424
51
4.901814
0
ARC
8
top_labelLayer
10
1441.4147173
20
332.7798376
40
49.2351252
50
350.6562819
51
0.3380327
0
ARC
8
top_labelLayer
10
1458.5788836
20
329.860402
40
31.8248395
50
335.8305958
51
350.8254829
0
ARC
8
top_labelLayer
10
1466.1290969
20
326.6016237
40
23.6025215
50
321.3161456
51
335.5436167
0
ARC
8
top_labelLayer
10
1469.0155907
20
324.2495693
40
19.8792437
50
274.0640059
51
321.4081017
0
ARC
8
top_labelLayer
10
1467.6708723
20
332.7675145
40
28.4806264
50
269.9225715
51
275.5481629
0
ARC
8
top_labelLayer
10
1466.2453617
20
330.4247632
40
24.1957769
50
89.5904263
51
100.3501783
0
ARC
8
top_labelLayer
10
1464.5200243
20
339.4886579
40
14.9695466
50
100.0868117
51
118.1917904
0
ARC
8
top_labelLayer
10
1462.7525604
20
342.9357944
40
11.096572
50
118.5569469
51
141.0243378
0
ARC
8
top_labelLayer
10
1465.4458316
20
341.0360036
40
14.3869449
50
141.8890427
51
160.5973097
0
ARC
8
top_labelLayer
10
1474.9110286
20
337.5629435
40
24.4687078
50
160.289564
51
171.2453083
0
ARC
8
top_labelLayer
10
1490.4736756
20
335.0537386
40
40.232101
50
171.0868476
51
178.3247494
0
ARC
8
top_labelLayer
10
1503.6712834
20
334.4265373
40
53.4429477
50
178.0662584
51
179.4473762
0
ARC
8
top_labelLayer
10
1505.7524513
20
332.8535088
40
55.5220531
50
179.7762696
51
185.7075256
0
ARC
8
top_labelLayer
10
1483.862073
20
330.5980246
40
33.5159546
50
185.5924847
51
194.20507
0
ARC
8
top_labelLayer
10
1469.8393357
20
326.9586368
40
19.0290997
50
193.9430416
51
208.0218373
0
ARC
8
top_labelLayer
10
1464.1656947
20
324.0723007
40
12.6651093
50
208.5536547
51
217.560529
0
ARC
8
top_labelLayer
10
1463.7034384
20
323.8800347
40
12.1821559
50
218.1690471
51
253.8047174
0
ARC
8
top_labelLayer
10
1465.9629914
20
330.8464651
40
19.5036711
50
253.1382426
51
266.8483147
0
ARC
8
top_labelLayer
10
1466.5966109
20
338.318872
40
27.0005233
50
266.3775773
51
270.0510441
0
ARC
8
top_labelLayer
10
1466.8118739
20
325.4661371
40
14.1490698
50
269.2256891
51
292.0430388
0
ARC
8
top_labelLayer
10
1467.0027826
20
324.3284208
40
13.0252695
50
293.1429631
51
324.1353932
0
ARC
8
top_labelLayer
10
1464.1658422
20
326.7302826
40
16.7339365
50
323.1616012
51
325.0152602
0
ARC
8
top_labelLayer
10
1461.1290896
20
328.6131873
40
20.3025115
50
325.5753841
51
344.1504634
0
ARC
8
top_labelLayer
10
1450.6230172
20
331.7188896
40
31.2575952
50
343.9336251
51
355.1137461
0
ARC
8
top_labelLayer
10
1437.2115867
20
333.079766
40
44.7367117
50
354.8402146
51
0.1174668
0
ARC
8
top_labelLayer
10
1439.5735744
20
333.3853421
40
42.3751697
50
359.7108401
51
7.861038
0
ARC
8
top_labelLayer
10
1454.9812198
20
335.5816586
40
26.8120093
50
7.7149592
51
19.885968
0
ARC
8
top_labelLayer
10
1463.4549824
20
338.6424193
40
17.8024096
50
19.8991379
51
35.8980194
0
ARC
8
top_labelLayer
10
1467.2346638
20
341.5048616
40
13.0626595
50
35.4481608
51
85.2266594
0
ARC
8
top_labelLayer
10
1466.4450645
20
336.5532585
40
18.0666833
50
84.0378977
51
90.0848114
0
LINE
8
back_outsideCutPath
10
0
20
56
11
0
21
31
0
LINE
8
back_outsideCutPath
10
0
20
31
11
518
21
31
0
LINE
8
back_outsideCutPath
10
518
20
31
11
518
21
56
0
LINE
8
back_outsideCutPath
10
518
20
56
11
0
21
56
0
LINE
8
back_labelLayer
10
254.222168
20
41.9692659
11
254.1928711
21
41.9692659
0
LINE
8
back_labelLayer
10
254.1928711
20
41.9692659
11
254.1074219
21
41.6250276
0
LINE
8
back_labelLayer
10
254.1074219
20
41.6250276
11
253.8168945
21
41.6250276
0
LINE
8
back_labelLayer
10
253.8168945
20
41.6250276
11
253.8168945
21
45.4238557
0
LINE
8
back_labelLayer
10
253.8168945
20
45.4238557
11
254.222168
21
45.4238557
0
LINE
8
back_labelLayer
10
254.222168
20
45.4238557
11
254.222168
21
44.5010041
0
LINE
8
back_labelLayer
10
254.2026367
20
43.9443635
11
254.222168
21
43.9443635
0
ARC
8
back_labelLayer
10
255.0741693
20
43.1061563
40
1.2386575
50
74.2393461
51
90.5623764
0
ARC
8
back_labelLayer
10
255.1560743
20
43.4066275
40
0.9272397
50
38.5631057
51
74.0670661
0
ARC
8
back_labelLayer
10
254.9452948
20
43.2427342
40
1.1942245
50
16.470959
51
38.4075052
0
ARC
8
back_labelLayer
10
254.3380789
20
43.0523298
40
1.8305373
50
5.1338705
51
16.7973397
0
ARC
8
back_labelLayer
10
253.5714971
20
42.9708998
40
2.6013605
50
359.8779745
51
5.4093454
0
ARC
8
back_labelLayer
10
253.7966828
20
42.9513394
40
2.3762101
50
350.6562988
51
0.3380599
0
ARC
8
back_labelLayer
10
254.6250648
20
42.8104419
40
1.5359498
50
335.8306001
51
350.8254675
0
ARC
8
back_labelLayer
10
254.9894501
20
42.6531702
40
1.1391287
50
321.3161997
51
335.5435346
0
ARC
8
back_labelLayer
10
255.128769
20
42.5396474
40
0.9594224
50
274.0639951
51
321.4081252
0
ARC
8
back_labelLayer
10
255.0638673
20
42.950769
40
1.3745709
50
269.922655
51
275.5481511
0
ARC
8
back_labelLayer
10
255.0551782
20
42.8054669
40
1.2292864
50
255.7755514
51
270.3185072
0
ARC
8
back_labelLayer
10
255.0200971
20
42.6496046
40
1.0695914
50
245.9801635
51
255.5455786
0
ARC
8
back_labelLayer
10
254.9521492
20
42.4915922
40
0.8976065
50
215.5850067
51
245.8361894
0
ARC
8
back_labelLayer
10
245.7725226
20
44.4938609
40
8.4496484
50
358.1123237
51
0.0484375
0
ARC
8
back_labelLayer
10
248.1242595
20
44.4149088
40
6.0965872
50
355.7238247
51
358.1258805
0
ARC
8
back_labelLayer
10
249.183713
20
44.3419166
40
5.0346444
50
355.4710101
51
355.6531735
0
ARC
8
back_labelLayer
10
254.9779853
20
43.4173116
40
0.9214356
50
95.1835169
51
145.1108943
0
ARC
8
back_labelLayer
10
255.058976
20
42.9606023
40
1.3841552
50
89.874338
51
96.8145596
0
ARC
8
back_labelLayer
10
254.9949333
20
42.8665737
40
1.1388565
50
89.5731309
51
100.7323816
0
ARC
8
back_labelLayer
10
254.9106264
20
43.2925255
40
0.7046645
50
100.4469364
51
119.6700776
0
ARC
8
back_labelLayer
10
254.8324467
20
43.43869
40
0.5389824
50
120.1402222
51
142.4249447
0
ARC
8
back_labelLayer
10
254.9617861
20
43.3531267
40
0.6937557
50
143.3381995
51
161.2559946
0
ARC
8
back_labelLayer
10
255.5026509
20
43.1611012
40
1.267666
50
160.8926231
51
171.2334785
0
ARC
8
back_labelLayer
10
256.4055966
20
43.0154346
40
2.1822732
50
171.0668027
51
177.8456555
0
ARC
8
back_labelLayer
10
257.3444605
20
42.9676822
40
3.1222933
50
177.6176444
51
180.0426216
0
ARC
8
back_labelLayer
10
256.9018229
20
42.9548978
40
2.6796754
50
179.7763101
51
185.7074784
0
ARC
8
back_labelLayer
10
255.845318
20
42.8460444
40
1.6175858
50
185.5925457
51
194.2050219
0
ARC
8
back_labelLayer
10
255.1685179
20
42.6703922
40
0.9183856
50
193.943003
51
208.0219099
0
ARC
8
back_labelLayer
10
254.8947097
20
42.5310987
40
0.6112614
50
208.5537408
51
217.560453
0
ARC
8
back_labelLayer
10
254.872391
20
42.5218136
40
0.5879422
50
218.1690511
51
253.8047005
0
ARC
8
back_labelLayer
10
254.981444
20
42.8580411
40
0.9413069
50
253.1383354
51
266.8482598
0
ARC
8
back_labelLayer
10
255.0120256
20
43.218766
40
1.3032115
50
266.3777191
51
270.050911
0
ARC
8
back_labelLayer
10
255.0218287
20
42.723416
40
0.8079073
50
269.3868884
51
285.8630892
0
ARC
8
back_labelLayer
10
255.0818503
20
42.506489
40
0.5828372
50
286.0163399
51
326.8496808
0
ARC
8
back_labelLayer
10
254.7921507
20
42.6984036
40
0.9303338
50
326.7105085
51
343.6661693
0
ARC
8
back_labelLayer
10
254.2498457
20
42.8641143
40
1.4973686
50
343.4171356
51
353.63688
0
ARC
8
back_labelLayer
10
253.4307474
20
42.9613037
40
2.3221994
50
353.493514
51
0.2205467
0
ARC
8
back_labelLayer
10
253.3585723
20
42.9799343
40
2.394377
50
359.7680788
51
6.3095596
0
ARC
8
back_labelLayer
10
254.2604774
20
43.0834355
40
1.4865651
50
6.1648447
51
16.039627
0
ARC
8
back_labelLayer
10
254.8414788
20
43.2546564
40
0.880882
50
15.7779189
51
32.0151209
0
ARC
8
back_labelLayer
10
255.0227713
20
43.3584894
40
0.6721646
50
32.7030398
51
35.5244644
0
ARC
8
back_labelLayer
10
255.0889188
20
43.4055073
40
0.5910095
50
35.5408189
51
79.8011424
0
ARC
8
back_labelLayer
10
255.0095527
20
43.0681082
40
0.9373104
50
78.6781255
51
90.3750068
0
LINE
8
back_labelLayer
10
258.8266602
20
41.6250276
11
258.5263672
21
41.6250276
0
LINE
8
back_labelLayer
10
258.5263672
20
41.6250276
11
258.4458008
21
42.005887
0
LINE
8
back_labelLayer
10
258.4458008
20
42.005887
11
258.4262695
21
42.005887
0
LINE
8
back_labelLayer
10
257.9770508
20
43.214383
11
258.4311523
21
43.2290315
0
LINE
8
back_labelLayer
10
258.4311523
20
43.2290315
11
258.4311523
21
43.3950471
0
LINE
8
back_labelLayer
10
257.1054688
20
43.8052034
11
256.980957
21
44.115262
0
LINE
8
back_labelLayer
10
258.8266602
20
43.4511995
11
258.8266602
21
41.6250276
0
LINE
8
back_labelLayer
10
258.4213867
20
42.6992463
11
258.4213867
21
42.9409455
0
LINE
8
back_labelLayer
10
258.4213867
20
42.9409455
11
258.0161133
21
42.9238557
0
ARC
8
back_labelLayer
10
257.1076819
20
43.0469751
40
1.680041
50
314.7444661
51
321.7072172
0
ARC
8
back_labelLayer
10
257.5204311
20
42.6275879
40
1.0916186
50
304.8485874
51
314.8530848
0
ARC
8
back_labelLayer
10
257.7187235
20
42.3453372
40
0.7466806
50
294.3931847
51
304.7372617
0
ARC
8
back_labelLayer
10
257.6509739
20
42.5208783
40
0.9345942
50
281.2979416
51
293.7313113
0
ARC
8
back_labelLayer
10
257.5614249
20
42.9548798
40
1.377732
50
272.9334488
51
281.4138911
0
ARC
8
back_labelLayer
10
257.531737
20
43.4002049
40
1.824006
50
269.9540273
51
273.1489065
0
ARC
8
back_labelLayer
10
257.5214876
20
42.8198999
40
1.2437315
50
258.6719924
51
270.4047455
0
ARC
8
back_labelLayer
10
257.4350965
20
42.4066386
40
0.8215592
50
238.3273514
51
258.9183899
0
ARC
8
back_labelLayer
10
257.3755671
20
42.2980295
40
0.6978982
50
227.7689265
51
237.8048994
0
ARC
8
back_labelLayer
10
257.3569413
20
42.2720294
40
0.6661381
50
192.0827758
51
227.452062
0
ARC
8
back_labelLayer
10
257.7003798
20
42.3566894
40
1.0197478
50
179.5457731
51
192.6949014
0
ARC
8
back_labelLayer
10
257.3813275
20
42.3936113
40
0.7012566
50
115.4904784
51
182.3568228
0
ARC
8
back_labelLayer
10
257.7325239
20
41.7494457
40
1.43441
50
101.3568186
51
117.0798862
0
ARC
8
back_labelLayer
10
258.0145695
20
40.4314164
40
2.7822238
50
92.4696492
51
101.7064738
0
ARC
8
back_labelLayer
10
258.0956233
20
39.2575688
40
3.9585905
50
91.7164503
51
92.9096168
0
ARC
8
back_labelLayer
10
257.2671442
20
43.4012788
40
1.1640248
50
359.69326
51
8.0036314
0
ARC
8
back_labelLayer
10
257.7074465
20
43.4654212
40
0.7190839
50
7.8274043
51
20.6040458
0
ARC
8
back_labelLayer
10
257.9566405
20
43.5607486
40
0.4522858
50
20.4094104
51
41.4480402
0
ARC
8
back_labelLayer
10
257.9934547
20
43.5809843
40
0.4113997
50
42.72957
51
71.0380204
0
ARC
8
back_labelLayer
10
257.9067771
20
43.3453039
40
0.6624777
50
70.5716922
51
83.9928697
0
ARC
8
back_labelLayer
10
257.8653668
20
43.0089082
40
1.0013779
50
83.6508046
51
90.1752059
0
ARC
8
back_labelLayer
10
257.8726332
20
42.6908318
40
1.3194901
50
90.4484947
51
103.7665012
0
ARC
8
back_labelLayer
10
258.0277999
20
42.0364969
40
1.9919589
50
103.6226869
51
112.431992
0
ARC
8
back_labelLayer
10
258.2937909
20
41.3648993
40
2.7142575
50
112.2122808
51
115.9640723
0
ARC
8
back_labelLayer
10
257.8678305
20
42.4705687
40
1.8685718
50
106.3568031
51
118.3350282
0
ARC
8
back_labelLayer
10
257.947333
20
42.2250391
40
2.1265653
50
104.5160569
51
106.5491529
0
ARC
8
back_labelLayer
10
257.8890591
20
42.4678896
40
1.8768661
50
90.0714433
51
104.6521199
0
ARC
8
back_labelLayer
10
257.8964249
20
42.6331159
40
1.7116657
50
81.5680424
51
90.3249014
0
ARC
8
back_labelLayer
10
257.9953873
20
43.2778487
40
1.0593959
50
68.2274351
51
81.7493575
0
ARC
8
back_labelLayer
10
258.1332293
20
43.6208189
40
0.6897636
50
47.8684102
51
68.293321
0
ARC
8
back_labelLayer
10
258.1556037
20
43.6654936
40
0.6417624
50
19.2331228
51
46.6740973
0
ARC
8
back_labelLayer
10
257.7829156
20
43.5268545
40
1.0393506
50
6.3379276
51
19.6814733
0
ARC
8
back_labelLayer
10
257.2319703
20
43.4566898
40
1.5946993
50
359.8027381
51
6.6582621
0
ARC
8
back_labelLayer
10
257.6190338
20
43.0264846
40
1.1158426
50
269.5792545
51
282.0413313
0
ARC
8
back_labelLayer
10
257.7004266
20
42.6654568
40
0.7457908
50
281.7121078
51
306.4593521
0
ARC
8
back_labelLayer
10
257.7365199
20
42.6060992
40
0.6766309
50
306.9881177
51
313.8559723
0
ARC
8
back_labelLayer
10
257.7322241
20
42.6048726
40
0.6787343
50
314.1892059
51
347.4269899
0
ARC
8
back_labelLayer
10
257.3922172
20
42.6900751
40
1.0291755
50
346.9178413
51
0.2823904
0
ARC
8
back_labelLayer
10
257.1104136
20
42.6992439
40
1.310973
50
359.8209697
51
0.0001058
0
ARC
8
back_labelLayer
10
258.112512
20
39.9497127
40
2.9757048
50
91.8564365
51
96.4478798
0
ARC
8
back_labelLayer
10
257.9783217
20
41.1108903
40
1.8068053
50
96.3545847
51
102.995286
0
ARC
8
back_labelLayer
10
257.7961516
20
41.8848799
40
1.0116799
50
102.7995173
51
113.2433577
0
ARC
8
back_labelLayer
10
257.6459817
20
42.2440268
40
0.622431
50
113.5886592
51
121.68053
0
ARC
8
back_labelLayer
10
257.5416475
20
42.4029243
40
0.4324494
50
120.9733842
51
172.4180131
0
ARC
8
back_labelLayer
10
257.7455917
20
42.3621891
40
0.6401271
50
171.2122941
51
180.2057095
0
ARC
8
back_labelLayer
10
257.6846341
20
42.3551054
40
0.5791851
50
179.5265944
51
192.7786667
0
ARC
8
back_labelLayer
10
257.4887052
20
42.3076126
40
0.377616
50
192.3265244
51
222.0579657
0
ARC
8
back_labelLayer
10
257.4741468
20
42.2989138
40
0.3609948
50
222.5807565
51
229.2545049
0
ARC
8
back_labelLayer
10
257.5233763
20
42.3622988
40
0.4411672
50
229.7836588
51
254.2724862
0
ARC
8
back_labelLayer
10
257.5889653
20
42.5808638
40
0.6693396
50
253.9396153
51
266.4534818
0
ARC
8
back_labelLayer
10
257.6098981
20
42.8221015
40
0.9114299
50
266.0781829
51
270.0592032
0
LINE
8
back_labelLayer
10
261.4462891
20
44.2104768
11
261.3217773
21
43.8662385
0
LINE
8
back_labelLayer
10
261.4072266
20
42.0742463
11
261.4072266
21
41.7153596
0
ARC
8
back_labelLayer
10
260.7180306
20
43.0908173
40
1.514673
50
256.4244033
51
270.4889776
0
ARC
8
back_labelLayer
10
260.5969935
20
42.6184184
40
1.0270839
50
221.7976264
51
256.802076
0
ARC
8
back_labelLayer
10
260.714205
20
42.7050215
40
1.1722649
50
196.0166747
51
221.1349093
0
ARC
8
back_labelLayer
10
261.3033006
20
42.8850778
40
1.7882042
50
183.5914087
51
196.3539158
0
ARC
8
back_labelLayer
10
261.9632418
20
42.9432132
40
2.4505478
50
179.9388557
51
183.9814496
0
ARC
8
back_labelLayer
10
261.7487823
20
42.9602253
40
2.2361333
50
169.8978102
51
180.3688906
0
ARC
8
back_labelLayer
10
260.9703373
20
43.1042272
40
1.444508
50
153.087504
51
170.1051258
0
ARC
8
back_labelLayer
10
260.6749769
20
43.2453579
40
1.1172832
50
138.6549817
51
152.685319
0
ARC
8
back_labelLayer
10
260.6198511
20
43.2855299
40
1.0493792
50
101.4913226
51
138.3133681
0
ARC
8
back_labelLayer
10
260.7464052
20
42.7588191
40
1.5908586
50
89.5891565
51
102.1787437
0
ARC
8
back_labelLayer
10
260.7561379
20
42.5207593
40
1.8288784
50
77.7702084
51
89.9475372
0
ARC
8
back_labelLayer
10
260.7215003
20
42.3296897
40
2.0229602
50
74.6797986
51
77.9577989
0
ARC
8
back_labelLayer
10
260.9085083
20
43.0071968
40
1.3201195
50
70.0946165
51
74.7386644
0
ARC
8
back_labelLayer
10
261.0863669
20
43.4946258
40
0.8012571
50
63.5033072
51
70.1860558
0
ARC
8
back_labelLayer
10
261.1591714
20
43.6486496
40
0.6309407
50
62.9310304
51
63.1800204
0
ARC
8
back_labelLayer
10
260.6560218
20
42.1907624
40
1.8029007
50
68.3294496
51
74.8831795
0
ARC
8
back_labelLayer
10
260.5608675
20
41.8533421
40
2.1534635
50
74.7803076
51
77.4496795
0
ARC
8
back_labelLayer
10
260.6607591
20
42.3221987
40
1.6741096
50
77.2998992
51
81.7344707
0
ARC
8
back_labelLayer
10
260.7335957
20
42.8297063
40
1.161403
50
81.6910717
51
87.5077799
0
ARC
8
back_labelLayer
10
260.7476574
20
43.0925179
40
0.8982323
50
87.6749252
51
89.9751538
0
ARC
8
back_labelLayer
10
260.7279559
20
43.0920206
40
0.8989542
50
88.7193714
51
112.5667846
0
ARC
8
back_labelLayer
10
260.6640786
20
43.303213
40
0.6797767
50
114.4265385
51
161.6633123
0
ARC
8
back_labelLayer
10
261.2986331
20
43.0548416
40
1.3607286
50
160.1418565
51
175.1368283
0
ARC
8
back_labelLayer
10
262.1719824
20
42.9567693
40
2.2393733
50
174.5309552
51
180.1550007
0
ARC
8
back_labelLayer
10
261.8953054
20
42.9405759
40
1.9627144
50
179.7041275
51
188.0744063
0
ARC
8
back_labelLayer
10
261.1883694
20
42.8371429
40
1.2482625
50
187.9315596
51
200.3885431
0
ARC
8
back_labelLayer
10
260.806111
20
42.6955353
40
0.8406182
50
200.4183206
51
216.6392842
0
ARC
8
back_labelLayer
10
260.6458624
20
42.5809775
40
0.6436788
50
216.9695423
51
261.310321
0
ARC
8
back_labelLayer
10
260.7165842
20
42.9106883
40
0.9804959
50
260.1358954
51
270.2692244
0
ARC
8
back_labelLayer
10
260.7133191
20
43.6267092
40
1.6965241
50
270.2658685
51
286.2891614
0
ARC
8
back_labelLayer
10
260.6101914
20
44.0113138
40
2.0946349
50
286.0460442
51
292.365443
0
ARC
8
back_labelLayer
10
260.8848507
20
42.7429966
40
1.1527854
50
282.0344024
51
296.9454706
0
ARC
8
back_labelLayer
10
260.7662914
20
43.2772963
40
1.7000682
50
272.5980757
51
282.1878386
0
ARC
8
back_labelLayer
10
260.7322987
20
43.7985392
40
2.2223401
50
269.9654088
51
272.864405
0
LINE
8
back_labelLayer
10
262.4228516
20
42.9946565
11
262.4423828
21
42.9946565
0
LINE
8
back_labelLayer
10
262.762207
20
43.3852815
11
263.6264648
21
44.3008088
0
LINE
8
back_labelLayer
10
263.6264648
20
44.3008088
11
264.1074219
21
44.3008088
0
LINE
8
back_labelLayer
10
264.1074219
20
44.3008088
11
263.0234375
21
43.1606721
0
LINE
8
back_labelLayer
10
263.0234375
20
43.1606721
11
264.1831055
21
41.6250276
0
LINE
8
back_labelLayer
10
264.1831055
20
41.6250276
11
263.6923828
21
41.6250276
0
LINE
8
back_labelLayer
10
263.6923828
20
41.6250276
11
262.7475586
21
42.889676
0
LINE
8
back_labelLayer
10
262.7475586
20
42.889676
11
262.4423828
21
42.6260041
0
LINE
8
back_labelLayer
10
262.4423828
20
42.6260041
11
262.4423828
21
41.6250276
0
LINE
8
back_labelLayer
10
262.4423828
20
41.6250276
11
262.0419922
21
41.6250276
0
LINE
8
back_labelLayer
10
262.0419922
20
41.6250276
11
262.0419922
21
45.4238557
0
LINE
8
back_labelLayer
10
262.0419922
20
45.4238557
11
262.4423828
21
45.4238557
0
LINE
8
back_labelLayer
10
262.4423828
20
45.4238557
11
262.4423828
21
43.4096955
0
ARC
8
back_labelLayer
10
264.4006967
20
41.6084736
40
2.3992699
50
142.3233688
51
144.7074183
0
ARC
8
back_labelLayer
10
265.6785427
20
40.6228353
40
4.013077
50
140.4332258
51
142.336489
0
ARC
8
back_labelLayer
10
267.3432336
20
39.2524992
40
6.1692324
50
139.2799622
51
140.4703886
0
ARC
8
back_labelLayer
10
269.2681291
20
37.5972223
40
8.7079649
50
138.341787
51
139.2877719
0
ARC
8
back_labelLayer
10
259.7419191
20
43.4147496
40
2.7004685
50
358.2737795
51
359.8927674
0
ARC
8
back_labelLayer
10
257.6421137
20
43.4732551
40
4.8010858
50
357.5039436
51
358.3307629
0
ARC
8
back_labelLayer
10
254.4968324
20
43.6121519
40
7.9494323
50
356.6324737
51
357.4910708
0
ARC
8
back_labelLayer
10
249.2672835
20
43.917145
40
13.1878669
50
356.0330178
51
356.6442922
0
ARC
8
back_labelLayer
10
245.6592237
20
44.1606971
40
16.8041326
50
356.021042
51
356.0556671
0
LINE
8
right_outsideCutPath
10
521
20
56
11
521
21
31
0
LINE
8
right_outsideCutPath
10
521
20
31
11
1151
21
31
0
LINE
8
right_outsideCutPath
10
1151
20
31
11
1151
21
56
0
LINE
8
right_outsideCutPath
10
1151
20
56
11
521
21
56
0
LINE
8
right_labelLayer
10
832.3684082
20
44.8964991
11
832.3122559
21
44.5205226
0
LINE
8
right_labelLayer
10
831.2331543
20
43.6367335
11
831.2331543
21
42.2011866
0
LINE
8
right_labelLayer
10
831.2331543
20
42.2011866
11
830.8278809
21
42.2011866
0
LINE
8
right_labelLayer
10
830.8278809
20
42.2011866
11
830.8278809
21
44.8769679
0
LINE
8
right_labelLayer
10
830.8278809
20
44.8769679
11
831.1623535
21
44.8769679
0
LINE
8
right_labelLayer
10
831.1623535
20
44.8769679
11
831.2087402
21
44.3813624
0
LINE
8
right_labelLayer
10
831.2087402
20
44.3813624
11
831.2282715
21
44.3813624
0
ARC
8
right_labelLayer
10
832.052746
20
43.0652718
40
1.8605288
50
84.99231
51
90.1281706
0
ARC
8
right_labelLayer
10
832.0974228
20
43.5658459
40
1.3579658
50
78.4892132
51
85.026549
0
ARC
8
right_labelLayer
10
831.9240051
20
42.7771109
40
1.7861195
50
77.4453267
51
81.6360495
0
ARC
8
right_labelLayer
10
832.0018219
20
43.3135101
40
1.2441066
50
81.5883502
51
87.1916744
0
ARC
8
right_labelLayer
10
832.0187183
20
43.6065494
40
0.9505947
50
87.343484
51
89.9657156
0
ARC
8
right_labelLayer
10
832.0147958
20
43.8549388
40
0.7022192
50
89.63354
51
137.088063
0
ARC
8
right_labelLayer
10
832.1870642
20
43.6612045
40
0.9606123
50
135.6207359
51
138.8378665
0
ARC
8
right_labelLayer
10
832.1618806
20
43.6857904
40
0.9254726
50
138.9575937
51
174.5422358
0
ARC
8
right_labelLayer
10
832.4632838
20
43.6386305
40
1.2301308
50
173.6908194
51
180.0883533
0
ARC
8
right_labelLayer
10
832.4206826
20
43.7095621
40
1.3686343
50
139.4139858
51
150.6032391
0
ARC
8
right_labelLayer
10
832.1752744
20
43.9198496
40
1.0454532
50
124.2320942
51
139.4161144
0
ARC
8
right_labelLayer
10
832.0440672
20
44.117908
40
0.8079007
50
89.6796707
51
124.440559
0
LINE
8
right_labelLayer
10
833.2741699
20
44.8769679
11
833.2741699
21
42.2011866
0
LINE
8
right_labelLayer
10
833.2741699
20
42.2011866
11
832.8688965
21
42.2011866
0
LINE
8
right_labelLayer
10
832.8688965
20
42.2011866
11
832.8688965
21
44.8769679
0
LINE
8
right_labelLayer
10
832.8688965
20
44.8769679
11
833.2741699
21
44.8769679
0
ARC
8
right_labelLayer
10
833.283793
20
45.604844
40
0.4490848
50
170.8450542
51
180.3544876
0
ARC
8
right_labelLayer
10
833.1156739
20
45.6329559
40
0.2786364
50
155.9677681
51
171.0517529
0
ARC
8
right_labelLayer
10
833.0342477
20
45.6690805
40
0.1895568
50
133.787841
51
155.9170848
0
ARC
8
right_labelLayer
10
833.0643122
20
45.6358442
40
0.2343584
50
92.6445562
51
133.4711337
0
ARC
8
right_labelLayer
10
833.0738057
20
45.5613722
40
0.3092481
50
89.9687011
51
93.765032
0
ARC
8
right_labelLayer
10
833.0776752
20
45.6318671
40
0.2387818
50
46.3708484
51
90.8879832
0
ARC
8
right_labelLayer
10
833.1014391
20
45.6564005
40
0.2046272
50
17.7252113
51
46.447314
0
ARC
8
right_labelLayer
10
832.9906153
20
45.6182377
40
0.3218193
50
4.9428885
51
18.190003
0
ARC
8
right_labelLayer
10
832.8496728
20
45.6029999
40
0.4635605
50
359.8845116
51
5.3182734
0
ARC
8
right_labelLayer
10
832.8939274
20
45.5992182
40
0.4193146
50
349.8344369
51
0.3890734
0
ARC
8
right_labelLayer
10
833.0465815
20
45.570741
40
0.2640333
50
332.6321078
51
350.0704827
0
ARC
8
right_labelLayer
10
833.1059958
20
45.5414024
40
0.1977861
50
313.6154814
51
332.2676591
0
ARC
8
right_labelLayer
10
833.0773633
20
45.5674735
40
0.2364282
50
269.1787624
51
314.2807904
0
ARC
8
right_labelLayer
10
833.071288
20
45.5884887
40
0.2574332
50
250.4998545
51
270.5979519
0
ARC
8
right_labelLayer
10
833.0634975
20
45.5593595
40
0.2273869
50
225.1300791
51
249.9001655
0
ARC
8
right_labelLayer
10
833.0513026
20
45.545887
40
0.209237
50
197.7935627
51
224.8939674
0
ARC
8
right_labelLayer
10
833.1654776
20
45.5850113
40
0.3299147
50
184.9928208
51
198.2038097
0
ARC
8
right_labelLayer
10
833.3131991
20
45.6010659
40
0.4784832
50
179.8803012
51
185.3685092
0
LINE
8
right_labelLayer
10
835.3981934
20
44.8769679
11
836.3234863
21
44.8769679
0
LINE
8
right_labelLayer
10
836.3234863
20
44.8769679
11
836.3234863
21
44.6206202
0
LINE
8
right_labelLayer
10
836.3234863
20
44.6206202
11
835.8278809
21
44.5620265
0
LINE
8
right_labelLayer
10
834.9147949
20
42.6259913
11
835.3884277
21
42.6259913
0
LINE
8
right_labelLayer
10
835.2590332
20
42.2622218
11
834.7731934
21
42.2622218
0
ARC
8
right_labelLayer
10
835.3114036
20
44.1532948
40
0.6586428
50
29.4585702
51
38.3575169
0
ARC
8
right_labelLayer
10
835.0423032
20
43.9996777
40
0.9685007
50
23.1844384
51
29.5422316
0
ARC
8
right_labelLayer
10
834.7856752
20
43.8858671
40
1.2492156
50
21.2503643
51
23.3489607
0
ARC
8
right_labelLayer
10
835.2219854
20
44.059384
40
0.7796903
50
6.8505322
51
20.9872312
0
ARC
8
right_labelLayer
10
835.0024065
20
44.029613
40
1.001258
50
359.8709875
51
7.0432144
0
ARC
8
right_labelLayer
10
835.0746387
20
44.0176982
40
0.9290737
50
342.5650357
51
0.5957591
0
ARC
8
right_labelLayer
10
835.2459888
20
43.9703835
40
0.7514446
50
310.6098271
51
342.092334
0
ARC
8
right_labelLayer
10
835.1499033
20
44.0821502
40
0.8988358
50
284.9316279
51
310.6222495
0
ARC
8
right_labelLayer
10
835.0296639
20
44.5034848
40
1.3369469
50
272.5335086
51
285.258004
0
ARC
8
right_labelLayer
10
834.9987529
20
44.9257256
40
1.7601836
50
269.9690702
51
272.9311607
0
ARC
8
right_labelLayer
10
834.9949107
20
44.4679939
40
1.302455
50
263.4836044
51
270.1272204
0
ARC
8
right_labelLayer
10
834.9737157
20
44.2666397
40
1.0999978
50
259.496629
51
263.3902105
0
ARC
8
right_labelLayer
10
835.1050036
20
42.5447679
40
0.7211721
50
117.3934707
51
128.4094332
0
ARC
8
right_labelLayer
10
834.9193447
20
42.7750925
40
0.4253527
50
128.0881155
51
147.1399625
0
ARC
8
right_labelLayer
10
834.8193244
20
42.8422147
40
0.3049232
50
147.5369534
51
180.2592402
0
ARC
8
right_labelLayer
10
834.7244378
20
42.8382387
40
0.2100496
50
179.2917695
51
198.3578484
0
ARC
8
right_labelLayer
10
834.6851099
20
42.8279041
40
0.1694876
50
199.2292654
51
239.5689616
0
ARC
8
right_labelLayer
10
834.7175223
20
42.8726366
40
0.2245369
50
238.2189177
51
239.847407
0
ARC
8
right_labelLayer
10
834.7437373
20
42.9264884
40
0.2843038
50
240.7305809
51
254.5022966
0
ARC
8
right_labelLayer
10
834.8213234
20
43.1938506
40
0.5626858
50
254.1636161
51
262.2122157
0
ARC
8
right_labelLayer
10
834.8827886
20
43.6231826
40
0.9963904
50
262.0556963
51
267.2081339
0
ARC
8
right_labelLayer
10
834.9124758
20
44.167687
40
1.5416976
50
267.0917998
51
270.0861884
0
ARC
8
right_labelLayer
10
835.3972857
20
40.967043
40
1.6589719
50
81.5744676
51
90.3059274
0
ARC
8
right_labelLayer
10
835.4882855
20
41.56053
40
1.0585612
50
68.3671508
51
81.7399697
0
ARC
8
right_labelLayer
10
835.6071352
20
41.864267
40
0.7324044
50
52.1879863
51
68.2500862
0
ARC
8
right_labelLayer
10
835.6902988
20
41.9763253
40
0.5928976
50
8.6201199
51
51.8982264
0
ARC
8
right_labelLayer
10
835.3988319
20
41.9146537
40
0.8904836
50
359.7429886
51
9.7326098
0
ARC
8
right_labelLayer
10
835.4118819
20
41.8996298
40
0.8774941
50
340.5269025
51
0.720185
0
ARC
8
right_labelLayer
10
835.5408062
20
41.8675301
40
0.7453518
50
302.9903798
51
339.5494322
0
ARC
8
right_labelLayer
10
835.404943
20
42.0402899
40
0.9644387
50
303.1877355
51
304.1720683
0
ARC
8
right_labelLayer
10
835.2793363
20
42.2578938
40
1.215383
50
286.2542417
51
302.527967
0
ARC
8
right_labelLayer
10
835.0497982
20
43.015022
40
2.0065137
50
276.4940345
51
286.4953318
0
ARC
8
right_labelLayer
10
834.9065869
20
44.2121778
40
3.2121926
50
269.7544803
51
276.6170091
0
ARC
8
right_labelLayer
10
834.8821264
20
43.2706168
40
2.2706272
50
262.5634326
51
270.2698957
0
ARC
8
right_labelLayer
10
834.7709155
20
42.4463353
40
1.4388897
50
251.2102086
51
262.7063835
0
ARC
8
right_labelLayer
10
834.6106173
20
41.9758387
40
0.9418359
50
235.9667337
51
251.2229718
0
ARC
8
right_labelLayer
10
834.4407242
20
41.7334705
40
0.645918
50
208.9036286
51
236.4231523
0
ARC
8
right_labelLayer
10
834.4563211
20
41.7269323
40
0.6565458
50
182.207991
51
207.7461718
0
ARC
8
right_labelLayer
10
834.6549341
20
41.7467631
40
0.8558618
50
179.9784445
51
183.0223426
0
ARC
8
right_labelLayer
10
834.4186597
20
41.7579567
40
0.6196828
50
138.3916035
51
181.0052413
0
ARC
8
right_labelLayer
10
834.4840976
20
41.6991481
40
0.7076621
50
113.8120952
51
138.3496539
0
ARC
8
right_labelLayer
10
834.6082302
20
41.4310944
40
1.003029
50
102.2870884
51
114.1172558
0
ARC
8
right_labelLayer
10
834.5692242
20
42.7938857
40
0.4206196
50
216.586089
51
245.4969033
0
ARC
8
right_labelLayer
10
834.6295964
20
42.8450915
40
0.4996428
50
215.465771
51
217.1746814
0
ARC
8
right_labelLayer
10
834.5291446
20
42.77253
40
0.375728
50
182.1767798
51
215.3415239
0
ARC
8
right_labelLayer
10
834.6184031
20
42.7821051
40
0.4653268
50
179.9832208
51
182.9374802
0
ARC
8
right_labelLayer
10
834.6165096
20
42.7861596
40
0.46345
50
161.7225377
51
180.4844117
0
ARC
8
right_labelLayer
10
834.5655565
20
42.8000634
40
0.4107163
50
144.4963387
51
161.3350725
0
ARC
8
right_labelLayer
10
834.7013889
20
42.6988299
40
0.5800972
50
132.7259417
51
144.1480086
0
ARC
8
right_labelLayer
10
834.9190966
20
42.466343
40
0.8985994
50
125.2213374
51
132.8655257
0
ARC
8
right_labelLayer
10
835.1379692
20
42.1624094
40
1.2731286
50
121.2353127
51
125.3794794
0
ARC
8
right_labelLayer
10
834.7499595
20
43.9072666
40
0.7104767
50
215.1640803
51
247.4748017
0
ARC
8
right_labelLayer
10
834.8825519
20
44.0142781
40
0.880572
50
212.4713373
51
215.8876355
0
ARC
8
right_labelLayer
10
834.8477065
20
43.9893476
40
0.8377929
50
183.0160742
51
212.3123286
0
ARC
8
right_labelLayer
10
835.0315922
20
44.0098394
40
1.022559
50
179.9759441
51
183.6205541
0
ARC
8
right_labelLayer
10
835.1798916
20
44.020159
40
1.1709002
50
166.8195736
51
180.4839721
0
ARC
8
right_labelLayer
10
834.7914592
20
44.1182303
40
0.7703693
50
132.3287692
51
167.3341074
0
ARC
8
right_labelLayer
10
834.8434269
20
44.0435314
40
0.8606698
50
106.2188925
51
131.5377696
0
ARC
8
right_labelLayer
10
834.9749143
20
43.6177862
40
1.3062171
50
93.6329726
51
106.5408745
0
ARC
8
right_labelLayer
10
835.0178393
20
43.1358457
40
1.7899513
50
89.9380271
51
94.0267163
0
ARC
8
right_labelLayer
10
835.0247913
20
43.3723796
40
1.5534245
50
82.5852163
51
90.1850046
0
ARC
8
right_labelLayer
10
835.0722544
20
43.7396204
40
1.1831294
50
74.0088545
51
82.5693936
0
ARC
8
right_labelLayer
10
834.5966903
20
41.7464328
40
0.4070307
50
179.22082
51
200.9355699
0
ARC
8
right_labelLayer
10
834.5482856
20
41.7352241
40
0.3578817
50
202.0286556
51
236.1457525
0
ARC
8
right_labelLayer
10
834.6212321
20
41.8278423
40
0.4755192
50
235.0633149
51
238.5040559
0
ARC
8
right_labelLayer
10
834.7060449
20
41.9793324
40
0.6490366
50
239.1066779
51
254.4862986
0
ARC
8
right_labelLayer
10
834.8191189
20
42.3692129
40
1.0549666
50
254.2324795
51
263.4937669
0
ARC
8
right_labelLayer
10
834.8901453
20
42.9708056
40
1.6607348
50
263.4109076
51
270.1457881
0
ARC
8
right_labelLayer
10
834.8975843
20
43.2928323
40
1.9827589
50
269.907145
51
270.0034899
0
ARC
8
right_labelLayer
10
834.9074198
20
44.0344958
40
2.7244397
50
269.7956966
51
275.3990979
0
ARC
8
right_labelLayer
10
835.0093852
20
42.9877077
40
1.6727041
50
275.2957217
51
283.3516538
0
ARC
8
right_labelLayer
10
835.1755133
20
42.3034667
40
0.968601
50
283.137035
51
295.8572831
0
ARC
8
right_labelLayer
10
835.2986431
20
42.0346695
40
0.6730448
50
296.4045346
51
301.8012345
0
ARC
8
right_labelLayer
10
835.3468701
20
41.9682112
40
0.5911788
50
301.2230681
51
318.6238223
0
ARC
8
right_labelLayer
10
835.4557227
20
41.8676597
40
0.4430467
50
319.0765694
51
1.1406856
0
ARC
8
right_labelLayer
10
835.3503725
20
41.8808225
40
0.5483263
50
359.5462015
51
10.9905214
0
ARC
8
right_labelLayer
10
835.562175
20
41.9239034
40
0.332201
50
10.6608611
51
30.9362482
0
ARC
8
right_labelLayer
10
835.6293274
20
41.9611715
40
0.2554555
50
31.509454
51
58.0776764
0
ARC
8
right_labelLayer
10
835.5663886
20
41.8484759
40
0.3844372
50
58.9972302
51
73.8586689
0
ARC
8
right_labelLayer
10
835.4391722
20
41.4320036
40
0.8198839
50
73.4100962
51
81.5907575
0
ARC
8
right_labelLayer
10
835.3313838
20
40.7344651
40
1.5256934
50
81.4172704
51
86.5756877
0
ARC
8
right_labelLayer
10
835.2653305
20
39.6834977
40
2.5787317
50
86.5054509
51
90.1399173
0
ARC
8
right_labelLayer
10
834.7673981
20
41.3306197
40
0.9316201
50
89.6435809
51
100.0208155
0
ARC
8
right_labelLayer
10
834.7088447
20
41.6491574
40
0.6077573
50
99.8103355
51
116.8229821
0
ARC
8
right_labelLayer
10
834.6518038
20
41.769446
40
0.4746843
50
117.2303408
51
130.5024018
0
ARC
8
right_labelLayer
10
834.6225223
20
41.807079
40
0.4270568
50
130.7944635
51
169.0413337
0
ARC
8
right_labelLayer
10
834.838171
20
41.7562918
40
0.6484882
50
168.2579647
51
180.3820357
0
ARC
8
right_labelLayer
10
835.2004735
20
44.0139827
40
0.7910728
50
179.561694
51
191.6530017
0
ARC
8
right_labelLayer
10
834.9254355
20
43.9545588
40
0.5097079
50
191.3555842
51
213.3660162
0
ARC
8
right_labelLayer
10
834.8593791
20
43.9164175
40
0.4335854
50
213.9574302
51
227.7972149
0
ARC
8
right_labelLayer
10
834.916848
20
43.9861177
40
0.5238397
50
228.2620926
51
254.7341459
0
ARC
8
right_labelLayer
10
834.9902675
20
44.2378015
40
0.7859873
50
254.4016686
51
267.434847
0
ARC
8
right_labelLayer
10
835.0094215
20
44.4946958
40
1.0435093
50
267.015495
51
270.0322986
0
ARC
8
right_labelLayer
10
835.021942
20
44.3340125
40
0.8829065
50
269.2256373
51
284.3773108
0
ARC
8
right_labelLayer
10
835.1422805
20
43.9147521
40
0.4470696
50
282.7796498
51
346.4828355
0
ARC
8
right_labelLayer
10
834.7824931
20
44.0166635
40
0.820848
50
345.4362639
51
0.7465437
0
ARC
8
right_labelLayer
10
834.7319207
20
44.0398202
40
0.8714399
50
359.1806342
51
15.0431
0
ARC
8
right_labelLayer
10
835.126788
20
44.1550061
40
0.4602914
50
13.953545
51
77.6673928
0
ARC
8
right_labelLayer
10
835.0134984
20
43.7490228
40
0.8814293
50
76.1095357
51
90.7028852
0
ARC
8
right_labelLayer
10
834.99654
20
43.7800325
40
0.8503756
50
89.5859294
51
101.3334377
0
ARC
8
right_labelLayer
10
834.9357694
20
44.069879
40
0.5542448
50
101.0620259
51
121.9738373
0
ARC
8
right_labelLayer
10
834.8930683
20
44.1467005
40
0.4664873
50
122.5212163
51
134.996448
0
ARC
8
right_labelLayer
10
834.9106433
20
44.1361764
40
0.4863817
50
135.5839213
51
163.0016226
0
ARC
8
right_labelLayer
10
835.1674795
20
44.0519925
40
0.7566275
50
162.5910795
51
175.7344187
0
ARC
8
right_labelLayer
10
835.4755866
20
44.0216419
40
1.0661639
50
175.3394448
51
180.0863912
0
LINE
8
right_labelLayer
10
839.1091309
20
42.2011866
11
838.7038574
21
42.2011866
0
LINE
8
right_labelLayer
10
838.7038574
20
42.2011866
11
838.7038574
21
43.9321437
0
LINE
8
right_labelLayer
10
837.2780762
20
43.6001124
11
837.2780762
21
42.2011866
0
LINE
8
right_labelLayer
10
837.2780762
20
42.2011866
11
836.8728027
21
42.2011866
0
LINE
8
right_labelLayer
10
836.8728027
20
42.2011866
11
836.8728027
21
46.0000148
0
LINE
8
right_labelLayer
10
836.8728027
20
46.0000148
11
837.2780762
21
46.0000148
0
LINE
8
right_labelLayer
10
837.2780762
20
46.0000148
11
837.2780762
21
44.8501124
0
LINE
8
right_labelLayer
10
837.2585449
20
44.5058741
11
837.282959
21
44.5058741
0
LINE
8
right_labelLayer
10
839.1091309
20
43.9467921
11
839.1091309
21
42.2011866
0
ARC
8
right_labelLayer
10
837.5582756
20
43.9387136
40
1.1456007
50
359.6714119
51
8.6877663
0
ARC
8
right_labelLayer
10
837.9828685
20
44.0060524
40
0.7157121
50
8.4931106
51
22.6580452
0
ARC
8
right_labelLayer
10
838.198591
20
44.0957012
40
0.4821038
50
22.7023903
51
42.3420753
0
ARC
8
right_labelLayer
10
838.2228348
20
44.1066055
40
0.4569146
50
43.3791446
51
71.5385507
0
ARC
8
right_labelLayer
10
838.1321584
20
43.8532317
40
0.7259861
50
71.0827818
51
84.3690559
0
ARC
8
right_labelLayer
10
838.0914559
20
43.5071552
40
1.0744062
50
84.0198126
51
90.1510699
0
ARC
8
right_labelLayer
10
838.0798878
20
43.3551851
40
1.2264037
50
89.5918988
51
100.3595781
0
ARC
8
right_labelLayer
10
837.9930475
20
43.8115356
40
0.7618838
50
100.1067964
51
118.0847299
0
ARC
8
right_labelLayer
10
837.904721
20
43.9848533
40
0.5674036
50
118.4550861
51
139.6706886
0
ARC
8
right_labelLayer
10
837.9933928
20
43.9242435
40
0.6743197
50
140.6208003
51
160.5049586
0
ARC
8
right_labelLayer
10
838.460794
20
43.7512115
40
1.1726918
50
160.1566684
51
171.5312654
0
ARC
8
right_labelLayer
10
839.2170792
20
43.6313893
40
1.93839
50
171.3202838
51
178.3406599
0
ARC
8
right_labelLayer
10
839.8933547
20
43.6011664
40
2.6152788
50
178.1078324
51
180.0230901
0
ARC
8
right_labelLayer
10
833.6322505
20
44.8457667
40
3.6458283
50
357.8674741
51
0.0682958
0
ARC
8
right_labelLayer
10
834.870687
20
44.7985246
40
2.4064918
50
354.9829845
51
357.8942806
0
ARC
8
right_labelLayer
10
835.6889001
20
44.7272797
40
1.585183
50
351.9711373
51
354.9619427
0
ARC
8
right_labelLayer
10
837.9694233
20
44.0764667
40
0.8097062
50
119.8315784
51
147.9725782
0
ARC
8
right_labelLayer
10
838.0674392
20
43.9259066
40
0.9891259
50
116.6657026
51
120.4184605
0
ARC
8
right_labelLayer
10
838.0857767
20
43.8777618
40
1.0403927
50
96.66522
51
116.3782606
0
ARC
8
right_labelLayer
10
838.125223
20
43.6056135
40
1.315302
50
89.8927306
51
96.9959377
0
ARC
8
right_labelLayer
10
838.1378364
20
43.2766962
40
1.6442484
50
80.6862831
51
90.3537204
0
ARC
8
right_labelLayer
10
838.2402184
20
43.878886
40
1.0334339
50
65.6023199
51
80.8844246
0
ARC
8
right_labelLayer
10
838.3631596
20
44.155779
40
0.7304882
50
46.7401062
51
65.4130663
0
ARC
8
right_labelLayer
10
838.3715142
20
44.1821614
40
0.7056516
50
19.2204897
51
45.7660444
0
ARC
8
right_labelLayer
10
837.964637
20
44.0313294
40
1.1395349
50
6.4733426
51
19.6468065
0
ARC
8
right_labelLayer
10
837.3566369
20
43.953077
40
1.7525052
50
359.7945237
51
6.7743529
0
LINE
8
right_labelLayer
10
841.1721191
20
42.5356593
11
841.1721191
21
42.2256007
0
LINE
8
right_labelLayer
10
839.9709473
20
42.9702296
11
839.9709473
21
44.5620265
0
LINE
8
right_labelLayer
10
839.9709473
20
44.5620265
11
839.5876465
21
44.5620265
0
LINE
8
right_labelLayer
10
839.5876465
20
44.5620265
11
839.5876465
21
44.757339
0
LINE
8
right_labelLayer
10
839.5876465
20
44.757339
11
839.9709473
21
44.925796
0
LINE
8
right_labelLayer
10
839.9709473
20
44.925796
11
840.1418457
21
45.4970851
0
LINE
8
right_labelLayer
10
840.1418457
20
45.4970851
11
840.3762207
21
45.4970851
0
LINE
8
right_labelLayer
10
840.3762207
20
45.4970851
11
840.3762207
21
44.8769679
0
LINE
8
right_labelLayer
10
840.3762207
20
44.8769679
11
841.1525879
21
44.8769679
0
LINE
8
right_labelLayer
10
841.1525879
20
44.8769679
11
841.1525879
21
44.5620265
0
LINE
8
right_labelLayer
10
841.1525879
20
44.5620265
11
840.3762207
21
44.5620265
0
LINE
8
right_labelLayer
10
840.3762207
20
44.5620265
11
840.3762207
21
42.9873195
0
ARC
8
right_labelLayer
10
840.8086888
20
43.8177924
40
1.3309642
50
269.8802997
51
278.3028363
0
ARC
8
right_labelLayer
10
840.8214516
20
43.7135709
40
1.2259943
50
278.4159829
51
279.0089104
0
ARC
8
right_labelLayer
10
840.6720193
20
44.6682596
40
2.1923063
50
278.9591523
51
280.5106391
0
ARC
8
right_labelLayer
10
840.8142339
20
43.9051798
40
1.4160879
50
280.4851954
51
282.6264461
0
ARC
8
right_labelLayer
10
840.9391821
20
43.3500369
40
0.847058
50
282.587502
51
285.5796152
0
ARC
8
right_labelLayer
10
841.0013832
20
43.1211733
40
0.6098994
50
285.7253995
51
286.2566896
0
ARC
8
right_labelLayer
10
841.0017331
20
42.5859749
40
0.3986239
50
287.9888329
51
295.3049282
0
ARC
8
right_labelLayer
10
840.9055934
20
42.8768349
40
0.7049584
50
283.3068847
51
288.1199544
0
ARC
8
right_labelLayer
10
840.8039967
20
43.3006433
40
1.140773
50
280.0070995
51
283.3733034
0
ARC
8
right_labelLayer
10
840.7362088
20
43.6684144
40
1.5147311
50
279.1862642
51
280.1148614
0
ARC
8
right_labelLayer
10
840.694357
20
43.9065105
40
1.756458
50
275.5259205
51
279.2940497
0
ARC
8
right_labelLayer
10
840.7413505
20
43.4156432
40
1.2633467
50
270.8932729
51
275.5483032
0
ARC
8
right_labelLayer
10
840.7472725
20
43.1901765
40
1.0378179
50
270.0023145
51
270.7604253
0
ARC
8
right_labelLayer
10
840.7309599
20
43.2107429
40
1.0585107
50
253.7847598
51
270.8852869
0
ARC
8
right_labelLayer
10
840.6055546
20
42.7830654
40
0.6128283
50
190.3817649
51
253.8772393
0
ARC
8
right_labelLayer
10
841.2447511
20
42.9558923
40
1.2738846
50
179.3551319
51
192.847745
0
ARC
8
right_labelLayer
10
841.1922755
20
42.9822144
40
0.8160708
50
179.6415763
51
189.7507023
0
ARC
8
right_labelLayer
10
840.904201
20
42.9308317
40
0.5234589
50
189.5480204
51
205.7872936
0
ARC
8
right_labelLayer
10
840.7858038
20
42.8762357
40
0.3931082
50
206.1294381
51
221.4083293
0
ARC
8
right_labelLayer
10
840.7725274
20
42.8661628
40
0.3764902
50
221.5949792
51
262.3504868
0
ARC
8
right_labelLayer
10
840.8041006
20
43.0285279
40
0.5416998
50
261.3266402
51
270.1911896
0
LINE
8
bottom_outsideCutPath
10
1154
20
1302
11
1154
21
654
0
LINE
8
bottom_outsideCutPath
10
1154
20
654
11
1672
21
654
0
LINE
8
bottom_outsideCutPath
10
1672
20
654
11
1672
21
1302
0
LINE
8
bottom_outsideCutPath
10
1672
20
1302
11
1154
21
1302
0
LINE
8
bottom_labelLayer
10
1250.9729967
20
946.2839261
11
1250.3659655
21
946.2839261
0
LINE
8
bottom_labelLayer
10
1250.3659655
20
946.2839261
11
1248.5954577
21
939.1513089
0
LINE
8
bottom_labelLayer
10
1248.5954577
20
939.1513089
11
1242.5757311
21
939.1513089
0
LINE
8
bottom_labelLayer
10
1242.5757311
20
939.1513089
11
1242.5757311
21
1017.8630277
0
LINE
8
bottom_labelLayer
10
1242.5757311
20
1017.8630277
11
1250.9729967
21
1017.8630277
0
LINE
8
bottom_labelLayer
10
1250.9729967
20
1017.8630277
11
1250.9729967
21
998.7415433
0
LINE
8
bottom_labelLayer
10
1250.5683092
20
987.2079495
11
1250.9729967
21
987.2079495
0
ARC
8
bottom_labelLayer
10
1268.6264651
20
969.8403187
40
25.6649608
50
74.2393318
51
90.5623767
0
ARC
8
bottom_labelLayer
10
1270.3235207
20
976.066037
40
19.2124338
50
38.563129
51
74.067039
0
ARC
8
bottom_labelLayer
10
1265.9562364
20
972.6702203
40
24.7442722
50
16.4709283
51
38.4075271
0
ARC
8
bottom_labelLayer
10
1253.3747395
20
968.7250311
40
37.9286615
50
5.1338484
51
16.7973394
0
ARC
8
bottom_labelLayer
10
1237.4917205
20
967.0378254
40
53.8995626
50
359.8779273
51
5.4093623
0
ARC
8
bottom_labelLayer
10
1242.1568925
20
966.6325137
40
49.2351252
50
350.6562819
51
0.3380327
0
ARC
8
bottom_labelLayer
10
1259.3210588
20
963.7130781
40
31.8248395
50
335.8305958
51
350.8254829
0
ARC
8
bottom_labelLayer
10
1266.8712721
20
960.4542998
40
23.6025215
50
321.3161456
51
335.5436167
0
ARC
8
bottom_labelLayer
10
1269.7577658
20
958.1022454
40
19.8792437
50
274.0640059
51
321.4081017
0
ARC
8
bottom_labelLayer
10
1268.4130474
20
966.6201906
40
28.4806264
50
269.9225715
51
275.5481629
0
ARC
8
bottom_labelLayer
10
1268.2329517
20
963.609923
40
25.4707265
50
255.7755377
51
270.3185443
0
ARC
8
bottom_labelLayer
10
1267.506085
20
960.3805353
40
22.1619222
50
245.9801584
51
255.545578
0
ARC
8
bottom_labelLayer
10
1266.0982239
20
957.1065451
40
18.5984293
50
215.5850204
51
245.836165
0
ARC
8
bottom_labelLayer
10
1075.8968083
20
998.5935287
40
175.076251
50
358.1123206
51
0.0484395
0
ARC
8
bottom_labelLayer
10
1124.6231566
20
996.9576498
40
126.3224626
50
355.7238635
51
358.125897
0
ARC
8
bottom_labelLayer
10
1146.1009374
20
995.4819323
40
104.794516
50
355.4715358
51
355.6528706
0
ARC
8
bottom_labelLayer
10
1266.6335315
20
976.2874369
40
19.0921435
50
95.1835144
51
145.1108981
0
ARC
8
bottom_labelLayer
10
1268.3116592
20
966.824325
40
28.6797873
50
89.8743398
51
96.8145394
0
ARC
8
bottom_labelLayer
10
1266.9846955
20
964.8762268
40
23.597026
50
89.5731342
51
100.7324232
0
ARC
8
bottom_labelLayer
10
1265.2378577
20
973.7018619
40
14.6006531
50
100.4469439
51
119.670078
0
ARC
8
bottom_labelLayer
10
1263.6180122
20
976.7303537
40
11.1677711
50
120.1402934
51
142.4249023
0
ARC
8
bottom_labelLayer
10
1266.297914
20
974.957511
40
14.3746472
50
143.3382331
51
161.25599
0
ARC
8
bottom_labelLayer
10
1277.504758
20
970.9787062
40
26.2662013
50
160.8926371
51
171.2334286
0
ARC
8
bottom_labelLayer
10
1296.2132746
20
967.9605824
40
45.2163362
50
171.0667811
51
177.8456886
0
ARC
8
bottom_labelLayer
10
1315.6697935
20
966.9710178
40
64.6968146
50
177.6176662
51
180.0425348
0
ARC
8
bottom_labelLayer
10
1306.4946265
20
966.7061849
40
55.5220531
50
179.7762696
51
185.7075256
0
ARC
8
bottom_labelLayer
10
1284.6042481
20
964.4507007
40
33.5159546
50
185.5924847
51
194.20507
0
ARC
8
bottom_labelLayer
10
1270.5815109
20
960.8113129
40
19.0290997
50
193.9430416
51
208.0218373
0
ARC
8
bottom_labelLayer
10
1264.9078699
20
957.9249768
40
12.6651093
50
208.5536547
51
217.560529
0
ARC
8
bottom_labelLayer
10
1264.4456136
20
957.7327108
40
12.1821559
50
218.1690471
51
253.8047174
0
ARC
8
bottom_labelLayer
10
1266.7051666
20
964.6991412
40
19.5036711
50
253.1382426
51
266.8483147
0
ARC
8
bottom_labelLayer
10
1267.3387861
20
972.1715481
40
27.0005233
50
266.3775773
51
270.0510441
0
ARC
8
bottom_labelLayer
10
1267.5419661
20
961.9099431
40
16.739866
50
269.3868924
51
285.863068
0
ARC
8
bottom_labelLayer
10
1268.7856327
20
957.415163
40
12.076358
50
286.01629
51
326.8497347
0
ARC
8
bottom_labelLayer
10
1262.7830531
20
961.3916539
40
19.2765016
50
326.7105002
51
343.666175
0
ARC
8
bottom_labelLayer
10
1251.5465639
20
964.8251573
40
31.025388
50
343.4171407
51
353.6369141
0
ARC
8
bottom_labelLayer
10
1234.5750276
20
966.8389502
40
48.1157084
50
353.4934778
51
0.2205474
0
ARC
8
bottom_labelLayer
10
1233.078999
20
967.224975
40
49.611787
50
359.7680822
51
6.3095241
0
ARC
8
bottom_labelLayer
10
1251.7667335
20
969.3695048
40
30.801665
50
6.1648664
51
16.0396369
0
ARC
8
bottom_labelLayer
10
1263.8051003
20
972.9172062
40
18.2518947
50
15.7779426
51
32.0151266
0
ARC
8
bottom_labelLayer
10
1267.5588509
20
975.0668272
40
13.9304572
50
32.7034267
51
35.5242017
0
ARC
8
bottom_labelLayer
10
1268.9320683
20
976.0428402
40
12.2457278
50
35.5408385
51
79.8011231
0
ARC
8
bottom_labelLayer
10
1267.2875922
20
969.0518501
40
19.4211638
50
78.6781297
51
90.3749562
0
ARC
8
bottom_labelLayer
10
1310.5410546
20
966.6305722
40
43.3753106
50
349.1761913
51
0.3862648
0
ARC
8
bottom_labelLayer
10
1325.1444913
20
963.719349
40
28.4852227
50
330.2507071
51
349.4116464
0
ARC
8
bottom_labelLayer
10
1329.6386919
20
961.3834417
40
23.4251157
50
318.143976
51
329.7566215
0
ARC
8
bottom_labelLayer
10
1330.4498352
20
960.733391
40
22.3872759
50
278.8959164
51
317.9979138
0
ARC
8
bottom_labelLayer
10
1328.3598365
20
970.746754
40
32.6074735
50
269.7502868
51
279.8033249
0
ARC
8
bottom_labelLayer
10
1328.0208795
20
965.1048491
40
26.9659774
50
253.5436951
51
270.4182462
0
ARC
8
bottom_labelLayer
10
1327.1232353
20
961.6325349
40
23.3819368
50
238.8115531
51
253.2428348
0
ARC
8
bottom_labelLayer
10
1326.8335347
20
961.0499493
40
22.7335941
50
207.7947018
51
238.6757969
0
ARC
8
bottom_labelLayer
10
1330.9908695
20
963.5960837
40
27.6003313
50
205.6560372
51
208.4461082
0
ARC
8
bottom_labelLayer
10
1334.1924506
20
964.9300414
40
31.0643708
50
188.9102474
51
205.3171439
0
ARC
8
bottom_labelLayer
10
1344.9831264
20
966.7576334
40
42.0081113
50
179.7744679
51
189.0932869
0
ARC
8
bottom_labelLayer
10
1346.5749064
20
967.2183037
40
43.600566
50
169.244294
51
180.3880784
0
ARC
8
bottom_labelLayer
10
1331.7685044
20
970.1449946
40
28.5083213
50
150.7111479
51
169.4695434
0
ARC
8
bottom_labelLayer
10
1327.0418429
20
972.5723082
40
23.1992447
50
138.1759456
51
150.2287395
0
ARC
8
bottom_labelLayer
10
1326.2555933
20
973.1756618
40
22.2111166
50
99.1759371
51
137.9832744
0
ARC
8
bottom_labelLayer
10
1328.4196356
20
962.9914279
40
32.6141424
50
89.7326364
51
100.0759791
0
ARC
8
bottom_labelLayer
10
1328.8521512
20
967.3896639
40
28.2169438
50
73.5222743
51
90.5692248
0
ARC
8
bottom_labelLayer
10
1330.5069091
20
973.4018361
40
21.9826507
50
41.1445649
51
73.213385
0
ARC
8
bottom_labelLayer
10
1327.3481093
20
970.686891
40
26.1477412
50
13.5014367
51
41.0703408
0
ARC
8
bottom_labelLayer
10
1315.1441352
20
967.4932744
40
38.7609059
50
1.1277198
51
13.8800015
0
ARC
8
bottom_labelLayer
10
1304.6321187
20
966.9299484
40
49.2832615
50
359.9919087
51
1.541984
0
ARC
8
bottom_labelLayer
10
1354.1991383
20
966.704762
40
42.5235765
50
179.7059627
51
187.9160805
0
ARC
8
bottom_labelLayer
10
1338.6028165
20
964.4643636
40
26.7674156
50
187.763924
51
200.0976881
0
ARC
8
bottom_labelLayer
10
1330.0108633
20
961.3162594
40
17.6168857
50
200.0845885
51
216.9131632
0
ARC
8
bottom_labelLayer
10
1326.8733878
20
959.0759548
40
13.7631071
50
217.3009575
51
261.709908
0
ARC
8
bottom_labelLayer
10
1328.3299128
20
966.0263522
40
20.8555114
50
260.5033219
51
270.2476792
0
ARC
8
bottom_labelLayer
10
1328.6079208
20
964.6748247
40
19.5046938
50
269.448164
51
284.7255682
0
ARC
8
bottom_labelLayer
10
1330.1519925
20
958.9483608
40
13.5738845
50
284.5662307
51
322.6333835
0
ARC
8
bottom_labelLayer
10
1326.5418726
20
961.5565115
40
18.026401
50
323.0089267
51
342.6390474
0
ARC
8
bottom_labelLayer
10
1316.2161683
20
964.9312491
40
28.8890346
50
342.3615687
51
353.7537594
0
ARC
8
bottom_labelLayer
10
1300.9822706
20
966.7674947
40
44.232601
50
353.53631
51
0.2014162
0
ARC
8
bottom_labelLayer
10
1303.3163395
20
967.1368364
40
41.8988046
50
359.7075661
51
7.8972712
0
ARC
8
bottom_labelLayer
10
1318.6608619
20
969.3366166
40
26.3976601
50
7.7439903
51
20.0690212
0
ARC
8
bottom_labelLayer
10
1327.2114279
20
972.4743554
40
17.289569
50
20.0257016
51
37.4350565
0
ARC
8
bottom_labelLayer
10
1330.0484292
20
974.4874499
40
13.8137601
50
37.9577669
51
80.4006174
0
ARC
8
bottom_labelLayer
10
1328.4362495
20
967.2940659
40
21.1788572
50
79.3453426
51
90.3174837
0
ARC
8
bottom_labelLayer
10
1328.1377312
20
968.488908
40
19.9845112
50
89.4805942
51
103.8805066
0
ARC
8
bottom_labelLayer
10
1326.4585156
20
974.8833507
40
13.3743037
50
103.4685223
51
142.3118913
0
ARC
8
bottom_labelLayer
10
1329.7230483
20
972.5874993
40
17.3622139
50
142.9025766
51
162.3749593
0
ARC
8
bottom_labelLayer
10
1340.0096025
20
969.1595341
40
28.2042544
50
162.065319
51
173.1674819
0
ARC
8
bottom_labelLayer
10
1356.0490048
20
967.113803
40
44.3732933
50
173.0086162
51
180.2463845
0
LINE
8
bottom_labelLayer
10
1394.1311999
20
946.0815823
11
1394.1311999
21
939.6571683
0
LINE
8
bottom_labelLayer
10
1369.2429186
20
955.0858792
11
1369.2429186
21
988.0679105
0
LINE
8
bottom_labelLayer
10
1369.2429186
20
988.0679105
11
1361.3009264
21
988.0679105
0
LINE
8
bottom_labelLayer
10
1361.3009264
20
988.0679105
11
1361.3009264
21
992.1147855
0
LINE
8
bottom_labelLayer
10
1361.3009264
20
992.1147855
11
1369.2429186
21
995.6052152
0
LINE
8
bottom_labelLayer
10
1369.2429186
20
995.6052152
11
1372.7839342
21
1007.4423245
0
LINE
8
bottom_labelLayer
10
1372.7839342
20
1007.4423245
11
1377.6401842
21
1007.4423245
0
LINE
8
bottom_labelLayer
10
1377.6401842
20
1007.4423245
11
1377.6401842
21
994.5934964
0
LINE
8
bottom_labelLayer
10
1377.6401842
20
994.5934964
11
1393.7265124
21
994.5934964
0
LINE
8
bottom_labelLayer
10
1393.7265124
20
994.5934964
11
1393.7265124
21
988.0679105
0
LINE
8
bottom_labelLayer
10
1393.7265124
20
988.0679105
11
1377.6401842
21
988.0679105
0
LINE
8
bottom_labelLayer
10
1377.6401842
20
988.0679105
11
1377.6401842
21
955.4399808
0
ARC
8
bottom_labelLayer
10
1386.6008966
20
972.647587
40
27.5777835
50
269.880356
51
278.3028292
0
ARC
8
bottom_labelLayer
10
1386.8632967
20
970.5034134
40
25.4182411
50
278.4154898
51
279.0080525
0
ARC
8
bottom_labelLayer
10
1383.7690721
20
990.2702888
40
45.4258081
50
278.9589839
51
280.510429
0
ARC
8
bottom_labelLayer
10
1386.717982
20
974.4475266
40
29.3306036
50
280.4847782
51
282.6268129
0
ARC
8
bottom_labelLayer
10
1389.3043238
20
962.9571304
40
17.5527376
50
282.587674
51
285.5794978
0
ARC
8
bottom_labelLayer
10
1390.5992688
20
958.194247
40
12.6170987
50
285.7240197
51
286.2561527
0
ARC
8
bottom_labelLayer
10
1390.6007577
20
947.1242585
40
8.2596282
50
287.988827
51
295.3047961
0
ARC
8
bottom_labelLayer
10
1388.6086012
20
953.1514642
40
14.6074834
50
283.3069409
51
288.1197647
0
ARC
8
bottom_labelLayer
10
1386.5041433
20
961.9298029
40
23.6345267
50
280.0069947
51
283.3735248
0
ARC
8
bottom_labelLayer
10
1385.0957932
20
969.5727252
40
31.4059554
50
279.1863299
51
280.1143142
0
ARC
8
bottom_labelLayer
10
1384.2316838
20
974.487778
40
36.3959851
50
275.5260404
51
279.2939443
0
ARC
8
bottom_labelLayer
10
1385.2056883
20
964.3143588
40
26.1760536
50
270.8932571
51
275.5483745
0
ARC
8
bottom_labelLayer
10
1385.3280636
20
959.6656213
40
21.5260311
50
270.0031491
51
270.7604694
0
ARC
8
bottom_labelLayer
10
1384.9903905
20
960.0693973
40
21.9324249
50
253.784794
51
270.8852556
0
ARC
8
bottom_labelLayer
10
1382.391982
20
951.2078361
40
12.6978016
50
190.3817654
51
253.8772403
0
ARC
8
bottom_labelLayer
10
1395.6360407
20
954.7887942
40
26.394794
50
179.3550972
51
192.8477588
0
ARC
8
bottom_labelLayer
10
1394.5491717
20
955.3342267
40
16.9093182
50
179.6416591
51
189.7505868
0
ARC
8
bottom_labelLayer
10
1388.5798512
20
954.2695267
40
10.8459793
50
189.5479534
51
205.7873609
0
ARC
8
bottom_labelLayer
10
1386.1267116
20
953.1383076
40
8.1451643
50
206.1294358
51
221.4083983
0
ARC
8
bottom_labelLayer
10
1385.851652
20
952.9295977
40
7.8008618
50
221.5949205
51
262.350515
0
ARC
8
bottom_labelLayer
10
1386.5058339
20
956.2936591
40
11.223858
50
261.3266276
51
270.1913051
0
LINE
8
bottom_labelLayer
10
1430.7048327
20
946.0815823
11
1430.7048327
21
939.6571683
0
LINE
8
bottom_labelLayer
10
1405.8165514
20
955.0858792
11
1405.8165514
21
988.0679105
0
LINE
8
bottom_labelLayer
10
1405.8165514
20
988.0679105
11
1397.8745592
21
988.0679105
0
LINE
8
bottom_labelLayer
10
1397.8745592
20
988.0679105
11
1397.8745592
21
992.1147855
0
LINE
8
bottom_labelLayer
10
1397.8745592
20
992.1147855
11
1405.8165514
21
995.6052152
0
LINE
8
bottom_labelLayer
10
1405.8165514
20
995.6052152
11
1409.357567
21
1007.4423245
0
LINE
8
bottom_labelLayer
10
1409.357567
20
1007.4423245
11
1414.213817
21
1007.4423245
0
LINE
8
bottom_labelLayer
10
1414.213817
20
1007.4423245
11
1414.213817
21
994.5934964
0
LINE
8
bottom_labelLayer
10
1414.213817
20
994.5934964
11
1430.3001452
21
994.5934964
0
LINE
8
bottom_labelLayer
10
1430.3001452
20
994.5934964
11
1430.3001452
21
988.0679105
0
LINE
8
bottom_labelLayer
10
1430.3001452
20
988.0679105
11
1414.213817
21
988.0679105
0
LINE
8
bottom_labelLayer
10
1414.213817
20
988.0679105
11
1414.213817
21
955.4399808
0
ARC
8
bottom_labelLayer
10
1423.1745294
20
972.647587
40
27.5777835
50
269.880356
51
278.3028292
0
ARC
8
bottom_labelLayer
10
1423.4369295
20
970.5034134
40
25.4182411
50
278.4154898
51
279.0080525
0
ARC
8
bottom_labelLayer
10
1420.342705
20
990.2702888
40
45.4258081
50
278.9589839
51
280.510429
0
ARC
8
bottom_labelLayer
10
1423.2916149
20
974.4475266
40
29.3306036
50
280.4847782
51
282.6268129
0
ARC
8
bottom_labelLayer
10
1425.8779567
20
962.9571304
40
17.5527376
50
282.587674
51
285.5794978
0
ARC
8
bottom_labelLayer
10
1427.1729016
20
958.194247
40
12.6170987
50
285.7240197
51
286.2561527
0
ARC
8
bottom_labelLayer
10
1427.1743905
20
947.1242585
40
8.2596282
50
287.988827
51
295.3047961
0
ARC
8
bottom_labelLayer
10
1425.182234
20
953.1514642
40
14.6074834
50
283.3069409
51
288.1197647
0
ARC
8
bottom_labelLayer
10
1423.0777761
20
961.9298029
40
23.6345267
50
280.0069947
51
283.3735248
0
ARC
8
bottom_labelLayer
10
1421.6694261
20
969.5727252
40
31.4059554
50
279.1863299
51
280.1143142
0
ARC
8
bottom_labelLayer
10
1420.8053166
20
974.487778
40
36.3959851
50
275.5260404
51
279.2939443
0
ARC
8
bottom_labelLayer
10
1421.7793211
20
964.3143588
40
26.1760536
50
270.8932571
51
275.5483745
0
ARC
8
bottom_labelLayer
10
1421.9016964
20
959.6656213
40
21.5260311
50
270.0031491
51
270.7604694
0
ARC
8
bottom_labelLayer
10
1421.5640233
20
960.0693973
40
21.9324249
50
253.784794
51
270.8852556
0
ARC
8
bottom_labelLayer
10
1418.9656148
20
951.2078361
40
12.6978016
50
190.3817654
51
253.8772403
0
ARC
8
bottom_labelLayer
10
1432.2096735
20
954.7887942
40
26.394794
50
179.3550972
51
192.8477588
0
ARC
8
bottom_labelLayer
10
1431.1228046
20
955.3342267
40
16.9093182
50
179.6416591
51
189.7505868
0
ARC
8
bottom_labelLayer
10
1425.153484
20
954.2695267
40
10.8459793
50
189.5479534
51
205.7873609
0
ARC
8
bottom_labelLayer
10
1422.7003444
20
953.1383076
40
8.1451643
50
206.1294358
51
221.4083983
0
ARC
8
bottom_labelLayer
10
1422.4252848
20
952.9295977
40
7.8008618
50
221.5949205
51
262.350515
0
ARC
8
bottom_labelLayer
10
1423.0794667
20
956.2936591
40
11.223858
50
261.3266276
51
270.1913051
0
ARC
8
bottom_labelLayer
10
1446.2631249
20
966.6305722
40
43.3753106
50
349.1761913
51
0.3862648
0
ARC
8
bottom_labelLayer
10
1460.8665616
20
963.719349
40
28.4852227
50
330.2507071
51
349.4116464
0
ARC
8
bottom_labelLayer
10
1465.3607622
20
961.3834417
40
23.4251157
50
318.143976
51
329.7566215
0
ARC
8
bottom_labelLayer
10
1466.1719055
20
960.733391
40
22.3872759
50
278.8959164
51
317.9979138
0
ARC
8
bottom_labelLayer
10
1464.0819069
20
970.746754
40
32.6074735
50
269.7502868
51
279.8033249
0
ARC
8
bottom_labelLayer
10
1463.7429499
20
965.1048491
40
26.9659774
50
253.5436951
51
270.4182462
0
ARC
8
bottom_labelLayer
10
1462.8453056
20
961.6325349
40
23.3819368
50
238.8115531
51
253.2428348
0
ARC
8
bottom_labelLayer
10
1462.555605
20
961.0499493
40
22.7335941
50
207.7947018
51
238.6757969
0
ARC
8
bottom_labelLayer
10
1466.7129399
20
963.5960837
40
27.6003313
50
205.6560372
51
208.4461082
0
ARC
8
bottom_labelLayer
10
1469.9145209
20
964.9300414
40
31.0643708
50
188.9102474
51
205.3171439
0
ARC
8
bottom_labelLayer
10
1480.7051967
20
966.7576334
40
42.0081113
50
179.7744679
51
189.0932869
0
ARC
8
bottom_labelLayer
10
1482.2969767
20
967.2183037
40
43.600566
50
169.244294
51
180.3880784
0
ARC
8
bottom_labelLayer
10
1467.4905747
20
970.1449946
40
28.5083213
50
150.7111479
51
169.4695434
0
ARC
8
bottom_labelLayer
10
1462.7639132
20
972.5723082
40
23.1992447
50
138.1759456
51
150.2287395
0
ARC
8
bottom_labelLayer
10
1461.9776636
20
973.1756618
40
22.2111166
50
99.1759371
51
137.9832744
0
ARC
8
bottom_labelLayer
10
1464.1417059
20
962.9914279
40
32.6141424
50
89.7326364
51
100.0759791
0
ARC
8
bottom_labelLayer
10
1464.5742216
20
967.3896639
40
28.2169438
50
73.5222743
51
90.5692248
0
ARC
8
bottom_labelLayer
10
1466.2289794
20
973.4018361
40
21.9826507
50
41.1445649
51
73.213385
0
ARC
8
bottom_labelLayer
10
1463.0701796
20
970.686891
40
26.1477412
50
13.5014367
51
41.0703408
0
ARC
8
bottom_labelLayer
10
1450.8662055
20
967.4932744
40
38.7609059
50
1.1277198
51
13.8800015
0
ARC
8
bottom_labelLayer
10
1440.354189
20
966.9299484
40
49.2832615
50
359.9919087
51
1.541984
0
ARC
8
bottom_labelLayer
10
1489.9212086
20
966.704762
40
42.5235765
50
179.7059627
51
187.9160805
0
ARC
8
bottom_labelLayer
10
1474.3248868
20
964.4643636
40
26.7674156
50
187.763924
51
200.0976881
0
ARC
8
bottom_labelLayer
10
1465.7329336
20
961.3162594
40
17.6168857
50
200.0845885
51
216.9131632
0
ARC
8
bottom_labelLayer
10
1462.5954581
20
959.0759548
40
13.7631071
50
217.3009575
51
261.709908
0
ARC
8
bottom_labelLayer
10
1464.0519831
20
966.0263522
40
20.8555114
50
260.5033219
51
270.2476792
0
ARC
8
bottom_labelLayer
10
1464.3299911
20
964.6748247
40
19.5046938
50
269.448164
51
284.7255682
0
ARC
8
bottom_labelLayer
10
1465.8740628
20
958.9483608
40
13.5738845
50
284.5662307
51
322.6333835
0
ARC
8
bottom_labelLayer
10
1462.2639429
20
961.5565115
40
18.026401
50
323.0089267
51
342.6390474
0
ARC
8
bottom_labelLayer
10
1451.9382386
20
964.9312491
40
28.8890346
50
342.3615687
51
353.7537594
0
ARC
8
bottom_labelLayer
10
1436.7043409
20
966.7674947
40
44.232601
50
353.53631
51
0.2014162
0
ARC
8
bottom_labelLayer
10
1439.0384098
20
967.1368364
40
41.8988046
50
359.7075661
51
7.8972712
0
ARC
8
bottom_labelLayer
10
1454.3829322
20
969.3366166
40
26.3976601
50
7.7439903
51
20.0690212
0
ARC
8
bottom_labelLayer
10
1462.9334982
20
972.4743554
40
17.289569
50
20.0257016
51
37.4350565
0
ARC
8
bottom_labelLayer
10
1465.7704996
20
974.4874499
40
13.8137601
50
37.9577669
51
80.4006174
0
ARC
8
bottom_labelLayer
10
1464.1583198
20
967.2940659
40
21.1788572
50
79.3453426
51
90.3174837
0
ARC
8
bottom_labelLayer
10
1463.8598015
20
968.488908
40
19.9845112
50
89.4805942
51
103.8805066
0
ARC
8
bottom_labelLayer
10
1462.1805859
20
974.8833507
40
13.3743037
50
103.4685223
51
142.3118913
0
ARC
8
bottom_labelLayer
10
1465.4451186
20
972.5874993
40
17.3622139
50
142.9025766
51
162.3749593
0
ARC
8
bottom_labelLayer
10
1475.7316728
20
969.1595341
40
28.2042544
50
162.065319
51
173.1674819
0
ARC
8
bottom_labelLayer
10
1491.7710751
20
967.113803
40
44.3732933
50
173.0086162
51
180.2463845
0
LINE
8
bottom_labelLayer
10
1583.423778
20
939.1513089
11
1575.0265124
21
939.1513089
0
LINE
8
bottom_labelLayer
10
1575.0265124
20
939.1513089
11
1575.0265124
21
975.2190823
0
LINE
8
bottom_labelLayer
10
1548.0642077
20
970.1099027
11
1548.0642077
21
939.1513089
0
LINE
8
bottom_labelLayer
10
1548.0642077
20
939.1513089
11
1539.666942
21
939.1513089
0
LINE
8
bottom_labelLayer
10
1539.666942
20
939.1513089
11
1539.666942
21
975.2190823
0
LINE
8
bottom_labelLayer
10
1512.7552233
20
968.238223
11
1512.7552233
21
939.1513089
0
LINE
8
bottom_labelLayer
10
1512.7552233
20
939.1513089
11
1504.3579577
21
939.1513089
0
LINE
8
bottom_labelLayer
10
1504.3579577
20
939.1513089
11
1504.3579577
21
994.5934964
0
LINE
8
bottom_labelLayer
10
1504.3579577
20
994.5934964
11
1511.1870592
21
994.5934964
0
LINE
8
bottom_labelLayer
10
1511.1870592
20
994.5934964
11
1512.5528795
21
987.0056058
0
LINE
8
bottom_labelLayer
10
1512.5528795
20
987.0056058
11
1512.957567
21
987.0056058
0
LINE
8
bottom_labelLayer
10
1546.3442858
20
986.1962308
11
1546.7489733
21
986.1962308
0
LINE
8
bottom_labelLayer
10
1583.423778
20
975.3202542
11
1583.423778
21
939.1513089
0
ARC
8
bottom_labelLayer
10
1550.2542737
20
975.3510245
40
24.7725901
50
359.6948335
51
8.1471537
0
ARC
8
bottom_labelLayer
10
1559.378808
20
976.7013556
40
15.5488441
50
7.9864533
51
20.7949655
0
ARC
8
bottom_labelLayer
10
1564.4225709
20
978.6334367
40
10.1477229
50
20.7071209
51
40.0217598
0
ARC
8
bottom_labelLayer
10
1565.5290642
20
979.3574006
40
8.836202
50
41.0408086
51
73.179265
0
ARC
8
bottom_labelLayer
10
1563.9279776
20
974.5148897
40
13.9354631
50
72.6395532
51
86.2568015
0
ARC
8
bottom_labelLayer
10
1563.4150632
20
968.9801338
40
19.4924779
50
85.8144634
51
90.068536
0
ARC
8
bottom_labelLayer
10
1563.2266194
20
966.8657471
40
21.6074818
50
89.5621336
51
101.2961716
0
ARC
8
bottom_labelLayer
10
1561.5992092
20
974.6567101
40
13.6488476
50
101.0032237
51
121.7840526
0
ARC
8
bottom_labelLayer
10
1560.3619777
20
976.8655183
40
11.1201614
50
122.3597233
51
140.2884136
0
ARC
8
bottom_labelLayer
10
1562.5878902
20
975.2334009
40
13.8762887
50
140.9765268
51
161.1699517
0
ARC
8
bottom_labelLayer
10
1570.9734159
20
972.249181
40
22.7765207
50
160.8731773
51
172.5272479
0
ARC
8
bottom_labelLayer
10
1584.9854534
20
970.3140174
40
36.9213544
50
172.3776559
51
180.1829563
0
ARC
8
bottom_labelLayer
10
1594.7014063
20
970.1098461
40
46.6371988
50
179.894008
51
179.9999306
0
ARC
8
bottom_labelLayer
10
1514.8947033
20
975.3510245
40
24.7725901
50
359.6948335
51
8.1471537
0
ARC
8
bottom_labelLayer
10
1524.0192377
20
976.7013556
40
15.5488441
50
7.9864533
51
20.7949655
0
ARC
8
bottom_labelLayer
10
1529.0630006
20
978.6334367
40
10.1477229
50
20.7071209
51
40.0217598
0
ARC
8
bottom_labelLayer
10
1530.1925016
20
979.3732995
40
8.80841
50
41.0610717
51
72.8993608
0
ARC
8
bottom_labelLayer
10
1528.5610847
20
974.516396
40
13.9309254
50
72.3601002
51
85.9561802
0
ARC
8
bottom_labelLayer
10
1528.0088209
20
968.8087641
40
19.6638527
50
85.5238024
51
90.079343
0
ARC
8
bottom_labelLayer
10
1527.8204524
20
967.6168106
40
20.8564099
50
89.5573244
51
101.4832089
0
ARC
8
bottom_labelLayer
10
1526.2196508
20
975.1169301
40
13.1879476
50
101.1546321
51
123.0655688
0
ARC
8
bottom_labelLayer
10
1525.1315149
20
977.012414
40
11.0064373
50
123.7020485
51
142.3022049
0
ARC
8
bottom_labelLayer
10
1527.6804099
20
975.2832107
40
14.0819322
50
143.0769726
51
161.3913819
0
ARC
8
bottom_labelLayer
10
1537.9548574
20
971.6545113
40
24.9776755
50
161.0234476
51
171.4469085
0
ARC
8
bottom_labelLayer
10
1554.9639737
20
968.9900875
40
42.1940239
50
171.3041957
51
178.3501612
0
ARC
8
bottom_labelLayer
10
1571.2200838
20
968.2640645
40
58.464866
50
178.0976232
51
180.0253248
0
ARC
8
bottom_labelLayer
10
1527.1836713
20
978.6399537
40
16.5035202
50
117.120956
51
149.5423686
0
ARC
8
bottom_labelLayer
10
1528.8679956
20
975.6462816
40
19.9363132
50
93.8343287
51
117.5072154
0
ARC
8
bottom_labelLayer
10
1529.3332071
20
971.5256652
40
24.0795542
50
89.9662033
51
94.2831366
0
ARC
8
bottom_labelLayer
10
1529.6119408
20
968.1137899
40
27.4926979
50
77.557222
51
90.5512986
0
ARC
8
bottom_labelLayer
10
1532.1629621
20
979.0862013
40
16.2288521
50
52.7027064
51
78.0053775
0
ARC
8
bottom_labelLayer
10
1533.0718412
20
980.7771996
40
14.3360973
50
22.2097944
51
51.497054
0
ARC
8
bottom_labelLayer
10
1561.9609876
20
977.4781916
40
17.5330998
50
119.4041779
51
150.1828821
0
ARC
8
bottom_labelLayer
10
1563.9054485
20
974.5212441
40
21.0651865
50
118.2583523
51
120.0629781
0
ARC
8
bottom_labelLayer
10
1563.8999553
20
974.3050099
40
21.2533201
50
95.8635178
51
117.9693176
0
ARC
8
bottom_labelLayer
10
1564.6192476
20
969.1039964
40
26.5012447
50
89.9196868
51
96.2617575
0
ARC
8
bottom_labelLayer
10
1564.8501751
20
966.4165185
40
29.1893399
50
79.9360981
51
90.3803736
0
ARC
8
bottom_labelLayer
10
1566.7951036
20
976.950022
40
18.4781907
50
62.9723276
51
80.1665158
0
ARC
8
bottom_labelLayer
10
1568.82827
20
981.1212974
40
13.8388162
50
44.2290044
51
62.6229083
0
ARC
8
bottom_labelLayer
10
1568.2235582
20
980.8541595
40
14.4602984
50
19.5612053
51
43.3161208
0
ARC
8
bottom_labelLayer
10
1559.4411849
20
977.5554911
40
23.8408212
50
7.504188
51
19.9645372
0
ARC
8
bottom_labelLayer
10
1544.90878
20
975.5147037
40
38.5154889
50
359.710735
51
7.690728
0
ENDSEC
0
EOF