0
SECTION
2
HEADER
9
$INSUNITS
70
4
0
ENDSEC
0
SECTION
2
TABLES
0
TABLE
2
LTYPE
0
LTYPE
72
65
70
64
2
CONTINUOUS
3
______
73
0
40
0
0
ENDTAB
0
TABLE
2
LAYER
0
ENDTAB
0
ENDSEC
0
SECTION
2
ENTITIES
0
LINE
8
front_outsideCutPath
10
0
20
303
11
0
21
277.75845
0
LINE
8
front_outsideCutPath
10
0
20
277.75845
11
3
21
277.75845
0
LINE
8
front_outsideCutPath
10
3
20
277.75845
11
3
21
250.03435
0
LINE
8
front_outsideCutPath
10
3
20
250.03435
11
0
21
250.03435
0
LINE
8
front_outsideCutPath
10
0
20
250.03435
11
0
21
222.31025
0
LINE
8
front_outsideCutPath
10
0
20
222.31025
11
3
21
222.31025
0
LINE
8
front_outsideCutPath
10
3
20
222.31025
11
3
21
194.58615
0
LINE
8
front_outsideCutPath
10
3
20
194.58615
11
0
21
194.58615
0
LINE
8
front_outsideCutPath
10
0
20
194.58615
11
0
21
166.86205
0
LINE
8
front_outsideCutPath
10
0
20
166.86205
11
3
21
166.86205
0
LINE
8
front_outsideCutPath
10
3
20
166.86205
11
3
21
139.13795
0
LINE
8
front_outsideCutPath
10
3
20
139.13795
11
0
21
139.13795
0
LINE
8
front_outsideCutPath
10
0
20
139.13795
11
0
21
111.41385
0
LINE
8
front_outsideCutPath
10
0
20
111.41385
11
3
21
111.41385
0
LINE
8
front_outsideCutPath
10
3
20
111.41385
11
3
21
83.68975
0
LINE
8
front_outsideCutPath
10
3
20
83.68975
11
0
21
83.68975
0
LINE
8
front_outsideCutPath
10
0
20
83.68975
11
0
21
55.96565
0
LINE
8
front_outsideCutPath
10
0
20
55.96565
11
3
21
55.96565
0
LINE
8
front_outsideCutPath
10
3
20
55.96565
11
3
21
28.24155
0
LINE
8
front_outsideCutPath
10
3
20
28.24155
11
0
21
28.24155
0
LINE
8
front_outsideCutPath
10
0
20
28.24155
11
0
21
3
0
LINE
8
front_outsideCutPath
10
0
20
3
11
36.13795
21
3
0
LINE
8
front_outsideCutPath
10
36.13795
20
3
11
36.13795
21
6
0
LINE
8
front_outsideCutPath
10
36.13795
20
6
11
63.86205
21
6
0
LINE
8
front_outsideCutPath
10
63.86205
20
6
11
63.86205
21
3
0
LINE
8
front_outsideCutPath
10
63.86205
20
3
11
91.58615
21
3
0
LINE
8
front_outsideCutPath
10
91.58615
20
3
11
100
21
3
0
LINE
8
front_outsideCutPath
10
100
20
3
11
100
21
28.24155
0
LINE
8
front_outsideCutPath
10
100
20
28.24155
11
97
21
28.24155
0
LINE
8
front_outsideCutPath
10
97
20
28.24155
11
97
21
55.96565
0
LINE
8
front_outsideCutPath
10
97
20
55.96565
11
100
21
55.96565
0
LINE
8
front_outsideCutPath
10
100
20
55.96565
11
100
21
83.68975
0
LINE
8
front_outsideCutPath
10
100
20
83.68975
11
97
21
83.68975
0
LINE
8
front_outsideCutPath
10
97
20
83.68975
11
97
21
111.41385
0
LINE
8
front_outsideCutPath
10
97
20
111.41385
11
100
21
111.41385
0
LINE
8
front_outsideCutPath
10
100
20
111.41385
11
100
21
139.13795
0
LINE
8
front_outsideCutPath
10
100
20
139.13795
11
97
21
139.13795
0
LINE
8
front_outsideCutPath
10
97
20
139.13795
11
97
21
166.86205
0
LINE
8
front_outsideCutPath
10
97
20
166.86205
11
100
21
166.86205
0
LINE
8
front_outsideCutPath
10
100
20
166.86205
11
100
21
194.58615
0
LINE
8
front_outsideCutPath
10
100
20
194.58615
11
97
21
194.58615
0
LINE
8
front_outsideCutPath
10
97
20
194.58615
11
97
21
222.31025
0
LINE
8
front_outsideCutPath
10
97
20
222.31025
11
100
21
222.31025
0
LINE
8
front_outsideCutPath
10
100
20
222.31025
11
100
21
250.03435
0
LINE
8
front_outsideCutPath
10
100
20
250.03435
11
97
21
250.03435
0
LINE
8
front_outsideCutPath
10
97
20
250.03435
11
97
21
277.75845
0
LINE
8
front_outsideCutPath
10
97
20
277.75845
11
100
21
277.75845
0
LINE
8
front_outsideCutPath
10
100
20
277.75845
11
100
21
303
0
LINE
8
front_outsideCutPath
10
100
20
303
11
63.86205
21
303
0
LINE
8
front_outsideCutPath
10
63.86205
20
303
11
63.86205
21
300
0
LINE
8
front_outsideCutPath
10
63.86205
20
300
11
36.13795
21
300
0
LINE
8
front_outsideCutPath
10
36.13795
20
300
11
36.13795
21
303
0
LINE
8
front_outsideCutPath
10
36.13795
20
303
11
8.41385
21
303
0
LINE
8
front_outsideCutPath
10
8.41385
20
303
11
0
21
303
0
LINE
8
front_labelLayer
10
33.4326172
20
156.1496257
11
33.4326172
21
154.8898601
0
LINE
8
front_labelLayer
10
33.4326172
20
154.8898601
11
30.7080078
21
154.8898601
0
LINE
8
front_labelLayer
10
30.7080078
20
154.8898601
11
30.7080078
21
145.4465007
0
LINE
8
front_labelLayer
10
30.7080078
20
145.4465007
11
29.0869141
21
145.4465007
0
LINE
8
front_labelLayer
10
29.0869141
20
145.4465007
11
29.0869141
21
154.8898601
0
LINE
8
front_labelLayer
10
29.0869141
20
154.8898601
11
27.1728516
21
154.8898601
0
LINE
8
front_labelLayer
10
27.1728516
20
154.8898601
11
27.1728516
21
155.622282
0
LINE
8
front_labelLayer
10
27.1728516
20
155.622282
11
29.0869141
21
156.2082195
0
LINE
8
front_labelLayer
10
29.0869141
20
156.2082195
11
29.0869141
21
156.8039226
0
LINE
8
front_labelLayer
10
34.5263672
20
160.4074382
11
34.1064453
21
159.1086101
0
LINE
8
front_labelLayer
10
30.7080078
20
156.8429851
11
30.7080078
21
156.1496257
0
LINE
8
front_labelLayer
10
30.7080078
20
156.1496257
11
33.4326172
21
156.1496257
0
ARC
8
front_labelLayer
10
35.656643
20
156.8794516
40
6.5701631
50
167.5776019
51
180.6586728
0
ARC
8
front_labelLayer
10
32.5671365
20
157.5997452
40
3.3982616
50
141.7433952
51
168.2322111
0
ARC
8
front_labelLayer
10
32.0641015
20
157.8622911
40
2.8426424
50
98.25515
51
139.620332
0
ARC
8
front_labelLayer
10
32.5057745
20
155.821935
40
4.9273822
50
89.6697013
51
99.9314429
0
ARC
8
front_labelLayer
10
32.507007
20
155.5290279
40
5.2202779
50
81.5640782
51
89.7017613
0
ARC
8
front_labelLayer
10
32.1400146
20
152.9686645
40
7.8067887
50
75.9739836
51
81.6564925
0
ARC
8
front_labelLayer
10
31.5101857
20
150.3562892
40
10.4939481
50
73.2963798
51
76.0945964
0
ARC
8
front_labelLayer
10
31.6688282
20
151.6235867
40
7.8719472
50
71.9613356
51
76.5918517
0
ARC
8
front_labelLayer
10
32.2795384
20
154.2142902
40
5.2102479
50
76.5183435
51
83.0217048
0
ARC
8
front_labelLayer
10
32.4922705
20
155.9250858
40
3.4862815
50
83.076037
51
89.7927205
0
ARC
8
front_labelLayer
10
32.485268
20
157.2252028
40
2.1862297
50
89.4859359
51
103.4197073
0
ARC
8
front_labelLayer
10
32.2881641
20
157.9824617
40
1.4039934
50
102.7677419
51
144.3380185
0
ARC
8
front_labelLayer
10
32.6852455
20
157.7269769
40
1.875711
50
145.0688682
51
162.1801871
0
ARC
8
front_labelLayer
10
34.0467165
20
157.2689105
40
3.3121003
50
161.8437828
51
171.7846792
0
ARC
8
front_labelLayer
10
36.2672892
20
156.9353905
40
5.5575582
50
171.6528007
51
178.4383441
0
ARC
8
front_labelLayer
10
38.3619741
20
156.8460803
40
7.6539668
50
178.1973669
51
180.0231697
0
LINE
8
front_labelLayer
10
41.5478516
20
156.2277507
11
41.3232422
21
154.7238445
0
LINE
8
front_labelLayer
10
37.0068359
20
151.1886882
11
37.0068359
21
145.4465007
0
LINE
8
front_labelLayer
10
37.0068359
20
145.4465007
11
35.3857422
21
145.4465007
0
LINE
8
front_labelLayer
10
35.3857422
20
145.4465007
11
35.3857422
21
156.1496257
0
LINE
8
front_labelLayer
10
35.3857422
20
156.1496257
11
36.7236328
21
156.1496257
0
LINE
8
front_labelLayer
10
36.7236328
20
156.1496257
11
36.9091797
21
154.1672038
0
LINE
8
front_labelLayer
10
36.9091797
20
154.1672038
11
36.9873047
21
154.1672038
0
ARC
8
front_labelLayer
10
40.2851918
20
148.9027457
40
7.4422111
50
84.992291
51
90.1280853
0
ARC
8
front_labelLayer
10
40.4639204
20
150.9052003
40
5.4317999
50
78.4891881
51
85.0266001
0
ARC
8
front_labelLayer
10
39.7702105
20
147.7500366
40
7.1446416
50
77.4453847
51
81.6360114
0
ARC
8
front_labelLayer
10
40.081499
20
149.8956981
40
4.9765227
50
81.5884291
51
87.1916446
0
ARC
8
front_labelLayer
10
40.1491097
20
151.067975
40
3.8023544
50
87.3437351
51
89.9659832
0
ARC
8
front_labelLayer
10
40.1334016
20
152.0615111
40
2.8088752
50
89.6335332
51
137.0880824
0
ARC
8
front_labelLayer
10
40.8226335
20
151.2864292
40
3.8426618
50
135.6208614
51
138.8378137
0
ARC
8
front_labelLayer
10
40.7217405
20
151.3849151
40
3.7018901
50
138.9575794
51
174.5422254
0
ARC
8
front_labelLayer
10
41.9274083
20
151.1962675
40
4.9205781
50
173.6907914
51
180.0882543
0
ARC
8
front_labelLayer
10
41.7569048
20
151.4800333
40
5.4744836
50
139.4139283
51
150.6032915
0
ARC
8
front_labelLayer
10
40.7753331
20
152.3211361
40
4.1818363
50
124.2321574
51
139.4160923
0
ARC
8
front_labelLayer
10
40.2504874
20
153.1133863
40
3.2316024
50
89.6796684
51
124.4405593
0
ARC
8
front_labelLayer
10
44.4146558
20
150.7513789
40
8.3736204
50
349.1761945
51
0.3862568
0
ARC
8
front_labelLayer
10
47.233861
20
150.1893655
40
5.4990771
50
330.2507047
51
349.4116462
0
ARC
8
front_labelLayer
10
48.1014695
20
149.7384163
40
4.5222197
50
318.143971
51
329.7566252
0
ARC
8
front_labelLayer
10
48.2580578
20
149.6129266
40
4.3218687
50
278.8959183
51
317.9979086
0
ARC
8
front_labelLayer
10
47.8545846
20
151.5460018
40
6.2948732
50
269.7502763
51
279.8033236
0
ARC
8
front_labelLayer
10
47.7891484
20
150.4568395
40
5.2057899
50
253.5436962
51
270.418238
0
ARC
8
front_labelLayer
10
47.6158547
20
149.7865
40
4.5138811
50
238.8115441
51
253.242846
0
ARC
8
front_labelLayer
10
47.5599298
20
149.6740366
40
4.3887236
50
207.7946962
51
238.6757996
0
ARC
8
front_labelLayer
10
48.3624169
20
150.165521
40
5.328149
50
205.6559791
51
208.4461025
0
ARC
8
front_labelLayer
10
48.9805701
20
150.4230902
40
5.9969824
50
188.9102503
51
205.3171481
0
ARC
8
front_labelLayer
10
51.0637213
20
150.7759072
40
8.1096824
50
179.7744696
51
189.0932788
0
ARC
8
front_labelLayer
10
51.3710103
20
150.8648393
40
8.4171018
50
169.244298
51
180.388077
0
ARC
8
front_labelLayer
10
48.512632
20
151.4298361
40
5.5035418
50
150.7111564
51
169.4695354
0
ARC
8
front_labelLayer
10
47.6001567
20
151.8984219
40
4.4786339
50
138.175962
51
150.2287147
0
ARC
8
front_labelLayer
10
47.4483586
20
152.0149094
40
4.2878596
50
99.175935
51
137.9832793
0
ARC
8
front_labelLayer
10
47.8661284
20
150.0488414
40
6.2961655
50
89.7326434
51
100.0759878
0
ARC
8
front_labelLayer
10
47.9496243
20
150.8979214
40
5.4472856
50
73.5222665
51
90.5692191
0
ARC
8
front_labelLayer
10
48.2690752
20
152.0585698
40
4.2437569
50
41.1445735
51
73.2133783
0
ARC
8
front_labelLayer
10
47.6592716
20
151.5344521
40
5.047824
50
13.5014302
51
41.0703483
0
ARC
8
front_labelLayer
10
45.3032818
20
150.9179214
40
7.4828084
50
1.1277281
51
13.8799962
0
ARC
8
front_labelLayer
10
43.2740157
20
150.8091812
40
9.5140701
50
359.991856
51
1.5419431
0
ARC
8
front_labelLayer
10
52.8428699
20
150.7657001
40
8.2091889
50
179.7059623
51
187.9160759
0
ARC
8
front_labelLayer
10
49.8319964
20
150.3331922
40
5.1674586
50
187.7639332
51
200.097688
0
ARC
8
front_labelLayer
10
48.1733168
20
149.7254495
40
3.4009457
50
200.0845876
51
216.9131503
0
ARC
8
front_labelLayer
10
47.5676242
20
149.2929573
40
2.6569704
50
217.300954
51
261.7099073
0
ARC
8
front_labelLayer
10
47.8488056
20
150.6347234
40
4.0261509
50
260.5033133
51
270.2476938
0
ARC
8
front_labelLayer
10
47.9024761
20
150.3738215
40
3.765386
50
269.4481646
51
284.7255643
0
ARC
8
front_labelLayer
10
48.2005593
20
149.2683253
40
2.620441
50
284.566235
51
322.6333878
0
ARC
8
front_labelLayer
10
47.5036256
20
149.771829
40
3.4799996
50
323.0089266
51
342.6390508
0
ARC
8
front_labelLayer
10
45.5102406
20
150.4233247
40
5.5770392
50
342.3615704
51
353.7537499
0
ARC
8
front_labelLayer
10
42.5693152
20
150.7778121
40
8.539136
50
353.5363189
51
0.2014064
0
ARC
8
front_labelLayer
10
43.0199545
20
150.8491138
40
8.0885493
50
359.7075543
51
7.8972827
0
ARC
8
front_labelLayer
10
45.9821889
20
151.2737785
40
5.0960791
50
7.7440005
51
20.0690174
0
ARC
8
front_labelLayer
10
47.6328814
20
151.8795201
40
3.3377565
50
20.0257107
51
37.4350558
0
ARC
8
front_labelLayer
10
48.1805665
20
152.2681496
40
2.6667491
50
37.9577645
51
80.400615
0
ARC
8
front_labelLayer
10
47.8693358
20
150.8794661
40
4.0885816
50
79.345353
51
90.3174962
0
ARC
8
front_labelLayer
10
47.8117054
20
151.110135
40
3.8580087
50
89.4805853
51
103.8805168
0
ARC
8
front_labelLayer
10
47.4875331
20
152.3445778
40
2.5819124
50
103.4685218
51
142.3118841
0
ARC
8
front_labelLayer
10
48.1177462
20
151.9013664
40
3.3517727
50
142.9025565
51
162.3749748
0
ARC
8
front_labelLayer
10
50.103562
20
151.239596
40
5.4448258
50
162.0652994
51
173.1674849
0
ARC
8
front_labelLayer
10
53.1999835
20
150.844664
40
8.5662738
50
173.0086063
51
180.2463739
0
LINE
8
front_labelLayer
10
64.5751953
20
145.4465007
11
62.9541016
21
145.4465007
0
LINE
8
front_labelLayer
10
62.9541016
20
145.4465007
11
62.9541016
21
152.3703288
0
LINE
8
front_labelLayer
10
57.2509766
20
151.0617351
11
57.2509766
21
145.4465007
0
LINE
8
front_labelLayer
10
57.2509766
20
145.4465007
11
55.6298828
21
145.4465007
0
LINE
8
front_labelLayer
10
55.6298828
20
145.4465007
11
55.6298828
21
156.1496257
0
LINE
8
front_labelLayer
10
55.6298828
20
156.1496257
11
56.9482422
21
156.1496257
0
LINE
8
front_labelLayer
10
56.9482422
20
156.1496257
11
57.2119141
21
154.684782
0
LINE
8
front_labelLayer
10
57.2119141
20
154.684782
11
57.2900391
21
154.684782
0
LINE
8
front_labelLayer
10
64.5751953
20
152.4289226
11
64.5751953
21
145.4465007
0
ARC
8
front_labelLayer
10
58.3717418
20
152.3966075
40
4.5824351
50
359.6714273
51
8.6877183
0
ARC
8
front_labelLayer
10
60.0701359
20
152.6659621
40
2.8628588
50
8.4931172
51
22.6580015
0
ARC
8
front_labelLayer
10
60.9330198
20
153.02455
40
1.9284334
50
22.7024538
51
42.3419526
0
ARC
8
front_labelLayer
10
61.0300148
20
153.0681813
40
1.8276521
50
43.3791036
51
71.5386098
0
ARC
8
front_labelLayer
10
60.6673083
20
152.0546881
40
2.9039368
50
71.0827882
51
84.3690971
0
ARC
8
front_labelLayer
10
60.5044967
20
150.6704319
40
4.2975682
50
84.0197499
51
90.1510883
0
ARC
8
front_labelLayer
10
60.458338
20
150.0618099
40
4.9062988
50
89.5932978
51
100.3717905
0
ARC
8
front_labelLayer
10
60.1116138
20
151.8809551
40
3.0544855
50
100.1176335
51
118.1602552
0
ARC
8
front_labelLayer
10
59.7622031
20
152.5661214
40
2.2855721
50
118.5439463
51
139.1926966
0
ARC
8
front_labelLayer
10
60.0668693
20
152.3616865
40
2.6501508
50
140.1519123
51
160.3146543
0
ARC
8
front_labelLayer
10
61.9066472
20
151.6725826
40
4.6146256
50
159.9534297
51
171.3801135
0
ARC
8
front_labelLayer
10
64.9119838
20
151.1894866
40
7.6584691
50
171.1765914
51
178.3217568
0
ARC
8
front_labelLayer
10
67.6360595
20
151.066023
40
10.3850839
50
178.081036
51
180.023657
0
ARC
8
front_labelLayer
10
60.0631665
20
152.9284684
40
3.2825102
50
116.9442851
51
147.6525642
0
ARC
8
front_labelLayer
10
60.404898
20
152.3568868
40
3.9471559
50
115.8072486
51
117.6067736
0
ARC
8
front_labelLayer
10
60.5795056
20
151.9497359
40
4.3897594
50
94.3226737
51
115.5454453
0
ARC
8
front_labelLayer
10
60.6845747
20
151.0369154
40
5.3080244
50
89.957883
51
94.7109208
0
ARC
8
front_labelLayer
10
60.7280003
20
149.9446895
40
6.4003708
50
80.5585506
51
90.3538166
0
ARC
8
front_labelLayer
10
61.1279828
20
152.2615523
40
4.0493058
50
65.1094299
51
80.7638171
0
ARC
8
front_labelLayer
10
61.5955424
20
153.2971868
40
2.9131021
50
46.5584519
51
64.8782266
0
ARC
8
front_labelLayer
10
61.6329642
20
153.405067
40
2.8094344
50
19.3848834
51
45.5997059
0
ARC
8
front_labelLayer
10
60.0076147
20
152.7952087
40
4.5452039
50
6.9633634
51
19.8363272
0
ARC
8
front_labelLayer
10
57.5008422
20
152.4581685
40
7.0744135
50
359.763136
51
7.21157
0
LINE
8
front_labelLayer
10
72.8271484
20
146.7843913
11
72.8271484
21
145.544157
0
LINE
8
front_labelLayer
10
68.0224609
20
148.5226726
11
68.0224609
21
154.8898601
0
LINE
8
front_labelLayer
10
68.0224609
20
154.8898601
11
66.4892578
21
154.8898601
0
LINE
8
front_labelLayer
10
66.4892578
20
154.8898601
11
66.4892578
21
155.6711101
0
LINE
8
front_labelLayer
10
66.4892578
20
155.6711101
11
68.0224609
21
156.3449382
0
LINE
8
front_labelLayer
10
68.0224609
20
156.3449382
11
68.7060547
21
158.6300945
0
LINE
8
front_labelLayer
10
68.7060547
20
158.6300945
11
69.6435547
21
158.6300945
0
LINE
8
front_labelLayer
10
69.6435547
20
158.6300945
11
69.6435547
21
156.1496257
0
LINE
8
front_labelLayer
10
69.6435547
20
156.1496257
11
72.7490234
21
156.1496257
0
LINE
8
front_labelLayer
10
72.7490234
20
156.1496257
11
72.7490234
21
154.8898601
0
LINE
8
front_labelLayer
10
72.7490234
20
154.8898601
11
69.6435547
21
154.8898601
0
LINE
8
front_labelLayer
10
69.6435547
20
154.8898601
11
69.6435547
21
148.591032
0
ARC
8
front_labelLayer
10
71.3734233
20
151.9129617
40
5.3238944
50
269.8803417
51
278.3028182
0
ARC
8
front_labelLayer
10
71.4230699
20
151.5056089
40
4.9136514
50
278.4158959
51
279.0076561
0
ARC
8
front_labelLayer
10
70.8267197
20
155.3151576
40
8.7695902
50
278.9589695
51
280.5103918
0
ARC
8
front_labelLayer
10
71.3960558
20
152.2602916
40
5.6621249
50
280.4847522
51
282.6268451
0
ARC
8
front_labelLayer
10
71.8953454
20
150.0421168
40
3.3884538
50
282.5876165
51
285.5795336
0
ARC
8
front_labelLayer
10
72.1470048
20
149.1168484
40
2.429599
50
285.7231888
51
286.2566654
0
ARC
8
front_labelLayer
10
72.145595
20
146.9856817
40
1.5945246
50
287.9888406
51
295.3048016
0
ARC
8
front_labelLayer
10
71.7610004
20
148.1492631
40
2.8200086
50
283.3069861
51
288.1197567
0
ARC
8
front_labelLayer
10
71.3547466
20
149.8438763
40
4.5626327
50
280.0069961
51
283.3735389
0
ARC
8
front_labelLayer
10
71.0829387
20
151.3189605
40
6.0625179
50
279.1862135
51
280.1142603
0
ARC
8
front_labelLayer
10
70.9160585
20
152.2681084
40
7.0261467
50
275.5260122
51
279.2939725
0
ARC
8
front_labelLayer
10
71.1040783
20
150.304196
40
5.0532558
50
270.8932457
51
275.5483966
0
ARC
8
front_labelLayer
10
71.1276861
20
149.4070606
40
4.1558726
50
270.0033586
51
270.7606301
0
ARC
8
front_labelLayer
10
71.0625135
20
149.4847407
40
4.2340578
50
253.784789
51
270.8852547
0
ARC
8
front_labelLayer
10
70.5608903
20
147.7740159
40
2.4513133
50
190.3817699
51
253.8772374
0
ARC
8
front_labelLayer
10
73.1176617
20
148.465321
40
5.0955236
50
179.3551054
51
192.8477577
0
ARC
8
front_labelLayer
10
72.9078539
20
148.5706171
40
3.2643631
50
179.6416773
51
189.7505556
0
ARC
8
front_labelLayer
10
71.7554639
20
148.3650768
40
2.093823
50
189.5479676
51
205.7873396
0
ARC
8
front_labelLayer
10
71.2818781
20
148.1466914
40
1.5724225
50
206.1294051
51
221.408398
0
ARC
8
front_labelLayer
10
71.2287796
20
148.1064012
40
1.505957
50
221.5949091
51
262.3505289
0
ARC
8
front_labelLayer
10
71.355071
20
148.7558396
40
2.1667729
50
261.3266216
51
270.1912791
0
LINE
8
left_outsideCutPath
10
106
20
303
11
106
21
277.75845
0
LINE
8
left_outsideCutPath
10
106
20
277.75845
11
103
21
277.75845
0
LINE
8
left_outsideCutPath
10
103
20
277.75845
11
103
21
250.03435
0
LINE
8
left_outsideCutPath
10
103
20
250.03435
11
106
21
250.03435
0
LINE
8
left_outsideCutPath
10
106
20
250.03435
11
106
21
222.31025
0
LINE
8
left_outsideCutPath
10
106
20
222.31025
11
103
21
222.31025
0
LINE
8
left_outsideCutPath
10
103
20
222.31025
11
103
21
194.58615
0
LINE
8
left_outsideCutPath
10
103
20
194.58615
11
106
21
194.58615
0
LINE
8
left_outsideCutPath
10
106
20
194.58615
11
106
21
166.86205
0
LINE
8
left_outsideCutPath
10
106
20
166.86205
11
103
21
166.86205
0
LINE
8
left_outsideCutPath
10
103
20
166.86205
11
103
21
139.13795
0
LINE
8
left_outsideCutPath
10
103
20
139.13795
11
106
21
139.13795
0
LINE
8
left_outsideCutPath
10
106
20
139.13795
11
106
21
111.41385
0
LINE
8
left_outsideCutPath
10
106
20
111.41385
11
103
21
111.41385
0
LINE
8
left_outsideCutPath
10
103
20
111.41385
11
103
21
83.68975
0
LINE
8
left_outsideCutPath
10
103
20
83.68975
11
106
21
83.68975
0
LINE
8
left_outsideCutPath
10
106
20
83.68975
11
106
21
55.96565
0
LINE
8
left_outsideCutPath
10
106
20
55.96565
11
103
21
55.96565
0
LINE
8
left_outsideCutPath
10
103
20
55.96565
11
103
21
28.24155
0
LINE
8
left_outsideCutPath
10
103
20
28.24155
11
106
21
28.24155
0
LINE
8
left_outsideCutPath
10
106
20
28.24155
11
106
21
3
0
LINE
8
left_outsideCutPath
10
106
20
3
11
133.68975
21
3
0
LINE
8
left_outsideCutPath
10
133.68975
20
3
11
133.68975
21
6
0
LINE
8
left_outsideCutPath
10
133.68975
20
6
11
161.41385
21
6
0
LINE
8
left_outsideCutPath
10
161.41385
20
6
11
161.41385
21
3
0
LINE
8
left_outsideCutPath
10
161.41385
20
3
11
189.13795
21
3
0
LINE
8
left_outsideCutPath
10
189.13795
20
3
11
189.13795
21
6
0
LINE
8
left_outsideCutPath
10
189.13795
20
6
11
216.86205
21
6
0
LINE
8
left_outsideCutPath
10
216.86205
20
6
11
216.86205
21
3
0
LINE
8
left_outsideCutPath
10
216.86205
20
3
11
244.58615
21
3
0
LINE
8
left_outsideCutPath
10
244.58615
20
3
11
244.58615
21
6
0
LINE
8
left_outsideCutPath
10
244.58615
20
6
11
272.31025
21
6
0
LINE
8
left_outsideCutPath
10
272.31025
20
6
11
272.31025
21
3
0
LINE
8
left_outsideCutPath
10
272.31025
20
3
11
300
21
3
0
LINE
8
left_outsideCutPath
10
300
20
3
11
300
21
28.24155
0
LINE
8
left_outsideCutPath
10
300
20
28.24155
11
303
21
28.24155
0
LINE
8
left_outsideCutPath
10
303
20
28.24155
11
303
21
55.96565
0
LINE
8
left_outsideCutPath
10
303
20
55.96565
11
300
21
55.96565
0
LINE
8
left_outsideCutPath
10
300
20
55.96565
11
300
21
83.68975
0
LINE
8
left_outsideCutPath
10
300
20
83.68975
11
303
21
83.68975
0
LINE
8
left_outsideCutPath
10
303
20
83.68975
11
303
21
111.41385
0
LINE
8
left_outsideCutPath
10
303
20
111.41385
11
300
21
111.41385
0
LINE
8
left_outsideCutPath
10
300
20
111.41385
11
300
21
139.13795
0
LINE
8
left_outsideCutPath
10
300
20
139.13795
11
303
21
139.13795
0
LINE
8
left_outsideCutPath
10
303
20
139.13795
11
303
21
166.86205
0
LINE
8
left_outsideCutPath
10
303
20
166.86205
11
300
21
166.86205
0
LINE
8
left_outsideCutPath
10
300
20
166.86205
11
300
21
194.58615
0
LINE
8
left_outsideCutPath
10
300
20
194.58615
11
303
21
194.58615
0
LINE
8
left_outsideCutPath
10
303
20
194.58615
11
303
21
222.31025
0
LINE
8
left_outsideCutPath
10
303
20
222.31025
11
300
21
222.31025
0
LINE
8
left_outsideCutPath
10
300
20
222.31025
11
300
21
250.03435
0
LINE
8
left_outsideCutPath
10
300
20
250.03435
11
303
21
250.03435
0
LINE
8
left_outsideCutPath
10
303
20
250.03435
11
303
21
277.75845
0
LINE
8
left_outsideCutPath
10
303
20
277.75845
11
300
21
277.75845
0
LINE
8
left_outsideCutPath
10
300
20
277.75845
11
300
21
303
0
LINE
8
left_outsideCutPath
10
300
20
303
11
272.31025
21
303
0
LINE
8
left_outsideCutPath
10
272.31025
20
303
11
272.31025
21
300
0
LINE
8
left_outsideCutPath
10
272.31025
20
300
11
244.58615
21
300
0
LINE
8
left_outsideCutPath
10
244.58615
20
300
11
244.58615
21
303
0
LINE
8
left_outsideCutPath
10
244.58615
20
303
11
216.86205
21
303
0
LINE
8
left_outsideCutPath
10
216.86205
20
303
11
216.86205
21
300
0
LINE
8
left_outsideCutPath
10
216.86205
20
300
11
189.13795
21
300
0
LINE
8
left_outsideCutPath
10
189.13795
20
300
11
189.13795
21
303
0
LINE
8
left_outsideCutPath
10
189.13795
20
303
11
161.41385
21
303
0
LINE
8
left_outsideCutPath
10
161.41385
20
303
11
161.41385
21
300
0
LINE
8
left_outsideCutPath
10
161.41385
20
300
11
133.68975
21
300
0
LINE
8
left_outsideCutPath
10
133.68975
20
300
11
133.68975
21
303
0
LINE
8
left_outsideCutPath
10
133.68975
20
303
11
106
21
303
0
LINE
8
left_labelLayer
10
178.2636719
20
168.2836266
11
178.2636719
21
137.8930016
0
LINE
8
left_labelLayer
10
178.2636719
20
137.8930016
11
175.0214844
21
137.8930016
0
LINE
8
left_labelLayer
10
175.0214844
20
137.8930016
11
175.0214844
21
168.2836266
0
LINE
8
left_labelLayer
10
175.0214844
20
168.2836266
11
178.2636719
21
168.2836266
0
LINE
8
left_labelLayer
10
202.0527344
20
150.0609704
11
202.0527344
21
148.0101891
0
LINE
8
left_labelLayer
10
202.0527344
20
148.0101891
11
187.3066406
21
148.0101891
0
LINE
8
left_labelLayer
10
201.1347656
20
141.7797204
11
201.1347656
21
138.8890954
0
LINE
8
left_labelLayer
10
187.3847656
20
150.6469079
11
198.5761719
21
150.6469079
0
ARC
8
left_labelLayer
10
194.0750347
20
150.1009133
40
12.5989877
50
256.0087878
51
270.4848119
0
ARC
8
left_labelLayer
10
193.1575801
20
146.5391695
40
8.9211425
50
223.5465776
51
256.1956989
0
ARC
8
left_labelLayer
10
193.6636953
20
146.9070211
40
9.5417642
50
194.0877239
51
223.0538179
0
ARC
8
left_labelLayer
10
198.3011131
20
148.1751847
40
14.3487453
50
181.3574597
51
194.4919938
0
ARC
8
left_labelLayer
10
202.4666737
20
148.416691
40
18.5194083
50
179.9886941
51
181.7991281
0
ARC
8
left_labelLayer
10
200.9715446
20
148.5345464
40
17.0246621
50
168.9539291
51
180.3843417
0
ARC
8
left_labelLayer
10
195.4113697
20
149.6666915
40
11.3506736
50
149.4071053
51
169.1853737
0
ARC
8
left_labelLayer
10
193.8621868
20
150.4852141
40
9.6009205
50
140.1055959
51
148.9067371
0
ARC
8
left_labelLayer
10
192.910456
20
151.3626704
40
8.3081851
50
92.4762648
51
140.5386382
0
ARC
8
left_labelLayer
10
193.3345586
20
148.2285391
40
11.4613398
50
89.9638154
51
93.9176162
0
ARC
8
left_labelLayer
10
193.4357548
20
149.8126249
40
9.8776986
50
74.2125869
51
90.5450129
0
ARC
8
left_labelLayer
10
194.0544236
20
152.0920703
40
7.5159593
50
41.2064713
51
74.0232655
0
ARC
8
left_labelLayer
10
192.8827821
20
151.0781014
40
9.0654141
50
11.5994222
51
41.149604
0
ARC
8
left_labelLayer
10
188.8570644
20
150.1496915
40
13.1959682
50
359.6147776
51
12.0336443
0
ARC
8
left_labelLayer
10
200.3169807
20
148.2701557
40
13.0129371
50
181.1447052
51
190.8007122
0
ARC
8
left_labelLayer
10
195.7261614
20
147.3647154
40
8.3338218
50
190.6005744
51
206.0275315
0
ARC
8
left_labelLayer
10
193.6950223
20
146.4044809
40
6.0873867
50
206.2950205
51
222.5558025
0
ARC
8
left_labelLayer
10
193.51505
20
146.3102529
40
5.8913209
50
223.0645137
51
258.1401318
0
ARC
8
left_labelLayer
10
194.2315352
20
149.2604625
40
8.9263081
50
257.5311918
51
270.4319406
0
ARC
8
left_labelLayer
10
194.2395325
20
157.4580884
40
17.1237832
50
270.198402
51
292.2090383
0
ARC
8
left_labelLayer
10
193.4168793
20
159.8204986
40
19.6223201
50
291.8255361
51
293.1613501
0
ARC
8
left_labelLayer
10
193.3778398
20
156.7405959
40
19.4639659
50
287.9022934
51
293.4861579
0
ARC
8
left_labelLayer
10
194.7897685
20
152.3842888
40
14.8845634
50
281.9935823
51
287.8851242
0
ARC
8
left_labelLayer
10
195.131965
20
151.1543877
40
13.610631
50
275.9054489
51
281.6603855
0
ARC
8
left_labelLayer
10
194.4469488
20
157.5483083
40
20.0411124
50
271.911956
51
275.9727153
0
ARC
8
left_labelLayer
10
194.1968859
20
163.9175573
40
26.4151851
50
269.9669322
51
271.9931256
0
ARC
8
left_labelLayer
10
193.2405179
20
150.5842361
40
6.3910996
50
89.4422245
51
106.2089709
0
ARC
8
left_labelLayer
10
192.8560251
20
151.986157
40
4.9376269
50
106.4657091
51
137.9176401
0
ARC
8
left_labelLayer
10
193.9583847
20
151.0181012
40
6.4046
50
138.0994736
51
160.5866327
0
ARC
8
left_labelLayer
10
196.7919952
20
149.9756623
40
9.4236838
50
160.3353322
51
172.5315217
0
ARC
8
left_labelLayer
10
199.5822994
20
149.5285868
40
12.2486928
50
172.1545096
51
174.7615277
0
ARC
8
left_labelLayer
10
187.5281176
20
150.7096694
40
11.0482325
50
359.6745192
51
8.922446
0
ARC
8
left_labelLayer
10
191.4759156
20
151.3529013
40
7.0484805
50
8.7342225
51
23.2772018
0
ARC
8
left_labelLayer
10
193.3500798
20
152.1396284
40
5.0159997
50
23.4821445
51
39.7072135
0
ARC
8
left_labelLayer
10
193.8104387
20
152.4841269
40
4.4418441
50
40.0822937
51
80.6243192
0
ARC
8
left_labelLayer
10
193.3365775
20
150.3119465
40
6.6631721
50
79.646861
51
90.2910143
0
LINE
8
left_labelLayer
10
217.2285156
20
159.2992516
11
217.2285156
21
156.7797204
0
LINE
8
left_labelLayer
10
217.2285156
20
156.7797204
11
211.7792969
21
156.7797204
0
LINE
8
left_labelLayer
10
211.7792969
20
156.7797204
11
211.7792969
21
137.8930016
0
LINE
8
left_labelLayer
10
211.7792969
20
137.8930016
11
208.5371094
21
137.8930016
0
LINE
8
left_labelLayer
10
208.5371094
20
137.8930016
11
208.5371094
21
156.7797204
0
LINE
8
left_labelLayer
10
208.5371094
20
156.7797204
11
204.7089844
21
156.7797204
0
LINE
8
left_labelLayer
10
204.7089844
20
156.7797204
11
204.7089844
21
158.2445641
0
LINE
8
left_labelLayer
10
204.7089844
20
158.2445641
11
208.5371094
21
159.4164391
0
LINE
8
left_labelLayer
10
208.5371094
20
159.4164391
11
208.5371094
21
160.6078454
0
LINE
8
left_labelLayer
10
219.4160156
20
167.8148766
11
218.5761719
21
165.2172204
0
LINE
8
left_labelLayer
10
211.7792969
20
160.6859704
11
211.7792969
21
159.2992516
0
LINE
8
left_labelLayer
10
211.7792969
20
159.2992516
11
217.2285156
21
159.2992516
0
ARC
8
left_labelLayer
10
221.6765665
20
160.7589035
40
13.1403254
50
167.5776017
51
180.6586733
0
ARC
8
left_labelLayer
10
215.4975499
20
162.1994918
40
6.7965188
50
141.7433808
51
168.2322134
0
ARC
8
left_labelLayer
10
214.4914842
20
162.7245831
40
5.6852843
50
98.2551506
51
139.6203365
0
ARC
8
left_labelLayer
10
215.3748279
20
158.6438694
40
9.8547647
50
89.6696884
51
99.9314295
0
ARC
8
left_labelLayer
10
215.3772905
20
158.0580109
40
10.440601
50
81.5640889
51
89.7017368
0
ARC
8
left_labelLayer
10
214.6432924
20
152.9372484
40
15.6136599
50
75.9739913
51
81.6564701
0
ARC
8
left_labelLayer
10
213.3836755
20
147.7126664
40
20.9878055
50
73.2963707
51
76.0945994
0
ARC
8
left_labelLayer
10
213.7009307
20
150.2471662
40
15.7439035
50
71.9613196
51
76.5918331
0
ARC
8
left_labelLayer
10
214.9223468
20
155.4285302
40
10.4205473
50
76.518348
51
83.0216772
0
ARC
8
left_labelLayer
10
215.3478201
20
158.8501085
40
6.9726262
50
83.0760822
51
89.7927047
0
ARC
8
left_labelLayer
10
215.3338164
20
161.4504214
40
4.3724437
50
89.4859241
51
103.4197451
0
ARC
8
left_labelLayer
10
214.9396086
20
162.9649251
40
2.8079851
50
102.7677313
51
144.3380324
0
ARC
8
left_labelLayer
10
215.733772
20
162.4539535
40
3.7514221
50
145.0688608
51
162.1801797
0
ARC
8
left_labelLayer
10
218.456688
20
161.5378263
40
6.624174
50
161.8437532
51
171.7846897
0
ARC
8
left_labelLayer
10
222.8978007
20
160.8707846
40
11.1150576
50
171.6527741
51
178.4383535
0
ARC
8
left_labelLayer
10
227.0864503
20
160.6921667
40
15.3071547
50
178.1972976
51
180.0231933
0
LINE
8
left_labelLayer
10
230.9785156
20
140.5687829
11
230.9785156
21
138.0883141
0
LINE
8
left_labelLayer
10
221.3691406
20
144.0453454
11
221.3691406
21
156.7797204
0
LINE
8
left_labelLayer
10
221.3691406
20
156.7797204
11
218.3027344
21
156.7797204
0
LINE
8
left_labelLayer
10
218.3027344
20
156.7797204
11
218.3027344
21
158.3422204
0
LINE
8
left_labelLayer
10
218.3027344
20
158.3422204
11
221.3691406
21
159.6898766
0
LINE
8
left_labelLayer
10
221.3691406
20
159.6898766
11
222.7363281
21
164.2601891
0
LINE
8
left_labelLayer
10
222.7363281
20
164.2601891
11
224.6113281
21
164.2601891
0
LINE
8
left_labelLayer
10
224.6113281
20
164.2601891
11
224.6113281
21
159.2992516
0
LINE
8
left_labelLayer
10
224.6113281
20
159.2992516
11
230.8222656
21
159.2992516
0
LINE
8
left_labelLayer
10
230.8222656
20
159.2992516
11
230.8222656
21
156.7797204
0
LINE
8
left_labelLayer
10
230.8222656
20
156.7797204
11
224.6113281
21
156.7797204
0
LINE
8
left_labelLayer
10
224.6113281
20
156.7797204
11
224.6113281
21
144.1820641
0
ARC
8
left_labelLayer
10
228.0710626
20
150.8259197
40
10.6477851
50
269.8803559
51
278.3028353
0
ARC
8
left_labelLayer
10
228.1726008
20
149.9965848
40
9.8124991
50
278.4154494
51
279.0081024
0
ARC
8
left_labelLayer
10
226.9778713
20
157.6290229
40
17.5378705
50
278.9589396
51
280.5104777
0
ARC
8
left_labelLayer
10
228.1163064
20
151.5207061
40
11.3243749
50
280.4847583
51
282.6268276
0
ARC
8
left_labelLayer
10
229.1148929
20
147.0842965
40
6.7769723
50
282.5876383
51
285.5795268
0
ARC
8
left_labelLayer
10
229.6157867
20
145.2420993
40
4.8679477
50
285.7240514
51
286.2565691
0
ARC
8
left_labelLayer
10
229.6154221
20
140.9713296
40
3.1890127
50
287.9888003
51
295.3048452
0
ARC
8
left_labelLayer
10
228.8462589
20
143.2983923
40
5.6398776
50
283.3069101
51
288.1198
0
ARC
8
left_labelLayer
10
228.0337027
20
146.687794
40
9.1253075
50
280.0070079
51
283.3735352
0
ARC
8
left_labelLayer
10
227.4895873
20
149.640816
40
12.127975
50
279.1864031
51
280.114225
0
ARC
8
left_labelLayer
10
227.1563329
20
151.536243
40
14.0523194
50
275.5260139
51
279.2939672
0
ARC
8
left_labelLayer
10
227.532375
20
147.6084011
40
10.1065206
50
270.8932467
51
275.5483935
0
ARC
8
left_labelLayer
10
227.5796213
20
145.8141289
40
8.3117522
50
270.0031492
51
270.7604201
0
ARC
8
left_labelLayer
10
227.4492459
20
145.9694835
40
8.4681176
50
253.7847919
51
270.8852537
0
ARC
8
left_labelLayer
10
226.4459993
20
142.5480317
40
4.9026264
50
190.3817674
51
253.8772384
0
ARC
8
left_labelLayer
10
231.5595261
20
143.9306397
40
10.191031
50
179.3550907
51
192.8477645
0
ARC
8
left_labelLayer
10
231.1398958
20
144.141233
40
6.5286954
50
179.6416642
51
189.7505901
0
ARC
8
left_labelLayer
10
228.8351449
20
143.7301538
40
4.1876443
50
189.5479704
51
205.7873484
0
ARC
8
left_labelLayer
10
227.8879851
20
143.2933913
40
3.1448578
50
206.1294578
51
221.4083873
0
ARC
8
left_labelLayer
10
227.7817783
20
143.212803
40
3.0119144
50
221.5949107
51
262.3505242
0
ARC
8
left_labelLayer
10
228.0343572
20
144.5116507
40
4.3335169
50
261.3266111
51
270.1913275
0
LINE
8
top_outsideCutPath
10
309
20
200
11
309
21
172.31025
0
LINE
8
top_outsideCutPath
10
309
20
172.31025
11
306
21
172.31025
0
LINE
8
top_outsideCutPath
10
306
20
172.31025
11
306
21
144.58615
0
LINE
8
top_outsideCutPath
10
306
20
144.58615
11
309
21
144.58615
0
LINE
8
top_outsideCutPath
10
309
20
144.58615
11
309
21
116.86205
0
LINE
8
top_outsideCutPath
10
309
20
116.86205
11
306
21
116.86205
0
LINE
8
top_outsideCutPath
10
306
20
116.86205
11
306
21
89.13795
0
LINE
8
top_outsideCutPath
10
306
20
89.13795
11
309
21
89.13795
0
LINE
8
top_outsideCutPath
10
309
20
89.13795
11
309
21
61.41385
0
LINE
8
top_outsideCutPath
10
309
20
61.41385
11
306
21
61.41385
0
LINE
8
top_outsideCutPath
10
306
20
61.41385
11
306
21
33.68975
0
LINE
8
top_outsideCutPath
10
306
20
33.68975
11
309
21
33.68975
0
LINE
8
top_outsideCutPath
10
309
20
33.68975
11
309
21
6
0
LINE
8
top_outsideCutPath
10
309
20
6
11
342.13795
21
6
0
LINE
8
top_outsideCutPath
10
342.13795
20
6
11
342.13795
21
3
0
LINE
8
top_outsideCutPath
10
342.13795
20
3
11
369.86205
21
3
0
LINE
8
top_outsideCutPath
10
369.86205
20
3
11
369.86205
21
6
0
LINE
8
top_outsideCutPath
10
369.86205
20
6
11
397.58615
21
6
0
LINE
8
top_outsideCutPath
10
397.58615
20
6
11
403
21
6
0
LINE
8
top_outsideCutPath
10
403
20
6
11
403
21
33.68975
0
LINE
8
top_outsideCutPath
10
403
20
33.68975
11
406
21
33.68975
0
LINE
8
top_outsideCutPath
10
406
20
33.68975
11
406
21
61.41385
0
LINE
8
top_outsideCutPath
10
406
20
61.41385
11
403
21
61.41385
0
LINE
8
top_outsideCutPath
10
403
20
61.41385
11
403
21
89.13795
0
LINE
8
top_outsideCutPath
10
403
20
89.13795
11
406
21
89.13795
0
LINE
8
top_outsideCutPath
10
406
20
89.13795
11
406
21
116.86205
0
LINE
8
top_outsideCutPath
10
406
20
116.86205
11
403
21
116.86205
0
LINE
8
top_outsideCutPath
10
403
20
116.86205
11
403
21
144.58615
0
LINE
8
top_outsideCutPath
10
403
20
144.58615
11
406
21
144.58615
0
LINE
8
top_outsideCutPath
10
406
20
144.58615
11
406
21
172.31025
0
LINE
8
top_outsideCutPath
10
406
20
172.31025
11
403
21
172.31025
0
LINE
8
top_outsideCutPath
10
403
20
172.31025
11
403
21
200
0
LINE
8
top_outsideCutPath
10
403
20
200
11
369.86205
21
200
0
LINE
8
top_outsideCutPath
10
369.86205
20
200
11
369.86205
21
203
0
LINE
8
top_outsideCutPath
10
369.86205
20
203
11
342.13795
21
203
0
LINE
8
top_outsideCutPath
10
342.13795
20
203
11
342.13795
21
200
0
LINE
8
top_outsideCutPath
10
342.13795
20
200
11
314.41385
21
200
0
LINE
8
top_outsideCutPath
10
314.41385
20
200
11
309
21
200
0
LINE
8
top_labelLayer
10
347.3475735
20
100.1484375
11
347.3475735
21
98.9082031
0
LINE
8
top_labelLayer
10
342.542886
20
101.8867188
11
342.542886
21
108.2539063
0
LINE
8
top_labelLayer
10
342.542886
20
108.2539063
11
341.0096829
21
108.2539063
0
LINE
8
top_labelLayer
10
341.0096829
20
108.2539063
11
341.0096829
21
109.0351563
0
LINE
8
top_labelLayer
10
341.0096829
20
109.0351563
11
342.542886
21
109.7089844
0
LINE
8
top_labelLayer
10
342.542886
20
109.7089844
11
343.2264798
21
111.9941406
0
LINE
8
top_labelLayer
10
343.2264798
20
111.9941406
11
344.1639798
21
111.9941406
0
LINE
8
top_labelLayer
10
344.1639798
20
111.9941406
11
344.1639798
21
109.5136719
0
LINE
8
top_labelLayer
10
344.1639798
20
109.5136719
11
347.2694485
21
109.5136719
0
LINE
8
top_labelLayer
10
347.2694485
20
109.5136719
11
347.2694485
21
108.2539063
0
LINE
8
top_labelLayer
10
347.2694485
20
108.2539063
11
344.1639798
21
108.2539063
0
LINE
8
top_labelLayer
10
344.1639798
20
108.2539063
11
344.1639798
21
101.9550781
0
ARC
8
top_labelLayer
10
345.8938484
20
105.2770078
40
5.3238944
50
269.8803417
51
278.3028182
0
ARC
8
top_labelLayer
10
345.943495
20
104.869655
40
4.9136514
50
278.4158959
51
279.0076561
0
ARC
8
top_labelLayer
10
345.3471449
20
108.6792037
40
8.7695902
50
278.9589695
51
280.5103918
0
ARC
8
top_labelLayer
10
345.9164809
20
105.6243378
40
5.6621249
50
280.4847522
51
282.6268451
0
ARC
8
top_labelLayer
10
346.4157705
20
103.406163
40
3.3884538
50
282.5876165
51
285.5795336
0
ARC
8
top_labelLayer
10
346.6674299
20
102.4808945
40
2.429599
50
285.7231888
51
286.2566654
0
ARC
8
top_labelLayer
10
346.6660201
20
100.3497279
40
1.5945246
50
287.9888406
51
295.3048016
0
ARC
8
top_labelLayer
10
346.2814255
20
101.5133093
40
2.8200086
50
283.3069861
51
288.1197567
0
ARC
8
top_labelLayer
10
345.8751717
20
103.2079225
40
4.5626327
50
280.0069961
51
283.3735389
0
ARC
8
top_labelLayer
10
345.6033638
20
104.6830066
40
6.0625179
50
279.1862135
51
280.1142603
0
ARC
8
top_labelLayer
10
345.4364836
20
105.6321546
40
7.0261467
50
275.5260122
51
279.2939725
0
ARC
8
top_labelLayer
10
345.6245034
20
103.6682421
40
5.0532558
50
270.8932457
51
275.5483966
0
ARC
8
top_labelLayer
10
345.6481112
20
102.7711068
40
4.1558726
50
270.0033586
51
270.7606301
0
ARC
8
top_labelLayer
10
345.5829386
20
102.8487868
40
4.2340578
50
253.784789
51
270.8852547
0
ARC
8
top_labelLayer
10
345.0813155
20
101.138062
40
2.4513133
50
190.3817699
51
253.8772374
0
ARC
8
top_labelLayer
10
347.6380868
20
101.8293671
40
5.0955236
50
179.3551054
51
192.8477577
0
ARC
8
top_labelLayer
10
347.4282791
20
101.9346632
40
3.2643631
50
179.6416773
51
189.7505556
0
ARC
8
top_labelLayer
10
346.275889
20
101.729123
40
2.093823
50
189.5479676
51
205.7873396
0
ARC
8
top_labelLayer
10
345.8023032
20
101.5107376
40
1.5724225
50
206.1294051
51
221.408398
0
ARC
8
top_labelLayer
10
345.7492047
20
101.4704474
40
1.505957
50
221.5949091
51
262.3505289
0
ARC
8
top_labelLayer
10
345.8754961
20
102.1198857
40
2.1667729
50
261.3266216
51
270.1912791
0
ARC
8
top_labelLayer
10
350.3510966
20
104.1154251
40
8.3736204
50
349.1761945
51
0.3862568
0
ARC
8
top_labelLayer
10
353.1703018
20
103.5534117
40
5.4990771
50
330.2507047
51
349.4116462
0
ARC
8
top_labelLayer
10
354.0379102
20
103.1024625
40
4.5222197
50
318.143971
51
329.7566252
0
ARC
8
top_labelLayer
10
354.1944985
20
102.9769728
40
4.3218687
50
278.8959183
51
317.9979086
0
ARC
8
top_labelLayer
10
353.7910253
20
104.9100479
40
6.2948732
50
269.7502763
51
279.8033236
0
ARC
8
top_labelLayer
10
353.7255892
20
103.8208856
40
5.2057899
50
253.5436962
51
270.418238
0
ARC
8
top_labelLayer
10
353.5522954
20
103.1505461
40
4.5138811
50
238.8115441
51
253.242846
0
ARC
8
top_labelLayer
10
353.4963705
20
103.0380827
40
4.3887236
50
207.7946962
51
238.6757996
0
ARC
8
top_labelLayer
10
354.2988576
20
103.5295671
40
5.328149
50
205.6559791
51
208.4461025
0
ARC
8
top_labelLayer
10
354.9170109
20
103.7871364
40
5.9969824
50
188.9102503
51
205.3171481
0
ARC
8
top_labelLayer
10
357.000162
20
104.1399534
40
8.1096824
50
179.7744696
51
189.0932788
0
ARC
8
top_labelLayer
10
357.3074511
20
104.2288855
40
8.4171018
50
169.244298
51
180.388077
0
ARC
8
top_labelLayer
10
354.4490727
20
104.7938822
40
5.5035418
50
150.7111564
51
169.4695354
0
ARC
8
top_labelLayer
10
353.5365975
20
105.262468
40
4.4786339
50
138.175962
51
150.2287147
0
ARC
8
top_labelLayer
10
353.3847993
20
105.3789555
40
4.2878596
50
99.175935
51
137.9832793
0
ARC
8
top_labelLayer
10
353.8025691
20
103.4128875
40
6.2961655
50
89.7326434
51
100.0759878
0
ARC
8
top_labelLayer
10
353.8860651
20
104.2619676
40
5.4472856
50
73.5222665
51
90.5692191
0
ARC
8
top_labelLayer
10
354.2055159
20
105.422616
40
4.2437569
50
41.1445735
51
73.2133783
0
ARC
8
top_labelLayer
10
353.5957123
20
104.8984982
40
5.047824
50
13.5014302
51
41.0703483
0
ARC
8
top_labelLayer
10
351.2397225
20
104.2819675
40
7.4828084
50
1.1277281
51
13.8799962
0
ARC
8
top_labelLayer
10
349.2104564
20
104.1732273
40
9.5140701
50
359.991856
51
1.5419431
0
ARC
8
top_labelLayer
10
358.7793106
20
104.1297462
40
8.2091889
50
179.7059623
51
187.9160759
0
ARC
8
top_labelLayer
10
355.7684371
20
103.6972383
40
5.1674586
50
187.7639332
51
200.097688
0
ARC
8
top_labelLayer
10
354.1097575
20
103.0894957
40
3.4009457
50
200.0845876
51
216.9131503
0
ARC
8
top_labelLayer
10
353.504065
20
102.6570034
40
2.6569704
50
217.300954
51
261.7099073
0
ARC
8
top_labelLayer
10
353.7852464
20
103.9987696
40
4.0261509
50
260.5033133
51
270.2476938
0
ARC
8
top_labelLayer
10
353.8389168
20
103.7378676
40
3.765386
50
269.4481646
51
284.7255643
0
ARC
8
top_labelLayer
10
354.137
20
102.6323715
40
2.620441
50
284.566235
51
322.6333878
0
ARC
8
top_labelLayer
10
353.4400664
20
103.1358752
40
3.4799996
50
323.0089266
51
342.6390508
0
ARC
8
top_labelLayer
10
351.4466813
20
103.7873708
40
5.5770392
50
342.3615704
51
353.7537499
0
ARC
8
top_labelLayer
10
348.5057559
20
104.1418582
40
8.539136
50
353.5363189
51
0.2014064
0
ARC
8
top_labelLayer
10
348.9563952
20
104.2131599
40
8.0885493
50
359.7075543
51
7.8972827
0
ARC
8
top_labelLayer
10
351.9186297
20
104.6378247
40
5.0960791
50
7.7440005
51
20.0690174
0
ARC
8
top_labelLayer
10
353.5693221
20
105.2435663
40
3.3377565
50
20.0257107
51
37.4350558
0
ARC
8
top_labelLayer
10
354.1170072
20
105.6321958
40
2.6667491
50
37.9577645
51
80.400615
0
ARC
8
top_labelLayer
10
353.8057766
20
104.2435122
40
4.0885816
50
79.345353
51
90.3174962
0
ARC
8
top_labelLayer
10
353.7481461
20
104.4741811
40
3.8580087
50
89.4805853
51
103.8805168
0
ARC
8
top_labelLayer
10
353.4239739
20
105.708624
40
2.5819124
50
103.4685218
51
142.3118841
0
ARC
8
top_labelLayer
10
354.0541869
20
105.2654126
40
3.3517727
50
142.9025565
51
162.3749748
0
ARC
8
top_labelLayer
10
356.0400028
20
104.6036421
40
5.4448258
50
162.0652994
51
173.1674849
0
ARC
8
top_labelLayer
10
359.1364242
20
104.2087102
40
8.5662738
50
173.0086063
51
180.2463739
0
LINE
8
top_labelLayer
10
363.1874173
20
100.1875
11
363.0702298
21
100.1875
0
LINE
8
top_labelLayer
10
363.1874173
20
98.4101563
11
363.1874173
21
94.0058594
0
LINE
8
top_labelLayer
10
363.1874173
20
94.0058594
11
361.5663235
21
94.0058594
0
LINE
8
top_labelLayer
10
361.5663235
20
94.0058594
11
361.5663235
21
109.5136719
0
LINE
8
top_labelLayer
10
361.5663235
20
109.5136719
11
362.8846829
21
109.5136719
0
LINE
8
top_labelLayer
10
362.8846829
20
109.5136719
11
363.1092923
21
108.0488281
0
LINE
8
top_labelLayer
10
363.1092923
20
108.0488281
11
363.1874173
21
108.0488281
0
LINE
8
top_labelLayer
10
363.1874173
20
104.5332031
11
363.1874173
21
104.171875
0
ARC
8
top_labelLayer
10
366.5194555
20
103.5322906
40
4.9171322
50
255.7755416
51
270.3185374
0
ARC
8
top_labelLayer
10
366.3791398
20
102.908873
40
4.2783843
50
245.9801859
51
255.5455587
0
ARC
8
top_labelLayer
10
366.1073457
20
102.2768094
40
3.5904312
50
215.5850261
51
245.8361642
0
ARC
8
top_labelLayer
10
347.8496184
20
98.2641304
40
15.3416545
50
2.9503421
51
7.202072
0
ARC
8
top_labelLayer
10
350.332012
20
98.40302
40
12.8554072
50
0.031806
51
2.9016028
0
ARC
8
top_labelLayer
10
366.7583614
20
105.5409501
40
4.3636102
50
132.3565004
51
144.9195899
0
ARC
8
top_labelLayer
10
366.0898956
20
106.2702259
40
3.3743272
50
115.4006137
51
132.3118294
0
ARC
8
top_labelLayer
10
366.3506412
20
105.6354714
40
4.0597322
50
97.7066187
51
114.8821564
0
ARC
8
top_labelLayer
10
366.5327473
20
104.4544376
40
5.2545656
50
89.8468529
51
97.9474213
0
ARC
8
top_labelLayer
10
366.5969639
20
104.7401623
40
4.9690754
50
74.1923688
51
90.5785123
0
ARC
8
top_labelLayer
10
366.9407955
20
105.9900687
40
3.6727883
50
38.0523474
51
74.0417263
0
ARC
8
top_labelLayer
10
365.9924523
20
105.2632035
40
4.8676005
50
16.3355866
51
37.9090671
0
ARC
8
top_labelLayer
10
363.5011028
20
104.4958519
40
7.4742887
50
4.5766667
51
16.6088732
0
ARC
8
top_labelLayer
10
360.4339674
20
104.1902386
40
10.5562
50
359.9003283
51
4.9018032
0
ARC
8
top_labelLayer
10
361.4854532
20
104.1157999
40
9.5048639
50
350.6562881
51
0.3380252
0
ARC
8
top_labelLayer
10
364.7990067
20
103.5522029
40
6.1437972
50
335.8306022
51
350.8254751
0
ARC
8
top_labelLayer
10
366.2565903
20
102.9230886
40
4.5564622
50
321.3161305
51
335.5436301
0
ARC
8
top_labelLayer
10
366.8138206
20
102.4690289
40
3.8376919
50
274.0640061
51
321.4081015
0
ARC
8
top_labelLayer
10
366.5542201
20
104.1134411
40
5.4982118
50
269.9225965
51
275.5481661
0
ARC
8
top_labelLayer
10
366.2790286
20
103.661148
40
4.6710026
50
89.5904412
51
100.3501858
0
ARC
8
top_labelLayer
10
365.9459497
20
105.410941
40
2.8898705
50
100.0868045
51
118.1918041
0
ARC
8
top_labelLayer
10
365.604742
20
106.0764072
40
2.1421965
50
118.5569486
51
141.0243277
0
ARC
8
top_labelLayer
10
366.1246775
20
105.7096532
40
2.7774022
50
141.8890381
51
160.5973074
0
ARC
8
top_labelLayer
10
367.9519315
20
105.0391792
40
4.7236842
50
160.289556
51
171.245311
0
ARC
8
top_labelLayer
10
370.9562922
20
104.5547776
40
7.7667989
50
171.0868428
51
178.3247594
0
ARC
8
top_labelLayer
10
373.5032069
20
104.4337124
40
10.3162694
50
178.0661888
51
179.4474273
0
ARC
8
top_labelLayer
10
373.9058937
20
104.1300209
40
10.7185581
50
179.7762696
51
185.7075172
0
ARC
8
top_labelLayer
10
369.6799083
20
103.694594
40
6.4702325
50
185.5924625
51
194.2050865
0
ARC
8
top_labelLayer
10
366.9728414
20
102.9920131
40
3.6735677
50
193.9430285
51
208.0218386
0
ARC
8
top_labelLayer
10
365.8775461
20
102.4348052
40
2.4449999
50
208.5536273
51
217.560509
0
ARC
8
top_labelLayer
10
365.788309
20
102.3976906
40
2.3517682
50
218.1690497
51
253.8047105
0
ARC
8
top_labelLayer
10
366.2245143
20
103.7425551
40
3.7651815
50
253.1382373
51
266.8483309
0
ARC
8
top_labelLayer
10
366.3468354
20
105.1850928
40
5.2124386
50
266.3775722
51
270.0510514
0
ARC
8
top_labelLayer
10
366.3883921
20
102.7038905
40
2.7314836
50
269.2257021
51
292.0430264
0
ARC
8
top_labelLayer
10
366.4252482
20
102.4842507
40
2.5145302
50
293.1429539
51
324.135392
0
ARC
8
top_labelLayer
10
365.8777746
20
102.9477804
40
3.2302402
50
323.1616244
51
325.0154265
0
ARC
8
top_labelLayer
10
365.2913299
20
103.311426
40
3.9194038
50
325.5753872
51
344.1504659
0
ARC
8
top_labelLayer
10
363.263118
20
103.9109845
40
6.0342975
50
343.9336407
51
355.1137379
0
ARC
8
top_labelLayer
10
360.6740804
20
104.1736979
40
8.6364019
50
354.8402115
51
0.1174814
0
ARC
8
top_labelLayer
10
361.1300398
20
104.2326931
40
8.1805286
50
359.7108288
51
7.8610328
0
ARC
8
top_labelLayer
10
364.1044857
20
104.6566914
40
5.1760604
50
7.7149579
51
19.885974
0
ARC
8
top_labelLayer
10
365.7403486
20
105.2475738
40
3.4367535
50
19.8991246
51
35.8980299
0
ARC
8
top_labelLayer
10
366.4700119
20
105.8001656
40
2.5217497
50
35.4481683
51
85.2266505
0
ARC
8
top_labelLayer
10
366.3175785
20
104.8442295
40
3.4878056
50
84.0379224
51
90.084786
0
LINE
8
back_outsideCutPath
10
0
20
606
11
0
21
580.75845
0
LINE
8
back_outsideCutPath
10
0
20
580.75845
11
3
21
580.75845
0
LINE
8
back_outsideCutPath
10
3
20
580.75845
11
3
21
553.03435
0
LINE
8
back_outsideCutPath
10
3
20
553.03435
11
0
21
553.03435
0
LINE
8
back_outsideCutPath
10
0
20
553.03435
11
0
21
525.31025
0
LINE
8
back_outsideCutPath
10
0
20
525.31025
11
3
21
525.31025
0
LINE
8
back_outsideCutPath
10
3
20
525.31025
11
3
21
497.58615
0
LINE
8
back_outsideCutPath
10
3
20
497.58615
11
0
21
497.58615
0
LINE
8
back_outsideCutPath
10
0
20
497.58615
11
0
21
469.86205
0
LINE
8
back_outsideCutPath
10
0
20
469.86205
11
3
21
469.86205
0
LINE
8
back_outsideCutPath
10
3
20
469.86205
11
3
21
442.13795
0
LINE
8
back_outsideCutPath
10
3
20
442.13795
11
0
21
442.13795
0
LINE
8
back_outsideCutPath
10
0
20
442.13795
11
0
21
414.41385
0
LINE
8
back_outsideCutPath
10
0
20
414.41385
11
3
21
414.41385
0
LINE
8
back_outsideCutPath
10
3
20
414.41385
11
3
21
386.68975
0
LINE
8
back_outsideCutPath
10
3
20
386.68975
11
0
21
386.68975
0
LINE
8
back_outsideCutPath
10
0
20
386.68975
11
0
21
358.96565
0
LINE
8
back_outsideCutPath
10
0
20
358.96565
11
3
21
358.96565
0
LINE
8
back_outsideCutPath
10
3
20
358.96565
11
3
21
331.24155
0
LINE
8
back_outsideCutPath
10
3
20
331.24155
11
0
21
331.24155
0
LINE
8
back_outsideCutPath
10
0
20
331.24155
11
0
21
306
0
LINE
8
back_outsideCutPath
10
0
20
306
11
36.13795
21
306
0
LINE
8
back_outsideCutPath
10
36.13795
20
306
11
36.13795
21
309
0
LINE
8
back_outsideCutPath
10
36.13795
20
309
11
63.86205
21
309
0
LINE
8
back_outsideCutPath
10
63.86205
20
309
11
63.86205
21
306
0
LINE
8
back_outsideCutPath
10
63.86205
20
306
11
91.58615
21
306
0
LINE
8
back_outsideCutPath
10
91.58615
20
306
11
100
21
306
0
LINE
8
back_outsideCutPath
10
100
20
306
11
100
21
331.24155
0
LINE
8
back_outsideCutPath
10
100
20
331.24155
11
97
21
331.24155
0
LINE
8
back_outsideCutPath
10
97
20
331.24155
11
97
21
358.96565
0
LINE
8
back_outsideCutPath
10
97
20
358.96565
11
100
21
358.96565
0
LINE
8
back_outsideCutPath
10
100
20
358.96565
11
100
21
386.68975
0
LINE
8
back_outsideCutPath
10
100
20
386.68975
11
97
21
386.68975
0
LINE
8
back_outsideCutPath
10
97
20
386.68975
11
97
21
414.41385
0
LINE
8
back_outsideCutPath
10
97
20
414.41385
11
100
21
414.41385
0
LINE
8
back_outsideCutPath
10
100
20
414.41385
11
100
21
442.13795
0
LINE
8
back_outsideCutPath
10
100
20
442.13795
11
97
21
442.13795
0
LINE
8
back_outsideCutPath
10
97
20
442.13795
11
97
21
469.86205
0
LINE
8
back_outsideCutPath
10
97
20
469.86205
11
100
21
469.86205
0
LINE
8
back_outsideCutPath
10
100
20
469.86205
11
100
21
497.58615
0
LINE
8
back_outsideCutPath
10
100
20
497.58615
11
97
21
497.58615
0
LINE
8
back_outsideCutPath
10
97
20
497.58615
11
97
21
525.31025
0
LINE
8
back_outsideCutPath
10
97
20
525.31025
11
100
21
525.31025
0
LINE
8
back_outsideCutPath
10
100
20
525.31025
11
100
21
553.03435
0
LINE
8
back_outsideCutPath
10
100
20
553.03435
11
97
21
553.03435
0
LINE
8
back_outsideCutPath
10
97
20
553.03435
11
97
21
580.75845
0
LINE
8
back_outsideCutPath
10
97
20
580.75845
11
100
21
580.75845
0
LINE
8
back_outsideCutPath
10
100
20
580.75845
11
100
21
606
0
LINE
8
back_outsideCutPath
10
100
20
606
11
63.86205
21
606
0
LINE
8
back_outsideCutPath
10
63.86205
20
606
11
63.86205
21
603
0
LINE
8
back_outsideCutPath
10
63.86205
20
603
11
36.13795
21
603
0
LINE
8
back_outsideCutPath
10
36.13795
20
603
11
36.13795
21
606
0
LINE
8
back_outsideCutPath
10
36.13795
20
606
11
8.41385
21
606
0
LINE
8
back_outsideCutPath
10
8.41385
20
606
11
0
21
606
0
LINE
8
back_labelLayer
10
30.8886719
20
449.8770634
11
30.7714844
21
449.8770634
0
LINE
8
back_labelLayer
10
30.7714844
20
449.8770634
11
30.4296875
21
448.5001103
0
LINE
8
back_labelLayer
10
30.4296875
20
448.5001103
11
29.2675781
21
448.5001103
0
LINE
8
back_labelLayer
10
29.2675781
20
448.5001103
11
29.2675781
21
463.6954228
0
LINE
8
back_labelLayer
10
29.2675781
20
463.6954228
11
30.8886719
21
463.6954228
0
LINE
8
back_labelLayer
10
30.8886719
20
463.6954228
11
30.8886719
21
460.0040166
0
LINE
8
back_labelLayer
10
30.8105469
20
457.7774541
11
30.8886719
21
457.7774541
0
ARC
8
back_labelLayer
10
34.2966775
20
454.4246287
40
4.9546266
50
74.2393364
51
90.5623784
0
ARC
8
back_labelLayer
10
34.6242936
20
455.6265047
40
3.7089652
50
38.563135
51
74.0670337
0
ARC
8
back_labelLayer
10
33.7811887
20
454.9709425
40
4.776887
50
16.4709282
51
38.4075249
0
ARC
8
back_labelLayer
10
31.3523335
20
454.2093236
40
7.3221308
50
5.1338483
51
16.7973468
0
ARC
8
back_labelLayer
10
28.2860763
20
453.8836053
40
10.4053536
50
359.8779407
51
5.4093585
0
ARC
8
back_labelLayer
10
29.1867078
20
453.8053634
40
9.5048639
50
350.6562881
51
0.3380252
0
ARC
8
back_labelLayer
10
32.5002613
20
453.2417664
40
6.1437972
50
335.8306022
51
350.8254751
0
ARC
8
back_labelLayer
10
33.9578448
20
452.6126521
40
4.5564622
50
321.3161305
51
335.5436301
0
ARC
8
back_labelLayer
10
34.5150752
20
452.1585923
40
3.8376919
50
274.0640061
51
321.4081015
0
ARC
8
back_labelLayer
10
34.2554747
20
453.8030045
40
5.4982118
50
269.9225965
51
275.5481661
0
ARC
8
back_labelLayer
10
34.2207101
20
453.2218541
40
4.9171322
50
255.7755416
51
270.3185374
0
ARC
8
back_labelLayer
10
34.0803944
20
452.5984365
40
4.2783843
50
245.9801859
51
255.5455587
0
ARC
8
back_labelLayer
10
33.8086003
20
451.9663728
40
3.5904312
50
215.5850261
51
245.8361642
0
ARC
8
back_labelLayer
10
-2.9099042
20
459.9754433
40
33.7985882
50
358.1123236
51
0.0484378
0
ARC
8
back_labelLayer
10
6.4970011
20
459.6596271
40
24.3863854
50
355.7238501
51
358.1259023
0
ARC
8
back_labelLayer
10
10.6558653
20
459.3737435
40
20.2177974
50
355.4715177
51
355.6529673
0
ARC
8
back_labelLayer
10
33.9119411
20
455.6692469
40
3.6857421
50
95.1835136
51
145.1108959
0
ARC
8
back_labelLayer
10
34.2359053
20
453.8423621
40
5.5366677
50
89.8743539
51
96.8145168
0
ARC
8
back_labelLayer
10
33.9797325
20
453.4663119
40
4.5554093
50
89.5731223
51
100.7324143
0
ARC
8
back_labelLayer
10
33.6425047
20
455.1701038
40
2.8186562
50
100.4469271
51
119.6700806
0
ARC
8
back_labelLayer
10
33.3297942
20
455.7547523
40
2.1559401
50
120.1402874
51
142.4248999
0
ARC
8
back_labelLayer
10
33.847151
20
455.4125044
40
2.7750293
50
143.3382417
51
161.2559929
0
ARC
8
back_labelLayer
10
36.0106157
20
454.6444
40
5.070677
50
160.8926193
51
171.2334482
0
ARC
8
back_labelLayer
10
39.6223319
20
454.061745
40
8.7290381
50
171.0667895
51
177.8456849
0
ARC
8
back_labelLayer
10
43.3782991
20
453.870715
40
12.4896305
50
177.6176676
51
180.042556
0
ARC
8
back_labelLayer
10
41.6071483
20
453.8195844
40
10.7185581
50
179.7762696
51
185.7075172
0
ARC
8
back_labelLayer
10
37.3811629
20
453.3841575
40
6.4702325
50
185.5924625
51
194.2050865
0
ARC
8
back_labelLayer
10
34.6740959
20
452.6815766
40
3.6735677
50
193.9430285
51
208.0218386
0
ARC
8
back_labelLayer
10
33.5788007
20
452.1243686
40
2.4449999
50
208.5536273
51
217.560509
0
ARC
8
back_labelLayer
10
33.4895636
20
452.087254
40
2.3517682
50
218.1690497
51
253.8047105
0
ARC
8
back_labelLayer
10
33.9257689
20
453.4321185
40
3.7651815
50
253.1382373
51
266.8483309
0
ARC
8
back_labelLayer
10
34.04809
20
454.8746562
40
5.2124386
50
266.3775722
51
270.0510514
0
ARC
8
back_labelLayer
10
34.0873142
20
452.8936739
40
3.2316392
50
269.3869014
51
285.8630523
0
ARC
8
back_labelLayer
10
34.3274047
20
452.0259509
40
2.3313432
50
286.0162899
51
326.849735
0
ARC
8
back_labelLayer
10
33.1686045
20
452.7936133
40
3.7213332
50
326.7105084
51
343.6661789
0
ARC
8
back_labelLayer
10
30.9993961
20
453.4564532
40
5.9894605
50
343.4171354
51
353.6369032
0
ARC
8
back_labelLayer
10
27.7230414
20
453.8452135
40
9.288746
50
353.4934852
51
0.2205553
0
ARC
8
back_labelLayer
10
27.434222
20
453.9197357
40
9.5775752
50
359.7680902
51
6.3095251
0
ARC
8
back_labelLayer
10
31.0419156
20
454.3337409
40
5.9462546
50
6.1648601
51
16.0396518
0
ARC
8
back_labelLayer
10
33.3659209
20
455.0186273
40
3.5235221
50
15.7779193
51
32.0151484
0
ARC
8
back_labelLayer
10
34.0904845
20
455.4335481
40
2.6893853
50
32.70347
51
35.5241319
0
ARC
8
back_labelLayer
10
34.3556744
20
455.6220279
40
2.3640397
50
35.5408356
51
79.8011276
0
ARC
8
back_labelLayer
10
34.0382087
20
454.2724222
40
3.7492528
50
78.6781247
51
90.3749718
0
LINE
8
back_labelLayer
10
49.3066406
20
448.5001103
11
48.1054688
21
448.5001103
0
LINE
8
back_labelLayer
10
48.1054688
20
448.5001103
11
47.7832031
21
450.0235478
0
LINE
8
back_labelLayer
10
47.7832031
20
450.0235478
11
47.7050781
21
450.0235478
0
LINE
8
back_labelLayer
10
45.9082031
20
454.8575322
11
47.7246094
21
454.9161259
0
LINE
8
back_labelLayer
10
47.7246094
20
454.9161259
11
47.7246094
21
455.5801884
0
LINE
8
back_labelLayer
10
42.421875
20
457.2208134
11
41.9238281
21
458.4610478
0
LINE
8
back_labelLayer
10
49.3066406
20
455.8047978
11
49.3066406
21
448.5001103
0
LINE
8
back_labelLayer
10
47.6855469
20
452.7969853
11
47.6855469
21
453.7637822
0
LINE
8
back_labelLayer
10
47.6855469
20
453.7637822
11
46.0644531
21
453.6954228
0
ARC
8
back_labelLayer
10
42.4306644
20
454.1879571
40
6.7202489
50
314.7445074
51
321.7071704
0
ARC
8
back_labelLayer
10
44.0817415
20
452.5103331
40
4.3664493
50
304.8485428
51
314.8530978
0
ARC
8
back_labelLayer
10
44.8748672
20
451.3813971
40
2.986777
50
294.3932694
51
304.7371559
0
ARC
8
back_labelLayer
10
44.6038997
20
452.0834926
40
3.7383563
50
281.2979431
51
293.7313825
0
ARC
8
back_labelLayer
10
44.2456914
20
453.8195485
40
5.5109586
50
272.9335174
51
281.4139131
0
ARC
8
back_labelLayer
10
44.1269653
20
455.6000298
40
7.2952343
50
269.9538855
51
273.1491107
0
ARC
8
back_labelLayer
10
44.0859498
20
453.279584
40
4.9749103
50
258.6719639
51
270.4047542
0
ARC
8
back_labelLayer
10
43.7403872
20
451.6265524
40
3.2862349
50
238.3273137
51
258.9183621
0
ARC
8
back_labelLayer
10
43.5022473
20
451.1920954
40
2.7915621
50
227.7689348
51
237.8050187
0
ARC
8
back_labelLayer
10
43.4277627
20
451.0881164
40
2.6645499
50
192.0827618
51
227.4520837
0
ARC
8
back_labelLayer
10
44.8014924
20
451.4267548
40
4.0789644
50
179.5457285
51
192.694943
0
ARC
8
back_labelLayer
10
43.5253096
20
451.5744445
40
2.8050261
50
115.4904649
51
182.3568121
0
ARC
8
back_labelLayer
10
44.9300973
20
448.9977752
40
5.7376476
50
101.3568205
51
117.0798671
0
ARC
8
back_labelLayer
10
46.0582719
20
443.7257077
40
11.1288529
50
92.4696269
51
101.7064866
0
ARC
8
back_labelLayer
10
46.3824904
20
439.03036
40
15.8342771
50
91.7164487
51
92.9096216
0
ARC
8
back_labelLayer
10
43.0684989
20
455.60511
40
4.6561772
50
359.693331
51
8.0035628
0
ARC
8
back_labelLayer
10
44.8298384
20
455.8616989
40
2.8762816
50
7.8272679
51
20.6041502
0
ARC
8
back_labelLayer
10
45.8265519
20
456.24299
40
1.8091542
50
20.4094277
51
41.4479322
0
ARC
8
back_labelLayer
10
45.9738197
20
456.3239384
40
1.6455973
50
42.729564
51
71.0380389
0
ARC
8
back_labelLayer
10
45.627111
20
455.3812322
40
2.6498947
50
70.5716248
51
83.9928856
0
ARC
8
back_labelLayer
10
45.4614756
20
454.035819
40
4.0053257
50
83.6506279
51
90.1753328
0
ARC
8
back_labelLayer
10
45.4905285
20
452.7633669
40
5.2779207
50
90.4484524
51
103.7665593
0
ARC
8
back_labelLayer
10
46.1111829
20
450.1460332
40
7.9677873
50
103.6226473
51
112.4320058
0
ARC
8
back_labelLayer
10
47.1750748
20
447.4597886
40
10.8568188
50
112.2122283
51
115.9640928
0
ARC
8
back_labelLayer
10
45.4713502
20
451.8822077
40
7.4743595
50
106.3568646
51
118.3349734
0
ARC
8
back_labelLayer
10
45.7896822
20
450.8988828
40
8.5075819
50
104.5161895
51
106.5489699
0
ARC
8
back_labelLayer
10
45.5562371
20
451.8715425
40
7.5074799
50
90.0714502
51
104.652096
0
ARC
8
back_labelLayer
10
45.5856983
20
452.5325074
40
6.8466192
50
81.5679788
51
90.3248934
0
ARC
8
back_labelLayer
10
45.9815605
20
455.1114421
40
4.2375352
50
68.2273377
51
81.7494148
0
ARC
8
back_labelLayer
10
46.5329279
20
456.4832925
40
2.7590347
50
47.8683409
51
68.2933994
0
ARC
8
back_labelLayer
10
46.6224197
20
456.6619777
40
2.567044
50
19.2330911
51
46.6741267
0
ARC
8
back_labelLayer
10
45.1316912
20
456.1074223
40
4.157374
50
6.3379111
51
19.6815496
0
ARC
8
back_labelLayer
10
42.9280519
20
455.8267669
40
6.3786266
50
359.8026633
51
6.658371
0
ARC
8
back_labelLayer
10
44.4761385
20
454.1059151
40
4.4633471
50
269.5792127
51
282.0413547
0
ARC
8
back_labelLayer
10
44.8017091
20
452.6618203
40
2.9831557
50
281.7120864
51
306.4593916
0
ARC
8
back_labelLayer
10
44.9460938
20
452.4243809
40
2.7065025
50
306.9880823
51
313.8559907
0
ARC
8
back_labelLayer
10
44.9288957
20
452.419491
40
2.7149381
50
314.1892061
51
347.4269792
0
ARC
8
back_labelLayer
10
43.5689102
20
452.7602966
40
4.1166607
50
346.9177645
51
0.2824482
0
ARC
8
back_labelLayer
10
42.5226294
20
452.7970382
40
5.1629176
50
359.817467
51
359.9994127
0
ARC
8
back_labelLayer
10
46.4500662
20
441.7985913
40
11.9030793
50
91.8564832
51
96.4478262
0
ARC
8
back_labelLayer
10
45.9132738
20
446.4436288
40
7.2271525
50
96.3545423
51
102.9953068
0
ARC
8
back_labelLayer
10
45.184616
20
449.5394904
40
4.0467499
50
102.7995585
51
113.24332
0
ARC
8
back_labelLayer
10
44.5839333
20
450.9760909
40
2.4897418
50
113.5886443
51
121.680458
0
ARC
8
back_labelLayer
10
44.1665917
20
451.6116959
40
1.7297996
50
120.9734105
51
172.4179761
0
ARC
8
back_labelLayer
10
44.9823049
20
451.4487613
40
2.5604465
50
171.2121897
51
180.2058228
0
ARC
8
back_labelLayer
10
44.7385229
20
451.4204208
40
2.316727
50
179.5265724
51
192.7787214
0
ARC
8
back_labelLayer
10
43.9548163
20
451.2304473
40
1.510459
50
192.326445
51
222.0579919
0
ARC
8
back_labelLayer
10
43.8965274
20
451.19559
40
1.4438911
50
222.5804588
51
229.2546163
0
ARC
8
back_labelLayer
10
44.0935082
20
451.4492005
40
1.7646752
50
229.7836963
51
254.2724368
0
ARC
8
back_labelLayer
10
44.3558684
20
452.3234906
40
2.6773946
50
253.9396744
51
266.4533722
0
ARC
8
back_labelLayer
10
44.4396009
20
453.2885805
40
3.6458941
50
266.0782346
51
270.0590643
0
LINE
8
back_labelLayer
10
59.7851563
20
458.8419072
11
59.2871094
21
457.4649541
0
LINE
8
back_labelLayer
10
59.6289063
20
450.2969853
11
59.6289063
21
448.8614384
0
ARC
8
back_labelLayer
10
56.8721212
20
454.3632527
40
6.0586755
50
256.4243755
51
270.4889884
0
ARC
8
back_labelLayer
10
56.3879769
20
452.4736772
40
4.1083396
50
221.7976345
51
256.8020472
0
ARC
8
back_labelLayer
10
56.8568144
20
452.8200827
40
4.6890531
50
196.0166575
51
221.1349271
0
ARC
8
back_labelLayer
10
59.2131655
20
453.5403047
40
7.1527796
50
183.591376
51
196.3539497
0
ARC
8
back_labelLayer
10
61.8527904
20
453.7728497
40
9.8020146
50
179.9388361
51
183.9815029
0
ARC
8
back_labelLayer
10
60.9951545
20
453.8409023
40
8.9445587
50
169.897846
51
180.3688969
0
ARC
8
back_labelLayer
10
57.8813448
20
454.4169111
40
5.7780272
50
153.0875059
51
170.1051419
0
ARC
8
back_labelLayer
10
56.6999074
20
454.9814342
40
4.4691314
50
138.6550063
51
152.6853485
0
ARC
8
back_labelLayer
10
56.479401
20
455.1421245
40
4.1975112
50
101.491292
51
138.3133869
0
ARC
8
back_labelLayer
10
56.9856242
20
453.0352793
40
6.3634321
50
89.5891859
51
102.1787782
0
ARC
8
back_labelLayer
10
57.0245506
20
452.0830162
40
7.3155347
50
77.7702363
51
89.9475301
0
ARC
8
back_labelLayer
10
56.886083
20
451.31911
40
8.0914803
50
74.6797009
51
77.9578473
0
ARC
8
back_labelLayer
10
57.6340573
20
454.0288783
40
5.2803836
50
70.094526
51
74.7386567
0
ARC
8
back_labelLayer
10
58.3454669
20
455.9784898
40
3.2050414
50
63.5034027
51
70.1861249
0
ARC
8
back_labelLayer
10
58.6860924
20
456.6915361
40
2.4149612
50
62.9282302
51
63.1884379
0
ARC
8
back_labelLayer
10
56.6240678
20
450.763004
40
7.211652
50
68.3294412
51
74.8831264
0
ARC
8
back_labelLayer
10
56.2436553
20
449.4141402
40
8.6130607
50
74.7801496
51
77.4497675
0
ARC
8
back_labelLayer
10
56.643055
20
451.2888765
40
6.6963547
50
77.2999021
51
81.7345291
0
ARC
8
back_labelLayer
10
56.934401
20
453.3189822
40
4.6454542
50
81.6910151
51
87.507921
0
ARC
8
back_labelLayer
10
56.9906145
20
454.3695998
40
3.5934013
50
87.674992
51
89.9749185
0
ARC
8
back_labelLayer
10
56.9118247
20
454.368077
40
3.595822
50
88.7193937
51
112.5667715
0
ARC
8
back_labelLayer
10
56.6563178
20
455.2128493
40
2.7191105
50
114.4265782
51
161.6632806
0
ARC
8
back_labelLayer
10
59.1945379
20
454.2193636
40
5.4429205
50
160.1418489
51
175.1368044
0
ARC
8
back_labelLayer
10
62.6880099
20
453.8270714
40
8.9575739
50
174.5309675
51
180.1549624
0
ARC
8
back_labelLayer
10
61.5812657
20
453.762305
40
7.8509016
50
179.7041402
51
188.0743723
0
ARC
8
back_labelLayer
10
58.7534707
20
453.348568
40
4.9930426
50
187.9315309
51
200.3885334
0
ARC
8
back_labelLayer
10
57.2244558
20
452.7821479
40
3.3624863
50
200.4183568
51
216.6392549
0
ARC
8
back_labelLayer
10
56.5834497
20
452.3239089
40
2.5747147
50
216.9695228
51
261.3103146
0
ARC
8
back_labelLayer
10
56.8663379
20
453.6427794
40
3.9220093
50
260.1359453
51
270.2692071
0
ARC
8
back_labelLayer
10
56.8532793
20
456.5068346
40
6.7860942
50
270.2658436
51
286.2891424
0
ARC
8
back_labelLayer
10
56.4407403
20
458.0453351
40
8.3786232
50
286.0460598
51
292.3653954
0
ARC
8
back_labelLayer
10
57.5393972
20
452.972001
40
4.6111574
50
282.0344333
51
296.9454504
0
ARC
8
back_labelLayer
10
57.0651709
20
455.1091529
40
6.8002402
50
272.5980445
51
282.1878533
0
ARC
8
back_labelLayer
10
56.9291798
20
457.1947576
40
8.8899615
50
269.9655087
51
272.8643089
0
LINE
8
back_labelLayer
10
63.6914063
20
453.9786259
11
63.7695313
21
453.9786259
0
LINE
8
back_labelLayer
10
65.0488281
20
455.5411259
11
68.5058594
21
459.2032353
0
LINE
8
back_labelLayer
10
68.5058594
20
459.2032353
11
70.4296875
21
459.2032353
0
LINE
8
back_labelLayer
10
70.4296875
20
459.2032353
11
66.09375
21
454.6426884
0
LINE
8
back_labelLayer
10
66.09375
20
454.6426884
11
70.7324219
21
448.5001103
0
LINE
8
back_labelLayer
10
70.7324219
20
448.5001103
11
68.7695313
21
448.5001103
0
LINE
8
back_labelLayer
10
68.7695313
20
448.5001103
11
64.9902344
21
453.5587041
0
LINE
8
back_labelLayer
10
64.9902344
20
453.5587041
11
63.7695313
21
452.5040166
0
LINE
8
back_labelLayer
10
63.7695313
20
452.5040166
11
63.7695313
21
448.5001103
0
LINE
8
back_labelLayer
10
63.7695313
20
448.5001103
11
62.1679688
21
448.5001103
0
LINE
8
back_labelLayer
10
62.1679688
20
448.5001103
11
62.1679688
21
463.6954228
0
LINE
8
back_labelLayer
10
62.1679688
20
463.6954228
11
63.7695313
21
463.6954228
0
LINE
8
back_labelLayer
10
63.7695313
20
463.6954228
11
63.7695313
21
455.6387822
0
ARC
8
back_labelLayer
10
71.6025346
20
448.434094
40
9.5967586
50
142.3233918
51
144.7075212
0
ARC
8
back_labelLayer
10
76.7127593
20
444.492464
40
16.0505045
50
140.4331061
51
142.3365832
0
ARC
8
back_labelLayer
10
83.3726946
20
439.0101636
40
24.6766385
50
139.2798925
51
140.470333
0
ARC
8
back_labelLayer
10
91.073863
20
432.387678
40
34.8336703
50
138.3417705
51
139.2877062
0
ARC
8
back_labelLayer
10
52.9667222
20
455.6590068
40
10.802828
50
358.2738882
51
359.8927332
0
ARC
8
back_labelLayer
10
44.5606473
20
455.8932771
40
19.2121548
50
357.5041933
51
358.3306763
0
ARC
8
back_labelLayer
10
31.9839581
20
456.4487927
40
31.8011053
50
356.6324975
51
357.4910035
0
ARC
8
back_labelLayer
10
11.0766685
20
457.6681531
40
52.7439211
50
356.0329142
51
356.6442762
0
ARC
8
back_labelLayer
10
-3.5248414
20
458.6546298
40
67.378698
50
356.0205403
51
356.0550821
0
LINE
8
right_outsideCutPath
10
106
20
606
11
106
21
580.75845
0
LINE
8
right_outsideCutPath
10
106
20
580.75845
11
103
21
580.75845
0
LINE
8
right_outsideCutPath
10
103
20
580.75845
11
103
21
553.03435
0
LINE
8
right_outsideCutPath
10
103
20
553.03435
11
106
21
553.03435
0
LINE
8
right_outsideCutPath
10
106
20
553.03435
11
106
21
525.31025
0
LINE
8
right_outsideCutPath
10
106
20
525.31025
11
103
21
525.31025
0
LINE
8
right_outsideCutPath
10
103
20
525.31025
11
103
21
497.58615
0
LINE
8
right_outsideCutPath
10
103
20
497.58615
11
106
21
497.58615
0
LINE
8
right_outsideCutPath
10
106
20
497.58615
11
106
21
469.86205
0
LINE
8
right_outsideCutPath
10
106
20
469.86205
11
103
21
469.86205
0
LINE
8
right_outsideCutPath
10
103
20
469.86205
11
103
21
442.13795
0
LINE
8
right_outsideCutPath
10
103
20
442.13795
11
106
21
442.13795
0
LINE
8
right_outsideCutPath
10
106
20
442.13795
11
106
21
414.41385
0
LINE
8
right_outsideCutPath
10
106
20
414.41385
11
103
21
414.41385
0
LINE
8
right_outsideCutPath
10
103
20
414.41385
11
103
21
386.68975
0
LINE
8
right_outsideCutPath
10
103
20
386.68975
11
106
21
386.68975
0
LINE
8
right_outsideCutPath
10
106
20
386.68975
11
106
21
358.96565
0
LINE
8
right_outsideCutPath
10
106
20
358.96565
11
103
21
358.96565
0
LINE
8
right_outsideCutPath
10
103
20
358.96565
11
103
21
331.24155
0
LINE
8
right_outsideCutPath
10
103
20
331.24155
11
106
21
331.24155
0
LINE
8
right_outsideCutPath
10
106
20
331.24155
11
106
21
306
0
LINE
8
right_outsideCutPath
10
106
20
306
11
133.68975
21
306
0
LINE
8
right_outsideCutPath
10
133.68975
20
306
11
133.68975
21
309
0
LINE
8
right_outsideCutPath
10
133.68975
20
309
11
161.41385
21
309
0
LINE
8
right_outsideCutPath
10
161.41385
20
309
11
161.41385
21
306
0
LINE
8
right_outsideCutPath
10
161.41385
20
306
11
189.13795
21
306
0
LINE
8
right_outsideCutPath
10
189.13795
20
306
11
189.13795
21
309
0
LINE
8
right_outsideCutPath
10
189.13795
20
309
11
216.86205
21
309
0
LINE
8
right_outsideCutPath
10
216.86205
20
309
11
216.86205
21
306
0
LINE
8
right_outsideCutPath
10
216.86205
20
306
11
244.58615
21
306
0
LINE
8
right_outsideCutPath
10
244.58615
20
306
11
244.58615
21
309
0
LINE
8
right_outsideCutPath
10
244.58615
20
309
11
272.31025
21
309
0
LINE
8
right_outsideCutPath
10
272.31025
20
309
11
272.31025
21
306
0
LINE
8
right_outsideCutPath
10
272.31025
20
306
11
300
21
306
0
LINE
8
right_outsideCutPath
10
300
20
306
11
300
21
331.24155
0
LINE
8
right_outsideCutPath
10
300
20
331.24155
11
303
21
331.24155
0
LINE
8
right_outsideCutPath
10
303
20
331.24155
11
303
21
358.96565
0
LINE
8
right_outsideCutPath
10
303
20
358.96565
11
300
21
358.96565
0
LINE
8
right_outsideCutPath
10
300
20
358.96565
11
300
21
386.68975
0
LINE
8
right_outsideCutPath
10
300
20
386.68975
11
303
21
386.68975
0
LINE
8
right_outsideCutPath
10
303
20
386.68975
11
303
21
414.41385
0
LINE
8
right_outsideCutPath
10
303
20
414.41385
11
300
21
414.41385
0
LINE
8
right_outsideCutPath
10
300
20
414.41385
11
300
21
442.13795
0
LINE
8
right_outsideCutPath
10
300
20
442.13795
11
303
21
442.13795
0
LINE
8
right_outsideCutPath
10
303
20
442.13795
11
303
21
469.86205
0
LINE
8
right_outsideCutPath
10
303
20
469.86205
11
300
21
469.86205
0
LINE
8
right_outsideCutPath
10
300
20
469.86205
11
300
21
497.58615
0
LINE
8
right_outsideCutPath
10
300
20
497.58615
11
303
21
497.58615
0
LINE
8
right_outsideCutPath
10
303
20
497.58615
11
303
21
525.31025
0
LINE
8
right_outsideCutPath
10
303
20
525.31025
11
300
21
525.31025
0
LINE
8
right_outsideCutPath
10
300
20
525.31025
11
300
21
553.03435
0
LINE
8
right_outsideCutPath
10
300
20
553.03435
11
303
21
553.03435
0
LINE
8
right_outsideCutPath
10
303
20
553.03435
11
303
21
580.75845
0
LINE
8
right_outsideCutPath
10
303
20
580.75845
11
300
21
580.75845
0
LINE
8
right_outsideCutPath
10
300
20
580.75845
11
300
21
606
0
LINE
8
right_outsideCutPath
10
300
20
606
11
272.31025
21
606
0
LINE
8
right_outsideCutPath
10
272.31025
20
606
11
272.31025
21
603
0
LINE
8
right_outsideCutPath
10
272.31025
20
603
11
244.58615
21
603
0
LINE
8
right_outsideCutPath
10
244.58615
20
603
11
244.58615
21
606
0
LINE
8
right_outsideCutPath
10
244.58615
20
606
11
216.86205
21
606
0
LINE
8
right_outsideCutPath
10
216.86205
20
606
11
216.86205
21
603
0
LINE
8
right_outsideCutPath
10
216.86205
20
603
11
189.13795
21
603
0
LINE
8
right_outsideCutPath
10
189.13795
20
603
11
189.13795
21
606
0
LINE
8
right_outsideCutPath
10
189.13795
20
606
11
161.41385
21
606
0
LINE
8
right_outsideCutPath
10
161.41385
20
606
11
161.41385
21
603
0
LINE
8
right_outsideCutPath
10
161.41385
20
603
11
133.68975
21
603
0
LINE
8
right_outsideCutPath
10
133.68975
20
603
11
133.68975
21
606
0
LINE
8
right_outsideCutPath
10
133.68975
20
606
11
106
21
606
0
LINE
8
right_labelLayer
10
173.9472656
20
467.1719928
11
173.4980469
21
464.1641803
0
LINE
8
right_labelLayer
10
164.8652344
20
457.0938678
11
164.8652344
21
445.6094928
0
LINE
8
right_labelLayer
10
164.8652344
20
445.6094928
11
161.6230469
21
445.6094928
0
LINE
8
right_labelLayer
10
161.6230469
20
445.6094928
11
161.6230469
21
467.0157428
0
LINE
8
right_labelLayer
10
161.6230469
20
467.0157428
11
164.2988281
21
467.0157428
0
LINE
8
right_labelLayer
10
164.2988281
20
467.0157428
11
164.6699219
21
463.0508991
0
LINE
8
right_labelLayer
10
164.6699219
20
463.0508991
11
164.8261719
21
463.0508991
0
ARC
8
right_labelLayer
10
171.4219525
20
452.5220797
40
14.8843253
50
84.9922828
51
90.1281106
0
ARC
8
right_labelLayer
10
171.7794034
20
456.526892
40
10.8635998
50
78.4891881
51
85.0266001
0
ARC
8
right_labelLayer
10
170.3920186
20
450.216738
40
14.2891063
50
77.4453714
51
81.63605
0
ARC
8
right_labelLayer
10
171.0145613
20
454.5078938
40
9.9530392
50
81.5884282
51
87.1916472
0
ARC
8
right_labelLayer
10
171.1497862
20
456.8528052
40
7.6043452
50
87.3436407
51
89.9660141
0
ARC
8
right_labelLayer
10
171.1183665
20
458.8395125
40
5.6177515
50
89.6335416
51
137.0880794
0
ARC
8
right_labelLayer
10
172.4970805
20
457.2891104
40
7.6856705
50
135.6208956
51
138.8377027
0
ARC
8
right_labelLayer
10
172.2950406
20
457.4863223
40
7.4037775
50
138.9575692
51
174.542229
0
ARC
8
right_labelLayer
10
174.7063142
20
457.1090282
40
9.8410916
50
173.6907599
51
180.088265
0
ARC
8
right_labelLayer
10
174.3653771
20
457.676554
40
10.9489736
50
139.4139298
51
150.6032866
0
ARC
8
right_labelLayer
10
172.4022239
20
459.3587699
40
8.363665
50
124.2321539
51
139.416103
0
ARC
8
right_labelLayer
10
171.352537
20
460.9432653
40
6.4632037
50
89.6796658
51
124.4405637
0
LINE
8
right_labelLayer
10
181.1933594
20
467.0157428
11
181.1933594
21
445.6094928
0
LINE
8
right_labelLayer
10
181.1933594
20
445.6094928
11
177.9511719
21
445.6094928
0
LINE
8
right_labelLayer
10
177.9511719
20
445.6094928
11
177.9511719
21
467.0157428
0
LINE
8
right_labelLayer
10
177.9511719
20
467.0157428
11
181.1933594
21
467.0157428
0
ARC
8
right_labelLayer
10
181.2704027
20
472.8387516
40
3.5927371
50
170.8452009
51
180.3544785
0
ARC
8
right_labelLayer
10
179.9254388
20
473.0636318
40
2.2291407
50
155.9679211
51
171.0515669
0
ARC
8
right_labelLayer
10
179.2739858
20
473.3526445
40
1.5164579
50
133.7879874
51
155.9171913
0
ARC
8
right_labelLayer
10
179.5144998
20
473.0867457
40
1.874874
50
92.6446208
51
133.4710381
0
ARC
8
right_labelLayer
10
179.5904657
20
472.490096
40
2.4748657
50
89.9691828
51
93.7641615
0
ARC
8
right_labelLayer
10
179.6213986
20
473.0549337
40
1.9102573
50
46.3708479
51
90.8879036
0
ARC
8
right_labelLayer
10
179.8115138
20
473.2512047
40
1.6370166
50
17.7251939
51
46.4473147
0
ARC
8
right_labelLayer
10
178.9249553
20
472.945908
40
2.5745212
50
4.9427966
51
18.1900829
0
ARC
8
right_labelLayer
10
177.7971124
20
472.8239846
40
3.7087544
50
359.8847445
51
5.31811
0
ARC
8
right_labelLayer
10
178.1514059
20
472.7937455
40
3.3545308
50
349.83447
51
0.3890638
0
ARC
8
right_labelLayer
10
179.3726442
20
472.5659267
40
2.1122733
50
332.6322223
51
350.0705415
0
ARC
8
right_labelLayer
10
179.847986
20
472.331205
40
1.5822651
50
313.6153121
51
332.2677706
0
ARC
8
right_labelLayer
10
179.6189038
20
472.5397921
40
1.891431
50
269.1788399
51
314.2807421
0
ARC
8
right_labelLayer
10
179.5703073
20
472.7079366
40
2.0594933
50
250.5000289
51
270.5978566
0
ARC
8
right_labelLayer
10
179.5079806
20
472.4748763
40
1.8190954
50
225.1300722
51
249.9001513
0
ARC
8
right_labelLayer
10
179.410399
20
472.3670829
40
1.6738716
50
197.7933871
51
224.8941936
0
ARC
8
right_labelLayer
10
180.3237215
20
472.6800684
40
2.6392165
50
184.9925406
51
198.2040378
0
ARC
8
right_labelLayer
10
181.5056869
20
472.8085457
40
3.8279609
50
179.8805816
51
185.3686535
0
LINE
8
right_labelLayer
10
198.1855469
20
467.0157428
11
205.5878906
21
467.0157428
0
LINE
8
right_labelLayer
10
205.5878906
20
467.0157428
11
205.5878906
21
464.9649616
0
LINE
8
right_labelLayer
10
205.5878906
20
464.9649616
11
201.6230469
21
464.4962116
0
LINE
8
right_labelLayer
10
194.3183594
20
449.0079303
11
198.1074219
21
449.0079303
0
LINE
8
right_labelLayer
10
197.0722656
20
446.0977741
11
193.1855469
21
446.0977741
0
ARC
8
right_labelLayer
10
197.4913659
20
461.2264487
40
5.2689787
50
29.458447
51
38.3576711
0
ARC
8
right_labelLayer
10
195.3383492
20
459.9973757
40
7.7480943
50
23.1845274
51
29.5422481
0
ARC
8
right_labelLayer
10
193.2840201
20
459.0863459
40
9.9952271
50
21.2506509
51
23.3489319
0
ARC
8
right_labelLayer
10
196.7758871
20
460.4750789
40
6.2375156
50
6.8504745
51
20.9871866
0
ARC
8
right_labelLayer
10
195.01916
20
460.2368923
40
8.0101571
50
359.8710731
51
7.0432172
0
ARC
8
right_labelLayer
10
195.5971342
20
460.1415849
40
7.4325645
50
342.5649829
51
0.5957658
0
ARC
8
right_labelLayer
10
196.9679226
20
459.7630606
40
6.0115431
50
310.6097853
51
342.0923647
0
ARC
8
right_labelLayer
10
196.1992376
20
460.6571821
40
7.1906648
50
284.9315788
51
310.6222783
0
ARC
8
right_labelLayer
10
195.2373117
20
464.0279056
40
10.6956016
50
272.5334993
51
285.257963
0
ARC
8
right_labelLayer
10
194.9899972
20
467.4060884
40
14.0817537
50
269.9691776
51
272.9312083
0
ARC
8
right_labelLayer
10
194.9592999
20
463.7442032
40
10.4198922
50
263.4836857
51
270.1271407
0
ARC
8
right_labelLayer
10
194.7895701
20
462.1320471
40
8.798901
50
259.4963516
51
263.3904115
0
ARC
8
right_labelLayer
10
195.8400153
20
448.3581764
40
5.7693404
50
117.393504
51
128.4095347
0
ARC
8
right_labelLayer
10
194.354762
20
450.2007417
40
3.4028225
50
128.0881987
51
147.1400351
0
ARC
8
right_labelLayer
10
193.5545933
20
450.7377169
40
2.4393839
50
147.5369157
51
180.2592261
0
ARC
8
right_labelLayer
10
192.795494
20
450.7059134
40
1.680388
50
179.2918967
51
198.3580627
0
ARC
8
right_labelLayer
10
192.4808718
20
450.6232269
40
1.3558922
50
199.2291534
51
239.569106
0
ARC
8
right_labelLayer
10
192.7420352
20
450.9841658
40
1.799886
50
238.2201962
51
239.8454364
0
ARC
8
right_labelLayer
10
192.9498535
20
451.4118011
40
2.2743163
50
240.7302589
51
254.502668
0
ARC
8
right_labelLayer
10
193.5705708
20
453.5507631
40
4.5014422
50
254.1636715
51
262.2123498
0
ARC
8
right_labelLayer
10
194.0622607
20
456.9849896
40
7.9706499
50
262.0555685
51
267.208312
0
ARC
8
right_labelLayer
10
194.2997778
20
461.3415766
40
12.3336602
50
267.0919509
51
270.0863202
0
ARC
8
right_labelLayer
10
198.178295
20
435.7364716
40
13.271648
50
81.5744278
51
90.3059718
0
ARC
8
right_labelLayer
10
198.906275
20
440.4842174
40
8.4685129
50
68.3671486
51
81.7399294
0
ARC
8
right_labelLayer
10
199.8570881
20
442.9141491
40
5.8592205
50
52.1879566
51
68.2500975
0
ARC
8
right_labelLayer
10
200.5223922
20
443.810601
40
4.7431806
50
8.6201337
51
51.8982509
0
ARC
8
right_labelLayer
10
198.1906276
20
443.3172216
40
7.1238969
50
359.743053
51
9.7326353
0
ARC
8
right_labelLayer
10
198.2950555
20
443.1970416
40
7.0199521
50
340.5268771
51
0.7201592
0
ARC
8
right_labelLayer
10
199.326454
20
442.9402362
40
5.9628095
50
302.9903667
51
339.5494532
0
ARC
8
right_labelLayer
10
198.2437225
20
444.3161185
40
7.7080325
50
303.1869693
51
304.1722568
0
ARC
8
right_labelLayer
10
197.2346998
20
446.0631237
40
9.7230364
50
286.2542305
51
302.5280022
0
ARC
8
right_labelLayer
10
195.3984188
20
452.1200283
40
16.0519585
50
276.4939753
51
286.4953668
0
ARC
8
right_labelLayer
10
194.2526845
20
461.6977058
40
25.6978237
50
269.7545064
51
276.6169594
0
ARC
8
right_labelLayer
10
194.0570112
20
454.1650321
40
18.1651158
50
262.5634717
51
270.2698931
0
ARC
8
right_labelLayer
10
193.1673169
20
447.5706508
40
11.5110856
50
251.2101911
51
262.7063978
0
ARC
8
right_labelLayer
10
191.8849661
20
443.8067665
40
7.5347501
50
235.966803
51
251.2229123
0
ARC
8
right_labelLayer
10
190.5257962
20
441.8677648
40
5.1673464
50
208.903629
51
236.4231381
0
ARC
8
right_labelLayer
10
190.6505734
20
441.8154585
40
5.2523707
50
182.2079922
51
207.7461496
0
ARC
8
right_labelLayer
10
192.2386094
20
441.9741006
40
6.8460318
50
179.9784097
51
183.0226914
0
ARC
8
right_labelLayer
10
190.3492766
20
442.0636554
40
4.9574615
50
138.3916145
51
181.0052643
0
ARC
8
right_labelLayer
10
190.8727919
20
441.5931713
40
5.6613141
50
113.8121437
51
138.3496279
0
ARC
8
right_labelLayer
10
191.8658422
20
439.4487544
40
8.0242327
50
102.2870922
51
114.1172584
0
ARC
8
right_labelLayer
10
191.5538
20
450.3510946
40
3.364968
50
216.5861511
51
245.4968675
0
ARC
8
right_labelLayer
10
192.0347731
20
450.7592395
40
3.9946488
50
215.4649683
51
217.1749453
0
ARC
8
right_labelLayer
10
191.2331497
20
450.1802371
40
3.0058168
50
182.1767313
51
215.3415559
0
ARC
8
right_labelLayer
10
191.9474825
20
450.2568666
40
3.7228732
50
179.9836284
51
182.937683
0
ARC
8
right_labelLayer
10
191.9320977
20
450.289272
40
3.7076208
50
161.722578
51
180.4843451
0
ARC
8
right_labelLayer
10
191.5244535
20
450.4005053
40
3.285733
50
144.4963296
51
161.3350511
0
ARC
8
right_labelLayer
10
192.6111106
20
449.5906355
40
4.640779
50
132.7259088
51
144.1479717
0
ARC
8
right_labelLayer
10
194.3527028
20
447.7308277
40
7.1886858
50
125.2212655
51
132.8655699
0
ARC
8
right_labelLayer
10
196.1037068
20
445.2993371
40
10.1849506
50
121.2352695
51
125.3794678
0
ARC
8
right_labelLayer
10
192.9996781
20
459.2581336
40
5.6838156
50
215.1640784
51
247.4747881
0
ARC
8
right_labelLayer
10
194.0606444
20
460.1143796
40
7.0448526
50
212.4714021
51
215.887566
0
ARC
8
right_labelLayer
10
193.7816585
20
459.9147829
40
6.7023501
50
183.0160886
51
212.3123116
0
ARC
8
right_labelLayer
10
195.2525296
20
460.0787179
40
8.1802648
50
179.9759672
51
183.6206699
0
ARC
8
right_labelLayer
10
196.439163
20
460.1612659
40
9.3672316
50
166.8195795
51
180.483933
0
ARC
8
right_labelLayer
10
193.3316772
20
460.9458391
40
6.1629582
50
132.328774
51
167.3340885
0
ARC
8
right_labelLayer
10
193.7474181
20
460.3482456
40
6.8853641
50
106.2189004
51
131.5377554
0
ARC
8
right_labelLayer
10
194.7993158
20
456.9422796
40
10.4497465
50
93.6329768
51
106.5408671
0
ARC
8
right_labelLayer
10
195.1427177
20
453.0869213
40
14.319455
50
89.938039
51
94.0267727
0
ARC
8
right_labelLayer
10
195.1983194
20
454.978962
40
12.4274706
50
82.5852105
51
90.1849531
0
ARC
8
right_labelLayer
10
195.5780426
20
457.9169617
40
9.4650354
50
74.0088985
51
82.5694379
0
ARC
8
right_labelLayer
10
191.7735171
20
441.9714583
40
3.2562401
50
179.2207582
51
200.9355484
0
ARC
8
right_labelLayer
10
191.3862868
20
441.8817953
40
2.8630566
50
202.0286851
51
236.145744
0
ARC
8
right_labelLayer
10
191.9698332
20
442.6227232
40
3.8041275
50
235.0634741
51
238.5042382
0
ARC
8
right_labelLayer
10
192.6483581
20
443.8346481
40
5.1922828
50
239.1066247
51
254.4862762
0
ARC
8
right_labelLayer
10
193.5529513
20
446.953661
40
8.4396926
50
254.232401
51
263.4937333
0
ARC
8
right_labelLayer
10
194.1211693
20
451.7663482
40
13.2857831
50
263.41083
51
270.1457592
0
ARC
8
right_labelLayer
10
194.1817511
20
455.2405323
40
16.7599457
50
269.9084388
51
269.9996222
0
ARC
8
right_labelLayer
10
194.2593444
20
460.2760494
40
21.7956013
50
269.7957337
51
275.3991134
0
ARC
8
right_labelLayer
10
195.0750913
20
451.9016563
40
13.3816276
50
275.2956816
51
283.3516173
0
ARC
8
right_labelLayer
10
196.4041012
20
446.4277386
40
7.7488141
50
283.1370657
51
295.8573027
0
ARC
8
right_labelLayer
10
197.3888769
20
444.277849
40
5.3849192
50
296.4047539
51
301.8008915
0
ARC
8
right_labelLayer
10
197.7749586
20
443.745693
40
4.7294355
50
301.223069
51
318.6238062
0
ARC
8
right_labelLayer
10
198.6457843
20
442.9412766
40
3.5443713
50
319.0765477
51
1.1406987
0
ARC
8
right_labelLayer
10
197.8029935
20
443.0465859
40
4.3865972
50
359.5461159
51
10.9904726
0
ARC
8
right_labelLayer
10
199.4973889
20
443.3912234
40
2.6576193
50
10.6608938
51
30.9361923
0
ARC
8
right_labelLayer
10
200.0346218
20
443.6893696
40
2.0436435
50
31.5095492
51
58.0777723
0
ARC
8
right_labelLayer
10
199.5311056
20
442.7878024
40
3.0755026
50
58.9972228
51
73.8586374
0
ARC
8
right_labelLayer
10
198.5133774
20
439.4560611
40
6.5590404
50
73.4100117
51
81.5907125
0
ARC
8
right_labelLayer
10
197.6510706
20
433.8757823
40
12.2054862
50
81.4172264
51
86.5756697
0
ARC
8
right_labelLayer
10
197.1226473
20
425.4682034
40
20.6296322
50
86.5054225
51
90.1399279
0
ARC
8
right_labelLayer
10
193.1391775
20
438.6450764
40
7.4528419
50
89.6435203
51
100.0209205
0
ARC
8
right_labelLayer
10
192.6707535
20
441.1932623
40
4.8620541
50
99.8102906
51
116.8229536
0
ARC
8
right_labelLayer
10
192.2144576
20
442.1555289
40
3.7975217
50
117.2304402
51
130.5023345
0
ARC
8
right_labelLayer
10
191.980179
20
442.4566324
40
3.4164542
50
130.7944753
51
169.0413429
0
ARC
8
right_labelLayer
10
193.7054068
20
442.0503342
40
5.1879442
50
168.2580505
51
180.3820303
0
ARC
8
right_labelLayer
10
196.6038733
20
460.1118691
40
6.3286678
50
179.5617677
51
191.6529125
0
ARC
8
right_labelLayer
10
194.4034697
20
459.6364625
40
4.0776477
50
191.3555163
51
213.366036
0
ARC
8
right_labelLayer
10
193.8750365
20
459.3313387
40
3.468685
50
213.9573787
51
227.7971561
0
ARC
8
right_labelLayer
10
194.3347846
20
459.8889411
40
4.1907179
50
228.2620839
51
254.7341379
0
ARC
8
right_labelLayer
10
194.9221346
20
461.9023842
40
6.28787
50
254.4016455
51
267.4348822
0
ARC
8
right_labelLayer
10
195.075368
20
463.9572327
40
8.3477412
50
267.0154043
51
270.0323284
0
ARC
8
right_labelLayer
10
195.1755318
20
462.6721085
40
7.0632607
50
269.2256752
51
284.377329
0
ARC
8
right_labelLayer
10
196.1382434
20
459.3180158
40
3.5765559
50
282.7796645
51
346.4828538
0
ARC
8
right_labelLayer
10
193.2599924
20
460.133302
40
6.5667371
50
345.4362055
51
0.7465961
0
ARC
8
right_labelLayer
10
192.8554039
20
460.3185622
40
6.9714808
50
359.1806244
51
15.0431767
0
ARC
8
right_labelLayer
10
196.0143032
20
461.2400473
40
3.6823327
50
13.9535654
51
77.6673844
0
ARC
8
right_labelLayer
10
195.1079824
20
457.9921792
40
7.0514378
50
76.1095061
51
90.7028494
0
ARC
8
right_labelLayer
10
194.9723215
20
458.2402356
40
6.8030287
50
89.5859417
51
101.3334084
0
ARC
8
right_labelLayer
10
194.486155
20
460.5590425
40
4.4339474
50
101.0620536
51
121.9739136
0
ARC
8
right_labelLayer
10
194.1444794
20
461.1736918
40
3.7317887
50
122.5210784
51
134.9966779
0
ARC
8
right_labelLayer
10
194.2851597
20
461.0894041
40
3.8910672
50
135.5839908
51
163.0015901
0
ARC
8
right_labelLayer
10
196.3399465
20
460.4159193
40
6.0531315
50
162.5912087
51
175.7343041
0
ARC
8
right_labelLayer
10
198.8045411
20
460.1731329
40
8.5291602
50
175.3393501
51
180.0863809
0
LINE
8
right_labelLayer
10
227.8730469
20
445.6094928
11
224.6308594
21
445.6094928
0
LINE
8
right_labelLayer
10
224.6308594
20
445.6094928
11
224.6308594
21
459.4571491
0
LINE
8
right_labelLayer
10
213.2246094
20
456.8008991
11
213.2246094
21
445.6094928
0
LINE
8
right_labelLayer
10
213.2246094
20
445.6094928
11
209.9824219
21
445.6094928
0
LINE
8
right_labelLayer
10
209.9824219
20
445.6094928
11
209.9824219
21
476.0001178
0
LINE
8
right_labelLayer
10
209.9824219
20
476.0001178
11
213.2246094
21
476.0001178
0
LINE
8
right_labelLayer
10
213.2246094
20
476.0001178
11
213.2246094
21
466.8008991
0
LINE
8
right_labelLayer
10
213.0683594
20
464.0469928
11
213.2636719
21
464.0469928
0
LINE
8
right_labelLayer
10
227.8730469
20
459.5743366
11
227.8730469
21
445.6094928
0
ARC
8
right_labelLayer
10
215.4661746
20
459.50971
40
9.1648355
50
359.6714031
51
8.6877284
0
ARC
8
right_labelLayer
10
218.8629056
20
460.0484088
40
5.7257406
50
8.4931506
51
22.6579773
0
ARC
8
right_labelLayer
10
220.5887005
20
460.765595
40
3.8568611
50
22.7024314
51
42.3419599
0
ARC
8
right_labelLayer
10
220.782685
20
460.8528538
40
3.655305
50
43.3790967
51
71.5385976
0
ARC
8
right_labelLayer
10
220.0572736
20
458.8258624
40
5.8078784
50
71.0828126
51
84.3691102
0
ARC
8
right_labelLayer
10
219.731648
20
456.0572893
40
8.5952021
50
84.0197848
51
90.1510762
0
ARC
8
right_labelLayer
10
219.6391113
20
454.8413606
40
9.8113498
50
89.5919555
51
100.3595028
0
ARC
8
right_labelLayer
10
218.944378
20
458.4922913
40
6.0950632
50
100.1067858
51
118.0847399
0
ARC
8
right_labelLayer
10
218.2377806
20
459.8788077
40
4.5392511
50
118.4551159
51
139.6706152
0
ARC
8
right_labelLayer
10
218.9471683
20
459.3939306
40
5.3945883
50
140.6208381
51
160.5048828
0
ARC
8
right_labelLayer
10
222.6863674
20
458.0096911
40
9.3815495
50
160.1566983
51
171.5312767
0
ARC
8
right_labelLayer
10
228.736473
20
457.0511247
40
15.5069598
50
171.320232
51
178.340681
0
ARC
8
right_labelLayer
10
234.1496353
20
456.8092844
40
20.9250277
50
178.1079587
51
180.0229603
0
ARC
8
right_labelLayer
10
184.0586058
20
466.7661379
40
29.1660242
50
357.8674202
51
0.0682874
0
ARC
8
right_labelLayer
10
193.9668365
20
466.3881219
40
19.2505915
50
354.9828556
51
357.8943547
0
ARC
8
right_labelLayer
10
200.5102826
20
465.8183294
40
12.6823865
50
351.9713055
51
354.9618933
0
ARC
8
right_labelLayer
10
218.7553888
20
460.6117325
40
6.4776515
50
119.8315928
51
147.972585
0
ARC
8
right_labelLayer
10
219.5397401
20
459.4068249
40
7.9134907
50
116.6657807
51
120.4183092
0
ARC
8
right_labelLayer
10
219.6862204
20
459.0220781
40
8.3231588
50
96.6652518
51
116.378252
0
ARC
8
right_labelLayer
10
220.0017855
20
456.8448647
40
10.5224592
50
89.8927379
51
96.9959161
0
ARC
8
right_labelLayer
10
220.1026899
20
454.2135416
40
13.1540144
50
80.6862972
51
90.3537144
0
ARC
8
right_labelLayer
10
220.92175
20
459.0311113
40
8.2674476
50
65.6022719
51
80.8844193
0
ARC
8
right_labelLayer
10
221.9052804
20
461.2462388
40
5.8438973
50
46.7400829
51
65.4130684
0
ARC
8
right_labelLayer
10
221.9721281
20
461.4573023
40
5.6451944
50
19.220434
51
45.7660748
0
ARC
8
right_labelLayer
10
218.7170727
20
460.2506261
40
9.116304
50
6.4733791
51
19.6468076
0
ARC
8
right_labelLayer
10
213.8531518
20
459.6246143
40
14.0199852
50
359.7945287
51
6.774386
0
LINE
8
right_labelLayer
10
244.3769531
20
448.2852741
11
244.3769531
21
445.8048053
0
LINE
8
right_labelLayer
10
234.7675781
20
451.7618366
11
234.7675781
21
464.4962116
0
LINE
8
right_labelLayer
10
234.7675781
20
464.4962116
11
231.7011719
21
464.4962116
0
LINE
8
right_labelLayer
10
231.7011719
20
464.4962116
11
231.7011719
21
466.0587116
0
LINE
8
right_labelLayer
10
231.7011719
20
466.0587116
11
234.7675781
21
467.4063678
0
LINE
8
right_labelLayer
10
234.7675781
20
467.4063678
11
236.1347656
21
471.9766803
0
LINE
8
right_labelLayer
10
236.1347656
20
471.9766803
11
238.0097656
21
471.9766803
0
LINE
8
right_labelLayer
10
238.0097656
20
471.9766803
11
238.0097656
21
467.0157428
0
LINE
8
right_labelLayer
10
238.0097656
20
467.0157428
11
244.2207031
21
467.0157428
0
LINE
8
right_labelLayer
10
244.2207031
20
467.0157428
11
244.2207031
21
464.4962116
0
LINE
8
right_labelLayer
10
244.2207031
20
464.4962116
11
238.0097656
21
464.4962116
0
LINE
8
right_labelLayer
10
238.0097656
20
464.4962116
11
238.0097656
21
451.8985553
0
ARC
8
right_labelLayer
10
241.4695001
20
458.5424109
40
10.6477851
50
269.8803559
51
278.3028353
0
ARC
8
right_labelLayer
10
241.5710383
20
457.713076
40
9.8124991
50
278.4154494
51
279.0081024
0
ARC
8
right_labelLayer
10
240.3763088
20
465.3455141
40
17.5378705
50
278.9589396
51
280.5104777
0
ARC
8
right_labelLayer
10
241.5147439
20
459.2371974
40
11.3243749
50
280.4847583
51
282.6268276
0
ARC
8
right_labelLayer
10
242.5133304
20
454.8007877
40
6.7769723
50
282.5876383
51
285.5795268
0
ARC
8
right_labelLayer
10
243.0142242
20
452.9585906
40
4.8679477
50
285.7240514
51
286.2565691
0
ARC
8
right_labelLayer
10
243.0138596
20
448.6878208
40
3.1890127
50
287.9888003
51
295.3048452
0
ARC
8
right_labelLayer
10
242.2446964
20
451.0148835
40
5.6398776
50
283.3069101
51
288.1198
0
ARC
8
right_labelLayer
10
241.4321402
20
454.4042852
40
9.1253075
50
280.0070079
51
283.3735352
0
ARC
8
right_labelLayer
10
240.8880248
20
457.3573072
40
12.127975
50
279.1864031
51
280.114225
0
ARC
8
right_labelLayer
10
240.5547704
20
459.2527342
40
14.0523194
50
275.5260139
51
279.2939672
0
ARC
8
right_labelLayer
10
240.9308125
20
455.3248923
40
10.1065206
50
270.8932467
51
275.5483935
0
ARC
8
right_labelLayer
10
240.9780588
20
453.5306202
40
8.3117522
50
270.0031492
51
270.7604201
0
ARC
8
right_labelLayer
10
240.8476834
20
453.6859747
40
8.4681176
50
253.7847919
51
270.8852537
0
ARC
8
right_labelLayer
10
239.8444368
20
450.2645229
40
4.9026264
50
190.3817674
51
253.8772384
0
ARC
8
right_labelLayer
10
244.9579636
20
451.6471309
40
10.191031
50
179.3550907
51
192.8477645
0
ARC
8
right_labelLayer
10
244.5383333
20
451.8577242
40
6.5286954
50
179.6416642
51
189.7505901
0
ARC
8
right_labelLayer
10
242.2335824
20
451.446645
40
4.1876443
50
189.5479704
51
205.7873484
0
ARC
8
right_labelLayer
10
241.2864226
20
451.0098825
40
3.1448578
50
206.1294578
51
221.4083873
0
ARC
8
right_labelLayer
10
241.1802158
20
450.9292942
40
3.0119144
50
221.5949107
51
262.3505242
0
ARC
8
right_labelLayer
10
241.4327947
20
452.2281419
40
4.3335169
50
261.3266111
51
270.1913275
0
LINE
8
bottom_outsideCutPath
10
309
20
403
11
309
21
375.31025
0
LINE
8
bottom_outsideCutPath
10
309
20
375.31025
11
306
21
375.31025
0
LINE
8
bottom_outsideCutPath
10
306
20
375.31025
11
306
21
347.58615
0
LINE
8
bottom_outsideCutPath
10
306
20
347.58615
11
309
21
347.58615
0
LINE
8
bottom_outsideCutPath
10
309
20
347.58615
11
309
21
319.86205
0
LINE
8
bottom_outsideCutPath
10
309
20
319.86205
11
306
21
319.86205
0
LINE
8
bottom_outsideCutPath
10
306
20
319.86205
11
306
21
292.13795
0
LINE
8
bottom_outsideCutPath
10
306
20
292.13795
11
309
21
292.13795
0
LINE
8
bottom_outsideCutPath
10
309
20
292.13795
11
309
21
264.41385
0
LINE
8
bottom_outsideCutPath
10
309
20
264.41385
11
306
21
264.41385
0
LINE
8
bottom_outsideCutPath
10
306
20
264.41385
11
306
21
236.68975
0
LINE
8
bottom_outsideCutPath
10
306
20
236.68975
11
309
21
236.68975
0
LINE
8
bottom_outsideCutPath
10
309
20
236.68975
11
309
21
209
0
LINE
8
bottom_outsideCutPath
10
309
20
209
11
342.13795
21
209
0
LINE
8
bottom_outsideCutPath
10
342.13795
20
209
11
342.13795
21
206
0
LINE
8
bottom_outsideCutPath
10
342.13795
20
206
11
369.86205
21
206
0
LINE
8
bottom_outsideCutPath
10
369.86205
20
206
11
369.86205
21
209
0
LINE
8
bottom_outsideCutPath
10
369.86205
20
209
11
397.58615
21
209
0
LINE
8
bottom_outsideCutPath
10
397.58615
20
209
11
403
21
209
0
LINE
8
bottom_outsideCutPath
10
403
20
209
11
403
21
236.68975
0
LINE
8
bottom_outsideCutPath
10
403
20
236.68975
11
406
21
236.68975
0
LINE
8
bottom_outsideCutPath
10
406
20
236.68975
11
406
21
264.41385
0
LINE
8
bottom_outsideCutPath
10
406
20
264.41385
11
403
21
264.41385
0
LINE
8
bottom_outsideCutPath
10
403
20
264.41385
11
403
21
292.13795
0
LINE
8
bottom_outsideCutPath
10
403
20
292.13795
11
406
21
292.13795
0
LINE
8
bottom_outsideCutPath
10
406
20
292.13795
11
406
21
319.86205
0
LINE
8
bottom_outsideCutPath
10
406
20
319.86205
11
403
21
319.86205
0
LINE
8
bottom_outsideCutPath
10
403
20
319.86205
11
403
21
347.58615
0
LINE
8
bottom_outsideCutPath
10
403
20
347.58615
11
406
21
347.58615
0
LINE
8
bottom_outsideCutPath
10
406
20
347.58615
11
406
21
375.31025
0
LINE
8
bottom_outsideCutPath
10
406
20
375.31025
11
403
21
375.31025
0
LINE
8
bottom_outsideCutPath
10
403
20
375.31025
11
403
21
403
0
LINE
8
bottom_outsideCutPath
10
403
20
403
11
369.86205
21
403
0
LINE
8
bottom_outsideCutPath
10
369.86205
20
403
11
369.86205
21
406
0
LINE
8
bottom_outsideCutPath
10
369.86205
20
406
11
342.13795
21
406
0
LINE
8
bottom_outsideCutPath
10
342.13795
20
406
11
342.13795
21
403
0
LINE
8
bottom_outsideCutPath
10
342.13795
20
403
11
314.41385
21
403
0
LINE
8
bottom_outsideCutPath
10
314.41385
20
403
11
309
21
403
0
LINE
8
bottom_labelLayer
10
324.7206558
20
299.8772058
11
324.6034683
21
299.8772058
0
LINE
8
bottom_labelLayer
10
324.6034683
20
299.8772058
11
324.2616714
21
298.5002527
0
LINE
8
bottom_labelLayer
10
324.2616714
20
298.5002527
11
323.099562
21
298.5002527
0
LINE
8
bottom_labelLayer
10
323.099562
20
298.5002527
11
323.099562
21
313.6955652
0
LINE
8
bottom_labelLayer
10
323.099562
20
313.6955652
11
324.7206558
21
313.6955652
0
LINE
8
bottom_labelLayer
10
324.7206558
20
313.6955652
11
324.7206558
21
310.0041589
0
LINE
8
bottom_labelLayer
10
324.6425308
20
307.7775964
11
324.7206558
21
307.7775964
0
ARC
8
bottom_labelLayer
10
328.1286614
20
304.424771
40
4.9546266
50
74.2393364
51
90.5623784
0
ARC
8
bottom_labelLayer
10
328.4562775
20
305.6266471
40
3.7089652
50
38.563135
51
74.0670337
0
ARC
8
bottom_labelLayer
10
327.6131726
20
304.9710849
40
4.776887
50
16.4709282
51
38.4075249
0
ARC
8
bottom_labelLayer
10
325.1843174
20
304.2094659
40
7.3221308
50
5.1338483
51
16.7973468
0
ARC
8
bottom_labelLayer
10
322.1180602
20
303.8837477
40
10.4053536
50
359.8779407
51
5.4093585
0
ARC
8
bottom_labelLayer
10
323.0186917
20
303.8055057
40
9.5048639
50
350.6562881
51
0.3380252
0
ARC
8
bottom_labelLayer
10
326.3322452
20
303.2419087
40
6.1437972
50
335.8306022
51
350.8254751
0
ARC
8
bottom_labelLayer
10
327.7898287
20
302.6127944
40
4.5564622
50
321.3161305
51
335.5436301
0
ARC
8
bottom_labelLayer
10
328.347059
20
302.1587347
40
3.8376919
50
274.0640061
51
321.4081015
0
ARC
8
bottom_labelLayer
10
328.0874585
20
303.8031469
40
5.4982118
50
269.9225965
51
275.5481661
0
ARC
8
bottom_labelLayer
10
328.052694
20
303.2219964
40
4.9171322
50
255.7755416
51
270.3185374
0
ARC
8
bottom_labelLayer
10
327.9123782
20
302.5985788
40
4.2783843
50
245.9801859
51
255.5455587
0
ARC
8
bottom_labelLayer
10
327.6405841
20
301.9665152
40
3.5904312
50
215.5850261
51
245.8361642
0
ARC
8
bottom_labelLayer
10
290.9220797
20
309.9755857
40
33.7985882
50
358.1123236
51
0.0484378
0
ARC
8
bottom_labelLayer
10
300.328985
20
309.6597695
40
24.3863854
50
355.7238501
51
358.1259023
0
ARC
8
bottom_labelLayer
10
304.4878492
20
309.3738858
40
20.2177974
50
355.4715177
51
355.6529673
0
ARC
8
bottom_labelLayer
10
327.743925
20
305.6693892
40
3.6857421
50
95.1835136
51
145.1108959
0
ARC
8
bottom_labelLayer
10
328.0678892
20
303.8425045
40
5.5366677
50
89.8743539
51
96.8145168
0
ARC
8
bottom_labelLayer
10
327.8117164
20
303.4664542
40
4.5554093
50
89.5731223
51
100.7324143
0
ARC
8
bottom_labelLayer
10
327.4744886
20
305.1702462
40
2.8186562
50
100.4469271
51
119.6700806
0
ARC
8
bottom_labelLayer
10
327.1617781
20
305.7548947
40
2.1559401
50
120.1402874
51
142.4248999
0
ARC
8
bottom_labelLayer
10
327.6791349
20
305.4126468
40
2.7750293
50
143.3382417
51
161.2559929
0
ARC
8
bottom_labelLayer
10
329.8425996
20
304.6445424
40
5.070677
50
160.8926193
51
171.2334482
0
ARC
8
bottom_labelLayer
10
333.4543158
20
304.0618873
40
8.7290381
50
171.0667895
51
177.8456849
0
ARC
8
bottom_labelLayer
10
337.210283
20
303.8708574
40
12.4896305
50
177.6176676
51
180.042556
0
ARC
8
bottom_labelLayer
10
335.4391322
20
303.8197267
40
10.7185581
50
179.7762696
51
185.7075172
0
ARC
8
bottom_labelLayer
10
331.2131467
20
303.3842998
40
6.4702325
50
185.5924625
51
194.2050865
0
ARC
8
bottom_labelLayer
10
328.5060798
20
302.6817189
40
3.6735677
50
193.9430285
51
208.0218386
0
ARC
8
bottom_labelLayer
10
327.4107846
20
302.124511
40
2.4449999
50
208.5536273
51
217.560509
0
ARC
8
bottom_labelLayer
10
327.3215475
20
302.0873964
40
2.3517682
50
218.1690497
51
253.8047105
0
ARC
8
bottom_labelLayer
10
327.7577528
20
303.4322609
40
3.7651815
50
253.1382373
51
266.8483309
0
ARC
8
bottom_labelLayer
10
327.8800739
20
304.8747986
40
5.2124386
50
266.3775722
51
270.0510514
0
ARC
8
bottom_labelLayer
10
327.919298
20
302.8938162
40
3.2316392
50
269.3869014
51
285.8630523
0
ARC
8
bottom_labelLayer
10
328.1593886
20
302.0260932
40
2.3313432
50
286.0162899
51
326.849735
0
ARC
8
bottom_labelLayer
10
327.0005884
20
302.7937556
40
3.7213332
50
326.7105084
51
343.6661789
0
ARC
8
bottom_labelLayer
10
324.83138
20
303.4565956
40
5.9894605
50
343.4171354
51
353.6369032
0
ARC
8
bottom_labelLayer
10
321.5550253
20
303.8453559
40
9.288746
50
353.4934852
51
0.2205553
0
ARC
8
bottom_labelLayer
10
321.2662059
20
303.9198781
40
9.5775752
50
359.7680902
51
6.3095251
0
ARC
8
bottom_labelLayer
10
324.8738995
20
304.3338833
40
5.9462546
50
6.1648601
51
16.0396518
0
ARC
8
bottom_labelLayer
10
327.1979048
20
305.0187697
40
3.5235221
50
15.7779193
51
32.0151484
0
ARC
8
bottom_labelLayer
10
327.9224684
20
305.4336904
40
2.6893853
50
32.70347
51
35.5241319
0
ARC
8
bottom_labelLayer
10
328.1876582
20
305.6221702
40
2.3640397
50
35.5408356
51
79.8011276
0
ARC
8
bottom_labelLayer
10
327.8701925
20
304.2725645
40
3.7492528
50
78.6781247
51
90.3749718
0
ARC
8
bottom_labelLayer
10
336.2202725
20
303.8051309
40
8.3736204
50
349.1761945
51
0.3862568
0
ARC
8
bottom_labelLayer
10
339.0394777
20
303.2431175
40
5.4990771
50
330.2507047
51
349.4116462
0
ARC
8
bottom_labelLayer
10
339.9070862
20
302.7921683
40
4.5222197
50
318.143971
51
329.7566252
0
ARC
8
bottom_labelLayer
10
340.0636745
20
302.6666786
40
4.3218687
50
278.8959183
51
317.9979086
0
ARC
8
bottom_labelLayer
10
339.6602013
20
304.5997537
40
6.2948732
50
269.7502763
51
279.8033236
0
ARC
8
bottom_labelLayer
10
339.5947651
20
303.5105914
40
5.2057899
50
253.5436962
51
270.418238
0
ARC
8
bottom_labelLayer
10
339.4214714
20
302.8402519
40
4.5138811
50
238.8115441
51
253.242846
0
ARC
8
bottom_labelLayer
10
339.3655465
20
302.7277885
40
4.3887236
50
207.7946962
51
238.6757996
0
ARC
8
bottom_labelLayer
10
340.1680336
20
303.2192729
40
5.328149
50
205.6559791
51
208.4461025
0
ARC
8
bottom_labelLayer
10
340.7861868
20
303.4768422
40
5.9969824
50
188.9102503
51
205.3171481
0
ARC
8
bottom_labelLayer
10
342.869338
20
303.8296592
40
8.1096824
50
179.7744696
51
189.0932788
0
ARC
8
bottom_labelLayer
10
343.176627
20
303.9185913
40
8.4171018
50
169.244298
51
180.388077
0
ARC
8
bottom_labelLayer
10
340.3182487
20
304.4835881
40
5.5035418
50
150.7111564
51
169.4695354
0
ARC
8
bottom_labelLayer
10
339.4057734
20
304.9521738
40
4.4786339
50
138.175962
51
150.2287147
0
ARC
8
bottom_labelLayer
10
339.2539753
20
305.0686613
40
4.2878596
50
99.175935
51
137.9832793
0
ARC
8
bottom_labelLayer
10
339.6717451
20
303.1025934
40
6.2961655
50
89.7326434
51
100.0759878
0
ARC
8
bottom_labelLayer
10
339.755241
20
303.9516734
40
5.4472856
50
73.5222665
51
90.5692191
0
ARC
8
bottom_labelLayer
10
340.0746919
20
305.1123218
40
4.2437569
50
41.1445735
51
73.2133783
0
ARC
8
bottom_labelLayer
10
339.4648883
20
304.588204
40
5.047824
50
13.5014302
51
41.0703483
0
ARC
8
bottom_labelLayer
10
337.1088985
20
303.9716734
40
7.4828084
50
1.1277281
51
13.8799962
0
ARC
8
bottom_labelLayer
10
335.0796324
20
303.8629331
40
9.5140701
50
359.991856
51
1.5419431
0
ARC
8
bottom_labelLayer
10
344.6484866
20
303.819452
40
8.2091889
50
179.7059623
51
187.9160759
0
ARC
8
bottom_labelLayer
10
341.6376131
20
303.3869441
40
5.1674586
50
187.7639332
51
200.097688
0
ARC
8
bottom_labelLayer
10
339.9789335
20
302.7792015
40
3.4009457
50
200.0845876
51
216.9131503
0
ARC
8
bottom_labelLayer
10
339.3732409
20
302.3467092
40
2.6569704
50
217.300954
51
261.7099073
0
ARC
8
bottom_labelLayer
10
339.6544223
20
303.6884754
40
4.0261509
50
260.5033133
51
270.2476938
0
ARC
8
bottom_labelLayer
10
339.7080928
20
303.4275734
40
3.765386
50
269.4481646
51
284.7255643
0
ARC
8
bottom_labelLayer
10
340.006176
20
302.3220773
40
2.620441
50
284.566235
51
322.6333878
0
ARC
8
bottom_labelLayer
10
339.3092423
20
302.825581
40
3.4799996
50
323.0089266
51
342.6390508
0
ARC
8
bottom_labelLayer
10
337.3158573
20
303.4770766
40
5.5770392
50
342.3615704
51
353.7537499
0
ARC
8
bottom_labelLayer
10
334.3749319
20
303.8315641
40
8.539136
50
353.5363189
51
0.2014064
0
ARC
8
bottom_labelLayer
10
334.8255712
20
303.9028657
40
8.0885493
50
359.7075543
51
7.8972827
0
ARC
8
bottom_labelLayer
10
337.7878056
20
304.3275305
40
5.0960791
50
7.7440005
51
20.0690174
0
ARC
8
bottom_labelLayer
10
339.4384981
20
304.9332721
40
3.3377565
50
20.0257107
51
37.4350558
0
ARC
8
bottom_labelLayer
10
339.9861832
20
305.3219016
40
2.6667491
50
37.9577645
51
80.400615
0
ARC
8
bottom_labelLayer
10
339.6749525
20
303.9332181
40
4.0885816
50
79.345353
51
90.3174962
0
ARC
8
bottom_labelLayer
10
339.6173221
20
304.1638869
40
3.8580087
50
89.4805853
51
103.8805168
0
ARC
8
bottom_labelLayer
10
339.2931498
20
305.3983298
40
2.5819124
50
103.4685218
51
142.3118841
0
ARC
8
bottom_labelLayer
10
339.9233629
20
304.9551184
40
3.3517727
50
142.9025565
51
162.3749748
0
ARC
8
bottom_labelLayer
10
341.9091787
20
304.293348
40
5.4448258
50
162.0652994
51
173.1674849
0
ARC
8
bottom_labelLayer
10
345.0056002
20
303.898416
40
8.5662738
50
173.0086063
51
180.2463739
0
LINE
8
bottom_labelLayer
10
352.3573745
20
299.8381433
11
352.3573745
21
298.5979089
0
LINE
8
bottom_labelLayer
10
347.552687
20
301.5764246
11
347.552687
21
307.9436121
0
LINE
8
bottom_labelLayer
10
347.552687
20
307.9436121
11
346.0194839
21
307.9436121
0
LINE
8
bottom_labelLayer
10
346.0194839
20
307.9436121
11
346.0194839
21
308.7248621
0
LINE
8
bottom_labelLayer
10
346.0194839
20
308.7248621
11
347.552687
21
309.3986902
0
LINE
8
bottom_labelLayer
10
347.552687
20
309.3986902
11
348.2362808
21
311.6838464
0
LINE
8
bottom_labelLayer
10
348.2362808
20
311.6838464
11
349.1737808
21
311.6838464
0
LINE
8
bottom_labelLayer
10
349.1737808
20
311.6838464
11
349.1737808
21
309.2033777
0
LINE
8
bottom_labelLayer
10
349.1737808
20
309.2033777
11
352.2792495
21
309.2033777
0
LINE
8
bottom_labelLayer
10
352.2792495
20
309.2033777
11
352.2792495
21
307.9436121
0
LINE
8
bottom_labelLayer
10
352.2792495
20
307.9436121
11
349.1737808
21
307.9436121
0
LINE
8
bottom_labelLayer
10
349.1737808
20
307.9436121
11
349.1737808
21
301.6447839
0
ARC
8
bottom_labelLayer
10
350.9036493
20
304.9667136
40
5.3238944
50
269.8803417
51
278.3028182
0
ARC
8
bottom_labelLayer
10
350.953296
20
304.5593609
40
4.9136514
50
278.4158959
51
279.0076561
0
ARC
8
bottom_labelLayer
10
350.3569458
20
308.3689095
40
8.7695902
50
278.9589695
51
280.5103918
0
ARC
8
bottom_labelLayer
10
350.9262819
20
305.3140436
40
5.6621249
50
280.4847522
51
282.6268451
0
ARC
8
bottom_labelLayer
10
351.4255715
20
303.0958688
40
3.3884538
50
282.5876165
51
285.5795336
0
ARC
8
bottom_labelLayer
10
351.6772309
20
302.1706003
40
2.429599
50
285.7231888
51
286.2566654
0
ARC
8
bottom_labelLayer
10
351.6758211
20
300.0394337
40
1.5945246
50
287.9888406
51
295.3048016
0
ARC
8
bottom_labelLayer
10
351.2912265
20
301.2030151
40
2.8200086
50
283.3069861
51
288.1197567
0
ARC
8
bottom_labelLayer
10
350.8849727
20
302.8976283
40
4.5626327
50
280.0069961
51
283.3735389
0
ARC
8
bottom_labelLayer
10
350.6131648
20
304.3727124
40
6.0625179
50
279.1862135
51
280.1142603
0
ARC
8
bottom_labelLayer
10
350.4462846
20
305.3218604
40
7.0261467
50
275.5260122
51
279.2939725
0
ARC
8
bottom_labelLayer
10
350.6343044
20
303.357948
40
5.0532558
50
270.8932457
51
275.5483966
0
ARC
8
bottom_labelLayer
10
350.6579122
20
302.4608126
40
4.1558726
50
270.0033586
51
270.7606301
0
ARC
8
bottom_labelLayer
10
350.5927396
20
302.5384926
40
4.2340578
50
253.784789
51
270.8852547
0
ARC
8
bottom_labelLayer
10
350.0911164
20
300.8277678
40
2.4513133
50
190.3817699
51
253.8772374
0
ARC
8
bottom_labelLayer
10
352.6478878
20
301.5190729
40
5.0955236
50
179.3551054
51
192.8477577
0
ARC
8
bottom_labelLayer
10
352.43808
20
301.624369
40
3.2643631
50
179.6416773
51
189.7505556
0
ARC
8
bottom_labelLayer
10
351.28569
20
301.4188288
40
2.093823
50
189.5479676
51
205.7873396
0
ARC
8
bottom_labelLayer
10
350.8121041
20
301.2004434
40
1.5724225
50
206.1294051
51
221.408398
0
ARC
8
bottom_labelLayer
10
350.7590057
20
301.1601532
40
1.505957
50
221.5949091
51
262.3505289
0
ARC
8
bottom_labelLayer
10
350.8852971
20
301.8095915
40
2.1667729
50
261.3266216
51
270.1912791
0
LINE
8
bottom_labelLayer
10
359.4179214
20
299.8381433
11
359.4179214
21
298.5979089
0
LINE
8
bottom_labelLayer
10
354.6132339
20
301.5764246
11
354.6132339
21
307.9436121
0
LINE
8
bottom_labelLayer
10
354.6132339
20
307.9436121
11
353.0800308
21
307.9436121
0
LINE
8
bottom_labelLayer
10
353.0800308
20
307.9436121
11
353.0800308
21
308.7248621
0
LINE
8
bottom_labelLayer
10
353.0800308
20
308.7248621
11
354.6132339
21
309.3986902
0
LINE
8
bottom_labelLayer
10
354.6132339
20
309.3986902
11
355.2968276
21
311.6838464
0
LINE
8
bottom_labelLayer
10
355.2968276
20
311.6838464
11
356.2343276
21
311.6838464
0
LINE
8
bottom_labelLayer
10
356.2343276
20
311.6838464
11
356.2343276
21
309.2033777
0
LINE
8
bottom_labelLayer
10
356.2343276
20
309.2033777
11
359.3397964
21
309.2033777
0
LINE
8
bottom_labelLayer
10
359.3397964
20
309.2033777
11
359.3397964
21
307.9436121
0
LINE
8
bottom_labelLayer
10
359.3397964
20
307.9436121
11
356.2343276
21
307.9436121
0
LINE
8
bottom_labelLayer
10
356.2343276
20
307.9436121
11
356.2343276
21
301.6447839
0
ARC
8
bottom_labelLayer
10
357.9641962
20
304.9667136
40
5.3238944
50
269.8803417
51
278.3028182
0
ARC
8
bottom_labelLayer
10
358.0138428
20
304.5593609
40
4.9136514
50
278.4158959
51
279.0076561
0
ARC
8
bottom_labelLayer
10
357.4174927
20
308.3689095
40
8.7695902
50
278.9589695
51
280.5103918
0
ARC
8
bottom_labelLayer
10
357.9868288
20
305.3140436
40
5.6621249
50
280.4847522
51
282.6268451
0
ARC
8
bottom_labelLayer
10
358.4861184
20
303.0958688
40
3.3884538
50
282.5876165
51
285.5795336
0
ARC
8
bottom_labelLayer
10
358.7377778
20
302.1706003
40
2.429599
50
285.7231888
51
286.2566654
0
ARC
8
bottom_labelLayer
10
358.736368
20
300.0394337
40
1.5945246
50
287.9888406
51
295.3048016
0
ARC
8
bottom_labelLayer
10
358.3517733
20
301.2030151
40
2.8200086
50
283.3069861
51
288.1197567
0
ARC
8
bottom_labelLayer
10
357.9455195
20
302.8976283
40
4.5626327
50
280.0069961
51
283.3735389
0
ARC
8
bottom_labelLayer
10
357.6737116
20
304.3727124
40
6.0625179
50
279.1862135
51
280.1142603
0
ARC
8
bottom_labelLayer
10
357.5068315
20
305.3218604
40
7.0261467
50
275.5260122
51
279.2939725
0
ARC
8
bottom_labelLayer
10
357.6948512
20
303.357948
40
5.0532558
50
270.8932457
51
275.5483966
0
ARC
8
bottom_labelLayer
10
357.718459
20
302.4608126
40
4.1558726
50
270.0033586
51
270.7606301
0
ARC
8
bottom_labelLayer
10
357.6532865
20
302.5384926
40
4.2340578
50
253.784789
51
270.8852547
0
ARC
8
bottom_labelLayer
10
357.1516633
20
300.8277678
40
2.4513133
50
190.3817699
51
253.8772374
0
ARC
8
bottom_labelLayer
10
359.7084347
20
301.5190729
40
5.0955236
50
179.3551054
51
192.8477577
0
ARC
8
bottom_labelLayer
10
359.4986269
20
301.624369
40
3.2643631
50
179.6416773
51
189.7505556
0
ARC
8
bottom_labelLayer
10
358.3462369
20
301.4188288
40
2.093823
50
189.5479676
51
205.7873396
0
ARC
8
bottom_labelLayer
10
357.872651
20
301.2004434
40
1.5724225
50
206.1294051
51
221.408398
0
ARC
8
bottom_labelLayer
10
357.8195526
20
301.1601532
40
1.505957
50
221.5949091
51
262.3505289
0
ARC
8
bottom_labelLayer
10
357.945844
20
301.8095915
40
2.1667729
50
261.3266216
51
270.1912791
0
ARC
8
bottom_labelLayer
10
362.4214444
20
303.8051309
40
8.3736204
50
349.1761945
51
0.3862568
0
ARC
8
bottom_labelLayer
10
365.2406496
20
303.2431175
40
5.4990771
50
330.2507047
51
349.4116462
0
ARC
8
bottom_labelLayer
10
366.108258
20
302.7921683
40
4.5222197
50
318.143971
51
329.7566252
0
ARC
8
bottom_labelLayer
10
366.2648464
20
302.6666786
40
4.3218687
50
278.8959183
51
317.9979086
0
ARC
8
bottom_labelLayer
10
365.8613731
20
304.5997537
40
6.2948732
50
269.7502763
51
279.8033236
0
ARC
8
bottom_labelLayer
10
365.795937
20
303.5105914
40
5.2057899
50
253.5436962
51
270.418238
0
ARC
8
bottom_labelLayer
10
365.6226432
20
302.8402519
40
4.5138811
50
238.8115441
51
253.242846
0
ARC
8
bottom_labelLayer
10
365.5667184
20
302.7277885
40
4.3887236
50
207.7946962
51
238.6757996
0
ARC
8
bottom_labelLayer
10
366.3692055
20
303.2192729
40
5.328149
50
205.6559791
51
208.4461025
0
ARC
8
bottom_labelLayer
10
366.9873587
20
303.4768422
40
5.9969824
50
188.9102503
51
205.3171481
0
ARC
8
bottom_labelLayer
10
369.0705098
20
303.8296592
40
8.1096824
50
179.7744696
51
189.0932788
0
ARC
8
bottom_labelLayer
10
369.3777989
20
303.9185913
40
8.4171018
50
169.244298
51
180.388077
0
ARC
8
bottom_labelLayer
10
366.5194206
20
304.4835881
40
5.5035418
50
150.7111564
51
169.4695354
0
ARC
8
bottom_labelLayer
10
365.6069453
20
304.9521738
40
4.4786339
50
138.175962
51
150.2287147
0
ARC
8
bottom_labelLayer
10
365.4551472
20
305.0686613
40
4.2878596
50
99.175935
51
137.9832793
0
ARC
8
bottom_labelLayer
10
365.872917
20
303.1025934
40
6.2961655
50
89.7326434
51
100.0759878
0
ARC
8
bottom_labelLayer
10
365.9564129
20
303.9516734
40
5.4472856
50
73.5222665
51
90.5692191
0
ARC
8
bottom_labelLayer
10
366.2758637
20
305.1123218
40
4.2437569
50
41.1445735
51
73.2133783
0
ARC
8
bottom_labelLayer
10
365.6660602
20
304.588204
40
5.047824
50
13.5014302
51
41.0703483
0
ARC
8
bottom_labelLayer
10
363.3100704
20
303.9716734
40
7.4828084
50
1.1277281
51
13.8799962
0
ARC
8
bottom_labelLayer
10
361.2808043
20
303.8629331
40
9.5140701
50
359.991856
51
1.5419431
0
ARC
8
bottom_labelLayer
10
370.8496584
20
303.819452
40
8.2091889
50
179.7059623
51
187.9160759
0
ARC
8
bottom_labelLayer
10
367.8387849
20
303.3869441
40
5.1674586
50
187.7639332
51
200.097688
0
ARC
8
bottom_labelLayer
10
366.1801054
20
302.7792015
40
3.4009457
50
200.0845876
51
216.9131503
0
ARC
8
bottom_labelLayer
10
365.5744128
20
302.3467092
40
2.6569704
50
217.300954
51
261.7099073
0
ARC
8
bottom_labelLayer
10
365.8555942
20
303.6884754
40
4.0261509
50
260.5033133
51
270.2476938
0
ARC
8
bottom_labelLayer
10
365.9092647
20
303.4275734
40
3.765386
50
269.4481646
51
284.7255643
0
ARC
8
bottom_labelLayer
10
366.2073479
20
302.3220773
40
2.620441
50
284.566235
51
322.6333878
0
ARC
8
bottom_labelLayer
10
365.5104142
20
302.825581
40
3.4799996
50
323.0089266
51
342.6390508
0
ARC
8
bottom_labelLayer
10
363.5170292
20
303.4770766
40
5.5770392
50
342.3615704
51
353.7537499
0
ARC
8
bottom_labelLayer
10
360.5761037
20
303.8315641
40
8.539136
50
353.5363189
51
0.2014064
0
ARC
8
bottom_labelLayer
10
361.0267431
20
303.9028657
40
8.0885493
50
359.7075543
51
7.8972827
0
ARC
8
bottom_labelLayer
10
363.9889775
20
304.3275305
40
5.0960791
50
7.7440005
51
20.0690174
0
ARC
8
bottom_labelLayer
10
365.6396699
20
304.9332721
40
3.3377565
50
20.0257107
51
37.4350558
0
ARC
8
bottom_labelLayer
10
366.187355
20
305.3219016
40
2.6667491
50
37.9577645
51
80.400615
0
ARC
8
bottom_labelLayer
10
365.8761244
20
303.9332181
40
4.0885816
50
79.345353
51
90.3174962
0
ARC
8
bottom_labelLayer
10
365.818494
20
304.1638869
40
3.8580087
50
89.4805853
51
103.8805168
0
ARC
8
bottom_labelLayer
10
365.4943217
20
305.3983298
40
2.5819124
50
103.4685218
51
142.3118841
0
ARC
8
bottom_labelLayer
10
366.1245348
20
304.9551184
40
3.3517727
50
142.9025565
51
162.3749748
0
ARC
8
bottom_labelLayer
10
368.1103506
20
304.293348
40
5.4448258
50
162.0652994
51
173.1674849
0
ARC
8
bottom_labelLayer
10
371.2067721
20
303.898416
40
8.5662738
50
173.0086063
51
180.2463739
0
LINE
8
bottom_labelLayer
10
388.9003433
20
298.5002527
11
387.2792495
21
298.5002527
0
LINE
8
bottom_labelLayer
10
387.2792495
20
298.5002527
11
387.2792495
21
305.4631433
0
LINE
8
bottom_labelLayer
10
382.0741714
20
304.4768152
11
382.0741714
21
298.5002527
0
LINE
8
bottom_labelLayer
10
382.0741714
20
298.5002527
11
380.4530776
21
298.5002527
0
LINE
8
bottom_labelLayer
10
380.4530776
20
298.5002527
11
380.4530776
21
305.4631433
0
LINE
8
bottom_labelLayer
10
375.2577651
20
304.1154871
11
375.2577651
21
298.5002527
0
LINE
8
bottom_labelLayer
10
375.2577651
20
298.5002527
11
373.6366714
21
298.5002527
0
LINE
8
bottom_labelLayer
10
373.6366714
20
298.5002527
11
373.6366714
21
309.2033777
0
LINE
8
bottom_labelLayer
10
373.6366714
20
309.2033777
11
374.9550308
21
309.2033777
0
LINE
8
bottom_labelLayer
10
374.9550308
20
309.2033777
11
375.2187026
21
307.7385339
0
LINE
8
bottom_labelLayer
10
375.2187026
20
307.7385339
11
375.2968276
21
307.7385339
0
LINE
8
bottom_labelLayer
10
381.7421401
20
307.5822839
11
381.8202651
21
307.5822839
0
LINE
8
bottom_labelLayer
10
388.9003433
20
305.4826746
11
388.9003433
21
298.5002527
0
ARC
8
bottom_labelLayer
10
382.4969733
20
305.4886162
40
4.782344
50
359.6948153
51
8.147152
0
ARC
8
bottom_labelLayer
10
384.2584598
20
305.7492964
40
3.0017048
50
7.9864605
51
20.7949836
0
ARC
8
bottom_labelLayer
10
385.2321531
20
306.1222828
40
1.9590239
50
20.7071465
51
40.0217449
0
ARC
8
bottom_labelLayer
10
385.4457648
20
306.2620459
40
1.7058312
50
41.0408115
51
73.1792552
0
ARC
8
bottom_labelLayer
10
385.1366758
20
305.3272025
40
2.6902401
50
72.6395403
51
86.2568077
0
ARC
8
bottom_labelLayer
10
385.0376566
20
304.2587189
40
3.7630208
50
85.81445
51
90.0685292
0
ARC
8
bottom_labelLayer
10
385.0012789
20
303.8505182
40
4.1713407
50
89.5621493
51
101.2961529
0
ARC
8
bottom_labelLayer
10
384.6871061
20
305.3545771
40
2.6349128
50
101.0032238
51
121.7840516
0
ARC
8
bottom_labelLayer
10
384.4482596
20
305.7809867
40
2.1467512
50
122.3597345
51
140.2884087
0
ARC
8
bottom_labelLayer
10
384.8779734
20
305.4659061
40
2.6788228
50
140.9765347
51
161.1699396
0
ARC
8
bottom_labelLayer
10
386.4967928
20
304.8898042
40
4.3970061
50
160.873164
51
172.5272498
0
ARC
8
bottom_labelLayer
10
389.2018435
20
304.5162183
40
7.1276931
50
172.3776652
51
180.1829453
0
ARC
8
bottom_labelLayer
10
390.943022
20
304.4769316
40
8.8688507
50
179.8932236
51
180.0007521
0
ARC
8
bottom_labelLayer
10
375.6708015
20
305.4886162
40
4.782344
50
359.6948153
51
8.147152
0
ARC
8
bottom_labelLayer
10
377.4322879
20
305.7492964
40
3.0017048
50
7.9864605
51
20.7949836
0
ARC
8
bottom_labelLayer
10
378.4059812
20
306.1222828
40
1.9590239
50
20.7071465
51
40.0217449
0
ARC
8
bottom_labelLayer
10
378.6240341
20
306.2651141
40
1.7004671
50
41.0610899
51
72.8993439
0
ARC
8
bottom_labelLayer
10
378.3090909
20
305.3274918
40
2.6893653
50
72.3601097
51
85.9562019
0
ARC
8
bottom_labelLayer
10
378.2024755
20
304.2256723
40
3.7960685
50
85.5237589
51
90.07935
0
ARC
8
bottom_labelLayer
10
378.1661097
20
303.9955317
40
4.0263255
50
89.5573115
51
101.483221
0
ARC
8
bottom_labelLayer
10
377.8570769
20
305.4434193
40
2.5459395
50
101.1546486
51
123.0655533
0
ARC
8
bottom_labelLayer
10
377.6470092
20
305.809348
40
2.1247927
50
123.7020404
51
142.3022159
0
ARC
8
bottom_labelLayer
10
378.1390743
20
305.4755241
40
2.7185185
50
143.0769734
51
161.3913907
0
ARC
8
bottom_labelLayer
10
380.1225775
20
304.7749976
40
4.8219637
50
161.0234665
51
171.4468871
0
ARC
8
bottom_labelLayer
10
383.4062022
20
304.2606322
40
8.1455941
50
171.3042099
51
178.3501498
0
ARC
8
bottom_labelLayer
10
386.5445627
20
304.120469
40
11.2867988
50
178.0976131
51
180.0252899
0
ARC
8
bottom_labelLayer
10
378.0431804
20
306.1235426
40
3.1860086
50
117.1209603
51
149.5423642
0
ARC
8
bottom_labelLayer
10
378.3683394
20
305.5456123
40
3.848711
50
93.8343339
51
117.5072086
0
ARC
8
bottom_labelLayer
10
378.458145
20
304.7501799
40
4.648511
50
89.9661644
51
94.2831456
0
ARC
8
bottom_labelLayer
10
378.5119586
20
304.0914711
40
5.3074648
50
77.557218
51
90.5513091
0
ARC
8
bottom_labelLayer
10
379.0044331
20
306.2096907
40
3.1329837
50
52.7027168
51
78.0053836
0
ARC
8
bottom_labelLayer
10
379.1798934
20
306.5361399
40
2.7675848
50
22.2097854
51
51.4970615
0
ARC
8
bottom_labelLayer
10
384.7569481
20
305.8992638
40
3.3847694
50
119.4041798
51
150.1828736
0
ARC
8
bottom_labelLayer
10
385.1324272
20
305.3282593
40
4.0668329
50
118.2584996
51
120.0630391
0
ARC
8
bottom_labelLayer
10
385.1312646
20
305.2866835
40
4.1029554
50
95.8635087
51
117.9693201
0
ARC
8
bottom_labelLayer
10
385.2701254
20
304.2826255
40
5.1160697
50
89.9196905
51
96.2617621
0
ARC
8
bottom_labelLayer
10
385.3147045
20
303.7637916
40
5.6350228
50
79.9361132
51
90.3803608
0
ARC
8
bottom_labelLayer
10
385.6901727
20
305.7972964
40
3.5672237
50
62.9723397
51
80.1665017
0
ARC
8
bottom_labelLayer
10
386.0826767
20
306.6025653
40
2.6715881
50
44.2290167
51
62.6229071
0
ARC
8
bottom_labelLayer
10
385.965938
20
306.5509958
40
2.7915635
50
19.5612111
51
43.3161264
0
ARC
8
bottom_labelLayer
10
384.2704981
20
305.9141873
40
4.6024761
50
7.5041886
51
19.9645351
0
ARC
8
bottom_labelLayer
10
381.4649888
20
305.5202116
40
7.4354492
50
359.7107475
51
7.6907119
0
ENDSEC
0
EOF