0
SECTION
2
HEADER
9
$INSUNITS
70
4
0
ENDSEC
0
SECTION
2
TABLES
0
TABLE
2
LTYPE
0
LTYPE
72
65
70
64
2
CONTINUOUS
3
______
73
0
40
0
0
ENDTAB
0
TABLE
2
LAYER
0
ENDTAB
0
ENDSEC
0
SECTION
2
ENTITIES
0
LINE
8
front_outsideCutPath
10
0
20
143
11
0
21
3
0
LINE
8
front_outsideCutPath
10
0
20
3
11
171
21
3
0
LINE
8
front_outsideCutPath
10
171
20
3
11
171
21
143
0
LINE
8
front_outsideCutPath
10
171
20
143
11
0
21
143
0
LINE
8
front_labelLayer
10
62.3056641
20
77.4094762
11
62.3056641
21
75.6458043
0
LINE
8
front_labelLayer
10
62.3056641
20
75.6458043
11
58.4912109
21
75.6458043
0
LINE
8
front_labelLayer
10
58.4912109
20
75.6458043
11
58.4912109
21
62.4251012
0
LINE
8
front_labelLayer
10
58.4912109
20
62.4251012
11
56.2216797
21
62.4251012
0
LINE
8
front_labelLayer
10
56.2216797
20
62.4251012
11
56.2216797
21
75.6458043
0
LINE
8
front_labelLayer
10
56.2216797
20
75.6458043
11
53.5419922
21
75.6458043
0
LINE
8
front_labelLayer
10
53.5419922
20
75.6458043
11
53.5419922
21
76.6711949
0
LINE
8
front_labelLayer
10
53.5419922
20
76.6711949
11
56.2216797
21
77.4915074
0
LINE
8
front_labelLayer
10
56.2216797
20
77.4915074
11
56.2216797
21
78.3254918
0
LINE
8
front_labelLayer
10
63.8369141
20
83.3704137
11
63.2490234
21
81.5520543
0
LINE
8
front_labelLayer
10
58.4912109
20
78.3801793
11
58.4912109
21
77.4094762
0
LINE
8
front_labelLayer
10
58.4912109
20
77.4094762
11
62.3056641
21
77.4094762
0
ARC
8
front_labelLayer
10
65.4192981
20
78.4312331
40
9.1982263
50
167.5776038
51
180.6586777
0
ARC
8
front_labelLayer
10
61.093988
20
79.4396439
40
4.7575631
50
141.7433765
51
168.2322087
0
ARC
8
front_labelLayer
10
60.3897416
20
79.8072087
40
3.9796983
50
98.2551447
51
139.620338
0
ARC
8
front_labelLayer
10
61.0080817
20
76.9507174
40
6.8983264
50
89.6696798
51
99.9314341
0
ARC
8
front_labelLayer
10
61.009809
20
76.5406358
40
7.3083925
50
81.5640763
51
89.7017556
0
ARC
8
front_labelLayer
10
60.4960162
20
72.9561109
40
10.9295241
50
75.9739871
51
81.6564857
0
ARC
8
front_labelLayer
10
59.6142873
20
69.2989037
40
14.691425
50
73.2963714
51
76.0946075
0
ARC
8
front_labelLayer
10
59.836337
20
71.0729534
40
11.0207978
50
71.9613338
51
76.5918198
0
ARC
8
front_labelLayer
10
60.6913529
20
74.7000089
40
7.2943448
50
76.5183323
51
83.0216956
0
ARC
8
front_labelLayer
10
60.9891779
20
77.0950759
40
4.8808382
50
83.0760914
51
89.7927139
0
ARC
8
front_labelLayer
10
60.9793741
20
78.915293
40
3.0607126
50
89.4859144
51
103.4197268
0
ARC
8
front_labelLayer
10
60.7034294
20
79.9754474
40
1.9655898
50
102.7677364
51
144.3380323
0
ARC
8
front_labelLayer
10
61.2593487
20
79.6177649
40
2.6260012
50
145.0688791
51
162.1801608
0
ARC
8
front_labelLayer
10
63.1653648
20
78.9764837
40
4.6369012
50
161.8437389
51
171.7847195
0
ARC
8
front_labelLayer
10
66.2741762
20
78.5095478
40
7.780553
50
171.6527775
51
178.4383458
0
ARC
8
front_labelLayer
10
69.2069252
20
78.3845063
40
10.7157151
50
178.1973611
51
180.0231364
0
LINE
8
front_labelLayer
10
73.6669922
20
77.5188512
11
73.3525391
21
75.4133824
0
LINE
8
front_labelLayer
10
67.3095703
20
70.4641637
11
67.3095703
21
62.4251012
0
LINE
8
front_labelLayer
10
67.3095703
20
62.4251012
11
65.0400391
21
62.4251012
0
LINE
8
front_labelLayer
10
65.0400391
20
62.4251012
11
65.0400391
21
77.4094762
0
LINE
8
front_labelLayer
10
65.0400391
20
77.4094762
11
66.9130859
21
77.4094762
0
LINE
8
front_labelLayer
10
66.9130859
20
77.4094762
11
67.1728516
21
74.6340855
0
LINE
8
front_labelLayer
10
67.1728516
20
74.6340855
11
67.2822266
21
74.6340855
0
ARC
8
front_labelLayer
10
71.8992715
20
67.2639051
40
10.4190346
50
84.9922783
51
90.1281027
0
ARC
8
front_labelLayer
10
72.1494929
20
70.0673111
40
7.604489
50
78.4891735
51
85.0266121
0
ARC
8
front_labelLayer
10
71.1783083
20
65.6501248
40
10.0024236
50
77.4453695
51
81.6360275
0
ARC
8
front_labelLayer
10
71.6141078
20
68.6540666
40
6.9670423
50
81.5883968
51
87.1916843
0
ARC
8
front_labelLayer
10
71.708749
20
70.2952242
40
5.3232374
50
87.3436561
51
89.9659332
0
ARC
8
front_labelLayer
10
71.6867625
20
71.6861154
40
3.9324256
50
89.633537
51
137.0880815
0
ARC
8
front_labelLayer
10
72.6517339
20
70.6009547
40
5.3797926
50
135.6208596
51
138.8377724
0
ARC
8
front_labelLayer
10
72.5104371
20
70.7388809
40
5.1826467
50
138.9575796
51
174.5422219
0
ARC
8
front_labelLayer
10
74.1983337
20
70.4747771
40
6.8887715
50
173.6907767
51
180.0882748
0
ARC
8
front_labelLayer
10
73.959666
20
70.8720467
40
7.6642765
50
139.4139242
51
150.6032882
0
ARC
8
front_labelLayer
10
72.5854526
20
72.0496063
40
5.8545503
50
124.2321316
51
139.4161203
0
ARC
8
front_labelLayer
10
71.850682
20
73.1587422
40
4.5242422
50
89.6796641
51
124.4405648
0
ARC
8
front_labelLayer
10
77.6805195
20
69.8519302
40
11.7230672
50
349.1761954
51
0.386259
0
ARC
8
front_labelLayer
10
81.6274058
20
69.0651112
40
7.6987074
50
330.2507077
51
349.4116506
0
ARC
8
front_labelLayer
10
82.8420399
20
68.433796
40
6.3311292
50
318.1439881
51
329.7566026
0
ARC
8
front_labelLayer
10
83.061281
20
68.2580974
40
6.0506161
50
278.8959179
51
317.9979085
0
ARC
8
front_labelLayer
10
82.4964179
20
70.9644028
40
8.8128228
50
269.7502795
51
279.8033265
0
ARC
8
front_labelLayer
10
82.4048067
20
69.4395714
40
7.2881019
50
253.5436958
51
270.418247
0
ARC
8
front_labelLayer
10
82.1622018
20
68.5011127
40
6.3194472
50
238.8115621
51
253.2428329
0
ARC
8
front_labelLayer
10
82.0839029
20
68.3436527
40
6.1442148
50
207.794702
51
238.6757962
0
ARC
8
front_labelLayer
10
83.2073076
20
69.0316943
40
7.4593249
50
205.655988
51
208.4461428
0
ARC
8
front_labelLayer
10
84.0727896
20
69.3923232
40
8.3957662
50
188.9102375
51
205.3171532
0
ARC
8
front_labelLayer
10
86.9892018
20
69.8862714
40
11.3535477
50
179.7744751
51
189.0932908
0
ARC
8
front_labelLayer
10
87.4194132
20
70.0107752
40
11.7839413
50
169.2442972
51
180.3880773
0
ARC
8
front_labelLayer
10
83.4176798
20
70.8017725
40
7.7049532
50
150.7111499
51
169.4695418
0
ARC
8
front_labelLayer
10
82.1402044
20
71.4578023
40
6.2700687
50
138.1759491
51
150.2287381
0
ARC
8
front_labelLayer
10
81.9277021
20
71.6208723
40
6.0030043
50
99.1759349
51
137.9832732
0
ARC
8
front_labelLayer
10
82.5125774
20
68.8683844
40
8.8146251
50
89.7326277
51
100.0759798
0
ARC
8
front_labelLayer
10
82.6294748
20
70.0570902
40
7.6261999
50
73.5222717
51
90.5692247
0
ARC
8
front_labelLayer
10
83.0767063
20
71.6819999
40
5.9412575
50
41.1445664
51
73.2133832
0
ARC
8
front_labelLayer
10
82.2229774
20
70.9482313
40
7.0669569
50
13.5014383
51
41.0703436
0
ARC
8
front_labelLayer
10
78.9246159
20
70.0850929
40
10.4759103
50
1.1277151
51
13.8800093
0
ARC
8
front_labelLayer
10
76.0834062
20
69.9328436
40
13.3199142
50
359.9919002
51
1.5419622
0
ARC
8
front_labelLayer
10
89.4799983
20
69.8719792
40
11.492845
50
179.7059563
51
187.9160838
0
ARC
8
front_labelLayer
10
85.2648007
20
69.2664696
40
7.2344478
50
187.7639307
51
200.0976758
0
ARC
8
front_labelLayer
10
82.9426376
20
68.4156269
40
4.7613175
50
200.0845836
51
216.9131688
0
ARC
8
front_labelLayer
10
82.0946735
20
67.8101401
40
3.7197581
50
217.3009551
51
261.709913
0
ARC
8
front_labelLayer
10
82.4883283
20
69.6886236
40
5.6366218
50
260.5033275
51
270.2476897
0
ARC
8
front_labelLayer
10
82.5634666
20
69.3233452
40
5.2715354
50
269.4481636
51
284.7255776
0
ARC
8
front_labelLayer
10
82.9807834
20
67.7756555
40
3.6686172
50
284.5662293
51
322.6333848
0
ARC
8
front_labelLayer
10
82.0050768
20
68.4805605
40
4.8719985
50
323.0089226
51
342.6390508
0
ARC
8
front_labelLayer
10
79.2143478
20
69.3926523
40
7.8078438
50
342.3615629
51
353.7537587
0
ARC
8
front_labelLayer
10
75.0971129
20
69.8889331
40
11.9547188
50
353.5362991
51
0.2014266
0
ARC
8
front_labelLayer
10
75.7279062
20
69.9887563
40
11.3239991
50
359.7075708
51
7.8972774
0
ARC
8
front_labelLayer
10
79.8750646
20
70.5832912
40
7.1345105
50
7.7439913
51
20.0690089
0
ARC
8
front_labelLayer
10
82.1860328
20
71.431328
40
4.6728603
50
20.0257095
51
37.4350503
0
ARC
8
front_labelLayer
10
82.9527937
20
71.9754104
40
3.7334477
50
37.9577602
51
80.4006223
0
ARC
8
front_labelLayer
10
82.5170687
20
70.0312573
40
5.72401
50
79.3453302
51
90.317482
0
ARC
8
front_labelLayer
10
82.4363893
20
70.3541788
40
5.4012224
50
89.4806051
51
103.8805089
0
ARC
8
front_labelLayer
10
81.9825465
20
72.0824093
40
3.6146772
50
103.4685235
51
142.3118872
0
ARC
8
front_labelLayer
10
82.8648498
20
71.4619103
40
4.6924876
50
142.9025665
51
162.3749605
0
ARC
8
front_labelLayer
10
85.6449898
20
70.5354355
40
7.6227587
50
162.0653131
51
173.1674945
0
ARC
8
front_labelLayer
10
89.9799566
20
69.9825334
40
11.9927628
50
173.0086118
51
180.2463918
0
LINE
8
front_labelLayer
10
105.9052734
20
62.4251012
11
103.6357422
21
62.4251012
0
LINE
8
front_labelLayer
10
103.6357422
20
62.4251012
11
103.6357422
21
72.1184605
0
LINE
8
front_labelLayer
10
95.6513672
20
70.2864293
11
95.6513672
21
62.4251012
0
LINE
8
front_labelLayer
10
95.6513672
20
62.4251012
11
93.3818359
21
62.4251012
0
LINE
8
front_labelLayer
10
93.3818359
20
62.4251012
11
93.3818359
21
77.4094762
0
LINE
8
front_labelLayer
10
93.3818359
20
77.4094762
11
95.2275391
21
77.4094762
0
LINE
8
front_labelLayer
10
95.2275391
20
77.4094762
11
95.5966797
21
75.3586949
0
LINE
8
front_labelLayer
10
95.5966797
20
75.3586949
11
95.7060547
21
75.3586949
0
LINE
8
front_labelLayer
10
105.9052734
20
72.2004918
11
105.9052734
21
62.4251012
0
ARC
8
front_labelLayer
10
97.2204388
20
72.1552511
40
6.4154089
50
359.6714228
51
8.6877143
0
ARC
8
front_labelLayer
10
99.5981755
20
72.5323432
40
4.0080174
50
8.4931398
51
22.6579705
0
ARC
8
front_labelLayer
10
100.8062307
20
73.0343724
40
2.6998031
50
22.7024344
51
42.3419601
0
ARC
8
front_labelLayer
10
100.9420196
20
73.095453
40
2.5587144
50
43.3791027
51
71.5385933
0
ARC
8
front_labelLayer
10
100.4342326
20
71.6765652
40
4.0655096
50
71.0827943
51
84.3691094
0
ARC
8
front_labelLayer
10
100.2062911
20
69.7385208
40
6.0166795
50
84.0197926
51
90.1510453
0
ARC
8
front_labelLayer
10
100.1416737
20
68.8865246
40
6.8688278
50
89.5933022
51
100.3717801
0
ARC
8
front_labelLayer
10
99.6562601
20
71.4333364
40
4.2762808
50
100.1176425
51
118.1602594
0
ARC
8
front_labelLayer
10
99.1670837
20
72.3925697
40
3.1998011
50
118.5439322
51
139.1926828
0
ARC
8
front_labelLayer
10
99.5936225
20
72.1063577
40
3.7102176
50
140.151925
51
160.3146316
0
ARC
8
front_labelLayer
10
102.16931
20
71.1416145
40
6.46048
50
159.9534303
51
171.3801069
0
ARC
8
front_labelLayer
10
106.3767792
20
70.4652807
40
10.7218588
50
171.1765895
51
178.3217536
0
ARC
8
front_labelLayer
10
110.1906402
20
70.2924381
40
14.5392741
50
178.0810791
51
180.0236791
0
ARC
8
front_labelLayer
10
99.5884332
20
72.8998563
40
4.5955141
50
116.9442873
51
147.6525678
0
ARC
8
front_labelLayer
10
100.066978
20
72.0993913
40
5.5262961
50
115.807247
51
117.6066816
0
ARC
8
front_labelLayer
10
100.3113065
20
71.5296328
40
6.1456604
50
94.3226631
51
115.5454438
0
ARC
8
front_labelLayer
10
100.4584045
20
70.2516373
40
7.4312784
50
89.9578824
51
94.7108918
0
ARC
8
front_labelLayer
10
100.5192031
20
68.7226004
40
8.9604841
50
80.558531
51
90.3538353
0
ARC
8
front_labelLayer
10
101.0791759
20
71.9661738
40
5.6690276
50
65.1094282
51
80.7638167
0
ARC
8
front_labelLayer
10
101.7337617
20
73.4160648
40
4.078339
50
46.5584457
51
64.8782384
0
ARC
8
front_labelLayer
10
101.7861503
20
73.5670938
40
3.933208
50
19.3848872
51
45.5997116
0
ARC
8
front_labelLayer
10
99.5106697
20
72.7132937
40
6.3632763
50
6.963361
51
19.8363435
0
ARC
8
front_labelLayer
10
96.0011415
20
72.2414325
40
9.9042167
50
359.7631575
51
7.2115631
0
LINE
8
front_labelLayer
10
117.4580078
20
64.298148
11
117.4580078
21
62.5618199
0
LINE
8
front_labelLayer
10
110.7314453
20
66.7317418
11
110.7314453
21
75.6458043
0
LINE
8
front_labelLayer
10
110.7314453
20
75.6458043
11
108.5849609
21
75.6458043
0
LINE
8
front_labelLayer
10
108.5849609
20
75.6458043
11
108.5849609
21
76.7395543
0
LINE
8
front_labelLayer
10
108.5849609
20
76.7395543
11
110.7314453
21
77.6829137
0
LINE
8
front_labelLayer
10
110.7314453
20
77.6829137
11
111.6884766
21
80.8821324
0
LINE
8
front_labelLayer
10
111.6884766
20
80.8821324
11
113.0009766
21
80.8821324
0
LINE
8
front_labelLayer
10
113.0009766
20
80.8821324
11
113.0009766
21
77.4094762
0
LINE
8
front_labelLayer
10
113.0009766
20
77.4094762
11
117.3486328
21
77.4094762
0
LINE
8
front_labelLayer
10
117.3486328
20
77.4094762
11
117.3486328
21
75.6458043
0
LINE
8
front_labelLayer
10
117.3486328
20
75.6458043
11
113.0009766
21
75.6458043
0
LINE
8
front_labelLayer
10
113.0009766
20
75.6458043
11
113.0009766
21
66.8274449
0
ARC
8
front_labelLayer
10
115.422792
20
71.4781454
40
7.4534511
50
269.880346
51
278.3028236
0
ARC
8
front_labelLayer
10
115.4939739
20
70.896951
40
6.8680825
50
278.4153743
51
279.0080848
0
ARC
8
front_labelLayer
10
114.6574637
20
76.2408981
40
12.2770988
50
278.9589457
51
280.5104093
0
ARC
8
front_labelLayer
10
115.4544411
20
71.964575
40
7.9271455
50
280.4847962
51
282.626843
0
ARC
8
front_labelLayer
10
116.1534877
20
68.8589406
40
4.7438119
50
282.587629
51
285.5795609
0
ARC
8
front_labelLayer
10
116.5023798
20
67.5755359
40
3.4138683
50
285.7242104
51
286.2557446
0
ARC
8
front_labelLayer
10
116.5038441
20
64.5799278
40
2.2323055
50
287.9887817
51
295.3048377
0
ARC
8
front_labelLayer
10
115.965415
20
66.2089234
40
3.9479647
50
283.3069326
51
288.1197609
0
ARC
8
front_labelLayer
10
115.3966466
20
68.5814159
40
6.3876746
50
280.0070012
51
283.37355
0
ARC
8
front_labelLayer
10
115.0161579
20
70.6462029
40
8.4871808
50
279.1862906
51
280.114375
0
ARC
8
front_labelLayer
10
114.7824503
20
71.9755879
40
9.8368433
50
275.5260633
51
279.2939325
0
ARC
8
front_labelLayer
10
115.0457067
20
69.2259282
40
7.0746119
50
270.8932624
51
275.548378
0
ARC
8
front_labelLayer
10
115.0787666
20
67.9698774
40
5.8182139
50
270.0032985
51
270.760571
0
ARC
8
front_labelLayer
10
114.9875196
20
68.07864
40
5.9276839
50
253.7847907
51
270.8852477
0
ARC
8
front_labelLayer
10
114.2852466
20
65.6836222
40
3.4318386
50
190.3817675
51
253.8772356
0
ARC
8
front_labelLayer
10
117.8647219
20
66.6514483
40
7.1337284
50
179.3550955
51
192.8477565
0
ARC
8
front_labelLayer
10
117.5709821
20
66.7988634
40
4.5700949
50
179.6416688
51
189.7505766
0
ARC
8
front_labelLayer
10
115.9576438
20
66.5111055
40
2.9313462
50
189.5479434
51
205.7873487
0
ARC
8
front_labelLayer
10
115.2946332
20
66.2053717
40
2.2013966
50
206.1294429
51
221.4083995
0
ARC
8
front_labelLayer
10
115.220292
20
66.1489628
40
2.1083408
50
221.5949197
51
262.350518
0
ARC
8
front_labelLayer
10
115.3970978
20
67.0581719
40
3.0334782
50
261.3266421
51
270.1913104
0
LINE
8
left_outsideCutPath
10
174
20
143
11
174
21
3
0
LINE
8
left_outsideCutPath
10
174
20
3
11
294
21
3
0
LINE
8
left_outsideCutPath
10
294
20
3
11
294
21
143
0
LINE
8
left_outsideCutPath
10
294
20
143
11
174
21
143
0
LINE
8
left_labelLayer
10
219.1582031
20
82.170176
11
219.1582031
21
63.935801
0
LINE
8
left_labelLayer
10
219.1582031
20
63.935801
11
217.2128906
21
63.935801
0
LINE
8
left_labelLayer
10
217.2128906
20
63.935801
11
217.2128906
21
82.170176
0
LINE
8
left_labelLayer
10
217.2128906
20
82.170176
11
219.1582031
21
82.170176
0
LINE
8
left_labelLayer
10
233.4316406
20
71.2365823
11
233.4316406
21
70.0061135
0
LINE
8
left_labelLayer
10
233.4316406
20
70.0061135
11
224.5839844
21
70.0061135
0
LINE
8
left_labelLayer
10
232.8808594
20
66.2678323
11
232.8808594
21
64.5334573
0
LINE
8
left_labelLayer
10
224.6308594
20
71.5881448
11
231.3457031
21
71.5881448
0
ARC
8
left_labelLayer
10
228.6450204
20
71.2605459
40
7.5593905
50
256.0087872
51
270.4848155
0
ARC
8
left_labelLayer
10
228.0945472
20
69.1235005
40
5.3526841
50
223.546574
51
256.1957041
0
ARC
8
left_labelLayer
10
228.3982194
20
69.3442137
40
5.7250608
50
194.0877275
51
223.0538096
0
ARC
8
left_labelLayer
10
231.1806674
20
70.1051101
40
8.6092466
50
181.3574549
51
194.4919898
0
ARC
8
left_labelLayer
10
233.6798453
20
70.2500185
40
11.1114862
50
179.9887137
51
181.7991737
0
ARC
8
left_labelLayer
10
232.7829231
20
70.3207284
40
10.2147936
50
168.9539281
51
180.3843448
0
ARC
8
left_labelLayer
10
229.4468239
20
71.0000143
40
6.8104064
50
149.4071095
51
169.1853715
0
ARC
8
left_labelLayer
10
228.5173295
20
71.4911152
40
5.7605741
50
140.1056051
51
148.906713
0
ARC
8
left_labelLayer
10
227.9462736
20
72.0176026
40
4.9849109
50
92.4762655
51
140.538641
0
ARC
8
left_labelLayer
10
228.2007324
20
70.137151
40
6.8767763
50
89.9637927
51
93.9176094
0
ARC
8
left_labelLayer
10
228.2614531
20
71.0875746
40
5.9266196
50
74.2125905
51
90.5450154
0
ARC
8
left_labelLayer
10
228.6326543
20
72.4552426
40
4.5095752
50
41.2064683
51
74.0232653
0
ARC
8
left_labelLayer
10
227.9296685
20
71.8468601
40
5.4392495
50
11.5994285
51
41.1496049
0
ARC
8
left_labelLayer
10
225.514235
20
71.2898144
40
7.9175846
50
359.6147816
51
12.0336425
0
ARC
8
left_labelLayer
10
232.3901831
20
70.1620922
40
7.8077569
50
181.1446965
51
190.8007102
0
ARC
8
left_labelLayer
10
229.6357067
20
69.6188327
40
5.0003034
50
190.6005915
51
206.0275165
0
ARC
8
left_labelLayer
10
228.4170107
20
69.042687
40
3.6524289
50
206.2950163
51
222.5558122
0
ARC
8
left_labelLayer
10
228.3090299
20
68.9861515
40
3.5347922
50
223.0645105
51
258.1401319
0
ARC
8
left_labelLayer
10
228.7389217
20
70.7562753
40
5.3557828
50
257.5311802
51
270.4319343
0
ARC
8
left_labelLayer
10
228.7437194
20
75.6748527
40
10.2742695
50
270.1984029
51
292.2090398
0
ARC
8
left_labelLayer
10
228.2504848
20
77.0914424
40
11.7724639
50
291.8254725
51
293.1613919
0
ARC
8
left_labelLayer
10
228.2266879
20
75.2444002
40
11.678425
50
287.9023038
51
293.4861465
0
ARC
8
left_labelLayer
10
229.073863
20
72.6305646
40
8.9307291
50
281.9935821
51
287.8851298
0
ARC
8
left_labelLayer
10
229.2791725
20
71.8926778
40
8.1664241
50
275.9054619
51
281.6603664
0
ARC
8
left_labelLayer
10
228.8681746
20
75.7289006
40
12.024583
50
271.911944
51
275.9727318
0
ARC
8
left_labelLayer
10
228.7181403
20
79.5502861
40
15.8488626
50
269.9669
51
271.9931251
0
ARC
8
left_labelLayer
10
228.1443117
20
71.550538
40
3.8346635
50
89.4422403
51
106.2089701
0
ARC
8
left_labelLayer
10
227.9136153
20
72.3916937
40
2.9625767
50
106.4657106
51
137.9176359
0
ARC
8
left_labelLayer
10
228.575033
20
71.8108593
40
3.8427626
50
138.0994798
51
160.5866236
0
ARC
8
left_labelLayer
10
230.2751978
20
71.185398
40
5.6542108
50
160.3353397
51
172.5315279
0
ARC
8
left_labelLayer
10
231.9494825
20
70.9171396
40
7.3493193
50
172.1545222
51
174.7615036
0
ARC
8
left_labelLayer
10
224.7168525
20
71.6258005
40
6.6289575
50
359.67453
51
8.9224317
0
ARC
8
left_labelLayer
10
227.0855526
20
72.0117416
40
4.229085
50
8.7342195
51
23.2772102
0
ARC
8
left_labelLayer
10
228.2100487
20
72.4837778
40
3.0095987
50
23.4821382
51
39.707213
0
ARC
8
left_labelLayer
10
228.486264
20
72.6904775
40
2.665105
50
40.0822825
51
80.624331
0
ARC
8
left_labelLayer
10
228.2019459
20
71.3871632
40
3.997908
50
79.6468649
51
90.2910055
0
LINE
8
left_labelLayer
10
242.5371094
20
76.779551
11
242.5371094
21
75.2678323
0
LINE
8
left_labelLayer
10
242.5371094
20
75.2678323
11
239.2675781
21
75.2678323
0
LINE
8
left_labelLayer
10
239.2675781
20
75.2678323
11
239.2675781
21
63.935801
0
LINE
8
left_labelLayer
10
239.2675781
20
63.935801
11
237.3222656
21
63.935801
0
LINE
8
left_labelLayer
10
237.3222656
20
63.935801
11
237.3222656
21
75.2678323
0
LINE
8
left_labelLayer
10
237.3222656
20
75.2678323
11
235.0253906
21
75.2678323
0
LINE
8
left_labelLayer
10
235.0253906
20
75.2678323
11
235.0253906
21
76.1467385
0
LINE
8
left_labelLayer
10
235.0253906
20
76.1467385
11
237.3222656
21
76.8498635
0
LINE
8
left_labelLayer
10
237.3222656
20
76.8498635
11
237.3222656
21
77.5647073
0
LINE
8
left_labelLayer
10
243.8496094
20
81.888926
11
243.3457031
21
80.3303323
0
LINE
8
left_labelLayer
10
239.2675781
20
77.6115823
11
239.2675781
21
76.779551
0
LINE
8
left_labelLayer
10
239.2675781
20
76.779551
11
242.5371094
21
76.779551
0
ARC
8
left_labelLayer
10
245.2059326
20
77.6553428
40
7.884188
50
167.5775948
51
180.6586785
0
ARC
8
left_labelLayer
10
241.4985309
20
78.5196945
40
4.0779123
50
141.7433822
51
168.232208
0
ARC
8
left_labelLayer
10
240.8948906
20
78.8347492
40
3.4111711
50
98.255151
51
139.6203295
0
ARC
8
left_labelLayer
10
241.4248957
20
76.3863271
40
5.9128533
50
89.6696779
51
99.9314286
0
ARC
8
left_labelLayer
10
241.4263737
20
76.0347912
40
6.264376
50
81.5641045
51
89.7017324
0
ARC
8
left_labelLayer
10
240.9859737
20
72.962339
40
9.3682062
50
75.9739961
51
81.6564686
0
ARC
8
left_labelLayer
10
240.2302508
20
69.8277554
40
12.5925214
50
73.2963655
51
76.0946302
0
ARC
8
left_labelLayer
10
240.420556
20
71.3482853
40
9.4463566
50
71.9613325
51
76.5918389
0
ARC
8
left_labelLayer
10
241.1534091
20
74.4571146
40
6.2523317
50
76.5183649
51
83.0216906
0
ARC
8
left_labelLayer
10
241.4086893
20
76.5100229
40
4.1836179
50
83.0761153
51
89.79267
0
ARC
8
left_labelLayer
10
241.4002894
20
78.0702558
40
2.6234633
50
89.4859136
51
103.4197501
0
ARC
8
left_labelLayer
10
241.1637657
20
78.9789544
40
1.6847918
50
102.7677441
51
144.3380244
0
ARC
8
left_labelLayer
10
241.6402672
20
78.6723701
40
2.2508577
50
145.0688775
51
162.1801624
0
ARC
8
left_labelLayer
10
243.2740166
20
78.1226961
40
3.9745079
50
161.8437735
51
171.7847009
0
ARC
8
left_labelLayer
10
245.9386483
20
77.722474
40
6.6690023
50
171.6527609
51
178.4383731
0
ARC
8
left_labelLayer
10
248.4520318
20
77.6152963
40
9.1844545
50
178.1973059
51
180.0231694
0
LINE
8
left_labelLayer
10
250.7871094
20
65.5412698
11
250.7871094
21
64.0529885
0
LINE
8
left_labelLayer
10
245.0214844
20
67.6272073
11
245.0214844
21
75.2678323
0
LINE
8
left_labelLayer
10
245.0214844
20
75.2678323
11
243.1816406
21
75.2678323
0
LINE
8
left_labelLayer
10
243.1816406
20
75.2678323
11
243.1816406
21
76.2053323
0
LINE
8
left_labelLayer
10
243.1816406
20
76.2053323
11
245.0214844
21
77.013926
0
LINE
8
left_labelLayer
10
245.0214844
20
77.013926
11
245.8417969
21
79.7561135
0
LINE
8
left_labelLayer
10
245.8417969
20
79.7561135
11
246.9667969
21
79.7561135
0
LINE
8
left_labelLayer
10
246.9667969
20
79.7561135
11
246.9667969
21
76.779551
0
LINE
8
left_labelLayer
10
246.9667969
20
76.779551
11
250.6933594
21
76.779551
0
LINE
8
left_labelLayer
10
250.6933594
20
76.779551
11
250.6933594
21
75.2678323
0
LINE
8
left_labelLayer
10
250.6933594
20
75.2678323
11
246.9667969
21
75.2678323
0
LINE
8
left_labelLayer
10
246.9667969
20
75.2678323
11
246.9667969
21
67.7092385
0
ARC
8
left_labelLayer
10
249.0426375
20
71.6955538
40
6.3886729
50
269.8803567
51
278.3028336
0
ARC
8
left_labelLayer
10
249.1035188
20
71.1981686
40
5.8877209
50
278.4155406
51
279.0081712
0
ARC
8
left_labelLayer
10
248.3865475
20
75.7784426
40
10.5237659
50
278.9590101
51
280.5103943
0
ARC
8
left_labelLayer
10
249.069735
20
72.1126678
40
6.7948739
50
280.4847891
51
282.6267799
0
ARC
8
left_labelLayer
10
249.6689043
20
69.4507118
40
4.0663209
50
282.58766
51
285.5794473
0
ARC
8
left_labelLayer
10
249.9680005
20
68.350401
40
2.9261164
50
285.7245036
51
286.256048
0
ARC
8
left_labelLayer
10
249.969254
20
65.7827976
40
1.9134071
50
287.9887831
51
295.3048298
0
ARC
8
left_labelLayer
10
249.5077729
20
67.1789714
40
3.3838602
50
283.3068705
51
288.1198548
0
ARC
8
left_labelLayer
10
249.0201962
20
69.2128078
40
5.4753182
50
280.0070318
51
283.3734769
0
ARC
8
left_labelLayer
10
248.6938742
20
70.9838195
40
7.2761039
50
279.186299
51
280.1142077
0
ARC
8
left_labelLayer
10
248.4937842
20
72.1218612
40
8.431508
50
275.5260434
51
279.2939448
0
ARC
8
left_labelLayer
10
248.7194262
20
69.7650633
40
6.0639347
50
270.8932317
51
275.5483613
0
ARC
8
left_labelLayer
10
248.7477728
20
68.6884502
40
4.9870241
50
270.0031482
51
270.7604232
0
ARC
8
left_labelLayer
10
248.6695482
20
68.7816953
40
5.0808757
50
253.7848016
51
270.8852459
0
ARC
8
left_labelLayer
10
248.0675992
20
66.7288186
40
2.9415753
50
190.3817606
51
253.8772428
0
ARC
8
left_labelLayer
10
251.1357172
20
67.5583836
40
6.11462
50
179.3550883
51
192.8477587
0
ARC
8
left_labelLayer
10
250.8839476
20
67.6847403
40
3.9172273
50
179.6416712
51
189.7505711
0
ARC
8
left_labelLayer
10
249.5010786
20
67.4380897
40
2.5125779
50
189.5479422
51
205.7873769
0
ARC
8
left_labelLayer
10
248.9327899
20
67.1760334
40
1.886913
50
206.1294343
51
221.408378
0
ARC
8
left_labelLayer
10
248.8690677
20
67.1276828
40
1.8071497
50
221.5949186
51
262.3505072
0
ARC
8
left_labelLayer
10
249.0206139
20
67.9069915
40
2.6001111
50
261.3266248
51
270.1913377
0
LINE
8
top_outsideCutPath
10
297
20
129
11
297
21
3
0
LINE
8
top_outsideCutPath
10
297
20
3
11
468
21
3
0
LINE
8
top_outsideCutPath
10
468
20
3
11
468
21
129
0
LINE
8
top_outsideCutPath
10
468
20
129
11
297
21
129
0
LINE
8
top_labelLayer
10
371.5979427
20
62.4070313
11
371.5979427
21
60.8443359
0
LINE
8
top_labelLayer
10
365.5440364
20
64.5972656
11
365.5440364
21
72.6199219
0
LINE
8
top_labelLayer
10
365.5440364
20
72.6199219
11
363.6122005
21
72.6199219
0
LINE
8
top_labelLayer
10
363.6122005
20
72.6199219
11
363.6122005
21
73.6042969
0
LINE
8
top_labelLayer
10
363.6122005
20
73.6042969
11
365.5440364
21
74.4533203
0
LINE
8
top_labelLayer
10
365.5440364
20
74.4533203
11
366.4053645
21
77.3326172
0
LINE
8
top_labelLayer
10
366.4053645
20
77.3326172
11
367.5866145
21
77.3326172
0
LINE
8
top_labelLayer
10
367.5866145
20
77.3326172
11
367.5866145
21
74.2072266
0
LINE
8
top_labelLayer
10
367.5866145
20
74.2072266
11
371.4995052
21
74.2072266
0
LINE
8
top_labelLayer
10
371.4995052
20
74.2072266
11
371.4995052
21
72.6199219
0
LINE
8
top_labelLayer
10
371.4995052
20
72.6199219
11
367.5866145
21
72.6199219
0
LINE
8
top_labelLayer
10
367.5866145
20
72.6199219
11
367.5866145
21
64.6833984
0
ARC
8
top_labelLayer
10
369.7662486
20
68.8690101
40
6.7080872
50
269.8803443
51
278.3028456
0
ARC
8
top_labelLayer
10
369.8301128
20
68.3473113
40
6.1826462
50
278.4153612
51
279.0079401
0
ARC
8
top_labelLayer
10
369.0774146
20
73.1556507
40
11.0495375
50
278.9590253
51
280.5104681
0
ARC
8
top_labelLayer
10
369.7948
20
69.3065101
40
7.1341183
50
280.4847105
51
282.6268512
0
ARC
8
top_labelLayer
10
370.4237661
20
66.5121806
40
4.2698798
50
282.5877737
51
285.5793908
0
ARC
8
top_labelLayer
10
370.7391754
20
65.3520575
40
3.0676798
50
285.7242748
51
286.256641
0
ARC
8
top_labelLayer
10
370.7392003
20
62.6606217
40
2.0090626
50
287.9887475
51
295.3048483
0
ARC
8
top_labelLayer
10
370.2546327
20
64.1266434
40
3.5530795
50
283.3068811
51
288.1198298
0
ARC
8
top_labelLayer
10
369.7427151
20
66.2620072
40
5.7489417
50
280.0069655
51
283.3734939
0
ARC
8
top_labelLayer
10
369.3997247
20
68.1235571
40
7.6417853
50
279.186462
51
280.1141429
0
ARC
8
top_labelLayer
10
369.1899545
20
69.3166322
40
8.8530631
50
275.5260351
51
279.2939451
0
ARC
8
top_labelLayer
10
369.4268773
20
66.8419465
40
6.3670636
50
270.893224
51
275.5484033
0
ARC
8
top_labelLayer
10
369.456624
20
65.7111446
40
5.2359495
50
270.0033158
51
270.7606523
0
ARC
8
top_labelLayer
10
369.3745021
20
65.8094703
40
5.3349117
50
253.784791
51
270.8852605
0
ARC
8
top_labelLayer
10
368.7424575
20
63.6539582
40
3.0886549
50
190.3817712
51
253.8772368
0
ARC
8
top_labelLayer
10
371.963981
20
64.5250016
40
6.4203514
50
179.3550959
51
192.8477659
0
ARC
8
top_labelLayer
10
371.6996167
20
64.6576753
40
4.1130826
50
179.6416709
51
189.7505856
0
ARC
8
top_labelLayer
10
370.2476168
20
64.3986947
40
2.6382135
50
189.5479731
51
205.7873654
0
ARC
8
top_labelLayer
10
369.6509016
20
64.1235302
40
1.9812524
50
206.1294334
51
221.4084249
0
ARC
8
top_labelLayer
10
369.5839987
20
64.0727647
40
1.897507
50
221.5949174
51
262.3505106
0
ARC
8
top_labelLayer
10
369.7431236
20
64.8910384
40
2.7301162
50
261.3265978
51
270.1913125
0
ARC
8
top_labelLayer
10
375.3823978
20
67.4054344
40
10.5507456
50
349.1761844
51
0.3862638
0
ARC
8
top_labelLayer
10
378.934579
20
66.6972991
40
6.9288384
50
330.250707
51
349.4116449
0
ARC
8
top_labelLayer
10
380.0277594
20
66.1291073
40
5.6980056
50
318.1439869
51
329.7566233
0
ARC
8
top_labelLayer
10
380.2250686
20
65.9709849
40
5.4455536
50
278.8959143
51
317.9979109
0
ARC
8
top_labelLayer
10
379.7166914
20
68.4066545
40
7.9315345
50
269.7502793
51
279.803334
0
ARC
8
top_labelLayer
10
379.6342421
20
67.0343153
40
6.5592947
50
253.5436967
51
270.41824
0
ARC
8
top_labelLayer
10
379.4158945
20
66.1896944
40
5.6874969
50
238.8115572
51
253.2428422
0
ARC
8
top_labelLayer
10
379.3454285
20
66.0479862
40
5.5297942
50
207.7947067
51
238.675796
0
ARC
8
top_labelLayer
10
380.3566473
20
66.6673075
40
6.7135692
50
205.6560658
51
208.4461472
0
ARC
8
top_labelLayer
10
381.1354317
20
66.9917902
40
7.5561953
50
188.9102401
51
205.317143
0
ARC
8
top_labelLayer
10
383.7601997
20
67.4363424
40
10.2181957
50
179.7744758
51
189.0932889
0
ARC
8
top_labelLayer
10
384.1473875
20
67.5483957
40
10.6055475
50
169.2442976
51
180.3880774
0
ARC
8
top_labelLayer
10
380.5458258
20
68.2602932
40
6.9344566
50
150.7111445
51
169.4695396
0
ARC
8
top_labelLayer
10
379.396087
20
68.8507291
40
5.6430467
50
138.1759338
51
150.2287553
0
ARC
8
top_labelLayer
10
379.2048472
20
68.997483
40
5.4027039
50
99.1759345
51
137.9832726
0
ARC
8
top_labelLayer
10
379.7312349
20
66.5202407
40
7.9331658
50
89.732627
51
100.0759748
0
ARC
8
top_labelLayer
10
379.8364427
20
67.5900786
40
6.8635804
50
73.522274
51
90.5692256
0
ARC
8
top_labelLayer
10
380.2389505
20
69.0524972
40
5.3471327
50
41.1445685
51
73.2133799
0
ARC
8
top_labelLayer
10
379.4705962
20
68.3921072
40
6.3602596
50
13.5014326
51
41.0703446
0
ARC
8
top_labelLayer
10
376.5020675
20
67.6152817
40
9.4283213
50
1.1277143
51
13.8800058
0
ARC
8
top_labelLayer
10
373.9447637
20
67.4782572
40
11.9881399
50
359.9919002
51
1.5419342
0
ARC
8
top_labelLayer
10
386.0019309
20
67.4234817
40
10.3435776
50
179.7059702
51
187.916084
0
ARC
8
top_labelLayer
10
382.2082207
20
66.8785175
40
6.5109875
50
187.7639207
51
200.0976951
0
ARC
8
top_labelLayer
10
380.1182915
20
66.1127636
40
4.2851884
50
200.0845893
51
216.9131639
0
ARC
8
top_labelLayer
10
379.355122
20
65.5678246
40
3.347783
50
217.3009564
51
261.7099047
0
ARC
8
top_labelLayer
10
379.7094117
20
67.2584548
40
5.0729554
50
260.5033082
51
270.2476788
0
ARC
8
top_labelLayer
10
379.7770353
20
66.9297122
40
4.7443854
50
269.4481635
51
284.7255664
0
ARC
8
top_labelLayer
10
380.1526208
20
65.5367876
40
3.301755
50
284.5662245
51
322.6333856
0
ARC
8
top_labelLayer
10
379.2744867
20
66.1712012
40
4.3847961
50
323.0089185
51
342.6390582
0
ARC
8
top_labelLayer
10
376.762833
20
66.9920832
40
7.0270544
50
342.3615658
51
353.7537696
0
ARC
8
top_labelLayer
10
373.0572895
20
67.4387409
40
10.7592745
50
353.5362991
51
0.2014096
0
ARC
8
top_labelLayer
10
373.6250422
20
67.5285812
40
10.1915879
50
359.7075564
51
7.8972722
0
ARC
8
top_labelLayer
10
377.3574811
20
68.0636615
40
6.4210517
50
7.7439888
51
20.0690211
0
ARC
8
top_labelLayer
10
379.437344
20
68.8268931
40
4.205575
50
20.0257074
51
37.4350449
0
ARC
8
top_labelLayer
10
380.1274294
20
69.3165673
40
3.3601032
50
37.9577597
51
80.400619
0
ARC
8
top_labelLayer
10
379.7352771
20
67.5668152
40
5.1516231
50
79.3453589
51
90.3174802
0
ARC
8
top_labelLayer
10
379.6626658
20
67.8574576
40
4.8611015
50
89.4806062
51
103.880506
0
ARC
8
top_labelLayer
10
379.2542067
20
69.4128673
40
3.2532084
50
103.4685206
51
142.3118966
0
ARC
8
top_labelLayer
10
380.0482798
20
68.8544175
40
4.2232385
50
142.9025657
51
162.3749614
0
ARC
8
top_labelLayer
10
382.5504296
20
68.0205845
40
6.8605068
50
162.0653301
51
173.1674728
0
ARC
8
top_labelLayer
10
386.4518992
20
67.5229753
40
10.7935096
50
173.0086119
51
180.2463764
0
LINE
8
top_labelLayer
10
391.5561458
20
62.45625
11
391.4084895
21
62.45625
0
LINE
8
top_labelLayer
10
391.5561458
20
60.2167969
11
391.5561458
21
54.6673828
0
LINE
8
top_labelLayer
10
391.5561458
20
54.6673828
11
389.5135677
21
54.6673828
0
LINE
8
top_labelLayer
10
389.5135677
20
54.6673828
11
389.5135677
21
74.2072266
0
LINE
8
top_labelLayer
10
389.5135677
20
74.2072266
11
391.1747005
21
74.2072266
0
LINE
8
top_labelLayer
10
391.1747005
20
74.2072266
11
391.4577083
21
72.3615234
0
LINE
8
top_labelLayer
10
391.4577083
20
72.3615234
11
391.5561458
21
72.3615234
0
LINE
8
top_labelLayer
10
391.5561458
20
67.9318359
11
391.5561458
21
67.4765625
0
ARC
8
top_labelLayer
10
395.7545131
20
66.6706787
40
6.1955792
50
255.775532
51
270.3185455
0
ARC
8
top_labelLayer
10
395.577704
20
65.8851454
40
5.3907276
50
245.980154
51
255.5455918
0
ARC
8
top_labelLayer
10
395.2352546
20
65.0887789
40
4.523942
50
215.5850234
51
245.8361706
0
ARC
8
top_labelLayer
10
372.2307581
20
60.0328267
40
19.3302448
50
2.9503122
51
7.2020949
0
ARC
8
top_labelLayer
10
375.3584069
20
60.207804
40
16.1977414
50
0.0318103
51
2.9016198
0
ARC
8
top_labelLayer
10
396.0555383
20
69.2015956
40
5.4981521
50
132.3565115
51
144.9195937
0
ARC
8
top_labelLayer
10
395.2132676
20
70.1204858
40
4.2516509
50
115.4006095
51
132.3118309
0
ARC
8
top_labelLayer
10
395.5418092
20
69.3206911
40
5.1152658
50
97.7066288
51
114.882156
0
ARC
8
top_labelLayer
10
395.7712612
20
67.8325918
40
6.6207521
50
89.8468498
51
97.9474189
0
ARC
8
top_labelLayer
10
395.8521754
20
68.1926105
40
6.2610289
50
74.1923613
51
90.5785209
0
ARC
8
top_labelLayer
10
396.2854024
20
69.7674866
40
4.6277132
50
38.0523467
51
74.0417259
0
ARC
8
top_labelLayer
10
395.0904832
20
68.851633
40
6.133184
50
16.3356004
51
37.9090548
0
ARC
8
top_labelLayer
10
391.9513999
20
67.8847754
40
9.4175932
50
4.5766596
51
16.6088795
0
ARC
8
top_labelLayer
10
388.0867943
20
67.4996977
40
13.3008169
50
359.9003406
51
4.9018137
0
ARC
8
top_labelLayer
10
389.4116886
20
67.4059053
40
11.9761109
50
350.6562866
51
0.338038
0
ARC
8
top_labelLayer
10
393.5867603
20
66.6957726
40
7.7411722
50
335.8305874
51
350.8254839
0
ARC
8
top_labelLayer
10
395.4232962
20
65.903096
40
5.741151
50
321.3161431
51
335.5436213
0
ARC
8
top_labelLayer
10
396.1254143
20
65.3309757
40
4.8354911
50
274.0640023
51
321.4081046
0
ARC
8
top_labelLayer
10
395.7983198
20
67.4029415
40
6.9277524
50
269.9225758
51
275.5481408
0
ARC
8
top_labelLayer
10
395.4515758
20
66.8330343
40
5.8854754
50
89.5904401
51
100.3501625
0
ARC
8
top_labelLayer
10
395.0318978
20
69.0377832
40
3.6412395
50
100.0868157
51
118.1918017
0
ARC
8
top_labelLayer
10
394.6019737
20
69.8762749
40
2.6991655
50
118.5569441
51
141.0243408
0
ARC
8
top_labelLayer
10
395.2570974
20
69.4141612
40
3.4995308
50
141.8890509
51
160.5972981
0
ARC
8
top_labelLayer
10
397.5594497
20
68.5693611
40
5.9518587
50
160.2895657
51
171.24529
0
ARC
8
top_labelLayer
10
401.344958
20
67.9590167
40
9.7861966
50
171.0868522
51
178.3247467
0
ARC
8
top_labelLayer
10
404.5555348
20
67.8064475
40
12.9999938
50
178.0662786
51
179.4473583
0
ARC
8
top_labelLayer
10
405.0614217
20
67.4238265
40
13.5053789
50
179.7762701
51
185.7075196
0
ARC
8
top_labelLayer
10
399.7367055
20
66.8751926
40
8.1525143
50
185.5924767
51
194.2050781
0
ARC
8
top_labelLayer
10
396.3257829
20
65.9899381
40
4.6286984
50
193.9430385
51
208.021839
0
ARC
8
top_labelLayer
10
394.9457055
20
65.2878547
40
3.0806977
50
208.5536539
51
217.5605416
0
ARC
8
top_labelLayer
10
394.8332689
20
65.2410894
40
2.9632271
50
218.1690446
51
253.8047156
0
ARC
8
top_labelLayer
10
395.3828922
20
66.9356384
40
4.7441482
50
253.1382567
51
266.8482941
0
ARC
8
top_labelLayer
10
395.5370126
20
68.7531753
40
6.5676311
50
266.3775495
51
270.051052
0
ARC
8
top_labelLayer
10
395.5893746
20
65.6268972
40
3.4416646
50
269.2256906
51
292.0430465
0
ARC
8
top_labelLayer
10
395.6358126
20
65.3501559
40
3.1683081
50
293.1429562
51
324.1353939
0
ARC
8
top_labelLayer
10
394.9458979
20
65.9342755
40
4.0702245
50
323.161639
51
325.0153856
0
ARC
8
top_labelLayer
10
394.2070781
20
66.3923958
40
4.9384462
50
325.5753802
51
344.1504688
0
ARC
8
top_labelLayer
10
391.6515355
20
67.1478393
40
7.603208
50
343.9336353
51
355.1137427
0
ARC
8
top_labelLayer
10
388.3893146
20
67.47886
40
10.881893
50
354.8402205
51
0.1174775
0
ARC
8
top_labelLayer
10
388.9638489
20
67.5531916
40
10.3074672
50
359.7108383
51
7.8610413
0
ARC
8
top_labelLayer
10
392.7116502
20
68.0874315
40
6.5218378
50
7.7149529
51
19.885966
0
ARC
8
top_labelLayer
10
394.7728306
20
68.8319385
40
4.3303191
50
19.8991412
51
35.8980107
0
ARC
8
top_labelLayer
10
395.6922154
20
69.5282094
40
3.1774039
50
35.4481623
51
85.2266569
0
ARC
8
top_labelLayer
10
395.5001513
20
68.3237806
40
4.3945836
50
84.0378831
51
90.0848175
0
LINE
8
back_outsideCutPath
10
0
20
286
11
0
21
146
0
LINE
8
back_outsideCutPath
10
0
20
146
11
171
21
146
0
LINE
8
back_outsideCutPath
10
171
20
146
11
171
21
286
0
LINE
8
back_outsideCutPath
10
171
20
286
11
0
21
286
0
LINE
8
back_labelLayer
10
58.7441406
20
207.4278888
11
58.5800781
21
207.4278888
0
LINE
8
back_labelLayer
10
58.5800781
20
207.4278888
11
58.1015625
21
205.5001544
0
LINE
8
back_labelLayer
10
58.1015625
20
205.5001544
11
56.4746094
21
205.5001544
0
LINE
8
back_labelLayer
10
56.4746094
20
205.5001544
11
56.4746094
21
226.7735919
0
LINE
8
back_labelLayer
10
56.4746094
20
226.7735919
11
58.7441406
21
226.7735919
0
LINE
8
back_labelLayer
10
58.7441406
20
226.7735919
11
58.7441406
21
221.6056232
0
LINE
8
back_labelLayer
10
58.6347656
20
218.4884357
11
58.7441406
21
218.4884357
0
ARC
8
back_labelLayer
10
63.5153485
20
213.7944794
40
6.9364779
50
74.2393378
51
90.5623781
0
ARC
8
back_labelLayer
10
63.9740119
20
215.4771075
40
5.1925501
50
38.5631328
51
74.0670399
0
ARC
8
back_labelLayer
10
62.7936672
20
214.5593209
40
6.6876386
50
16.4709242
51
38.4075316
0
ARC
8
back_labelLayer
10
59.3932675
20
213.4930533
40
10.2509824
50
5.1338466
51
16.7973459
0
ARC
8
back_labelLayer
10
55.1005411
20
213.0370482
40
14.5674609
50
359.8779376
51
5.4093683
0
ARC
8
back_labelLayer
10
56.3614034
20
212.9275082
40
13.3067969
50
350.6562815
51
0.3380276
0
ARC
8
back_labelLayer
10
61.0003743
20
212.1384697
40
8.6013072
50
335.8305987
51
350.8254873
0
ARC
8
back_labelLayer
10
63.0409767
20
211.2577163
40
6.3790541
50
321.3161408
51
335.5436248
0
ARC
8
back_labelLayer
10
63.8211052
20
210.6220293
40
5.3727687
50
274.0640067
51
321.4081013
0
ARC
8
back_labelLayer
10
63.4576673
20
212.9241586
40
7.6974487
50
269.9225754
51
275.5481799
0
ARC
8
back_labelLayer
10
63.4089932
20
212.1105901
40
6.8839796
50
255.7755375
51
270.3185453
0
ARC
8
back_labelLayer
10
63.212538
20
211.2377685
40
5.9896933
50
245.9801434
51
255.5455876
0
ARC
8
back_labelLayer
10
62.8320406
20
210.3529219
40
5.0266037
50
215.5850239
51
245.8361614
0
ARC
8
back_labelLayer
10
11.426408
20
221.5656208
40
47.3177495
50
358.1123124
51
0.0484378
0
ARC
8
back_labelLayer
10
24.5958183
20
221.1234753
40
34.1409227
50
355.7238524
51
358.1259058
0
ARC
8
back_labelLayer
10
30.3962931
20
220.7249807
40
28.3269035
50
355.4715098
51
355.6528186
0
ARC
8
back_labelLayer
10
62.9767171
20
215.5369466
40
5.1600379
50
95.1835094
51
145.110902
0
ARC
8
back_labelLayer
10
63.4302652
20
212.9793376
40
7.7513041
50
89.8743368
51
96.8145271
0
ARC
8
back_labelLayer
10
63.0716269
20
212.4528407
40
6.3775689
50
89.5731349
51
100.7324338
0
ARC
8
back_labelLayer
10
62.5995095
20
214.8381386
40
3.9461257
50
100.4469507
51
119.670069
0
ARC
8
back_labelLayer
10
62.1617131
20
215.6566527
40
3.0183172
50
120.1403021
51
142.4249055
0
ARC
8
back_labelLayer
10
62.8860113
20
215.1775052
40
3.8850414
50
143.3382288
51
161.2559785
0
ARC
8
back_labelLayer
10
65.9148826
20
214.1021551
40
7.0989687
50
160.892636
51
171.2334342
0
ARC
8
back_labelLayer
10
70.9712505
20
213.2864439
40
12.2206392
50
171.0667835
51
177.8456867
0
ARC
8
back_labelLayer
10
76.2298881
20
213.0189947
40
17.4857522
50
177.6176835
51
180.0425345
0
ARC
8
back_labelLayer
10
73.7500259
20
212.94742
40
15.0059997
50
179.776277
51
185.7075174
0
ARC
8
back_labelLayer
10
67.8336488
20
212.3378247
40
9.0583466
50
185.5924763
51
194.2050802
0
ARC
8
back_labelLayer
10
64.0437368
20
211.3542093
40
5.1429977
50
193.943045
51
208.0218466
0
ARC
8
back_labelLayer
10
62.5103204
20
210.574118
40
3.4230003
50
208.5536605
51
217.5605407
0
ARC
8
back_labelLayer
10
62.3853889
20
210.522156
40
3.2924756
50
218.1690565
51
253.8047145
0
ARC
8
back_labelLayer
10
62.99608
20
212.4049818
40
5.2712704
50
253.1382504
51
266.8483019
0
ARC
8
back_labelLayer
10
63.1673262
20
214.4245255
40
7.2974208
50
266.3775745
51
270.0510503
0
ARC
8
back_labelLayer
10
63.2222413
20
211.6511319
40
4.5242833
50
269.3868807
51
285.8630739
0
ARC
8
back_labelLayer
10
63.558367
20
210.4363309
40
3.2638801
50
286.0162842
51
326.8497351
0
ARC
8
back_labelLayer
10
61.9360444
20
211.5110599
40
5.2098688
50
326.7105069
51
343.66617
0
ARC
8
back_labelLayer
10
58.899162
20
212.4390323
40
8.3852369
50
343.4171347
51
353.6369119
0
ARC
8
back_labelLayer
10
54.3122396
20
212.9833027
40
13.0042631
50
353.4934779
51
0.2205385
0
ARC
8
back_labelLayer
10
53.907937
20
213.0876306
40
13.4085791
50
359.7680869
51
6.3095346
0
ARC
8
back_labelLayer
10
58.9586488
20
213.6672316
40
8.3247898
50
6.1648749
51
16.039627
0
ARC
8
back_labelLayer
10
62.2122819
20
214.626075
40
4.9329389
50
15.7779331
51
32.0151359
0
ARC
8
back_labelLayer
10
63.2271173
20
215.2072633
40
3.7646102
50
32.7032882
51
35.5243467
0
ARC
8
back_labelLayer
10
63.5979434
20
215.4708381
40
3.3096567
50
35.5408408
51
79.8011179
0
ARC
8
back_labelLayer
10
63.1534907
20
213.5813863
40
5.2489588
50
78.6781199
51
90.3749563
0
LINE
8
back_labelLayer
10
84.5292969
20
205.5001544
11
82.8476563
21
205.5001544
0
LINE
8
back_labelLayer
10
82.8476563
20
205.5001544
11
82.3964844
21
207.6329669
0
LINE
8
back_labelLayer
10
82.3964844
20
207.6329669
11
82.2871094
21
207.6329669
0
LINE
8
back_labelLayer
10
79.7714844
20
214.4005451
11
82.3144531
21
214.4825763
0
LINE
8
back_labelLayer
10
82.3144531
20
214.4825763
11
82.3144531
21
215.4122638
0
LINE
8
back_labelLayer
10
74.890625
20
217.7091388
11
74.1933594
21
219.4454669
0
LINE
8
back_labelLayer
10
84.5292969
20
215.7267169
11
84.5292969
21
205.5001544
0
LINE
8
back_labelLayer
10
82.2597656
20
211.5157794
11
82.2597656
21
212.8692951
0
LINE
8
back_labelLayer
10
82.2597656
20
212.8692951
11
79.9902344
21
212.7735919
0
ARC
8
back_labelLayer
10
74.9029258
20
213.463144
40
9.4083543
50
314.7445086
51
321.7071673
0
ARC
8
back_labelLayer
10
77.2144101
20
211.1144998
40
6.1130725
50
304.8485787
51
314.8530623
0
ARC
8
back_labelLayer
10
78.3248189
20
209.5339486
40
4.1814791
50
294.3932502
51
304.7371583
0
ARC
8
back_labelLayer
10
77.9454581
20
210.5168939
40
5.2337033
50
281.2979506
51
293.7313795
0
ARC
8
back_labelLayer
10
77.4439698
20
212.947359
40
7.7153329
50
272.9335077
51
281.4139134
0
ARC
8
back_labelLayer
10
77.2777501
20
215.440044
40
10.2133304
50
269.9538932
51
273.1491176
0
ARC
8
back_labelLayer
10
77.2203301
20
212.1914153
40
6.9648721
50
258.6719578
51
270.4047518
0
ARC
8
back_labelLayer
10
76.7365416
20
209.8771723
40
4.6007277
50
238.3273124
51
258.9183659
0
ARC
8
back_labelLayer
10
76.4031581
20
209.268948
40
3.9082056
50
227.7689484
51
237.8049843
0
ARC
8
back_labelLayer
10
76.298868
20
209.123363
40
3.73037
50
192.0827613
51
227.452081
0
ARC
8
back_labelLayer
10
78.2220959
20
209.5974568
40
5.7105566
50
179.5457292
51
192.6949287
0
ARC
8
back_labelLayer
10
76.4354333
20
209.8042223
40
3.9270364
50
115.4904631
51
182.3568127
0
ARC
8
back_labelLayer
10
78.4021365
20
206.1968819
40
8.0327098
50
101.3568179
51
117.0798582
0
ARC
8
back_labelLayer
10
79.9815789
20
198.8160163
40
15.5803687
50
92.4696245
51
101.7064994
0
ARC
8
back_labelLayer
10
80.4355246
20
192.2413245
40
22.1691678
50
91.7164556
51
92.909565
0
ARC
8
back_labelLayer
10
75.7958921
20
215.4471527
40
6.5186544
50
359.6933427
51
8.0035663
0
ARC
8
back_labelLayer
10
78.2617775
20
215.8063796
40
4.0267904
50
7.8272599
51
20.6041545
0
ARC
8
back_labelLayer
10
79.6571749
20
216.3401875
40
2.5328133
50
20.4094112
51
41.4479378
0
ARC
8
back_labelLayer
10
79.8633484
20
216.4535159
40
2.3038342
50
42.7295395
51
71.0380409
0
ARC
8
back_labelLayer
10
79.3779529
20
215.1337196
40
3.7098586
50
70.5716163
51
83.9928561
0
ARC
8
back_labelLayer
10
79.1460635
20
213.2500847
40
5.6075178
50
83.6506748
51
90.1753076
0
ARC
8
back_labelLayer
10
79.186741
20
211.4687054
40
7.3890973
50
90.448461
51
103.7665529
0
ARC
8
back_labelLayer
10
80.0556599
20
207.8044375
40
11.1549118
50
103.622656
51
112.4320069
0
ARC
8
back_labelLayer
10
81.5451147
20
204.0436811
40
15.1995714
50
112.2122305
51
115.9640887
0
ARC
8
back_labelLayer
10
79.1598858
20
210.2351014
40
10.4640918
50
106.3568575
51
118.3349794
0
ARC
8
back_labelLayer
10
79.6055846
20
208.8583321
40
11.9107225
50
104.5162018
51
106.5489637
0
ARC
8
back_labelLayer
10
79.278731
20
210.2201665
40
10.5104648
50
90.0714449
51
104.6521004
0
ARC
8
back_labelLayer
10
79.3199781
20
211.1455105
40
9.5852668
50
81.567982
51
90.3248967
0
ARC
8
back_labelLayer
10
79.8741855
20
214.7560183
40
5.9325498
50
68.2273476
51
81.7494237
0
ARC
8
back_labelLayer
10
80.6461012
20
216.6766126
40
3.862645
50
47.8683334
51
68.2934115
0
ARC
8
back_labelLayer
10
80.7713857
20
216.9267676
40
3.5938637
50
19.2330989
51
46.6741174
0
ARC
8
back_labelLayer
10
78.6843668
20
216.1503917
40
5.8203242
50
6.3379046
51
19.6815415
0
ARC
8
back_labelLayer
10
75.5992034
20
215.7574698
40
8.9301465
50
359.8026892
51
6.6583437
0
ARC
8
back_labelLayer
10
77.7665957
20
213.3482711
40
6.2486758
50
269.5791951
51
282.0413575
0
ARC
8
back_labelLayer
10
78.2223921
20
211.3265479
40
4.1764176
50
281.7120961
51
306.4594024
0
ARC
8
back_labelLayer
10
78.4244674
20
210.9942094
40
3.7892027
50
306.9881604
51
313.8558888
0
ARC
8
back_labelLayer
10
78.4004554
20
210.9872868
40
3.8009119
50
314.1891966
51
347.4269831
0
ARC
8
back_labelLayer
10
76.496478
20
211.4644141
40
5.7633211
50
346.9177675
51
0.2824599
0
ARC
8
back_labelLayer
10
75.0316871
20
211.5158284
40
7.2280786
50
359.8176663
51
359.9996121
0
ARC
8
back_labelLayer
10
80.5300893
20
196.1180534
40
16.6642853
50
91.8564746
51
96.4478247
0
ARC
8
back_labelLayer
10
79.7785773
20
202.6211164
40
10.117977
50
96.3545313
51
102.9953198
0
ARC
8
back_labelLayer
10
78.7584599
20
206.9552903
40
5.6654456
50
102.799542
51
113.2433115
0
ARC
8
back_labelLayer
10
77.9174921
20
208.966558
40
3.4856046
50
113.5886286
51
121.680521
0
ARC
8
back_labelLayer
10
77.3332284
20
209.8563744
40
2.4217194
50
120.9734143
51
172.4179805
0
ARC
8
back_labelLayer
10
78.4752211
20
209.628267
40
3.5846192
50
171.2121943
51
180.2058421
0
ARC
8
back_labelLayer
10
78.1339425
20
209.588591
40
3.2434282
50
179.526606
51
192.7787121
0
ARC
8
back_labelLayer
10
77.036744
20
209.3226267
40
2.1146438
50
192.3264506
51
222.05798
0
ARC
8
back_labelLayer
10
76.9550976
20
209.2737864
40
2.0213909
50
222.5804125
51
229.2547572
0
ARC
8
back_labelLayer
10
77.2309109
20
209.6288796
40
2.470544
50
229.7836907
51
254.272444
0
ARC
8
back_labelLayer
10
77.5982161
20
210.8528869
40
3.7483525
50
253.9396705
51
266.453368
0
ARC
8
back_labelLayer
10
77.7154454
20
212.2041155
40
5.1043544
50
266.0782681
51
270.0590177
0
LINE
8
back_labelLayer
10
99.1992188
20
219.9786701
11
98.5019531
21
218.0509357
0
LINE
8
back_labelLayer
10
98.9804688
20
208.0157794
11
98.9804688
21
206.0060138
0
ARC
8
back_labelLayer
10
95.1209706
20
213.7085537
40
8.4821456
50
256.4243695
51
270.4889823
0
ARC
8
back_labelLayer
10
94.4431667
20
211.0631465
40
5.7516738
50
221.79763
51
256.8020535
0
ARC
8
back_labelLayer
10
95.0995448
20
211.5481184
40
6.5646796
50
196.0166682
51
221.1349174
0
ARC
8
back_labelLayer
10
98.3984277
20
212.5564262
40
10.0138874
50
183.5913752
51
196.353954
0
ARC
8
back_labelLayer
10
102.0940046
20
212.8819935
40
13.7229185
50
179.9388528
51
183.9814907
0
ARC
8
back_labelLayer
10
100.8932139
20
212.9772629
40
12.5223797
50
169.8978429
51
180.3688958
0
ARC
8
back_labelLayer
10
96.5338871
20
213.7836739
40
8.0892427
50
153.08751
51
170.1051363
0
ARC
8
back_labelLayer
10
94.8798641
20
214.5740127
40
6.2567761
50
138.6550021
51
152.6853621
0
ARC
8
back_labelLayer
10
94.5711617
20
214.7989742
40
5.876516
50
101.4912943
51
138.3133877
0
ARC
8
back_labelLayer
10
95.2798748
20
211.8493874
40
8.9088087
50
89.5891919
51
102.1787789
0
ARC
8
back_labelLayer
10
95.3343732
20
210.5162294
40
10.2417418
50
77.7702407
51
89.9475428
0
ARC
8
back_labelLayer
10
95.1405185
20
209.4467714
40
11.3280549
50
74.6796889
51
77.9578404
0
ARC
8
back_labelLayer
10
96.1876409
20
213.2402991
40
7.3926733
50
70.0945843
51
74.7386295
0
ARC
8
back_labelLayer
10
97.1836575
20
215.9698923
40
4.4870504
50
63.5034083
51
70.1861418
0
ARC
8
back_labelLayer
10
97.6509592
20
216.9493906
40
3.4020054
50
62.9285017
51
63.1870986
0
ARC
8
back_labelLayer
10
94.773695
20
208.6682065
40
10.096312
50
68.3294397
51
74.8831254
0
ARC
8
back_labelLayer
10
94.2410773
20
206.7796184
40
12.0584673
50
74.7801876
51
77.4497651
0
ARC
8
back_labelLayer
10
94.8002999
20
209.4045585
40
9.3747635
50
77.2998619
51
81.7345518
0
ARC
8
back_labelLayer
10
95.2081555
20
212.2465231
40
6.5036881
50
81.6910296
51
87.5078887
0
ARC
8
back_labelLayer
10
95.2868582
20
213.7174337
40
5.030768
50
87.6749716
51
89.9748954
0
ARC
8
back_labelLayer
10
95.1765552
20
213.7153047
40
5.034154
50
88.7194018
51
112.5667644
0
ARC
8
back_labelLayer
10
94.8188444
20
214.8979893
40
3.8067542
50
114.4265732
51
161.6632831
0
ARC
8
back_labelLayer
10
98.3723473
20
213.5071103
40
7.6200829
50
160.1418429
51
175.1368099
0
ARC
8
back_labelLayer
10
103.2632656
20
212.9578972
40
12.5406552
50
174.5309775
51
180.1549492
0
ARC
8
back_labelLayer
10
101.7137893
20
212.8672265
40
10.9912796
50
179.7041384
51
188.0743573
0
ARC
8
back_labelLayer
10
97.7548504
20
212.2879931
40
6.9902508
50
187.931524
51
200.3885422
0
ARC
8
back_labelLayer
10
95.6142325
20
211.495004
40
4.7074745
50
200.4183452
51
216.6392651
0
ARC
8
back_labelLayer
10
94.7168305
20
210.853474
40
3.6046022
50
216.9695335
51
261.3103043
0
ARC
8
back_labelLayer
10
95.1128725
20
212.6998767
40
5.4907987
50
260.1359262
51
270.2692145
0
ARC
8
back_labelLayer
10
95.0945902
20
216.7095721
40
9.5005356
50
270.2658485
51
286.289141
0
ARC
8
back_labelLayer
10
94.517038
20
218.8634635
40
11.7300667
50
286.0460599
51
292.3653987
0
ARC
8
back_labelLayer
10
96.0551561
20
211.7608014
40
6.4556204
50
282.0344333
51
296.9454504
0
ARC
8
back_labelLayer
10
95.3912376
20
214.7528268
40
9.5203491
50
272.5980508
51
282.1878468
0
ARC
8
back_labelLayer
10
95.2008556
20
217.6726029
40
12.4458882
50
269.9654907
51
272.8643043
0
LINE
8
back_labelLayer
10
104.6679688
20
213.1700763
11
104.7773438
21
213.1700763
0
LINE
8
back_labelLayer
10
106.5683594
20
215.3575763
11
111.4082031
21
220.4845294
0
LINE
8
back_labelLayer
10
111.4082031
20
220.4845294
11
114.1015625
21
220.4845294
0
LINE
8
back_labelLayer
10
114.1015625
20
220.4845294
11
108.03125
21
214.0997638
0
LINE
8
back_labelLayer
10
108.03125
20
214.0997638
11
114.5253906
21
205.5001544
0
LINE
8
back_labelLayer
10
114.5253906
20
205.5001544
11
111.7773438
21
205.5001544
0
LINE
8
back_labelLayer
10
111.7773438
20
205.5001544
11
106.4863281
21
212.5821857
0
LINE
8
back_labelLayer
10
106.4863281
20
212.5821857
11
104.7773438
21
211.1056232
0
LINE
8
back_labelLayer
10
104.7773438
20
211.1056232
11
104.7773438
21
205.5001544
0
LINE
8
back_labelLayer
10
104.7773438
20
205.5001544
11
102.5351563
21
205.5001544
0
LINE
8
back_labelLayer
10
102.5351563
20
205.5001544
11
102.5351563
21
226.7735919
0
LINE
8
back_labelLayer
10
102.5351563
20
226.7735919
11
104.7773438
21
226.7735919
0
LINE
8
back_labelLayer
10
104.7773438
20
226.7735919
11
104.7773438
21
215.4942951
0
ARC
8
back_labelLayer
10
115.7432982
20
205.4079196
40
13.4351492
50
142.3233742
51
144.7075591
0
ARC
8
back_labelLayer
10
122.898129
20
199.8892365
40
22.471047
50
140.433119
51
142.3365673
0
ARC
8
back_labelLayer
10
132.2230502
20
192.2131485
40
34.5489671
50
139.2799168
51
140.4702996
0
ARC
8
back_labelLayer
10
143.0029991
20
182.9431184
40
48.7665876
50
138.3417751
51
139.2877215
0
ARC
8
back_labelLayer
10
89.6536794
20
215.5225982
40
15.1236909
50
358.2739003
51
359.8927741
0
ARC
8
back_labelLayer
10
77.8875211
20
215.8504846
40
26.8943999
50
357.5041706
51
358.3307341
0
ARC
8
back_labelLayer
10
60.2753519
20
216.6284091
40
44.5237391
50
356.6325355
51
357.4909992
0
ARC
8
back_labelLayer
10
31.0048724
20
218.3355807
40
73.8439586
50
356.0329177
51
356.6442592
0
ARC
8
back_labelLayer
10
11.3418873
20
219.6628141
40
93.55166
50
356.020319
51
356.0551483
0
LINE
8
right_outsideCutPath
10
174
20
286
11
174
21
146
0
LINE
8
right_outsideCutPath
10
174
20
146
11
294
21
146
0
LINE
8
right_outsideCutPath
10
294
20
146
11
294
21
286
0
LINE
8
right_outsideCutPath
10
294
20
286
11
174
21
286
0
LINE
8
right_labelLayer
10
216.5683594
20
222.7031958
11
216.2988281
21
220.8985083
0
LINE
8
right_labelLayer
10
211.1191406
20
216.6563208
11
211.1191406
21
209.7656958
0
LINE
8
right_labelLayer
10
211.1191406
20
209.7656958
11
209.1738281
21
209.7656958
0
LINE
8
right_labelLayer
10
209.1738281
20
209.7656958
11
209.1738281
21
222.6094458
0
LINE
8
right_labelLayer
10
209.1738281
20
222.6094458
11
210.7792969
21
222.6094458
0
LINE
8
right_labelLayer
10
210.7792969
20
222.6094458
11
211.0019531
21
220.2305396
0
LINE
8
right_labelLayer
10
211.0019531
20
220.2305396
11
211.0957031
21
220.2305396
0
ARC
8
right_labelLayer
10
215.0531681
20
213.9131669
40
8.9306762
50
84.9923067
51
90.1280878
0
ARC
8
right_labelLayer
10
215.2676348
20
216.316085
40
6.5182106
50
78.4892141
51
85.0265752
0
ARC
8
right_labelLayer
10
214.4352027
20
212.529994
40
8.5735134
50
77.4453873
51
81.6360416
0
ARC
8
right_labelLayer
10
214.8087357
20
215.1047326
40
5.9718273
50
81.5884234
51
87.1916388
0
ARC
8
right_labelLayer
10
214.8898736
20
216.5116878
40
4.5626024
50
87.3436609
51
89.966037
0
ARC
8
right_labelLayer
10
214.87102
20
217.7037069
40
3.3706516
50
89.6335429
51
137.0880721
0
ARC
8
right_labelLayer
10
215.6982546
20
216.7734633
40
4.6114089
50
135.6209225
51
138.837725
0
ARC
8
right_labelLayer
10
215.5770258
20
216.891793
40
4.4422678
50
138.9575762
51
174.5422245
0
ARC
8
right_labelLayer
10
217.0237752
20
216.6654181
40
5.9046416
50
173.6907564
51
180.0882758
0
ARC
8
right_labelLayer
10
216.8192186
20
217.0059382
40
6.5693747
50
139.4139236
51
150.6032966
0
ARC
8
right_labelLayer
10
215.6413386
20
218.0152572
40
5.0182054
50
124.2321636
51
139.4160933
0
ARC
8
right_labelLayer
10
215.0115217
20
218.9659602
40
3.8779211
50
89.6796578
51
124.4405652
0
LINE
8
right_labelLayer
10
220.9160156
20
222.6094458
11
220.9160156
21
209.7656958
0
LINE
8
right_labelLayer
10
220.9160156
20
209.7656958
11
218.9707031
21
209.7656958
0
LINE
8
right_labelLayer
10
218.9707031
20
209.7656958
11
218.9707031
21
222.6094458
0
LINE
8
right_labelLayer
10
218.9707031
20
222.6094458
11
220.9160156
21
222.6094458
0
ARC
8
right_labelLayer
10
220.9622358
20
226.1032522
40
2.1556364
50
170.8452062
51
180.3545098
0
ARC
8
right_labelLayer
10
220.1552639
20
226.2381793
40
1.337485
50
155.9679353
51
171.0515746
0
ARC
8
right_labelLayer
10
219.7643909
20
226.4115873
40
0.9098739
50
133.787984
51
155.9172072
0
ARC
8
right_labelLayer
10
219.9086995
20
226.2520483
40
1.1249236
50
92.6446024
51
133.4710505
0
ARC
8
right_labelLayer
10
219.9542812
20
225.8940215
40
1.4849557
50
89.9692501
51
93.7641363
0
ARC
8
right_labelLayer
10
219.972839
20
226.2329596
40
1.1461551
50
46.3708683
51
90.8878964
0
ARC
8
right_labelLayer
10
220.0869076
20
226.3507225
40
0.9822107
50
17.7252034
51
46.447302
0
ARC
8
right_labelLayer
10
219.554966
20
226.1675438
40
1.5447199
50
4.9428145
51
18.1900389
0
ARC
8
right_labelLayer
10
218.8781977
20
226.0943876
40
2.2253224
50
359.8848306
51
5.3180256
0
ARC
8
right_labelLayer
10
219.0908446
20
226.0762478
40
2.0127174
50
349.8344544
51
0.3890533
0
ARC
8
right_labelLayer
10
219.8235868
20
225.9395552
40
1.2673635
50
332.6322525
51
350.0705792
0
ARC
8
right_labelLayer
10
220.1087892
20
225.7987248
40
0.949362
50
313.6153474
51
332.2677481
0
ARC
8
right_labelLayer
10
219.9713424
20
225.9238754
40
1.1348586
50
269.1788355
51
314.2807366
0
ARC
8
right_labelLayer
10
219.9421848
20
226.0247606
40
1.2356945
50
250.4999895
51
270.5978398
0
ARC
8
right_labelLayer
10
219.9047882
20
225.8849265
40
1.0914578
50
225.1301013
51
249.9001701
0
ARC
8
right_labelLayer
10
219.8462385
20
225.820249
40
1.0043217
50
197.7933573
51
224.8941975
0
ARC
8
right_labelLayer
10
220.394225
20
226.0080396
40
1.5835219
50
184.9925111
51
198.2040758
0
ARC
8
right_labelLayer
10
221.1034465
20
226.0851283
40
2.2968108
50
179.8806026
51
185.3685925
0
LINE
8
right_labelLayer
10
231.1113281
20
222.6094458
11
235.5527344
21
222.6094458
0
LINE
8
right_labelLayer
10
235.5527344
20
222.6094458
11
235.5527344
21
221.3789771
0
LINE
8
right_labelLayer
10
235.5527344
20
221.3789771
11
233.1738281
21
221.0977271
0
LINE
8
right_labelLayer
10
228.7910156
20
211.8047583
11
231.0644531
21
211.8047583
0
LINE
8
right_labelLayer
10
230.4433594
20
210.0586646
11
228.1113281
21
210.0586646
0
ARC
8
right_labelLayer
10
230.6948221
20
219.1358709
40
3.1613843
50
29.4584449
51
38.3576772
0
ARC
8
right_labelLayer
10
229.4030129
20
218.3984281
40
4.6488524
50
23.1845146
51
29.5422409
0
ARC
8
right_labelLayer
10
228.1706102
20
217.8518907
40
5.9969215
50
21.2505974
51
23.3489536
0
ARC
8
right_labelLayer
10
230.2655314
20
218.685047
40
3.7425103
50
6.8504802
51
20.9871888
0
ARC
8
right_labelLayer
10
229.2114879
20
218.542134
40
4.8061025
50
359.8710907
51
7.0432226
0
ARC
8
right_labelLayer
10
229.5582849
20
218.4849504
40
4.4595344
50
342.5649736
51
0.5957742
0
ARC
8
right_labelLayer
10
230.380755
20
218.2578355
40
3.6069242
50
310.6097784
51
342.0923726
0
ARC
8
right_labelLayer
10
229.9195422
20
218.7943095
40
4.3143992
50
284.9315835
51
310.6222812
0
ARC
8
right_labelLayer
10
229.3423874
20
220.8167371
40
6.4173547
50
272.5334988
51
285.257975
0
ARC
8
right_labelLayer
10
229.1939999
20
222.8436552
40
8.4490543
50
269.9691671
51
272.9311971
0
ARC
8
right_labelLayer
10
229.1755782
20
220.6465095
40
6.2519228
50
263.4836883
51
270.1271567
0
ARC
8
right_labelLayer
10
229.0737606
20
219.6793562
40
5.2794697
50
259.4964069
51
263.3903716
0
ARC
8
right_labelLayer
10
229.7040133
20
211.4149007
40
3.4616108
50
117.3935241
51
128.4095339
0
ARC
8
right_labelLayer
10
228.8128579
20
212.5204451
40
2.041694
50
128.0882138
51
147.1400449
0
ARC
8
right_labelLayer
10
228.332757
20
212.8426297
40
1.4636314
50
147.5369192
51
180.2592058
0
ARC
8
right_labelLayer
10
227.8772964
20
212.8235482
40
1.0082328
50
179.2918994
51
198.3580662
0
ARC
8
right_labelLayer
10
227.6885233
20
212.7739363
40
0.8135355
50
199.2291512
51
239.5690948
0
ARC
8
right_labelLayer
10
227.8447825
20
212.9897766
40
1.079086
50
238.2197789
51
239.8462927
0
ARC
8
right_labelLayer
10
227.9699123
20
213.2470822
40
1.3645911
50
240.7302824
51
254.502677
0
ARC
8
right_labelLayer
10
228.3423536
20
214.530512
40
2.7009204
50
254.1637567
51
262.2122707
0
ARC
8
right_labelLayer
10
228.6373604
20
216.5910512
40
4.7824473
50
262.0556165
51
267.208298
0
ARC
8
right_labelLayer
10
228.7798703
20
219.2049984
40
7.4002486
50
267.0919434
51
270.0862915
0
ARC
8
right_labelLayer
10
231.1069781
20
203.8418879
40
7.962984
50
81.5744309
51
90.3059802
0
ARC
8
right_labelLayer
10
231.5437657
20
206.6905326
40
5.0811056
50
68.3671473
51
81.7399338
0
ARC
8
right_labelLayer
10
232.1142519
20
208.1484875
40
3.5155346
50
52.1879644
51
68.250095
0
ARC
8
right_labelLayer
10
232.5134358
20
208.6863611
40
2.8459078
50
8.6201277
51
51.8982532
0
ARC
8
right_labelLayer
10
231.1143873
20
208.3903335
40
4.2743275
50
359.7430466
51
9.7326539
0
ARC
8
right_labelLayer
10
231.1770286
20
208.3182259
40
4.2119759
50
340.5268879
51
0.7201475
0
ARC
8
right_labelLayer
10
231.7958725
20
208.1641416
40
3.5776855
50
302.9903673
51
339.5494563
0
ARC
8
right_labelLayer
10
231.1464887
20
208.9892963
40
4.624366
50
303.1868654
51
304.1722496
0
ARC
8
right_labelLayer
10
230.5408212
20
210.0378706
40
5.833818
50
286.2542285
51
302.5280112
0
ARC
8
right_labelLayer
10
229.4390538
20
213.6720043
40
9.6311622
50
276.4939692
51
286.4953741
0
ARC
8
right_labelLayer
10
228.7516098
20
219.4186091
40
15.4186799
50
269.7545094
51
276.6169688
0
ARC
8
right_labelLayer
10
228.6342067
20
214.8990187
40
10.8990689
50
262.5634713
51
270.2698932
0
ARC
8
right_labelLayer
10
228.1003895
20
210.9423848
40
6.9066455
50
251.2101803
51
262.7063966
0
ARC
8
right_labelLayer
10
227.3309815
20
208.6840623
40
4.5208528
50
235.9668
51
251.2228997
0
ARC
8
right_labelLayer
10
226.5154778
20
207.5206589
40
3.1004077
50
208.9036271
51
236.4231366
0
ARC
8
right_labelLayer
10
226.5903455
20
207.4892756
40
3.1514239
50
182.2079988
51
207.7461443
0
ARC
8
right_labelLayer
10
227.5433397
20
207.5844627
40
4.1077931
50
179.9784424
51
183.0225952
0
ARC
8
right_labelLayer
10
226.4095663
20
207.6381933
40
2.9744772
50
138.3916176
51
181.0052632
0
ARC
8
right_labelLayer
10
226.7236751
20
207.3559033
40
3.3967882
50
113.8121464
51
138.3496329
0
ARC
8
right_labelLayer
10
227.3195052
20
206.0692558
40
4.8145367
50
102.2870981
51
114.1172717
0
ARC
8
right_labelLayer
10
227.1322795
20
212.610656
40
2.0189798
50
216.5861412
51
245.4968719
0
ARC
8
right_labelLayer
10
227.4206918
20
212.85542
40
2.3965773
50
215.4649447
51
217.1750729
0
ARC
8
right_labelLayer
10
226.9398878
20
212.5081418
40
1.8034882
50
182.1767168
51
215.3415787
0
ARC
8
right_labelLayer
10
227.3683732
20
212.5541186
40
2.2336077
50
179.9835897
51
182.9377981
0
ARC
8
right_labelLayer
10
227.3592632
20
212.573563
40
2.2245771
50
161.7226059
51
180.4843348
0
ARC
8
right_labelLayer
10
227.1146719
20
212.6403033
40
1.9714397
50
144.4963266
51
161.3350496
0
ARC
8
right_labelLayer
10
227.7666706
20
212.1543766
40
2.7844736
50
132.7259044
51
144.1479414
0
ARC
8
right_labelLayer
10
228.8116245
20
211.0384909
40
4.3132177
50
125.2212515
51
132.8655448
0
ARC
8
right_labelLayer
10
229.8621815
20
209.5796653
40
6.1108944
50
121.2352338
51
125.3794836
0
ARC
8
right_labelLayer
10
227.9998072
20
217.9548806
40
3.4102898
50
215.1640793
51
247.4747846
0
ARC
8
right_labelLayer
10
228.636404
20
218.4686405
40
4.226933
50
212.4714212
51
215.8875677
0
ARC
8
right_labelLayer
10
228.4689954
20
218.3488699
40
4.0214103
50
183.016089
51
212.3123102
0
ARC
8
right_labelLayer
10
229.3513573
20
218.4472259
40
4.9079984
50
179.9759085
51
183.6207304
0
ARC
8
right_labelLayer
10
230.0634981
20
218.4967596
40
5.6203392
50
166.8195797
51
180.4839325
0
ARC
8
right_labelLayer
10
228.1990071
20
218.9675032
40
3.6977758
50
132.3287788
51
167.3340854
0
ARC
8
right_labelLayer
10
228.4484497
20
218.6089491
40
4.1312165
50
106.2188919
51
131.5377589
0
ARC
8
right_labelLayer
10
229.079591
20
216.5653612
40
6.2698547
50
93.6329866
51
106.5408629
0
ARC
8
right_labelLayer
10
229.285629
20
214.2521821
40
8.5916437
50
89.9380281
51
94.0267757
0
ARC
8
right_labelLayer
10
229.3189931
20
215.3873841
40
7.4564755
50
82.5852144
51
90.184964
0
ARC
8
right_labelLayer
10
229.5468253
20
217.1501748
40
5.6790236
50
74.0089021
51
82.5694379
0
ARC
8
right_labelLayer
10
227.2641099
20
207.5828752
40
1.9537437
50
179.220763
51
200.9355571
0
ARC
8
right_labelLayer
10
227.0317728
20
207.5290779
40
1.7178349
50
202.0286951
51
236.1457357
0
ARC
8
right_labelLayer
10
227.3818675
20
207.9735795
40
2.2824132
50
235.0633568
51
238.5042165
0
ARC
8
right_labelLayer
10
227.7890146
20
208.7007886
40
3.1153693
50
239.1066267
51
254.4862802
0
ARC
8
right_labelLayer
10
228.3317723
20
210.5722019
40
5.0638209
50
254.2324004
51
263.4937229
0
ARC
8
right_labelLayer
10
228.6727052
20
213.4598677
40
7.9715286
50
263.4108525
51
270.145732
0
ARC
8
right_labelLayer
10
228.7089752
20
215.481351
40
9.9929989
50
269.9082945
51
270.0000525
0
ARC
8
right_labelLayer
10
228.7556036
20
218.5656585
40
13.0773895
50
269.7957473
51
275.3991147
0
ARC
8
right_labelLayer
10
229.2450537
20
213.5409995
40
8.0289822
50
275.2956859
51
283.351616
0
ARC
8
right_labelLayer
10
230.0424612
20
210.2566415
40
4.6492866
50
283.1370644
51
295.8573063
0
ARC
8
right_labelLayer
10
230.6333104
20
208.9667378
40
3.2309838
50
296.4047814
51
301.800865
0
ARC
8
right_labelLayer
10
230.8649753
20
208.6474163
40
2.8376615
50
301.2230623
51
318.6237981
0
ARC
8
right_labelLayer
10
231.3874698
20
208.164766
40
2.1266234
50
319.0765614
51
1.1406981
0
ARC
8
right_labelLayer
10
230.8818001
20
208.2279522
40
2.6319543
50
359.5461026
51
10.9904768
0
ARC
8
right_labelLayer
10
231.8984315
20
208.4347336
40
1.5945735
50
10.6609012
51
30.9361754
0
ARC
8
right_labelLayer
10
232.2207752
20
208.6136237
40
1.2261833
50
31.5095279
51
58.0778108
0
ARC
8
right_labelLayer
10
231.9186618
20
208.0726784
40
1.8453051
50
58.9972298
51
73.8586162
0
ARC
8
right_labelLayer
10
231.308025
20
206.07363
40
3.9354312
50
73.4100195
51
81.5907059
0
ARC
8
right_labelLayer
10
230.7906324
20
202.7253697
40
7.3233919
50
81.4172659
51
86.5756386
0
ARC
8
right_labelLayer
10
230.4735896
20
197.6809203
40
12.3777811
50
86.5054284
51
90.1399333
0
ARC
8
right_labelLayer
10
228.083507
20
205.5870448
40
4.4717063
50
89.6435267
51
100.020924
0
ARC
8
right_labelLayer
10
227.8024526
20
207.1159571
40
2.9172329
50
99.8102999
51
116.82296
0
ARC
8
right_labelLayer
10
227.5286789
20
207.6933109
40
2.2785208
50
117.230462
51
130.5023111
0
ARC
8
right_labelLayer
10
227.388108
20
207.8739792
40
2.0498732
50
130.7944806
51
169.0413356
0
ARC
8
right_labelLayer
10
228.4232415
20
207.6302015
40
3.1127638
50
168.2580561
51
180.3820464
0
ARC
8
right_labelLayer
10
230.1623223
20
218.4671218
40
3.797199
50
179.5617712
51
191.6529214
0
ARC
8
right_labelLayer
10
228.8420799
20
218.181877
40
2.4465866
50
191.3555115
51
213.3660494
0
ARC
8
right_labelLayer
10
228.5250254
20
217.9988068
40
2.0812159
50
213.9574034
51
227.797148
0
ARC
8
right_labelLayer
10
228.8008706
20
218.3333648
40
2.5144307
50
228.262087
51
254.7341415
0
ARC
8
right_labelLayer
10
229.1532797
20
219.5414243
40
3.7727156
50
254.4016348
51
267.4348936
0
ARC
8
right_labelLayer
10
229.2452194
20
220.7743448
40
5.0086497
50
267.0154239
51
270.032345
0
ARC
8
right_labelLayer
10
229.3053193
20
220.0032655
40
4.2379567
50
269.2256715
51
284.3773246
0
ARC
8
right_labelLayer
10
229.882946
20
217.9908097
40
2.1459336
50
282.7796647
51
346.4828509
0
ARC
8
right_labelLayer
10
228.1559975
20
218.4799806
40
3.9400401
50
345.4362071
51
0.746606
0
ARC
8
right_labelLayer
10
227.9132466
20
218.5911377
40
4.1828843
50
359.1806204
51
15.0431886
0
ARC
8
right_labelLayer
10
229.8085822
20
219.1440288
40
2.2093992
50
13.9535587
51
77.6673898
0
ARC
8
right_labelLayer
10
229.2647883
20
217.1953031
40
4.2308673
50
76.1095055
51
90.702833
0
ARC
8
right_labelLayer
10
229.1833932
20
217.344134
40
4.0818246
50
89.5859474
51
101.3333929
0
ARC
8
right_labelLayer
10
228.8916943
20
218.7354222
40
2.6603721
50
101.0620666
51
121.973898
0
ARC
8
right_labelLayer
10
228.6866829
20
219.1042212
40
2.2390656
50
122.5210589
51
134.996701
0
ARC
8
right_labelLayer
10
228.7710958
20
219.0536424
40
2.3346404
50
135.5839877
51
163.0015864
0
ARC
8
right_labelLayer
10
230.0039753
20
218.6495503
40
3.6318864
50
162.5912222
51
175.7342904
0
ARC
8
right_labelLayer
10
231.4826827
20
218.5038835
40
5.117454
50
175.3393529
51
180.0864226
0
LINE
8
right_labelLayer
10
248.9238281
20
209.7656958
11
246.9785156
21
209.7656958
0
LINE
8
right_labelLayer
10
246.9785156
20
209.7656958
11
246.9785156
21
218.0742896
0
LINE
8
right_labelLayer
10
240.1347656
20
216.4805396
11
240.1347656
21
209.7656958
0
LINE
8
right_labelLayer
10
240.1347656
20
209.7656958
11
238.1894531
21
209.7656958
0
LINE
8
right_labelLayer
10
238.1894531
20
209.7656958
11
238.1894531
21
228.0000708
0
LINE
8
right_labelLayer
10
238.1894531
20
228.0000708
11
240.1347656
21
228.0000708
0
LINE
8
right_labelLayer
10
240.1347656
20
228.0000708
11
240.1347656
21
222.4805396
0
LINE
8
right_labelLayer
10
240.0410156
20
220.8281958
11
240.1582031
21
220.8281958
0
LINE
8
right_labelLayer
10
248.9238281
20
218.1446021
11
248.9238281
21
209.7656958
0
ARC
8
right_labelLayer
10
241.4797181
20
218.1058266
40
5.498888
50
359.6713974
51
8.6877446
0
ARC
8
right_labelLayer
10
243.5177494
20
218.4290475
40
3.4354381
50
8.4931304
51
22.6579834
0
ARC
8
right_labelLayer
10
244.5532196
20
218.8593563
40
2.3141176
50
22.7024411
51
42.341961
0
ARC
8
right_labelLayer
10
244.669611
20
218.911712
40
2.1931832
50
43.3791031
51
71.5386002
0
ARC
8
right_labelLayer
10
244.234363
20
217.6955142
40
3.4847306
50
71.0828127
51
84.3690969
0
ARC
8
right_labelLayer
10
244.0389895
20
216.0343703
40
5.1571246
50
84.0197962
51
90.1510837
0
ARC
8
right_labelLayer
10
243.9834663
20
215.3048295
40
5.8867968
50
89.5919496
51
100.3595207
0
ARC
8
right_labelLayer
10
243.5666282
20
217.495371
40
3.657042
50
100.1067958
51
118.0847296
0
ARC
8
right_labelLayer
10
243.1426661
20
218.327287
40
2.7235476
50
118.4550973
51
139.6706214
0
ARC
8
right_labelLayer
10
243.5682951
20
218.0363618
40
3.2367463
50
140.6208177
51
160.5049039
0
ARC
8
right_labelLayer
10
245.8118155
20
217.2058156
40
5.6289247
50
160.1566893
51
171.5312778
0
ARC
8
right_labelLayer
10
249.4419283
20
216.6306711
40
9.3042205
50
171.32025
51
178.3406652
0
ARC
8
right_labelLayer
10
252.690209
20
216.485565
40
12.5554443
50
178.1079966
51
180.022933
0
ARC
8
right_labelLayer
10
222.6349376
20
222.4596848
40
17.4998404
50
357.8674412
51
0.0682799
0
ARC
8
right_labelLayer
10
228.5799551
20
222.2328808
40
11.5505018
50
354.9828819
51
357.894344
0
ARC
8
right_labelLayer
10
232.5062019
20
221.890997
40
7.6093997
50
351.9712772
51
354.9618778
0
ARC
8
right_labelLayer
10
243.4532328
20
218.7670396
40
3.8865904
50
119.8315871
51
147.972582
0
ARC
8
right_labelLayer
10
243.9238457
20
218.0440955
40
4.7480948
50
116.6658011
51
120.4183294
0
ARC
8
right_labelLayer
10
244.0117323
20
217.8132467
40
4.9938955
50
96.6652526
51
116.3782518
0
ARC
8
right_labelLayer
10
244.2010703
20
216.5069081
40
6.3134861
50
89.8927293
51
96.9958954
0
ARC
8
right_labelLayer
10
244.2616135
20
214.9281246
40
7.8924091
50
80.6862943
51
90.3537108
0
ARC
8
right_labelLayer
10
244.753048
20
217.8186612
40
4.9604745
50
65.6022777
51
80.8844066
0
ARC
8
right_labelLayer
10
245.3431688
20
219.1477435
40
3.5063381
50
46.7400881
51
65.4130757
0
ARC
8
right_labelLayer
10
245.3832776
20
219.2743822
40
3.3871156
50
19.2204257
51
45.7660745
0
ARC
8
right_labelLayer
10
243.4302452
20
218.550376
40
5.4697808
50
6.4733786
51
19.6468111
0
ARC
8
right_labelLayer
10
240.5119109
20
218.1747712
40
8.4119712
50
359.7945112
51
6.774385
0
LINE
8
right_labelLayer
10
258.8261719
20
211.3711646
11
258.8261719
21
209.8828833
0
LINE
8
right_labelLayer
10
253.0605469
20
213.4571021
11
253.0605469
21
221.0977271
0
LINE
8
right_labelLayer
10
253.0605469
20
221.0977271
11
251.2207031
21
221.0977271
0
LINE
8
right_labelLayer
10
251.2207031
20
221.0977271
11
251.2207031
21
222.0352271
0
LINE
8
right_labelLayer
10
251.2207031
20
222.0352271
11
253.0605469
21
222.8438208
0
LINE
8
right_labelLayer
10
253.0605469
20
222.8438208
11
253.8808594
21
225.5860083
0
LINE
8
right_labelLayer
10
253.8808594
20
225.5860083
11
255.0058594
21
225.5860083
0
LINE
8
right_labelLayer
10
255.0058594
20
225.5860083
11
255.0058594
21
222.6094458
0
LINE
8
right_labelLayer
10
255.0058594
20
222.6094458
11
258.7324219
21
222.6094458
0
LINE
8
right_labelLayer
10
258.7324219
20
222.6094458
11
258.7324219
21
221.0977271
0
LINE
8
right_labelLayer
10
258.7324219
20
221.0977271
11
255.0058594
21
221.0977271
0
LINE
8
right_labelLayer
10
255.0058594
20
221.0977271
11
255.0058594
21
213.5391333
0
ARC
8
right_labelLayer
10
257.0817
20
217.5254485
40
6.3886729
50
269.8803567
51
278.3028336
0
ARC
8
right_labelLayer
10
257.1425813
20
217.0280634
40
5.8877209
50
278.4155406
51
279.0081712
0
ARC
8
right_labelLayer
10
256.42561
20
221.6083374
40
10.5237659
50
278.9590101
51
280.5103943
0
ARC
8
right_labelLayer
10
257.1087975
20
217.9425626
40
6.7948739
50
280.4847891
51
282.6267799
0
ARC
8
right_labelLayer
10
257.7079668
20
215.2806066
40
4.0663209
50
282.58766
51
285.5794473
0
ARC
8
right_labelLayer
10
258.007063
20
214.1802958
40
2.9261164
50
285.7245036
51
286.256048
0
ARC
8
right_labelLayer
10
258.0083165
20
211.6126923
40
1.9134071
50
287.9887831
51
295.3048298
0
ARC
8
right_labelLayer
10
257.5468354
20
213.0088662
40
3.3838602
50
283.3068705
51
288.1198548
0
ARC
8
right_labelLayer
10
257.0592587
20
215.0427026
40
5.4753182
50
280.0070318
51
283.3734769
0
ARC
8
right_labelLayer
10
256.7329367
20
216.8137143
40
7.2761039
50
279.186299
51
280.1142077
0
ARC
8
right_labelLayer
10
256.5328467
20
217.951756
40
8.431508
50
275.5260434
51
279.2939448
0
ARC
8
right_labelLayer
10
256.7584887
20
215.594958
40
6.0639347
50
270.8932317
51
275.5483613
0
ARC
8
right_labelLayer
10
256.7868353
20
214.518345
40
4.9870241
50
270.0031482
51
270.7604232
0
ARC
8
right_labelLayer
10
256.7086107
20
214.6115901
40
5.0808757
50
253.7848016
51
270.8852459
0
ARC
8
right_labelLayer
10
256.1066617
20
212.5587134
40
2.9415753
50
190.3817606
51
253.8772428
0
ARC
8
right_labelLayer
10
259.1747797
20
213.3882784
40
6.11462
50
179.3550883
51
192.8477587
0
ARC
8
right_labelLayer
10
258.9230101
20
213.5146351
40
3.9172273
50
179.6416712
51
189.7505711
0
ARC
8
right_labelLayer
10
257.5401411
20
213.2679845
40
2.5125779
50
189.5479422
51
205.7873769
0
ARC
8
right_labelLayer
10
256.9718524
20
213.0059282
40
1.886913
50
206.1294343
51
221.408378
0
ARC
8
right_labelLayer
10
256.9081302
20
212.9575775
40
1.8071497
50
221.5949186
51
262.3505072
0
ARC
8
right_labelLayer
10
257.0596764
20
213.7368863
40
2.6001111
50
261.3266248
51
270.1913377
0
LINE
8
bottom_outsideCutPath
10
297
20
258
11
297
21
132
0
LINE
8
bottom_outsideCutPath
10
297
20
132
11
468
21
132
0
LINE
8
bottom_outsideCutPath
10
468
20
132
11
468
21
258
0
LINE
8
bottom_outsideCutPath
10
468
20
258
11
297
21
258
0
LINE
8
bottom_labelLayer
10
343.0880263
20
187.2852793
11
342.94037
21
187.2852793
0
LINE
8
bottom_labelLayer
10
342.94037
20
187.2852793
11
342.509706
21
185.5503184
0
LINE
8
bottom_labelLayer
10
342.509706
20
185.5503184
11
341.0454481
21
185.5503184
0
LINE
8
bottom_labelLayer
10
341.0454481
20
185.5503184
11
341.0454481
21
204.6964121
0
LINE
8
bottom_labelLayer
10
341.0454481
20
204.6964121
11
343.0880263
21
204.6964121
0
LINE
8
bottom_labelLayer
10
343.0880263
20
204.6964121
11
343.0880263
21
200.0452403
0
LINE
8
bottom_labelLayer
10
342.9895888
20
197.2397715
11
343.0880263
21
197.2397715
0
ARC
8
bottom_labelLayer
10
347.382114
20
193.0152136
40
6.2428274
50
74.239337
51
90.5623847
0
ARC
8
bottom_labelLayer
10
347.7949093
20
194.5295747
40
4.6732968
50
38.5631374
51
74.0670308
0
ARC
8
bottom_labelLayer
10
346.7326006
20
193.7035684
40
6.0188742
50
16.4709233
51
38.4075326
0
ARC
8
bottom_labelLayer
10
343.6722424
20
192.7439283
40
9.2258821
50
5.1338416
51
16.7973435
0
ARC
8
bottom_labelLayer
10
339.8088307
20
192.3335266
40
13.1106706
50
359.8779205
51
5.4093698
0
ARC
8
bottom_labelLayer
10
340.9435691
20
192.2349347
40
11.9761109
50
350.6562866
51
0.338038
0
ARC
8
bottom_labelLayer
10
345.1186408
20
191.5248019
40
7.7411722
50
335.8305874
51
350.8254839
0
ARC
8
bottom_labelLayer
10
346.9551767
20
190.7321254
40
5.741151
50
321.3161431
51
335.5436213
0
ARC
8
bottom_labelLayer
10
347.6572948
20
190.1600051
40
4.8354911
50
274.0640023
51
321.4081046
0
ARC
8
bottom_labelLayer
10
347.3302003
20
192.2319708
40
6.9277524
50
269.9225758
51
275.5481408
0
ARC
8
bottom_labelLayer
10
347.2863936
20
191.4997081
40
6.1955792
50
255.775532
51
270.3185455
0
ARC
8
bottom_labelLayer
10
347.1095845
20
190.7141747
40
5.3907276
50
245.980154
51
255.5455918
0
ARC
8
bottom_labelLayer
10
346.7671351
20
189.9178082
40
4.523942
50
215.5850234
51
245.8361706
0
ARC
8
bottom_labelLayer
10
300.5016406
20
200.009238
40
42.5864009
50
358.1123315
51
0.0484375
0
ARC
8
bottom_labelLayer
10
312.3538742
20
199.6113418
40
30.7274932
50
355.7238801
51
358.1258817
0
ARC
8
bottom_labelLayer
10
317.6084654
20
199.2500576
40
25.4606102
50
355.4714
51
355.6529481
0
ARC
8
bottom_labelLayer
10
346.8973453
20
194.5834306
40
4.6440348
50
95.1835118
51
145.1108965
0
ARC
8
bottom_labelLayer
10
347.30554
20
192.2815978
40
6.9761594
50
89.8743496
51
96.8145544
0
ARC
8
bottom_labelLayer
10
346.9827638
20
191.8077276
40
5.7398204
50
89.5731348
51
100.7324176
0
ARC
8
bottom_labelLayer
10
346.5578581
20
193.9545043
40
3.551513
50
100.4469484
51
119.6700675
0
ARC
8
bottom_labelLayer
10
346.1638395
20
194.6911683
40
2.7164832
50
120.1402813
51
142.4249045
0
ARC
8
bottom_labelLayer
10
346.8157054
20
194.259937
40
3.4965319
50
143.3382244
51
161.2560016
0
ARC
8
bottom_labelLayer
10
349.5417035
20
193.2921173
40
6.3890814
50
160.8926496
51
171.2334323
0
ARC
8
bottom_labelLayer
10
354.0924374
20
192.5579771
40
10.9985877
50
171.0667843
51
177.8456798
0
ARC
8
bottom_labelLayer
10
358.8251856
20
192.31727
40
15.7371638
50
177.6176649
51
180.042518
0
ARC
8
bottom_labelLayer
10
356.5933022
20
192.2528558
40
13.5053789
50
179.7762701
51
185.7075196
0
ARC
8
bottom_labelLayer
10
351.268586
20
191.7042219
40
8.1525143
50
185.5924767
51
194.2050781
0
ARC
8
bottom_labelLayer
10
347.8576634
20
190.8189674
40
4.6286984
50
193.9430385
51
208.021839
0
ARC
8
bottom_labelLayer
10
346.477586
20
190.116884
40
3.0806977
50
208.5536539
51
217.5605416
0
ARC
8
bottom_labelLayer
10
346.3651493
20
190.0701187
40
2.9632271
50
218.1690446
51
253.8047156
0
ARC
8
bottom_labelLayer
10
346.9147726
20
191.7646677
40
4.7441482
50
253.1382567
51
266.8482941
0
ARC
8
bottom_labelLayer
10
347.0688931
20
193.5822046
40
6.5676311
50
266.3775495
51
270.051052
0
ARC
8
bottom_labelLayer
10
347.1183157
20
191.0862064
40
4.0718633
50
269.3868989
51
285.8630583
0
ARC
8
bottom_labelLayer
10
347.4208296
20
189.9928774
40
2.9374924
50
286.0162897
51
326.8497353
0
ARC
8
bottom_labelLayer
10
345.9607362
20
190.9601349
40
4.6888857
50
326.7105148
51
343.6661642
0
ARC
8
bottom_labelLayer
10
343.2275311
20
191.7953102
40
7.5467275
50
343.4171535
51
353.6369111
0
ARC
8
bottom_labelLayer
10
339.0993218
20
192.285152
40
11.7038304
50
353.4934736
51
0.2205379
0
ARC
8
bottom_labelLayer
10
338.7354103
20
192.3790468
40
12.0677539
50
359.7680883
51
6.3095183
0
ARC
8
bottom_labelLayer
10
343.2811039
20
192.9006923
40
7.4922902
50
6.1648571
51
16.0396366
0
ARC
8
bottom_labelLayer
10
346.2093498
20
193.7636447
40
4.4396491
50
15.7779469
51
32.0151341
0
ARC
8
bottom_labelLayer
10
347.1225455
20
194.2866107
40
3.3883407
50
32.7033322
51
35.5242312
0
ARC
8
bottom_labelLayer
10
347.456449
20
194.5239336
40
2.9786909
50
35.5408444
51
79.8011226
0
ARC
8
bottom_labelLayer
10
347.0564406
20
192.8234166
40
4.7240733
50
78.6781351
51
90.3749457
0
ARC
8
bottom_labelLayer
10
357.5775595
20
192.2344637
40
10.5507456
50
349.1761844
51
0.3862638
0
ARC
8
bottom_labelLayer
10
361.1297407
20
191.5263284
40
6.9288384
50
330.250707
51
349.4116449
0
ARC
8
bottom_labelLayer
10
362.2229211
20
190.9581366
40
5.6980056
50
318.1439869
51
329.7566233
0
ARC
8
bottom_labelLayer
10
362.4202304
20
190.8000143
40
5.4455536
50
278.8959143
51
317.9979109
0
ARC
8
bottom_labelLayer
10
361.9118532
20
193.2356838
40
7.9315345
50
269.7502793
51
279.803334
0
ARC
8
bottom_labelLayer
10
361.8294039
20
191.8633446
40
6.5592947
50
253.5436967
51
270.41824
0
ARC
8
bottom_labelLayer
10
361.6110562
20
191.0187237
40
5.6874969
50
238.8115572
51
253.2428422
0
ARC
8
bottom_labelLayer
10
361.5405902
20
190.8770156
40
5.5297942
50
207.7947067
51
238.675796
0
ARC
8
bottom_labelLayer
10
362.5518091
20
191.4963368
40
6.7135692
50
205.6560658
51
208.4461472
0
ARC
8
bottom_labelLayer
10
363.3305935
20
191.8208195
40
7.5561953
50
188.9102401
51
205.317143
0
ARC
8
bottom_labelLayer
10
365.9553615
20
192.2653717
40
10.2181957
50
179.7744758
51
189.0932889
0
ARC
8
bottom_labelLayer
10
366.3425492
20
192.3774251
40
10.6055475
50
169.2442976
51
180.3880774
0
ARC
8
bottom_labelLayer
10
362.7409876
20
193.0893226
40
6.9344566
50
150.7111445
51
169.4695396
0
ARC
8
bottom_labelLayer
10
361.5912488
20
193.6797584
40
5.6430467
50
138.1759338
51
150.2287553
0
ARC
8
bottom_labelLayer
10
361.400009
20
193.8265123
40
5.4027039
50
99.1759345
51
137.9832726
0
ARC
8
bottom_labelLayer
10
361.9263966
20
191.34927
40
7.9331658
50
89.732627
51
100.0759748
0
ARC
8
bottom_labelLayer
10
362.0316045
20
192.4191079
40
6.8635804
50
73.522274
51
90.5692256
0
ARC
8
bottom_labelLayer
10
362.4341122
20
193.8815265
40
5.3471327
50
41.1445685
51
73.2133799
0
ARC
8
bottom_labelLayer
10
361.665758
20
193.2211365
40
6.3602596
50
13.5014326
51
41.0703446
0
ARC
8
bottom_labelLayer
10
358.6972293
20
192.444311
40
9.4283213
50
1.1277143
51
13.8800058
0
ARC
8
bottom_labelLayer
10
356.1399255
20
192.3072866
40
11.9881399
50
359.9919002
51
1.5419342
0
ARC
8
bottom_labelLayer
10
368.1970927
20
192.252511
40
10.3435776
50
179.7059702
51
187.916084
0
ARC
8
bottom_labelLayer
10
364.4033825
20
191.7075468
40
6.5109875
50
187.7639207
51
200.0976951
0
ARC
8
bottom_labelLayer
10
362.3134533
20
190.9417929
40
4.2851884
50
200.0845893
51
216.9131639
0
ARC
8
bottom_labelLayer
10
361.5502838
20
190.396854
40
3.347783
50
217.3009564
51
261.7099047
0
ARC
8
bottom_labelLayer
10
361.9045735
20
192.0874841
40
5.0729554
50
260.5033082
51
270.2476788
0
ARC
8
bottom_labelLayer
10
361.972197
20
191.7587415
40
4.7443854
50
269.4481635
51
284.7255664
0
ARC
8
bottom_labelLayer
10
362.3477825
20
190.365817
40
3.301755
50
284.5662245
51
322.6333856
0
ARC
8
bottom_labelLayer
10
361.4696484
20
191.0002305
40
4.3847961
50
323.0089185
51
342.6390582
0
ARC
8
bottom_labelLayer
10
358.9579947
20
191.8211125
40
7.0270544
50
342.3615658
51
353.7537696
0
ARC
8
bottom_labelLayer
10
355.2524513
20
192.2677703
40
10.7592745
50
353.5362991
51
0.2014096
0
ARC
8
bottom_labelLayer
10
355.8202039
20
192.3576105
40
10.1915879
50
359.7075564
51
7.8972722
0
ARC
8
bottom_labelLayer
10
359.5526428
20
192.8926908
40
6.4210517
50
7.7439888
51
20.0690211
0
ARC
8
bottom_labelLayer
10
361.6325057
20
193.6559224
40
4.205575
50
20.0257074
51
37.4350449
0
ARC
8
bottom_labelLayer
10
362.3225912
20
194.1455966
40
3.3601032
50
37.9577597
51
80.400619
0
ARC
8
bottom_labelLayer
10
361.9304388
20
192.3958446
40
5.1516231
50
79.3453589
51
90.3174802
0
ARC
8
bottom_labelLayer
10
361.8578275
20
192.6864869
40
4.8611015
50
89.4806062
51
103.880506
0
ARC
8
bottom_labelLayer
10
361.4493685
20
194.2418967
40
3.2532084
50
103.4685206
51
142.3118966
0
ARC
8
bottom_labelLayer
10
362.2434416
20
193.6834468
40
4.2232385
50
142.9025657
51
162.3749614
0
ARC
8
bottom_labelLayer
10
364.7455913
20
192.8496138
40
6.8605068
50
162.0653301
51
173.1674728
0
ARC
8
bottom_labelLayer
10
368.6470609
20
192.3520046
40
10.7935096
50
173.0086119
51
180.2463764
0
LINE
8
bottom_labelLayer
10
377.9102919
20
187.2360606
11
377.9102919
21
185.6733653
0
LINE
8
bottom_labelLayer
10
371.8563856
20
189.4262949
11
371.8563856
21
197.4489512
0
LINE
8
bottom_labelLayer
10
371.8563856
20
197.4489512
11
369.9245497
21
197.4489512
0
LINE
8
bottom_labelLayer
10
369.9245497
20
197.4489512
11
369.9245497
21
198.4333262
0
LINE
8
bottom_labelLayer
10
369.9245497
20
198.4333262
11
371.8563856
21
199.2823496
0
LINE
8
bottom_labelLayer
10
371.8563856
20
199.2823496
11
372.7177138
21
202.1616465
0
LINE
8
bottom_labelLayer
10
372.7177138
20
202.1616465
11
373.8989638
21
202.1616465
0
LINE
8
bottom_labelLayer
10
373.8989638
20
202.1616465
11
373.8989638
21
199.0362559
0
LINE
8
bottom_labelLayer
10
373.8989638
20
199.0362559
11
377.8118544
21
199.0362559
0
LINE
8
bottom_labelLayer
10
377.8118544
20
199.0362559
11
377.8118544
21
197.4489512
0
LINE
8
bottom_labelLayer
10
377.8118544
20
197.4489512
11
373.8989638
21
197.4489512
0
LINE
8
bottom_labelLayer
10
373.8989638
20
197.4489512
11
373.8989638
21
189.5124278
0
ARC
8
bottom_labelLayer
10
376.0785978
20
193.6980394
40
6.7080872
50
269.8803443
51
278.3028456
0
ARC
8
bottom_labelLayer
10
376.142462
20
193.1763406
40
6.1826462
50
278.4153612
51
279.0079401
0
ARC
8
bottom_labelLayer
10
375.3897639
20
197.98468
40
11.0495375
50
278.9590253
51
280.5104681
0
ARC
8
bottom_labelLayer
10
376.1071492
20
194.1355394
40
7.1341183
50
280.4847105
51
282.6268512
0
ARC
8
bottom_labelLayer
10
376.7361154
20
191.3412099
40
4.2698798
50
282.5877737
51
285.5793908
0
ARC
8
bottom_labelLayer
10
377.0515247
20
190.1810868
40
3.0676798
50
285.7242748
51
286.256641
0
ARC
8
bottom_labelLayer
10
377.0515495
20
187.489651
40
2.0090626
50
287.9887475
51
295.3048483
0
ARC
8
bottom_labelLayer
10
376.5669819
20
188.9556727
40
3.5530795
50
283.3068811
51
288.1198298
0
ARC
8
bottom_labelLayer
10
376.0550643
20
191.0910366
40
5.7489417
50
280.0069655
51
283.3734939
0
ARC
8
bottom_labelLayer
10
375.7120739
20
192.9525864
40
7.6417853
50
279.186462
51
280.1141429
0
ARC
8
bottom_labelLayer
10
375.5023037
20
194.1456615
40
8.8530631
50
275.5260351
51
279.2939451
0
ARC
8
bottom_labelLayer
10
375.7392265
20
191.6709758
40
6.3670636
50
270.893224
51
275.5484033
0
ARC
8
bottom_labelLayer
10
375.7689733
20
190.5401739
40
5.2359495
50
270.0033158
51
270.7606523
0
ARC
8
bottom_labelLayer
10
375.6868514
20
190.6384996
40
5.3349117
50
253.784791
51
270.8852605
0
ARC
8
bottom_labelLayer
10
375.0548068
20
188.4829875
40
3.0886549
50
190.3817712
51
253.8772368
0
ARC
8
bottom_labelLayer
10
378.2763302
20
189.3540309
40
6.4203514
50
179.3550959
51
192.8477659
0
ARC
8
bottom_labelLayer
10
378.0119659
20
189.4867046
40
4.1130826
50
179.6416709
51
189.7505856
0
ARC
8
bottom_labelLayer
10
376.559966
20
189.227724
40
2.6382135
50
189.5479731
51
205.7873654
0
ARC
8
bottom_labelLayer
10
375.9632509
20
188.9525596
40
1.9812524
50
206.1294334
51
221.4084249
0
ARC
8
bottom_labelLayer
10
375.896348
20
188.901794
40
1.897507
50
221.5949174
51
262.3505106
0
ARC
8
bottom_labelLayer
10
376.0554728
20
189.7200678
40
2.7301162
50
261.3265978
51
270.1913125
0
LINE
8
bottom_labelLayer
10
386.806581
20
187.2360606
11
386.806581
21
185.6733653
0
LINE
8
bottom_labelLayer
10
380.7526747
20
189.4262949
11
380.7526747
21
197.4489512
0
LINE
8
bottom_labelLayer
10
380.7526747
20
197.4489512
11
378.8208388
21
197.4489512
0
LINE
8
bottom_labelLayer
10
378.8208388
20
197.4489512
11
378.8208388
21
198.4333262
0
LINE
8
bottom_labelLayer
10
378.8208388
20
198.4333262
11
380.7526747
21
199.2823496
0
LINE
8
bottom_labelLayer
10
380.7526747
20
199.2823496
11
381.6140028
21
202.1616465
0
LINE
8
bottom_labelLayer
10
381.6140028
20
202.1616465
11
382.7952528
21
202.1616465
0
LINE
8
bottom_labelLayer
10
382.7952528
20
202.1616465
11
382.7952528
21
199.0362559
0
LINE
8
bottom_labelLayer
10
382.7952528
20
199.0362559
11
386.7081435
21
199.0362559
0
LINE
8
bottom_labelLayer
10
386.7081435
20
199.0362559
11
386.7081435
21
197.4489512
0
LINE
8
bottom_labelLayer
10
386.7081435
20
197.4489512
11
382.7952528
21
197.4489512
0
LINE
8
bottom_labelLayer
10
382.7952528
20
197.4489512
11
382.7952528
21
189.5124278
0
ARC
8
bottom_labelLayer
10
384.9748869
20
193.6980394
40
6.7080872
50
269.8803443
51
278.3028456
0
ARC
8
bottom_labelLayer
10
385.0387511
20
193.1763406
40
6.1826462
50
278.4153612
51
279.0079401
0
ARC
8
bottom_labelLayer
10
384.2860529
20
197.98468
40
11.0495375
50
278.9590253
51
280.5104681
0
ARC
8
bottom_labelLayer
10
385.0034383
20
194.1355394
40
7.1341183
50
280.4847105
51
282.6268512
0
ARC
8
bottom_labelLayer
10
385.6324044
20
191.3412099
40
4.2698798
50
282.5877737
51
285.5793908
0
ARC
8
bottom_labelLayer
10
385.9478137
20
190.1810868
40
3.0676798
50
285.7242748
51
286.256641
0
ARC
8
bottom_labelLayer
10
385.9478386
20
187.489651
40
2.0090626
50
287.9887475
51
295.3048483
0
ARC
8
bottom_labelLayer
10
385.463271
20
188.9556727
40
3.5530795
50
283.3068811
51
288.1198298
0
ARC
8
bottom_labelLayer
10
384.9513534
20
191.0910366
40
5.7489417
50
280.0069655
51
283.3734939
0
ARC
8
bottom_labelLayer
10
384.608363
20
192.9525864
40
7.6417853
50
279.186462
51
280.1141429
0
ARC
8
bottom_labelLayer
10
384.3985928
20
194.1456615
40
8.8530631
50
275.5260351
51
279.2939451
0
ARC
8
bottom_labelLayer
10
384.6355156
20
191.6709758
40
6.3670636
50
270.893224
51
275.5484033
0
ARC
8
bottom_labelLayer
10
384.6652623
20
190.5401739
40
5.2359495
50
270.0033158
51
270.7606523
0
ARC
8
bottom_labelLayer
10
384.5831404
20
190.6384996
40
5.3349117
50
253.784791
51
270.8852605
0
ARC
8
bottom_labelLayer
10
383.9510958
20
188.4829875
40
3.0886549
50
190.3817712
51
253.8772368
0
ARC
8
bottom_labelLayer
10
387.1726193
20
189.3540309
40
6.4203514
50
179.3550959
51
192.8477659
0
ARC
8
bottom_labelLayer
10
386.908255
20
189.4867046
40
4.1130826
50
179.6416709
51
189.7505856
0
ARC
8
bottom_labelLayer
10
385.4562551
20
189.227724
40
2.6382135
50
189.5479731
51
205.7873654
0
ARC
8
bottom_labelLayer
10
384.8595399
20
188.9525596
40
1.9812524
50
206.1294334
51
221.4084249
0
ARC
8
bottom_labelLayer
10
384.792637
20
188.901794
40
1.897507
50
221.5949174
51
262.3505106
0
ARC
8
bottom_labelLayer
10
384.9517619
20
189.7200678
40
2.7301162
50
261.3265978
51
270.1913125
0
ARC
8
bottom_labelLayer
10
390.5910361
20
192.2344637
40
10.5507456
50
349.1761844
51
0.3862638
0
ARC
8
bottom_labelLayer
10
394.1432173
20
191.5263284
40
6.9288384
50
330.250707
51
349.4116449
0
ARC
8
bottom_labelLayer
10
395.2363977
20
190.9581366
40
5.6980056
50
318.1439869
51
329.7566233
0
ARC
8
bottom_labelLayer
10
395.4337069
20
190.8000143
40
5.4455536
50
278.8959143
51
317.9979109
0
ARC
8
bottom_labelLayer
10
394.9253297
20
193.2356838
40
7.9315345
50
269.7502793
51
279.803334
0
ARC
8
bottom_labelLayer
10
394.8428804
20
191.8633446
40
6.5592947
50
253.5436967
51
270.41824
0
ARC
8
bottom_labelLayer
10
394.6245328
20
191.0187237
40
5.6874969
50
238.8115572
51
253.2428422
0
ARC
8
bottom_labelLayer
10
394.5540668
20
190.8770156
40
5.5297942
50
207.7947067
51
238.675796
0
ARC
8
bottom_labelLayer
10
395.5652856
20
191.4963368
40
6.7135692
50
205.6560658
51
208.4461472
0
ARC
8
bottom_labelLayer
10
396.34407
20
191.8208195
40
7.5561953
50
188.9102401
51
205.317143
0
ARC
8
bottom_labelLayer
10
398.968838
20
192.2653717
40
10.2181957
50
179.7744758
51
189.0932889
0
ARC
8
bottom_labelLayer
10
399.3560258
20
192.3774251
40
10.6055475
50
169.2442976
51
180.3880774
0
ARC
8
bottom_labelLayer
10
395.7544641
20
193.0893226
40
6.9344566
50
150.7111445
51
169.4695396
0
ARC
8
bottom_labelLayer
10
394.6047253
20
193.6797584
40
5.6430467
50
138.1759338
51
150.2287553
0
ARC
8
bottom_labelLayer
10
394.4134855
20
193.8265123
40
5.4027039
50
99.1759345
51
137.9832726
0
ARC
8
bottom_labelLayer
10
394.9398732
20
191.34927
40
7.9331658
50
89.732627
51
100.0759748
0
ARC
8
bottom_labelLayer
10
395.0450811
20
192.4191079
40
6.8635804
50
73.522274
51
90.5692256
0
ARC
8
bottom_labelLayer
10
395.4475888
20
193.8815265
40
5.3471327
50
41.1445685
51
73.2133799
0
ARC
8
bottom_labelLayer
10
394.6792345
20
193.2211365
40
6.3602596
50
13.5014326
51
41.0703446
0
ARC
8
bottom_labelLayer
10
391.7107058
20
192.444311
40
9.4283213
50
1.1277143
51
13.8800058
0
ARC
8
bottom_labelLayer
10
389.153402
20
192.3072866
40
11.9881399
50
359.9919002
51
1.5419342
0
ARC
8
bottom_labelLayer
10
401.2105692
20
192.252511
40
10.3435776
50
179.7059702
51
187.916084
0
ARC
8
bottom_labelLayer
10
397.416859
20
191.7075468
40
6.5109875
50
187.7639207
51
200.0976951
0
ARC
8
bottom_labelLayer
10
395.3269298
20
190.9417929
40
4.2851884
50
200.0845893
51
216.9131639
0
ARC
8
bottom_labelLayer
10
394.5637603
20
190.396854
40
3.347783
50
217.3009564
51
261.7099047
0
ARC
8
bottom_labelLayer
10
394.91805
20
192.0874841
40
5.0729554
50
260.5033082
51
270.2476788
0
ARC
8
bottom_labelLayer
10
394.9856736
20
191.7587415
40
4.7443854
50
269.4481635
51
284.7255664
0
ARC
8
bottom_labelLayer
10
395.3612591
20
190.365817
40
3.301755
50
284.5662245
51
322.6333856
0
ARC
8
bottom_labelLayer
10
394.483125
20
191.0002305
40
4.3847961
50
323.0089185
51
342.6390582
0
ARC
8
bottom_labelLayer
10
391.9714713
20
191.8211125
40
7.0270544
50
342.3615658
51
353.7537696
0
ARC
8
bottom_labelLayer
10
388.2659278
20
192.2677703
40
10.7592745
50
353.5362991
51
0.2014096
0
ARC
8
bottom_labelLayer
10
388.8336805
20
192.3576105
40
10.1915879
50
359.7075564
51
7.8972722
0
ARC
8
bottom_labelLayer
10
392.5661194
20
192.8926908
40
6.4210517
50
7.7439888
51
20.0690211
0
ARC
8
bottom_labelLayer
10
394.6459823
20
193.6559224
40
4.205575
50
20.0257074
51
37.4350449
0
ARC
8
bottom_labelLayer
10
395.3360677
20
194.1455966
40
3.3601032
50
37.9577597
51
80.400619
0
ARC
8
bottom_labelLayer
10
394.9439154
20
192.3958446
40
5.1516231
50
79.3453589
51
90.3174802
0
ARC
8
bottom_labelLayer
10
394.8713041
20
192.6864869
40
4.8611015
50
89.4806062
51
103.880506
0
ARC
8
bottom_labelLayer
10
394.462845
20
194.2418967
40
3.2532084
50
103.4685206
51
142.3118966
0
ARC
8
bottom_labelLayer
10
395.2569181
20
193.6834468
40
4.2232385
50
142.9025657
51
162.3749614
0
ARC
8
bottom_labelLayer
10
397.7590679
20
192.8496138
40
6.8605068
50
162.0653301
51
173.1674728
0
ARC
8
bottom_labelLayer
10
401.6605375
20
192.3520046
40
10.7935096
50
173.0086119
51
180.2463764
0
LINE
8
bottom_labelLayer
10
423.9544325
20
185.5503184
11
421.9118544
21
185.5503184
0
LINE
8
bottom_labelLayer
10
421.9118544
20
185.5503184
11
421.9118544
21
194.3235606
0
LINE
8
bottom_labelLayer
10
415.353456
20
193.0807871
11
415.353456
21
185.5503184
0
LINE
8
bottom_labelLayer
10
415.353456
20
185.5503184
11
413.3108778
21
185.5503184
0
LINE
8
bottom_labelLayer
10
413.3108778
20
185.5503184
11
413.3108778
21
194.3235606
0
LINE
8
bottom_labelLayer
10
406.7647841
20
192.6255137
11
406.7647841
21
185.5503184
0
LINE
8
bottom_labelLayer
10
406.7647841
20
185.5503184
11
404.722206
21
185.5503184
0
LINE
8
bottom_labelLayer
10
404.722206
20
185.5503184
11
404.722206
21
199.0362559
0
LINE
8
bottom_labelLayer
10
404.722206
20
199.0362559
11
406.3833388
21
199.0362559
0
LINE
8
bottom_labelLayer
10
406.3833388
20
199.0362559
11
406.7155653
21
197.1905528
0
LINE
8
bottom_labelLayer
10
406.7155653
20
197.1905528
11
406.8140028
21
197.1905528
0
LINE
8
bottom_labelLayer
10
414.9350966
20
196.9936778
11
415.0335341
21
196.9936778
0
LINE
8
bottom_labelLayer
10
423.9544325
20
194.3481699
11
423.9544325
21
185.5503184
0
ARC
8
bottom_labelLayer
10
415.8861789
20
194.3556549
40
6.025761
50
359.6948306
51
8.1471567
0
ARC
8
bottom_labelLayer
10
418.1056512
20
194.6841126
40
3.7821562
50
7.9864576
51
20.7949533
0
ARC
8
bottom_labelLayer
10
419.3325182
20
195.1540795
40
2.4683641
50
20.707123
51
40.0217691
0
ARC
8
bottom_labelLayer
10
419.6016635
20
195.3301774
40
2.1493478
50
41.0408186
51
73.1792546
0
ARC
8
bottom_labelLayer
10
419.2122116
20
194.152271
40
3.3897065
50
72.6395628
51
86.2568137
0
ARC
8
bottom_labelLayer
10
419.0874472
20
192.8060063
40
4.7413859
50
85.8144313
51
90.0685288
0
ARC
8
bottom_labelLayer
10
419.0416112
20
192.2916556
40
5.2558866
50
89.5621463
51
101.2961559
0
ARC
8
bottom_labelLayer
10
418.6457534
20
194.1867673
40
3.31999
50
101.0032198
51
121.784049
0
ARC
8
bottom_labelLayer
10
418.344805
20
194.7240455
40
2.7049034
50
122.3597213
51
140.2884162
0
ARC
8
bottom_labelLayer
10
418.8862443
20
194.3270426
40
3.3753145
50
140.9765231
51
161.1699419
0
ARC
8
bottom_labelLayer
10
420.9259754
20
193.60115
40
5.5402442
50
160.8731882
51
172.5272389
0
ARC
8
bottom_labelLayer
10
424.3342787
20
193.1304379
40
8.9808492
50
172.3776459
51
180.1829644
0
ARC
8
bottom_labelLayer
10
426.5600234
20
193.0809065
40
11.2065675
50
179.8933868
51
180.00061
0
ARC
8
bottom_labelLayer
10
407.2852023
20
194.3556549
40
6.025761
50
359.6948306
51
8.1471567
0
ARC
8
bottom_labelLayer
10
409.5046747
20
194.6841126
40
3.7821562
50
7.9864576
51
20.7949533
0
ARC
8
bottom_labelLayer
10
410.7315416
20
195.1540795
40
2.4683641
50
20.707123
51
40.0217691
0
ARC
8
bottom_labelLayer
10
411.0062841
20
195.3340457
40
2.1425864
50
41.0610708
51
72.8993576
0
ARC
8
bottom_labelLayer
10
410.6094525
20
194.1526359
40
3.3886046
50
72.3600966
51
85.9561722
0
ARC
8
bottom_labelLayer
10
410.4751168
20
192.7642375
40
4.7831558
50
85.5238331
51
90.0793199
0
ARC
8
bottom_labelLayer
10
410.4293001
20
192.4743617
40
5.0731784
50
89.5573333
51
101.4832232
0
ARC
8
bottom_labelLayer
10
410.0399162
20
194.2987101
40
3.207882
50
101.1546429
51
123.06556
0
ARC
8
bottom_labelLayer
10
409.7752325
20
194.7597772
40
2.6772403
50
123.702043
51
142.3022076
0
ARC
8
bottom_labelLayer
10
410.395238
20
194.339158
40
3.4253382
50
143.0769863
51
161.3913775
0
ARC
8
bottom_labelLayer
10
412.8944333
20
193.4565008
40
6.0756594
50
161.0234558
51
171.4469019
0
ARC
8
bottom_labelLayer
10
417.0317961
20
192.8083979
40
10.2634299
50
171.3042019
51
178.3501546
0
ARC
8
bottom_labelLayer
10
420.9859885
20
192.6317981
40
14.2212058
50
178.0976205
51
180.0253191
0
ARC
8
bottom_labelLayer
10
410.2744068
20
195.1556642
40
4.0143701
50
117.1209569
51
149.5423669
0
ARC
8
bottom_labelLayer
10
410.6841074
20
194.4274732
40
4.8493743
50
93.8343315
51
117.5072144
0
ARC
8
bottom_labelLayer
10
410.7972634
20
193.4251817
40
5.8571688
50
89.9661714
51
94.2831195
0
ARC
8
bottom_labelLayer
10
410.8650668
20
192.5952419
40
6.6874173
50
77.5572309
51
90.5512993
0
ARC
8
bottom_labelLayer
10
411.4855863
20
195.2642132
40
3.9475564
50
52.702699
51
78.0053843
0
ARC
8
bottom_labelLayer
10
411.7066662
20
195.6755363
40
3.4871565
50
22.209788
51
51.4970681
0
ARC
8
bottom_labelLayer
10
418.733754
20
194.873073
40
4.2648086
50
119.4041769
51
150.1828768
0
ARC
8
bottom_labelLayer
10
419.2067057
20
194.1538771
40
5.1238989
50
118.2584281
51
120.063077
0
ARC
8
bottom_labelLayer
10
419.2053948
20
194.1012176
40
5.1697275
50
95.8635191
51
117.9693145
0
ARC
8
bottom_labelLayer
10
419.3803564
20
192.8361394
40
6.4462166
50
89.9196758
51
96.2617781
0
ARC
8
bottom_labelLayer
10
419.4365288
20
192.1823939
40
7.1001122
50
79.9360992
51
90.380371
0
ARC
8
bottom_labelLayer
10
419.9096174
20
194.7445931
40
4.4947022
50
62.9723395
51
80.1664999
0
ARC
8
bottom_labelLayer
10
420.4041734
20
195.7592342
40
3.366199
50
44.2290036
51
62.622905
0
ARC
8
bottom_labelLayer
10
420.257081
20
195.6942544
40
3.5173709
50
19.5612116
51
43.3161204
0
ARC
8
bottom_labelLayer
10
418.12082
20
194.8918743
40
5.7991276
50
7.5041952
51
19.9645251
0
ARC
8
bottom_labelLayer
10
414.5858872
20
194.3954669
40
9.3686646
50
359.7107456
51
7.6907111
0
ENDSEC
0
EOF