0
SECTION
2
HEADER
9
$INSUNITS
70
4
0
ENDSEC
0
SECTION
2
TABLES
0
TABLE
2
LTYPE
0
LTYPE
72
65
70
64
2
CONTINUOUS
3
______
73
0
40
0
0
ENDTAB
0
TABLE
2
LAYER
0
ENDTAB
0
ENDSEC
0
SECTION
2
ENTITIES
0
LINE
8
front_outsideCutPath
10
0
20
160
11
0
21
3
0
LINE
8
front_outsideCutPath
10
0
20
3
11
140
21
3
0
LINE
8
front_outsideCutPath
10
140
20
3
11
140
21
160
0
LINE
8
front_outsideCutPath
10
140
20
160
11
0
21
160
0
LINE
8
front_labelLayer
10
46.8056641
20
85.9094762
11
46.8056641
21
84.1458043
0
LINE
8
front_labelLayer
10
46.8056641
20
84.1458043
11
42.9912109
21
84.1458043
0
LINE
8
front_labelLayer
10
42.9912109
20
84.1458043
11
42.9912109
21
70.9251012
0
LINE
8
front_labelLayer
10
42.9912109
20
70.9251012
11
40.7216797
21
70.9251012
0
LINE
8
front_labelLayer
10
40.7216797
20
70.9251012
11
40.7216797
21
84.1458043
0
LINE
8
front_labelLayer
10
40.7216797
20
84.1458043
11
38.0419922
21
84.1458043
0
LINE
8
front_labelLayer
10
38.0419922
20
84.1458043
11
38.0419922
21
85.1711949
0
LINE
8
front_labelLayer
10
38.0419922
20
85.1711949
11
40.7216797
21
85.9915074
0
LINE
8
front_labelLayer
10
40.7216797
20
85.9915074
11
40.7216797
21
86.8254918
0
LINE
8
front_labelLayer
10
48.3369141
20
91.8704137
11
47.7490234
21
90.0520543
0
LINE
8
front_labelLayer
10
42.9912109
20
86.8801793
11
42.9912109
21
85.9094762
0
LINE
8
front_labelLayer
10
42.9912109
20
85.9094762
11
46.8056641
21
85.9094762
0
ARC
8
front_labelLayer
10
49.9192981
20
86.9312331
40
9.1982263
50
167.5776038
51
180.6586777
0
ARC
8
front_labelLayer
10
45.593988
20
87.9396439
40
4.7575631
50
141.7433765
51
168.2322087
0
ARC
8
front_labelLayer
10
44.8897416
20
88.3072087
40
3.9796983
50
98.2551447
51
139.620338
0
ARC
8
front_labelLayer
10
45.5080817
20
85.4507174
40
6.8983264
50
89.6696798
51
99.9314341
0
ARC
8
front_labelLayer
10
45.509809
20
85.0406358
40
7.3083925
50
81.5640763
51
89.7017556
0
ARC
8
front_labelLayer
10
44.9960162
20
81.4561109
40
10.9295241
50
75.9739871
51
81.6564857
0
ARC
8
front_labelLayer
10
44.1142873
20
77.7989037
40
14.691425
50
73.2963714
51
76.0946075
0
ARC
8
front_labelLayer
10
44.336337
20
79.5729534
40
11.0207978
50
71.9613338
51
76.5918198
0
ARC
8
front_labelLayer
10
45.1913529
20
83.2000089
40
7.2943448
50
76.5183323
51
83.0216956
0
ARC
8
front_labelLayer
10
45.4891779
20
85.5950759
40
4.8808382
50
83.0760914
51
89.7927139
0
ARC
8
front_labelLayer
10
45.4793741
20
87.415293
40
3.0607126
50
89.4859144
51
103.4197268
0
ARC
8
front_labelLayer
10
45.2034294
20
88.4754474
40
1.9655898
50
102.7677364
51
144.3380323
0
ARC
8
front_labelLayer
10
45.7593487
20
88.1177649
40
2.6260012
50
145.0688791
51
162.1801608
0
ARC
8
front_labelLayer
10
47.6653648
20
87.4764837
40
4.6369012
50
161.8437389
51
171.7847195
0
ARC
8
front_labelLayer
10
50.7741762
20
87.0095478
40
7.780553
50
171.6527775
51
178.4383458
0
ARC
8
front_labelLayer
10
53.7069252
20
86.8845063
40
10.7157151
50
178.1973611
51
180.0231364
0
LINE
8
front_labelLayer
10
58.1669922
20
86.0188512
11
57.8525391
21
83.9133824
0
LINE
8
front_labelLayer
10
51.8095703
20
78.9641637
11
51.8095703
21
70.9251012
0
LINE
8
front_labelLayer
10
51.8095703
20
70.9251012
11
49.5400391
21
70.9251012
0
LINE
8
front_labelLayer
10
49.5400391
20
70.9251012
11
49.5400391
21
85.9094762
0
LINE
8
front_labelLayer
10
49.5400391
20
85.9094762
11
51.4130859
21
85.9094762
0
LINE
8
front_labelLayer
10
51.4130859
20
85.9094762
11
51.6728516
21
83.1340855
0
LINE
8
front_labelLayer
10
51.6728516
20
83.1340855
11
51.7822266
21
83.1340855
0
ARC
8
front_labelLayer
10
56.3992715
20
75.7639051
40
10.4190346
50
84.9922783
51
90.1281027
0
ARC
8
front_labelLayer
10
56.6494929
20
78.5673111
40
7.604489
50
78.4891735
51
85.0266121
0
ARC
8
front_labelLayer
10
55.6783083
20
74.1501248
40
10.0024236
50
77.4453695
51
81.6360275
0
ARC
8
front_labelLayer
10
56.1141078
20
77.1540666
40
6.9670423
50
81.5883968
51
87.1916843
0
ARC
8
front_labelLayer
10
56.208749
20
78.7952242
40
5.3232374
50
87.3436561
51
89.9659332
0
ARC
8
front_labelLayer
10
56.1867625
20
80.1861154
40
3.9324256
50
89.633537
51
137.0880815
0
ARC
8
front_labelLayer
10
57.1517339
20
79.1009547
40
5.3797926
50
135.6208596
51
138.8377724
0
ARC
8
front_labelLayer
10
57.0104371
20
79.2388809
40
5.1826467
50
138.9575796
51
174.5422219
0
ARC
8
front_labelLayer
10
58.6983337
20
78.9747771
40
6.8887715
50
173.6907767
51
180.0882748
0
ARC
8
front_labelLayer
10
58.459666
20
79.3720467
40
7.6642765
50
139.4139242
51
150.6032882
0
ARC
8
front_labelLayer
10
57.0854526
20
80.5496063
40
5.8545503
50
124.2321316
51
139.4161203
0
ARC
8
front_labelLayer
10
56.350682
20
81.6587422
40
4.5242422
50
89.6796641
51
124.4405648
0
ARC
8
front_labelLayer
10
62.1805195
20
78.3519302
40
11.7230672
50
349.1761954
51
0.386259
0
ARC
8
front_labelLayer
10
66.1274058
20
77.5651112
40
7.6987074
50
330.2507077
51
349.4116506
0
ARC
8
front_labelLayer
10
67.3420399
20
76.933796
40
6.3311292
50
318.1439881
51
329.7566026
0
ARC
8
front_labelLayer
10
67.561281
20
76.7580974
40
6.0506161
50
278.8959179
51
317.9979085
0
ARC
8
front_labelLayer
10
66.9964179
20
79.4644028
40
8.8128228
50
269.7502795
51
279.8033265
0
ARC
8
front_labelLayer
10
66.9048067
20
77.9395714
40
7.2881019
50
253.5436958
51
270.418247
0
ARC
8
front_labelLayer
10
66.6622018
20
77.0011127
40
6.3194472
50
238.8115621
51
253.2428329
0
ARC
8
front_labelLayer
10
66.5839029
20
76.8436527
40
6.1442148
50
207.794702
51
238.6757962
0
ARC
8
front_labelLayer
10
67.7073076
20
77.5316943
40
7.4593249
50
205.655988
51
208.4461428
0
ARC
8
front_labelLayer
10
68.5727896
20
77.8923232
40
8.3957662
50
188.9102375
51
205.3171532
0
ARC
8
front_labelLayer
10
71.4892018
20
78.3862714
40
11.3535477
50
179.7744751
51
189.0932908
0
ARC
8
front_labelLayer
10
71.9194132
20
78.5107752
40
11.7839413
50
169.2442972
51
180.3880773
0
ARC
8
front_labelLayer
10
67.9176798
20
79.3017725
40
7.7049532
50
150.7111499
51
169.4695418
0
ARC
8
front_labelLayer
10
66.6402044
20
79.9578023
40
6.2700687
50
138.1759491
51
150.2287381
0
ARC
8
front_labelLayer
10
66.4277021
20
80.1208723
40
6.0030043
50
99.1759349
51
137.9832732
0
ARC
8
front_labelLayer
10
67.0125774
20
77.3683844
40
8.8146251
50
89.7326277
51
100.0759798
0
ARC
8
front_labelLayer
10
67.1294748
20
78.5570902
40
7.6261999
50
73.5222717
51
90.5692247
0
ARC
8
front_labelLayer
10
67.5767063
20
80.1819999
40
5.9412575
50
41.1445664
51
73.2133832
0
ARC
8
front_labelLayer
10
66.7229774
20
79.4482313
40
7.0669569
50
13.5014383
51
41.0703436
0
ARC
8
front_labelLayer
10
63.4246159
20
78.5850929
40
10.4759103
50
1.1277151
51
13.8800093
0
ARC
8
front_labelLayer
10
60.5834062
20
78.4328436
40
13.3199142
50
359.9919002
51
1.5419622
0
ARC
8
front_labelLayer
10
73.9799983
20
78.3719792
40
11.492845
50
179.7059563
51
187.9160838
0
ARC
8
front_labelLayer
10
69.7648007
20
77.7664696
40
7.2344478
50
187.7639307
51
200.0976758
0
ARC
8
front_labelLayer
10
67.4426376
20
76.9156269
40
4.7613175
50
200.0845836
51
216.9131688
0
ARC
8
front_labelLayer
10
66.5946735
20
76.3101401
40
3.7197581
50
217.3009551
51
261.709913
0
ARC
8
front_labelLayer
10
66.9883283
20
78.1886236
40
5.6366218
50
260.5033275
51
270.2476897
0
ARC
8
front_labelLayer
10
67.0634666
20
77.8233452
40
5.2715354
50
269.4481636
51
284.7255776
0
ARC
8
front_labelLayer
10
67.4807834
20
76.2756555
40
3.6686172
50
284.5662293
51
322.6333848
0
ARC
8
front_labelLayer
10
66.5050768
20
76.9805605
40
4.8719985
50
323.0089226
51
342.6390508
0
ARC
8
front_labelLayer
10
63.7143478
20
77.8926523
40
7.8078438
50
342.3615629
51
353.7537587
0
ARC
8
front_labelLayer
10
59.5971129
20
78.3889331
40
11.9547188
50
353.5362991
51
0.2014266
0
ARC
8
front_labelLayer
10
60.2279062
20
78.4887563
40
11.3239991
50
359.7075708
51
7.8972774
0
ARC
8
front_labelLayer
10
64.3750646
20
79.0832912
40
7.1345105
50
7.7439913
51
20.0690089
0
ARC
8
front_labelLayer
10
66.6860328
20
79.931328
40
4.6728603
50
20.0257095
51
37.4350503
0
ARC
8
front_labelLayer
10
67.4527937
20
80.4754104
40
3.7334477
50
37.9577602
51
80.4006223
0
ARC
8
front_labelLayer
10
67.0170687
20
78.5312573
40
5.72401
50
79.3453302
51
90.317482
0
ARC
8
front_labelLayer
10
66.9363893
20
78.8541788
40
5.4012224
50
89.4806051
51
103.8805089
0
ARC
8
front_labelLayer
10
66.4825465
20
80.5824093
40
3.6146772
50
103.4685235
51
142.3118872
0
ARC
8
front_labelLayer
10
67.3648498
20
79.9619103
40
4.6924876
50
142.9025665
51
162.3749605
0
ARC
8
front_labelLayer
10
70.1449898
20
79.0354355
40
7.6227587
50
162.0653131
51
173.1674945
0
ARC
8
front_labelLayer
10
74.4799566
20
78.4825334
40
11.9927628
50
173.0086118
51
180.2463918
0
LINE
8
front_labelLayer
10
90.4052734
20
70.9251012
11
88.1357422
21
70.9251012
0
LINE
8
front_labelLayer
10
88.1357422
20
70.9251012
11
88.1357422
21
80.6184605
0
LINE
8
front_labelLayer
10
80.1513672
20
78.7864293
11
80.1513672
21
70.9251012
0
LINE
8
front_labelLayer
10
80.1513672
20
70.9251012
11
77.8818359
21
70.9251012
0
LINE
8
front_labelLayer
10
77.8818359
20
70.9251012
11
77.8818359
21
85.9094762
0
LINE
8
front_labelLayer
10
77.8818359
20
85.9094762
11
79.7275391
21
85.9094762
0
LINE
8
front_labelLayer
10
79.7275391
20
85.9094762
11
80.0966797
21
83.8586949
0
LINE
8
front_labelLayer
10
80.0966797
20
83.8586949
11
80.2060547
21
83.8586949
0
LINE
8
front_labelLayer
10
90.4052734
20
80.7004918
11
90.4052734
21
70.9251012
0
ARC
8
front_labelLayer
10
81.7204388
20
80.6552511
40
6.4154089
50
359.6714228
51
8.6877143
0
ARC
8
front_labelLayer
10
84.0981755
20
81.0323432
40
4.0080174
50
8.4931398
51
22.6579705
0
ARC
8
front_labelLayer
10
85.3062307
20
81.5343724
40
2.6998031
50
22.7024344
51
42.3419601
0
ARC
8
front_labelLayer
10
85.4420196
20
81.595453
40
2.5587144
50
43.3791027
51
71.5385933
0
ARC
8
front_labelLayer
10
84.9342326
20
80.1765652
40
4.0655096
50
71.0827943
51
84.3691094
0
ARC
8
front_labelLayer
10
84.7062911
20
78.2385208
40
6.0166795
50
84.0197926
51
90.1510453
0
ARC
8
front_labelLayer
10
84.6416737
20
77.3865246
40
6.8688278
50
89.5933022
51
100.3717801
0
ARC
8
front_labelLayer
10
84.1562601
20
79.9333364
40
4.2762808
50
100.1176425
51
118.1602594
0
ARC
8
front_labelLayer
10
83.6670837
20
80.8925697
40
3.1998011
50
118.5439322
51
139.1926828
0
ARC
8
front_labelLayer
10
84.0936225
20
80.6063577
40
3.7102176
50
140.151925
51
160.3146316
0
ARC
8
front_labelLayer
10
86.66931
20
79.6416145
40
6.46048
50
159.9534303
51
171.3801069
0
ARC
8
front_labelLayer
10
90.8767792
20
78.9652807
40
10.7218588
50
171.1765895
51
178.3217536
0
ARC
8
front_labelLayer
10
94.6906402
20
78.7924381
40
14.5392741
50
178.0810791
51
180.0236791
0
ARC
8
front_labelLayer
10
84.0884332
20
81.3998563
40
4.5955141
50
116.9442873
51
147.6525678
0
ARC
8
front_labelLayer
10
84.566978
20
80.5993913
40
5.5262961
50
115.807247
51
117.6066816
0
ARC
8
front_labelLayer
10
84.8113065
20
80.0296328
40
6.1456604
50
94.3226631
51
115.5454438
0
ARC
8
front_labelLayer
10
84.9584045
20
78.7516373
40
7.4312784
50
89.9578824
51
94.7108918
0
ARC
8
front_labelLayer
10
85.0192031
20
77.2226004
40
8.9604841
50
80.558531
51
90.3538353
0
ARC
8
front_labelLayer
10
85.5791759
20
80.4661738
40
5.6690276
50
65.1094282
51
80.7638167
0
ARC
8
front_labelLayer
10
86.2337617
20
81.9160648
40
4.078339
50
46.5584457
51
64.8782384
0
ARC
8
front_labelLayer
10
86.2861503
20
82.0670938
40
3.933208
50
19.3848872
51
45.5997116
0
ARC
8
front_labelLayer
10
84.0106697
20
81.2132937
40
6.3632763
50
6.963361
51
19.8363435
0
ARC
8
front_labelLayer
10
80.5011415
20
80.7414325
40
9.9042167
50
359.7631575
51
7.2115631
0
LINE
8
front_labelLayer
10
101.9580078
20
72.798148
11
101.9580078
21
71.0618199
0
LINE
8
front_labelLayer
10
95.2314453
20
75.2317418
11
95.2314453
21
84.1458043
0
LINE
8
front_labelLayer
10
95.2314453
20
84.1458043
11
93.0849609
21
84.1458043
0
LINE
8
front_labelLayer
10
93.0849609
20
84.1458043
11
93.0849609
21
85.2395543
0
LINE
8
front_labelLayer
10
93.0849609
20
85.2395543
11
95.2314453
21
86.1829137
0
LINE
8
front_labelLayer
10
95.2314453
20
86.1829137
11
96.1884766
21
89.3821324
0
LINE
8
front_labelLayer
10
96.1884766
20
89.3821324
11
97.5009766
21
89.3821324
0
LINE
8
front_labelLayer
10
97.5009766
20
89.3821324
11
97.5009766
21
85.9094762
0
LINE
8
front_labelLayer
10
97.5009766
20
85.9094762
11
101.8486328
21
85.9094762
0
LINE
8
front_labelLayer
10
101.8486328
20
85.9094762
11
101.8486328
21
84.1458043
0
LINE
8
front_labelLayer
10
101.8486328
20
84.1458043
11
97.5009766
21
84.1458043
0
LINE
8
front_labelLayer
10
97.5009766
20
84.1458043
11
97.5009766
21
75.3274449
0
ARC
8
front_labelLayer
10
99.922792
20
79.9781454
40
7.4534511
50
269.880346
51
278.3028236
0
ARC
8
front_labelLayer
10
99.9939739
20
79.396951
40
6.8680825
50
278.4153743
51
279.0080848
0
ARC
8
front_labelLayer
10
99.1574637
20
84.7408981
40
12.2770988
50
278.9589457
51
280.5104093
0
ARC
8
front_labelLayer
10
99.9544411
20
80.464575
40
7.9271455
50
280.4847962
51
282.626843
0
ARC
8
front_labelLayer
10
100.6534877
20
77.3589406
40
4.7438119
50
282.587629
51
285.5795609
0
ARC
8
front_labelLayer
10
101.0023798
20
76.0755359
40
3.4138683
50
285.7242104
51
286.2557446
0
ARC
8
front_labelLayer
10
101.0038441
20
73.0799278
40
2.2323055
50
287.9887817
51
295.3048377
0
ARC
8
front_labelLayer
10
100.465415
20
74.7089234
40
3.9479647
50
283.3069326
51
288.1197609
0
ARC
8
front_labelLayer
10
99.8966466
20
77.0814159
40
6.3876746
50
280.0070012
51
283.37355
0
ARC
8
front_labelLayer
10
99.5161579
20
79.1462029
40
8.4871808
50
279.1862906
51
280.114375
0
ARC
8
front_labelLayer
10
99.2824503
20
80.4755879
40
9.8368433
50
275.5260633
51
279.2939325
0
ARC
8
front_labelLayer
10
99.5457067
20
77.7259282
40
7.0746119
50
270.8932624
51
275.548378
0
ARC
8
front_labelLayer
10
99.5787666
20
76.4698774
40
5.8182139
50
270.0032985
51
270.760571
0
ARC
8
front_labelLayer
10
99.4875196
20
76.57864
40
5.9276839
50
253.7847907
51
270.8852477
0
ARC
8
front_labelLayer
10
98.7852466
20
74.1836222
40
3.4318386
50
190.3817675
51
253.8772356
0
ARC
8
front_labelLayer
10
102.3647219
20
75.1514483
40
7.1337284
50
179.3550955
51
192.8477565
0
ARC
8
front_labelLayer
10
102.0709821
20
75.2988634
40
4.5700949
50
179.6416688
51
189.7505766
0
ARC
8
front_labelLayer
10
100.4576438
20
75.0111055
40
2.9313462
50
189.5479434
51
205.7873487
0
ARC
8
front_labelLayer
10
99.7946332
20
74.7053717
40
2.2013966
50
206.1294429
51
221.4083995
0
ARC
8
front_labelLayer
10
99.720292
20
74.6489628
40
2.1083408
50
221.5949197
51
262.350518
0
ARC
8
front_labelLayer
10
99.8970978
20
75.5581719
40
3.0334782
50
261.3266421
51
270.1913104
0
LINE
8
left_outsideCutPath
10
143
20
160
11
143
21
3
0
LINE
8
left_outsideCutPath
10
143
20
3
11
257
21
3
0
LINE
8
left_outsideCutPath
10
257
20
3
11
257
21
160
0
LINE
8
left_outsideCutPath
10
257
20
160
11
143
21
160
0
LINE
8
left_labelLayer
10
185.900293
20
90.2116672
11
185.900293
21
72.8890109
0
LINE
8
left_labelLayer
10
185.900293
20
72.8890109
11
184.0522461
21
72.8890109
0
LINE
8
left_labelLayer
10
184.0522461
20
72.8890109
11
184.0522461
21
90.2116672
0
LINE
8
left_labelLayer
10
184.0522461
20
90.2116672
11
185.900293
21
90.2116672
0
LINE
8
left_labelLayer
10
199.4600586
20
79.8247531
11
199.4600586
21
78.6558078
0
LINE
8
left_labelLayer
10
199.4600586
20
78.6558078
11
191.0547851
21
78.6558078
0
LINE
8
left_labelLayer
10
198.9368164
20
75.1044406
11
198.9368164
21
73.4567844
0
LINE
8
left_labelLayer
10
191.0993164
20
80.1587375
11
197.478418
21
80.1587375
0
ARC
8
left_labelLayer
10
194.9127687
20
79.8475138
40
7.1814163
50
256.0087834
51
270.4848212
0
ARC
8
left_labelLayer
10
194.3898213
20
77.8173278
40
5.0850525
50
223.5465822
51
256.1956948
0
ARC
8
left_labelLayer
10
194.678306
20
78.0270018
40
5.4388052
50
194.0877219
51
223.0538181
0
ARC
8
left_labelLayer
10
197.321635
20
78.7498553
40
8.1787854
50
181.3574601
51
194.4919934
0
ARC
8
left_labelLayer
10
199.6960876
20
78.8875237
40
10.5561466
50
179.9887476
51
181.7991673
0
ARC
8
left_labelLayer
10
198.8437782
20
78.9546911
40
9.7040551
50
168.9539243
51
180.3843395
0
ARC
8
left_labelLayer
10
195.6744796
20
79.6000141
40
6.4698828
50
149.4070999
51
169.1853715
0
ARC
8
left_labelLayer
10
194.7914434
20
80.066575
40
5.4725206
50
140.1055988
51
148.9067468
0
ARC
8
left_labelLayer
10
194.2489596
20
80.5667226
40
4.735665
50
92.4762619
51
140.5386406
0
ARC
8
left_labelLayer
10
194.4906983
20
78.7802079
40
6.5330229
50
89.9638153
51
93.9175802
0
ARC
8
left_labelLayer
10
194.5483806
20
79.6831988
40
5.6302856
50
74.2125831
51
90.5450166
0
ARC
8
left_labelLayer
10
194.9010223
20
80.9824811
40
4.2840956
50
41.2064682
51
74.0232723
0
ARC
8
left_labelLayer
10
194.2331855
20
80.4045173
40
5.1672865
50
11.5994265
51
41.149606
0
ARC
8
left_labelLayer
10
191.9385215
20
79.8753236
40
7.5217071
50
359.6147819
51
12.03364
0
ARC
8
left_labelLayer
10
198.4706746
20
78.8039878
40
7.4173697
50
181.1446986
51
190.8007115
0
ARC
8
left_labelLayer
10
195.8539169
20
78.2878895
40
4.7502835
50
190.6005836
51
206.027524
0
ARC
8
left_labelLayer
10
194.6961658
20
77.7405558
40
3.469814
50
206.2950225
51
222.5557881
0
ARC
8
left_labelLayer
10
194.5935787
20
77.6868443
40
3.3580531
50
223.0645134
51
258.1401295
0
ARC
8
left_labelLayer
10
195.0019748
20
79.368455
40
5.0879871
50
257.531174
51
270.4319446
0
ARC
8
left_labelLayer
10
195.0065333
20
84.0411101
40
9.7605561
50
270.1984032
51
292.2090399
0
ARC
8
left_labelLayer
10
194.5381752
20
85.3863511
40
11.183279
50
291.8254405
51
293.161427
0
ARC
8
left_labelLayer
10
194.5153888
20
83.6320858
40
11.0944031
50
287.9022802
51
293.4861737
0
ARC
8
left_labelLayer
10
195.3201665
20
81.1490452
40
8.4842022
50
281.9935916
51
287.8851327
0
ARC
8
left_labelLayer
10
195.5152252
20
80.4479693
40
7.7580276
50
275.9054354
51
281.6603958
0
ARC
8
left_labelLayer
10
195.1247606
20
84.0925238
40
11.4234222
50
271.9119589
51
275.9727225
0
ARC
8
left_labelLayer
10
194.9822335
20
87.7226171
40
15.0562649
50
269.966899
51
271.993145
0
ARC
8
left_labelLayer
10
194.4370956
20
80.1230078
40
3.6429336
50
89.4422314
51
106.2089466
0
ARC
8
left_labelLayer
10
194.2179346
20
80.9221083
40
2.8144485
50
106.4657087
51
137.9176271
0
ARC
8
left_labelLayer
10
194.8462785
20
80.3703179
40
3.6506213
50
138.0994688
51
160.5866324
0
ARC
8
left_labelLayer
10
196.4614352
20
79.7761286
40
5.3714975
50
160.3353352
51
172.5315297
0
ARC
8
left_labelLayer
10
198.0517785
20
79.5213098
40
6.9816219
50
172.1544868
51
174.7615545
0
ARC
8
left_labelLayer
10
191.1810261
20
80.1945116
40
6.2974935
50
359.674519
51
8.9224444
0
ARC
8
left_labelLayer
10
193.4312738
20
80.5611546
40
4.0176319
50
8.7342141
51
23.2772009
0
ARC
8
left_labelLayer
10
194.4995483
20
81.0095899
40
2.8591166
50
23.4821358
51
39.7072234
0
ARC
8
left_labelLayer
10
194.7619497
20
81.2059518
40
2.5318518
50
40.082298
51
80.6243131
0
ARC
8
left_labelLayer
10
194.4918486
20
79.9678035
40
3.7980141
50
79.6468689
51
90.2910052
0
LINE
8
left_labelLayer
10
208.1102539
20
85.0905734
11
208.1102539
21
83.6544406
0
LINE
8
left_labelLayer
10
208.1102539
20
83.6544406
11
205.0041992
21
83.6544406
0
LINE
8
left_labelLayer
10
205.0041992
20
83.6544406
11
205.0041992
21
72.8890109
0
LINE
8
left_labelLayer
10
205.0041992
20
72.8890109
11
203.1561523
21
72.8890109
0
LINE
8
left_labelLayer
10
203.1561523
20
72.8890109
11
203.1561523
21
83.6544406
0
LINE
8
left_labelLayer
10
203.1561523
20
83.6544406
11
200.9741211
21
83.6544406
0
LINE
8
left_labelLayer
10
200.9741211
20
83.6544406
11
200.9741211
21
84.4894015
0
LINE
8
left_labelLayer
10
200.9741211
20
84.4894015
11
203.1561523
21
85.1573703
0
LINE
8
left_labelLayer
10
203.1561523
20
85.1573703
11
203.1561523
21
85.8364719
0
LINE
8
left_labelLayer
10
209.3571289
20
89.9444797
11
208.878418
21
88.4638156
0
LINE
8
left_labelLayer
10
205.0041992
20
85.8810031
11
205.0041992
21
85.0905734
0
LINE
8
left_labelLayer
10
205.0041992
20
85.0905734
11
208.1102539
21
85.0905734
0
ARC
8
left_labelLayer
10
210.645639
20
85.9225757
40
7.4899816
50
167.5776009
51
180.6586793
0
ARC
8
left_labelLayer
10
207.1236039
20
86.7437101
40
3.8740162
50
141.7433826
51
168.232212
0
ARC
8
left_labelLayer
10
206.5501454
20
87.0430133
40
3.240611
50
98.2551429
51
139.6203422
0
ARC
8
left_labelLayer
10
207.053653
20
84.7169949
40
5.6172265
50
89.6696999
51
99.9314215
0
ARC
8
left_labelLayer
10
207.0550565
20
84.3830719
40
5.9511368
50
81.5640898
51
89.7017456
0
ARC
8
left_labelLayer
10
206.6366821
20
81.4642532
40
8.8997639
50
75.9739916
51
81.6564846
0
ARC
8
left_labelLayer
10
205.9187458
20
78.486402
40
11.9628601
50
73.2963528
51
76.0946258
0
ARC
8
left_labelLayer
10
206.0995497
20
79.9309488
40
8.9739582
50
71.9613092
51
76.5918572
0
ARC
8
left_labelLayer
10
206.7957403
20
82.8842727
40
5.9397011
50
76.5183491
51
83.0216902
0
ARC
8
left_labelLayer
10
207.0382547
20
84.8345374
40
3.9744215
50
83.0760854
51
89.7926664
0
ARC
8
left_labelLayer
10
207.0302756
20
86.316739
40
2.4922941
50
89.4859305
51
103.4197446
0
ARC
8
left_labelLayer
10
206.8055768
20
87.1800075
40
1.6005513
50
102.767728
51
144.3380355
0
ARC
8
left_labelLayer
10
207.2582497
20
86.8887538
40
2.1383102
50
145.0688631
51
162.1801853
0
ARC
8
left_labelLayer
10
208.8103288
20
86.3665574
40
3.7757961
50
161.8437805
51
171.7846723
0
ARC
8
left_labelLayer
10
211.3417204
20
85.98635
40
6.3355567
50
171.6527647
51
178.438372
0
ARC
8
left_labelLayer
10
213.7293489
20
85.8845315
40
8.7251504
50
178.1972891
51
180.0231697
0
LINE
8
left_labelLayer
10
215.9477539
20
74.4142062
11
215.9477539
21
73.000339
0
LINE
8
left_labelLayer
10
210.4704101
20
76.3958469
11
210.4704101
21
83.6544406
0
LINE
8
left_labelLayer
10
210.4704101
20
83.6544406
11
208.7225586
21
83.6544406
0
LINE
8
left_labelLayer
10
208.7225586
20
83.6544406
11
208.7225586
21
84.5450656
0
LINE
8
left_labelLayer
10
208.7225586
20
84.5450656
11
210.4704101
21
85.3132297
0
LINE
8
left_labelLayer
10
210.4704101
20
85.3132297
11
211.249707
21
87.9183078
0
LINE
8
left_labelLayer
10
211.249707
20
87.9183078
11
212.318457
21
87.9183078
0
LINE
8
left_labelLayer
10
212.318457
20
87.9183078
11
212.318457
21
85.0905734
0
LINE
8
left_labelLayer
10
212.318457
20
85.0905734
11
215.8586914
21
85.0905734
0
LINE
8
left_labelLayer
10
215.8586914
20
85.0905734
11
215.8586914
21
83.6544406
0
LINE
8
left_labelLayer
10
215.8586914
20
83.6544406
11
212.318457
21
83.6544406
0
LINE
8
left_labelLayer
10
212.318457
20
83.6544406
11
212.318457
21
76.4737765
0
ARC
8
left_labelLayer
10
214.2905043
20
80.2607941
40
6.0692574
50
269.880369
51
278.3028208
0
ARC
8
left_labelLayer
10
214.3474721
20
79.7939419
40
5.5990829
50
278.4158464
51
279.0078686
0
ARC
8
left_labelLayer
10
213.6672763
20
84.139201
40
9.9972533
50
278.9589768
51
280.5104114
0
ARC
8
left_labelLayer
10
214.3162354
20
80.6570743
40
6.4551717
50
280.4848365
51
282.6268135
0
ARC
8
left_labelLayer
10
214.8854503
20
78.1282048
40
3.8630347
50
282.5876952
51
285.5794595
0
ARC
8
left_labelLayer
10
215.1714553
20
77.0763902
40
2.7730601
50
285.7239607
51
286.2567991
0
ARC
8
left_labelLayer
10
215.1707855
20
74.6436713
40
1.8177516
50
287.9888224
51
295.3048094
0
ARC
8
left_labelLayer
10
214.7323397
20
75.9701816
40
3.214832
50
283.3069917
51
288.1197292
0
ARC
8
left_labelLayer
10
214.2692219
20
77.9019995
40
5.2013807
50
280.0069678
51
283.3735239
0
ARC
8
left_labelLayer
10
213.9589038
20
79.5862343
40
6.9139282
50
279.1864374
51
280.1141274
0
ARC
8
left_labelLayer
10
213.7690918
20
80.6657882
40
8.0099529
50
275.5260526
51
279.2939444
0
ARC
8
left_labelLayer
10
213.983448
20
78.4268759
40
5.7608041
50
270.8932902
51
275.5483664
0
ARC
8
left_labelLayer
10
214.0103688
20
77.4045371
40
4.7381825
50
270.0033339
51
270.7605274
0
ARC
8
left_labelLayer
10
213.9360695
20
77.4926002
40
4.8268217
50
253.7847817
51
270.8852627
0
ARC
8
left_labelLayer
10
213.3642192
20
75.5423777
40
2.7944966
50
190.3817622
51
253.8772446
0
ARC
8
left_labelLayer
10
216.2789279
20
76.330465
40
5.8088859
50
179.3550945
51
192.8477727
0
ARC
8
left_labelLayer
10
216.0397298
20
76.4505022
40
3.7213456
50
179.6416529
51
189.7506082
0
ARC
8
left_labelLayer
10
214.7260328
20
76.2161879
40
2.3869574
50
189.5479745
51
205.7873511
0
ARC
8
left_labelLayer
10
214.1861422
20
75.9672264
40
1.7925577
50
206.1294007
51
221.4084273
0
ARC
8
left_labelLayer
10
214.1256142
20
75.9212986
40
1.7167922
50
221.5949216
51
262.3505103
0
ARC
8
left_labelLayer
10
214.2695842
20
76.6616361
40
2.4701
50
261.3265815
51
270.191315
0
LINE
8
back_outsideCutPath
10
0
20
320
11
0
21
163
0
LINE
8
back_outsideCutPath
10
0
20
163
11
140
21
163
0
LINE
8
back_outsideCutPath
10
140
20
163
11
140
21
320
0
LINE
8
back_outsideCutPath
10
140
20
320
11
0
21
320
0
LINE
8
back_labelLayer
10
43.2441406
20
232.9278888
11
43.0800781
21
232.9278888
0
LINE
8
back_labelLayer
10
43.0800781
20
232.9278888
11
42.6015625
21
231.0001544
0
LINE
8
back_labelLayer
10
42.6015625
20
231.0001544
11
40.9746094
21
231.0001544
0
LINE
8
back_labelLayer
10
40.9746094
20
231.0001544
11
40.9746094
21
252.2735919
0
LINE
8
back_labelLayer
10
40.9746094
20
252.2735919
11
43.2441406
21
252.2735919
0
LINE
8
back_labelLayer
10
43.2441406
20
252.2735919
11
43.2441406
21
247.1056232
0
LINE
8
back_labelLayer
10
43.1347656
20
243.9884357
11
43.2441406
21
243.9884357
0
ARC
8
back_labelLayer
10
48.0153485
20
239.2944794
40
6.9364779
50
74.2393378
51
90.5623781
0
ARC
8
back_labelLayer
10
48.4740119
20
240.9771075
40
5.1925501
50
38.5631328
51
74.0670399
0
ARC
8
back_labelLayer
10
47.2936672
20
240.0593209
40
6.6876386
50
16.4709242
51
38.4075316
0
ARC
8
back_labelLayer
10
43.8932675
20
238.9930533
40
10.2509824
50
5.1338466
51
16.7973459
0
ARC
8
back_labelLayer
10
39.6005411
20
238.5370482
40
14.5674609
50
359.8779376
51
5.4093683
0
ARC
8
back_labelLayer
10
40.8614034
20
238.4275082
40
13.3067969
50
350.6562815
51
0.3380276
0
ARC
8
back_labelLayer
10
45.5003743
20
237.6384697
40
8.6013072
50
335.8305987
51
350.8254873
0
ARC
8
back_labelLayer
10
47.5409767
20
236.7577163
40
6.3790541
50
321.3161408
51
335.5436248
0
ARC
8
back_labelLayer
10
48.3211052
20
236.1220293
40
5.3727687
50
274.0640067
51
321.4081013
0
ARC
8
back_labelLayer
10
47.9576673
20
238.4241586
40
7.6974487
50
269.9225754
51
275.5481799
0
ARC
8
back_labelLayer
10
47.9089932
20
237.6105901
40
6.8839796
50
255.7755375
51
270.3185453
0
ARC
8
back_labelLayer
10
47.712538
20
236.7377685
40
5.9896933
50
245.9801434
51
255.5455876
0
ARC
8
back_labelLayer
10
47.3320406
20
235.8529219
40
5.0266037
50
215.5850239
51
245.8361614
0
ARC
8
back_labelLayer
10
-4.073592
20
247.0656208
40
47.3177495
50
358.1123124
51
0.0484378
0
ARC
8
back_labelLayer
10
9.0958183
20
246.6234753
40
34.1409227
50
355.7238524
51
358.1259058
0
ARC
8
back_labelLayer
10
14.8962931
20
246.2249807
40
28.3269035
50
355.4715098
51
355.6528186
0
ARC
8
back_labelLayer
10
47.4767171
20
241.0369466
40
5.1600379
50
95.1835094
51
145.110902
0
ARC
8
back_labelLayer
10
47.9302652
20
238.4793376
40
7.7513041
50
89.8743368
51
96.8145271
0
ARC
8
back_labelLayer
10
47.5716269
20
237.9528407
40
6.3775689
50
89.5731349
51
100.7324338
0
ARC
8
back_labelLayer
10
47.0995095
20
240.3381386
40
3.9461257
50
100.4469507
51
119.670069
0
ARC
8
back_labelLayer
10
46.6617131
20
241.1566527
40
3.0183172
50
120.1403021
51
142.4249055
0
ARC
8
back_labelLayer
10
47.3860113
20
240.6775052
40
3.8850414
50
143.3382288
51
161.2559785
0
ARC
8
back_labelLayer
10
50.4148826
20
239.6021551
40
7.0989687
50
160.892636
51
171.2334342
0
ARC
8
back_labelLayer
10
55.4712505
20
238.7864439
40
12.2206392
50
171.0667835
51
177.8456867
0
ARC
8
back_labelLayer
10
60.7298881
20
238.5189947
40
17.4857522
50
177.6176835
51
180.0425345
0
ARC
8
back_labelLayer
10
58.2500259
20
238.44742
40
15.0059997
50
179.776277
51
185.7075174
0
ARC
8
back_labelLayer
10
52.3336488
20
237.8378247
40
9.0583466
50
185.5924763
51
194.2050802
0
ARC
8
back_labelLayer
10
48.5437368
20
236.8542093
40
5.1429977
50
193.943045
51
208.0218466
0
ARC
8
back_labelLayer
10
47.0103204
20
236.074118
40
3.4230003
50
208.5536605
51
217.5605407
0
ARC
8
back_labelLayer
10
46.8853889
20
236.022156
40
3.2924756
50
218.1690565
51
253.8047145
0
ARC
8
back_labelLayer
10
47.49608
20
237.9049818
40
5.2712704
50
253.1382504
51
266.8483019
0
ARC
8
back_labelLayer
10
47.6673262
20
239.9245255
40
7.2974208
50
266.3775745
51
270.0510503
0
ARC
8
back_labelLayer
10
47.7222413
20
237.1511319
40
4.5242833
50
269.3868807
51
285.8630739
0
ARC
8
back_labelLayer
10
48.058367
20
235.9363309
40
3.2638801
50
286.0162842
51
326.8497351
0
ARC
8
back_labelLayer
10
46.4360444
20
237.0110599
40
5.2098688
50
326.7105069
51
343.66617
0
ARC
8
back_labelLayer
10
43.399162
20
237.9390323
40
8.3852369
50
343.4171347
51
353.6369119
0
ARC
8
back_labelLayer
10
38.8122396
20
238.4833027
40
13.0042631
50
353.4934779
51
0.2205385
0
ARC
8
back_labelLayer
10
38.407937
20
238.5876306
40
13.4085791
50
359.7680869
51
6.3095346
0
ARC
8
back_labelLayer
10
43.4586488
20
239.1672316
40
8.3247898
50
6.1648749
51
16.039627
0
ARC
8
back_labelLayer
10
46.7122819
20
240.126075
40
4.9329389
50
15.7779331
51
32.0151359
0
ARC
8
back_labelLayer
10
47.7271173
20
240.7072633
40
3.7646102
50
32.7032882
51
35.5243467
0
ARC
8
back_labelLayer
10
48.0979434
20
240.9708381
40
3.3096567
50
35.5408408
51
79.8011179
0
ARC
8
back_labelLayer
10
47.6534907
20
239.0813863
40
5.2489588
50
78.6781199
51
90.3749563
0
LINE
8
back_labelLayer
10
69.0292969
20
231.0001544
11
67.3476563
21
231.0001544
0
LINE
8
back_labelLayer
10
67.3476563
20
231.0001544
11
66.8964844
21
233.1329669
0
LINE
8
back_labelLayer
10
66.8964844
20
233.1329669
11
66.7871094
21
233.1329669
0
LINE
8
back_labelLayer
10
64.2714844
20
239.9005451
11
66.8144531
21
239.9825763
0
LINE
8
back_labelLayer
10
66.8144531
20
239.9825763
11
66.8144531
21
240.9122638
0
LINE
8
back_labelLayer
10
59.390625
20
243.2091388
11
58.6933594
21
244.9454669
0
LINE
8
back_labelLayer
10
69.0292969
20
241.2267169
11
69.0292969
21
231.0001544
0
LINE
8
back_labelLayer
10
66.7597656
20
237.0157794
11
66.7597656
21
238.3692951
0
LINE
8
back_labelLayer
10
66.7597656
20
238.3692951
11
64.4902344
21
238.2735919
0
ARC
8
back_labelLayer
10
59.4029258
20
238.963144
40
9.4083543
50
314.7445086
51
321.7071673
0
ARC
8
back_labelLayer
10
61.7144101
20
236.6144998
40
6.1130725
50
304.8485787
51
314.8530623
0
ARC
8
back_labelLayer
10
62.8248189
20
235.0339486
40
4.1814791
50
294.3932502
51
304.7371583
0
ARC
8
back_labelLayer
10
62.4454581
20
236.0168939
40
5.2337033
50
281.2979506
51
293.7313795
0
ARC
8
back_labelLayer
10
61.9439698
20
238.447359
40
7.7153329
50
272.9335077
51
281.4139134
0
ARC
8
back_labelLayer
10
61.7777501
20
240.940044
40
10.2133304
50
269.9538932
51
273.1491176
0
ARC
8
back_labelLayer
10
61.7203301
20
237.6914153
40
6.9648721
50
258.6719578
51
270.4047518
0
ARC
8
back_labelLayer
10
61.2365416
20
235.3771723
40
4.6007277
50
238.3273124
51
258.9183659
0
ARC
8
back_labelLayer
10
60.9031581
20
234.768948
40
3.9082056
50
227.7689484
51
237.8049843
0
ARC
8
back_labelLayer
10
60.798868
20
234.623363
40
3.73037
50
192.0827613
51
227.452081
0
ARC
8
back_labelLayer
10
62.7220959
20
235.0974568
40
5.7105566
50
179.5457292
51
192.6949287
0
ARC
8
back_labelLayer
10
60.9354333
20
235.3042223
40
3.9270364
50
115.4904631
51
182.3568127
0
ARC
8
back_labelLayer
10
62.9021365
20
231.6968819
40
8.0327098
50
101.3568179
51
117.0798582
0
ARC
8
back_labelLayer
10
64.4815789
20
224.3160163
40
15.5803687
50
92.4696245
51
101.7064994
0
ARC
8
back_labelLayer
10
64.9355246
20
217.7413245
40
22.1691678
50
91.7164556
51
92.909565
0
ARC
8
back_labelLayer
10
60.2958921
20
240.9471527
40
6.5186544
50
359.6933427
51
8.0035663
0
ARC
8
back_labelLayer
10
62.7617775
20
241.3063796
40
4.0267904
50
7.8272599
51
20.6041545
0
ARC
8
back_labelLayer
10
64.1571749
20
241.8401875
40
2.5328133
50
20.4094112
51
41.4479378
0
ARC
8
back_labelLayer
10
64.3633484
20
241.9535159
40
2.3038342
50
42.7295395
51
71.0380409
0
ARC
8
back_labelLayer
10
63.8779529
20
240.6337196
40
3.7098586
50
70.5716163
51
83.9928561
0
ARC
8
back_labelLayer
10
63.6460635
20
238.7500847
40
5.6075178
50
83.6506748
51
90.1753076
0
ARC
8
back_labelLayer
10
63.686741
20
236.9687054
40
7.3890973
50
90.448461
51
103.7665529
0
ARC
8
back_labelLayer
10
64.5556599
20
233.3044375
40
11.1549118
50
103.622656
51
112.4320069
0
ARC
8
back_labelLayer
10
66.0451147
20
229.5436811
40
15.1995714
50
112.2122305
51
115.9640887
0
ARC
8
back_labelLayer
10
63.6598858
20
235.7351014
40
10.4640918
50
106.3568575
51
118.3349794
0
ARC
8
back_labelLayer
10
64.1055846
20
234.3583321
40
11.9107225
50
104.5162018
51
106.5489637
0
ARC
8
back_labelLayer
10
63.778731
20
235.7201665
40
10.5104648
50
90.0714449
51
104.6521004
0
ARC
8
back_labelLayer
10
63.8199781
20
236.6455105
40
9.5852668
50
81.567982
51
90.3248967
0
ARC
8
back_labelLayer
10
64.3741855
20
240.2560183
40
5.9325498
50
68.2273476
51
81.7494237
0
ARC
8
back_labelLayer
10
65.1461012
20
242.1766126
40
3.862645
50
47.8683334
51
68.2934115
0
ARC
8
back_labelLayer
10
65.2713857
20
242.4267676
40
3.5938637
50
19.2330989
51
46.6741174
0
ARC
8
back_labelLayer
10
63.1843668
20
241.6503917
40
5.8203242
50
6.3379046
51
19.6815415
0
ARC
8
back_labelLayer
10
60.0992034
20
241.2574698
40
8.9301465
50
359.8026892
51
6.6583437
0
ARC
8
back_labelLayer
10
62.2665957
20
238.8482711
40
6.2486758
50
269.5791951
51
282.0413575
0
ARC
8
back_labelLayer
10
62.7223921
20
236.8265479
40
4.1764176
50
281.7120961
51
306.4594024
0
ARC
8
back_labelLayer
10
62.9244674
20
236.4942094
40
3.7892027
50
306.9881604
51
313.8558888
0
ARC
8
back_labelLayer
10
62.9004554
20
236.4872868
40
3.8009119
50
314.1891966
51
347.4269831
0
ARC
8
back_labelLayer
10
60.996478
20
236.9644141
40
5.7633211
50
346.9177675
51
0.2824599
0
ARC
8
back_labelLayer
10
59.5316871
20
237.0158284
40
7.2280786
50
359.8176663
51
359.9996121
0
ARC
8
back_labelLayer
10
65.0300893
20
221.6180534
40
16.6642853
50
91.8564746
51
96.4478247
0
ARC
8
back_labelLayer
10
64.2785773
20
228.1211164
40
10.117977
50
96.3545313
51
102.9953198
0
ARC
8
back_labelLayer
10
63.2584599
20
232.4552903
40
5.6654456
50
102.799542
51
113.2433115
0
ARC
8
back_labelLayer
10
62.4174921
20
234.466558
40
3.4856046
50
113.5886286
51
121.680521
0
ARC
8
back_labelLayer
10
61.8332284
20
235.3563744
40
2.4217194
50
120.9734143
51
172.4179805
0
ARC
8
back_labelLayer
10
62.9752211
20
235.128267
40
3.5846192
50
171.2121943
51
180.2058421
0
ARC
8
back_labelLayer
10
62.6339425
20
235.088591
40
3.2434282
50
179.526606
51
192.7787121
0
ARC
8
back_labelLayer
10
61.536744
20
234.8226267
40
2.1146438
50
192.3264506
51
222.05798
0
ARC
8
back_labelLayer
10
61.4550976
20
234.7737864
40
2.0213909
50
222.5804125
51
229.2547572
0
ARC
8
back_labelLayer
10
61.7309109
20
235.1288796
40
2.470544
50
229.7836907
51
254.272444
0
ARC
8
back_labelLayer
10
62.0982161
20
236.3528869
40
3.7483525
50
253.9396705
51
266.453368
0
ARC
8
back_labelLayer
10
62.2154454
20
237.7041155
40
5.1043544
50
266.0782681
51
270.0590177
0
LINE
8
back_labelLayer
10
83.6992188
20
245.4786701
11
83.0019531
21
243.5509357
0
LINE
8
back_labelLayer
10
83.4804688
20
233.5157794
11
83.4804688
21
231.5060138
0
ARC
8
back_labelLayer
10
79.6209706
20
239.2085537
40
8.4821456
50
256.4243695
51
270.4889823
0
ARC
8
back_labelLayer
10
78.9431667
20
236.5631465
40
5.7516738
50
221.79763
51
256.8020535
0
ARC
8
back_labelLayer
10
79.5995448
20
237.0481184
40
6.5646796
50
196.0166682
51
221.1349174
0
ARC
8
back_labelLayer
10
82.8984277
20
238.0564262
40
10.0138874
50
183.5913752
51
196.353954
0
ARC
8
back_labelLayer
10
86.5940046
20
238.3819935
40
13.7229185
50
179.9388528
51
183.9814907
0
ARC
8
back_labelLayer
10
85.3932139
20
238.4772629
40
12.5223797
50
169.8978429
51
180.3688958
0
ARC
8
back_labelLayer
10
81.0338871
20
239.2836739
40
8.0892427
50
153.08751
51
170.1051363
0
ARC
8
back_labelLayer
10
79.3798641
20
240.0740127
40
6.2567761
50
138.6550021
51
152.6853621
0
ARC
8
back_labelLayer
10
79.0711617
20
240.2989742
40
5.876516
50
101.4912943
51
138.3133877
0
ARC
8
back_labelLayer
10
79.7798748
20
237.3493874
40
8.9088087
50
89.5891919
51
102.1787789
0
ARC
8
back_labelLayer
10
79.8343732
20
236.0162294
40
10.2417418
50
77.7702407
51
89.9475428
0
ARC
8
back_labelLayer
10
79.6405185
20
234.9467714
40
11.3280549
50
74.6796889
51
77.9578404
0
ARC
8
back_labelLayer
10
80.6876409
20
238.7402991
40
7.3926733
50
70.0945843
51
74.7386295
0
ARC
8
back_labelLayer
10
81.6836575
20
241.4698923
40
4.4870504
50
63.5034083
51
70.1861418
0
ARC
8
back_labelLayer
10
82.1509592
20
242.4493906
40
3.4020054
50
62.9285017
51
63.1870986
0
ARC
8
back_labelLayer
10
79.273695
20
234.1682065
40
10.096312
50
68.3294397
51
74.8831254
0
ARC
8
back_labelLayer
10
78.7410773
20
232.2796184
40
12.0584673
50
74.7801876
51
77.4497651
0
ARC
8
back_labelLayer
10
79.3002999
20
234.9045585
40
9.3747635
50
77.2998619
51
81.7345518
0
ARC
8
back_labelLayer
10
79.7081555
20
237.7465231
40
6.5036881
50
81.6910296
51
87.5078887
0
ARC
8
back_labelLayer
10
79.7868582
20
239.2174337
40
5.030768
50
87.6749716
51
89.9748954
0
ARC
8
back_labelLayer
10
79.6765552
20
239.2153047
40
5.034154
50
88.7194018
51
112.5667644
0
ARC
8
back_labelLayer
10
79.3188444
20
240.3979893
40
3.8067542
50
114.4265732
51
161.6632831
0
ARC
8
back_labelLayer
10
82.8723473
20
239.0071103
40
7.6200829
50
160.1418429
51
175.1368099
0
ARC
8
back_labelLayer
10
87.7632656
20
238.4578972
40
12.5406552
50
174.5309775
51
180.1549492
0
ARC
8
back_labelLayer
10
86.2137893
20
238.3672265
40
10.9912796
50
179.7041384
51
188.0743573
0
ARC
8
back_labelLayer
10
82.2548504
20
237.7879931
40
6.9902508
50
187.931524
51
200.3885422
0
ARC
8
back_labelLayer
10
80.1142325
20
236.995004
40
4.7074745
50
200.4183452
51
216.6392651
0
ARC
8
back_labelLayer
10
79.2168305
20
236.353474
40
3.6046022
50
216.9695335
51
261.3103043
0
ARC
8
back_labelLayer
10
79.6128725
20
238.1998767
40
5.4907987
50
260.1359262
51
270.2692145
0
ARC
8
back_labelLayer
10
79.5945902
20
242.2095721
40
9.5005356
50
270.2658485
51
286.289141
0
ARC
8
back_labelLayer
10
79.017038
20
244.3634635
40
11.7300667
50
286.0460599
51
292.3653987
0
ARC
8
back_labelLayer
10
80.5551561
20
237.2608014
40
6.4556204
50
282.0344333
51
296.9454504
0
ARC
8
back_labelLayer
10
79.8912376
20
240.2528268
40
9.5203491
50
272.5980508
51
282.1878468
0
ARC
8
back_labelLayer
10
79.7008556
20
243.1726029
40
12.4458882
50
269.9654907
51
272.8643043
0
LINE
8
back_labelLayer
10
89.1679688
20
238.6700763
11
89.2773438
21
238.6700763
0
LINE
8
back_labelLayer
10
91.0683594
20
240.8575763
11
95.9082031
21
245.9845294
0
LINE
8
back_labelLayer
10
95.9082031
20
245.9845294
11
98.6015625
21
245.9845294
0
LINE
8
back_labelLayer
10
98.6015625
20
245.9845294
11
92.53125
21
239.5997638
0
LINE
8
back_labelLayer
10
92.53125
20
239.5997638
11
99.0253906
21
231.0001544
0
LINE
8
back_labelLayer
10
99.0253906
20
231.0001544
11
96.2773438
21
231.0001544
0
LINE
8
back_labelLayer
10
96.2773438
20
231.0001544
11
90.9863281
21
238.0821857
0
LINE
8
back_labelLayer
10
90.9863281
20
238.0821857
11
89.2773438
21
236.6056232
0
LINE
8
back_labelLayer
10
89.2773438
20
236.6056232
11
89.2773438
21
231.0001544
0
LINE
8
back_labelLayer
10
89.2773438
20
231.0001544
11
87.0351563
21
231.0001544
0
LINE
8
back_labelLayer
10
87.0351563
20
231.0001544
11
87.0351563
21
252.2735919
0
LINE
8
back_labelLayer
10
87.0351563
20
252.2735919
11
89.2773438
21
252.2735919
0
LINE
8
back_labelLayer
10
89.2773438
20
252.2735919
11
89.2773438
21
240.9942951
0
ARC
8
back_labelLayer
10
100.2432982
20
230.9079196
40
13.4351492
50
142.3233742
51
144.7075591
0
ARC
8
back_labelLayer
10
107.398129
20
225.3892365
40
22.471047
50
140.433119
51
142.3365673
0
ARC
8
back_labelLayer
10
116.7230502
20
217.7131485
40
34.5489671
50
139.2799168
51
140.4702996
0
ARC
8
back_labelLayer
10
127.5029991
20
208.4431184
40
48.7665876
50
138.3417751
51
139.2877215
0
ARC
8
back_labelLayer
10
74.1536794
20
241.0225982
40
15.1236909
50
358.2739003
51
359.8927741
0
ARC
8
back_labelLayer
10
62.3875211
20
241.3504846
40
26.8943999
50
357.5041706
51
358.3307341
0
ARC
8
back_labelLayer
10
44.7753519
20
242.1284091
40
44.5237391
50
356.6325355
51
357.4909992
0
ARC
8
back_labelLayer
10
15.5048724
20
243.8355807
40
73.8439586
50
356.0329177
51
356.6442592
0
ARC
8
back_labelLayer
10
-4.1581127
20
245.1628141
40
93.55166
50
356.020319
51
356.0551483
0
LINE
8
right_outsideCutPath
10
143
20
320
11
143
21
163
0
LINE
8
right_outsideCutPath
10
143
20
163
11
257
21
163
0
LINE
8
right_outsideCutPath
10
257
20
163
11
257
21
320
0
LINE
8
right_outsideCutPath
10
257
20
320
11
143
21
320
0
LINE
8
right_labelLayer
10
183.4399414
20
247.8680359
11
183.1838867
21
246.1535828
0
LINE
8
right_labelLayer
10
178.2631836
20
242.1235046
11
178.2631836
21
235.5774109
0
LINE
8
right_labelLayer
10
178.2631836
20
235.5774109
11
176.4151367
21
235.5774109
0
LINE
8
right_labelLayer
10
176.4151367
20
235.5774109
11
176.4151367
21
247.7789734
0
LINE
8
right_labelLayer
10
176.4151367
20
247.7789734
11
177.940332
21
247.7789734
0
LINE
8
right_labelLayer
10
177.940332
20
247.7789734
11
178.1518555
21
245.5190125
0
LINE
8
right_labelLayer
10
178.1518555
20
245.5190125
11
178.240918
21
245.5190125
0
ARC
8
right_labelLayer
10
182.0005096
20
239.5175368
40
8.4841141
50
84.9922891
51
90.1280874
0
ARC
8
right_labelLayer
10
182.2042616
20
241.8003371
40
6.192243
50
78.489187
51
85.0266083
0
ARC
8
right_labelLayer
10
181.4134486
20
238.2035367
40
8.1447949
50
77.4453637
51
81.6360401
0
ARC
8
right_labelLayer
10
181.7682991
20
240.6494796
40
5.673252
50
81.5884494
51
87.1916489
0
ARC
8
right_labelLayer
10
181.8453757
20
241.9860109
40
4.3345648
50
87.3436621
51
89.9659823
0
ARC
8
right_labelLayer
10
181.8274688
20
243.1185218
40
3.2021186
50
89.6335398
51
137.0880747
0
ARC
8
right_labelLayer
10
182.6132252
20
242.2348953
40
4.3806814
50
135.62084
51
138.8377579
0
ARC
8
right_labelLayer
10
182.4981752
20
242.3472029
40
4.2201553
50
138.9575789
51
174.5422201
0
ARC
8
right_labelLayer
10
183.8725546
20
242.1321488
40
5.6093777
50
173.6907379
51
180.0882937
0
ARC
8
right_labelLayer
10
183.678268
20
242.4556339
40
6.2409185
50
139.4139343
51
150.6032847
0
ARC
8
right_labelLayer
10
182.5592671
20
243.4144992
40
4.7672884
50
124.2321507
51
139.4161019
0
ARC
8
right_labelLayer
10
181.960946
20
244.3176616
40
3.6840257
50
89.6796641
51
124.4405661
0
LINE
8
right_labelLayer
10
187.5702148
20
247.7789734
11
187.5702148
21
235.5774109
0
LINE
8
right_labelLayer
10
187.5702148
20
235.5774109
11
185.722168
21
235.5774109
0
LINE
8
right_labelLayer
10
185.722168
20
235.5774109
11
185.722168
21
247.7789734
0
LINE
8
right_labelLayer
10
185.722168
20
247.7789734
11
187.5702148
21
247.7789734
0
ARC
8
right_labelLayer
10
187.6141193
20
251.0980884
40
2.0478499
50
170.8451562
51
180.3544813
0
ARC
8
right_labelLayer
10
186.8474903
20
251.2262731
40
1.2706
50
155.9678617
51
171.0516287
0
ARC
8
right_labelLayer
10
186.4761783
20
251.3910029
40
0.8643886
50
133.788092
51
155.917098
0
ARC
8
right_labelLayer
10
186.6132645
20
251.2394458
40
1.0686773
50
92.6445999
51
133.4710508
0
ARC
8
right_labelLayer
10
186.6565672
20
250.8993952
40
1.4106332
50
89.9692512
51
93.7643386
0
ARC
8
right_labelLayer
10
186.6741976
20
251.2213126
40
1.0888463
50
46.3708474
51
90.8879229
0
ARC
8
right_labelLayer
10
186.7825628
20
251.3331863
40
0.9330997
50
17.7252104
51
46.4473242
0
ARC
8
right_labelLayer
10
186.2772285
20
251.159169
40
1.4674728
50
4.9427547
51
18.1900789
0
ARC
8
right_labelLayer
10
185.6343525
20
251.089672
40
2.1139915
50
359.8847211
51
5.3180826
0
ARC
8
right_labelLayer
10
185.8362926
20
251.0724354
40
1.9120914
50
349.8345035
51
0.3890485
0
ARC
8
right_labelLayer
10
186.5324109
20
250.9425768
40
1.2039919
50
332.6322013
51
350.0705777
0
ARC
8
right_labelLayer
10
186.8033473
20
250.8087901
40
0.9018968
50
313.6153871
51
332.2677271
0
ARC
8
right_labelLayer
10
186.6727755
20
250.9276811
40
1.0781152
50
269.1788206
51
314.2807436
0
ARC
8
right_labelLayer
10
186.645075
20
251.0235206
40
1.173908
50
250.4999852
51
270.5978673
0
ARC
8
right_labelLayer
10
186.6095482
20
250.890678
40
1.0368827
50
225.1300438
51
249.9001621
0
ARC
8
right_labelLayer
10
186.5539273
20
250.8292372
40
0.9541067
50
197.7933888
51
224.8941983
0
ARC
8
right_labelLayer
10
187.0745119
20
251.0076372
40
1.504344
50
184.9925062
51
198.2040867
0
ARC
8
right_labelLayer
10
187.7482075
20
251.0808678
40
2.1819036
50
179.8804957
51
185.3686535
0
LINE
8
right_labelLayer
10
197.2557617
20
247.7789734
11
201.4750976
21
247.7789734
0
LINE
8
right_labelLayer
10
201.4750976
20
247.7789734
11
201.4750976
21
246.6100281
0
LINE
8
right_labelLayer
10
201.4750976
20
246.6100281
11
199.2151367
21
246.3428406
0
LINE
8
right_labelLayer
10
195.0514648
20
237.5145203
11
197.2112305
21
237.5145203
0
LINE
8
right_labelLayer
10
196.6211914
20
235.8557312
11
194.4057617
21
235.8557312
0
ARC
8
right_labelLayer
10
196.8600671
20
244.4790681
40
3.0033316
50
29.4584651
51
38.3576485
0
ARC
8
right_labelLayer
10
195.632846
20
243.7784954
40
4.4164294
50
23.1845652
51
29.5422634
0
ARC
8
right_labelLayer
10
194.4618192
20
243.2591884
40
5.6973572
50
21.250657
51
23.3489093
0
ARC
8
right_labelLayer
10
196.4522487
20
244.0507927
40
3.5553912
50
6.8504977
51
20.9871809
0
ARC
8
right_labelLayer
10
195.4509023
20
243.915027
40
4.5658085
50
359.8710938
51
7.0432081
0
ARC
8
right_labelLayer
10
195.7803656
20
243.8607032
40
4.2365627
50
342.564988
51
0.5957671
0
ARC
8
right_labelLayer
10
196.5617158
20
243.6449443
40
3.4265796
50
310.6097882
51
342.0923677
0
ARC
8
right_labelLayer
10
196.1235628
20
244.1545992
40
4.0986848
50
284.931595
51
310.6222571
0
ARC
8
right_labelLayer
10
195.575269
20
246.075902
40
6.0964886
50
272.5334891
51
285.2579617
0
ARC
8
right_labelLayer
10
195.4342925
20
248.0015678
40
8.0266973
50
269.96922
51
272.9312147
0
ARC
8
right_labelLayer
10
195.4168009
20
245.914192
40
5.9393348
50
263.4836822
51
270.1271415
0
ARC
8
right_labelLayer
10
195.3200559
20
244.9952845
40
5.0153913
50
259.4963778
51
263.3904241
0
ARC
8
right_labelLayer
10
195.9188133
20
237.1441539
40
3.2885321
50
117.3935206
51
128.4095244
0
ARC
8
right_labelLayer
10
195.0722096
20
238.1944271
40
1.9396024
50
128.0881684
51
147.140068
0
ARC
8
right_labelLayer
10
194.6161191
20
238.5004985
40
1.3904497
50
147.5369309
51
180.2592192
0
ARC
8
right_labelLayer
10
194.1834356
20
238.4823711
40
0.9578252
50
179.2919304
51
198.3580161
0
ARC
8
right_labelLayer
10
194.0040976
20
238.4352398
40
0.7728593
50
199.2291698
51
239.5690827
0
ARC
8
right_labelLayer
10
194.152636
20
238.6404454
40
1.0253146
50
238.220024
51
239.8462476
0
ARC
8
right_labelLayer
10
194.2714162
20
238.8847251
40
1.2963588
50
240.7302383
51
254.502663
0
ARC
8
right_labelLayer
10
194.6252307
20
240.1039588
40
2.5658465
50
254.1637026
51
262.2123044
0
ARC
8
right_labelLayer
10
194.90549
20
242.0614548
40
4.5432813
50
262.0555702
51
267.2083014
0
ARC
8
right_labelLayer
10
195.040877
20
244.5447029
40
7.0301908
50
267.091923
51
270.0862905
0
ARC
8
right_labelLayer
10
197.2516282
20
229.9497918
40
7.5648363
50
81.5744246
51
90.305972
0
ARC
8
right_labelLayer
10
197.6665777
20
232.6560061
40
4.82705
50
68.3671494
51
81.7399368
0
ARC
8
right_labelLayer
10
198.2085414
20
234.0410657
40
3.3397546
50
52.1879649
51
68.2501116
0
ARC
8
right_labelLayer
10
198.5877627
20
234.552042
40
2.7036139
50
8.6201421
51
51.8982431
0
ARC
8
right_labelLayer
10
197.2586575
20
234.2708158
40
4.0606216
50
359.7430604
51
9.7326421
0
ARC
8
right_labelLayer
10
197.3181846
20
234.2023134
40
4.0013697
50
340.526867
51
0.7201641
0
ARC
8
right_labelLayer
10
197.9060785
20
234.0559349
40
3.3988018
50
302.9903672
51
339.5494496
0
ARC
8
right_labelLayer
10
197.2888448
20
234.8402998
40
4.3937147
50
303.1870074
51
304.1722644
0
ARC
8
right_labelLayer
10
196.7137787
20
235.8359816
40
5.5421318
50
286.2542298
51
302.5279982
0
ARC
8
right_labelLayer
10
195.6670984
20
239.2884146
40
9.149615
50
276.4939783
51
286.4953713
0
ARC
8
right_labelLayer
10
195.0140308
20
244.747689
40
14.6477562
50
269.7545038
51
276.6169583
0
ARC
8
right_labelLayer
10
194.9024965
20
240.4540653
40
10.354113
50
262.5634692
51
270.2698929
0
ARC
8
right_labelLayer
10
194.3953678
20
236.6952565
40
6.5613041
50
251.210174
51
262.7064064
0
ARC
8
right_labelLayer
10
193.6644291
20
234.5498534
40
4.2948038
50
235.9667946
51
251.2229174
0
ARC
8
right_labelLayer
10
192.8897023
20
233.4446246
40
2.9453855
50
208.9036205
51
236.4231481
0
ARC
8
right_labelLayer
10
192.9608264
20
233.4148116
40
2.9938511
50
182.2079973
51
207.7461577
0
ARC
8
right_labelLayer
10
193.8660785
20
233.5052394
40
3.9023093
50
179.9784405
51
183.0226667
0
ARC
8
right_labelLayer
10
192.7890876
20
233.5562836
40
2.825753
50
138.391614
51
181.0052653
0
ARC
8
right_labelLayer
10
193.0874922
20
233.2881064
40
3.2269505
50
113.8121487
51
138.3496216
0
ARC
8
right_labelLayer
10
193.6535249
20
232.0658044
40
4.5737974
50
102.2870673
51
114.117273
0
ARC
8
right_labelLayer
10
193.4756645
20
238.2801224
40
1.9180298
50
216.5861419
51
245.4968893
0
ARC
8
right_labelLayer
10
193.7498655
20
238.5127868
40
2.2769978
50
215.4647305
51
217.1746714
0
ARC
8
right_labelLayer
10
193.2928951
20
238.1827353
40
1.7133155
50
182.1767371
51
215.3415645
0
ARC
8
right_labelLayer
10
193.7002681
20
238.2264199
40
2.1222408
50
179.9837926
51
182.9375645
0
ARC
8
right_labelLayer
10
193.6913
20
238.2448842
40
2.1133481
50
161.7225917
51
180.4843204
0
ARC
8
right_labelLayer
10
193.4589404
20
238.3082876
40
1.8728698
50
144.4963554
51
161.3350601
0
ARC
8
right_labelLayer
10
194.0783278
20
237.8466666
40
2.6452372
50
132.7258901
51
144.1479825
0
ARC
8
right_labelLayer
10
195.0710412
20
236.7865702
40
4.0975525
50
125.2212599
51
132.8655614
0
ARC
8
right_labelLayer
10
196.0690424
20
235.4007266
40
5.8052958
50
121.2352097
51
125.379498
0
ARC
8
right_labelLayer
10
194.2998165
20
243.3571356
40
3.2397744
50
215.164071
51
247.474785
0
ARC
8
right_labelLayer
10
194.9046225
20
243.8452349
40
4.0156333
50
212.4714432
51
215.8875498
0
ARC
8
right_labelLayer
10
194.7455438
20
243.7314259
40
3.8203381
50
183.0160854
51
212.3123201
0
ARC
8
right_labelLayer
10
195.583876
20
243.8248674
40
4.6626851
50
179.9759446
51
183.6206988
0
ARC
8
right_labelLayer
10
196.2603216
20
243.8719215
40
5.3393207
50
166.8195761
51
180.4839329
0
ARC
8
right_labelLayer
10
194.489056
20
244.3191283
40
3.5128862
50
132.3287746
51
167.3340895
0
ARC
8
right_labelLayer
10
194.7260287
20
243.9784992
40
3.9246584
50
106.2189029
51
131.537752
0
ARC
8
right_labelLayer
10
195.3256118
20
242.0370885
40
5.9563664
50
93.6329874
51
106.5408539
0
ARC
8
right_labelLayer
10
195.5213503
20
239.8395084
40
8.1621261
50
89.938048
51
94.0267633
0
ARC
8
right_labelLayer
10
195.5530407
20
240.9179801
40
7.0836864
50
82.5852291
51
90.1849414
0
ARC
8
right_labelLayer
10
195.7694811
20
242.5926494
40
5.3950891
50
74.0089209
51
82.5694301
0
ARC
8
right_labelLayer
10
193.6009052
20
233.5037314
40
1.8560574
50
179.2207655
51
200.9355494
0
ARC
8
right_labelLayer
10
193.3801837
20
233.4526235
40
1.6319425
50
202.0286883
51
236.1457414
0
ARC
8
right_labelLayer
10
193.7127922
20
233.8749324
40
2.1683292
50
235.0634505
51
238.504252
0
ARC
8
right_labelLayer
10
194.0995616
20
234.5657443
40
2.9595956
50
239.1066169
51
254.4862976
0
ARC
8
right_labelLayer
10
194.6151863
20
236.3436095
40
4.8106478
50
254.2324289
51
263.4937167
0
ARC
8
right_labelLayer
10
194.9390682
20
239.0868581
40
7.572936
50
263.4108518
51
270.1457457
0
ARC
8
right_labelLayer
10
194.9734042
20
240.82387
40
9.3099356
50
269.9072401
51
270.0008058
0
ARC
8
right_labelLayer
10
195.0178233
20
243.9373823
40
12.4235269
50
269.7957479
51
275.3991121
0
ARC
8
right_labelLayer
10
195.4828004
20
239.1639546
40
7.6275384
50
275.2956865
51
283.351611
0
ARC
8
right_labelLayer
10
196.240338
20
236.0438083
40
4.4168213
50
283.1370693
51
295.857314
0
ARC
8
right_labelLayer
10
196.8016496
20
234.8183924
40
3.0694251
50
296.4047726
51
301.800873
0
ARC
8
right_labelLayer
10
197.0217282
20
234.5150418
40
2.6957745
50
301.2230711
51
318.6238315
0
ARC
8
right_labelLayer
10
197.5180971
20
234.0565273
40
2.0202914
50
319.0765526
51
1.140707
0
ARC
8
right_labelLayer
10
197.0377047
20
234.1165543
40
2.500362
50
359.5461062
51
10.9904557
0
ARC
8
right_labelLayer
10
198.0035117
20
234.3129979
40
1.5148429
50
10.6608723
51
30.936174
0
ARC
8
right_labelLayer
10
198.3097359
20
234.4829416
40
1.164875
50
31.5095464
51
58.0778084
0
ARC
8
right_labelLayer
10
198.0227309
20
233.9690499
40
1.753034
50
58.9971999
51
73.858636
0
ARC
8
right_labelLayer
10
197.4426278
20
232.0699647
40
3.7386428
50
73.4100074
51
81.5907307
0
ARC
8
right_labelLayer
10
196.9511037
20
228.8891317
40
6.9571916
50
81.4172525
51
86.575648
0
ARC
8
right_labelLayer
10
196.6499102
20
224.0969472
40
11.7588191
50
86.5054073
51
90.1399348
0
ARC
8
right_labelLayer
10
194.3793295
20
231.6077061
40
4.2481073
50
89.6434974
51
100.0209284
0
ARC
8
right_labelLayer
10
194.1123305
20
233.0601563
40
2.7713742
50
99.8103
51
116.8229424
0
ARC
8
right_labelLayer
10
193.8522419
20
233.608651
40
2.1645883
50
117.2304589
51
130.5023474
0
ARC
8
right_labelLayer
10
193.7187022
20
233.7802807
40
1.9473788
50
130.7944823
51
169.0413496
0
ARC
8
right_labelLayer
10
194.702087
20
233.5486895
40
2.9571333
50
168.2580529
51
180.3820117
0
ARC
8
right_labelLayer
10
196.3542066
20
243.8437649
40
3.6073395
50
179.5617591
51
191.6529081
0
ARC
8
right_labelLayer
10
195.0999791
20
243.5727838
40
2.3242606
50
191.3555142
51
213.3660211
0
ARC
8
right_labelLayer
10
194.7987706
20
243.3988641
40
1.9771509
50
213.957407
51
227.7971804
0
ARC
8
right_labelLayer
10
195.0608265
20
243.7166947
40
2.3887075
50
228.2620712
51
254.7341452
0
ARC
8
right_labelLayer
10
195.3956186
20
244.8643705
40
3.5840975
50
254.4016668
51
267.434861
0
ARC
8
right_labelLayer
10
195.4829656
20
246.0358694
40
4.7584593
50
267.0154885
51
270.0322561
0
ARC
8
right_labelLayer
10
195.5400527
20
245.3031075
40
4.0260643
50
269.2256814
51
284.3773138
0
ARC
8
right_labelLayer
10
196.0887984
20
243.3912691
40
2.038637
50
282.7796726
51
346.4828526
0
ARC
8
right_labelLayer
10
194.4481886
20
243.8559829
40
3.7430471
50
345.4362215
51
0.7465833
0
ARC
8
right_labelLayer
10
194.2175702
20
243.9615793
40
3.9737541
50
359.1806424
51
15.0431545
0
ARC
8
right_labelLayer
10
196.0181528
20
244.4868272
40
2.0989296
50
13.9535585
51
77.6673823
0
ARC
8
right_labelLayer
10
195.5015489
20
242.6355377
40
4.0193241
50
76.1095064
51
90.7028333
0
ARC
8
right_labelLayer
10
195.4242235
20
242.7769273
40
3.8777333
50
89.585947
51
101.3333929
0
ARC
8
right_labelLayer
10
195.1471092
20
244.0986518
40
2.5273525
50
101.0620616
51
121.9739011
0
ARC
8
right_labelLayer
10
194.95235
20
244.4490098
40
2.1271132
50
122.5210838
51
134.9967202
0
ARC
8
right_labelLayer
10
195.0325427
20
244.4009592
40
2.2179102
50
135.5840006
51
163.0015757
0
ARC
8
right_labelLayer
10
196.2037638
20
244.0170751
40
3.4502791
50
162.5911986
51
175.7343162
0
ARC
8
right_labelLayer
10
197.6084932
20
243.8786894
40
4.8615262
50
175.3393017
51
180.0864254
0
LINE
8
right_labelLayer
10
214.1776367
20
235.5774109
11
212.3295898
21
235.5774109
0
LINE
8
right_labelLayer
10
212.3295898
20
235.5774109
11
212.3295898
21
243.470575
0
LINE
8
right_labelLayer
10
205.8280273
20
241.9565125
11
205.8280273
21
235.5774109
0
LINE
8
right_labelLayer
10
205.8280273
20
235.5774109
11
203.9799805
21
235.5774109
0
LINE
8
right_labelLayer
10
203.9799805
20
235.5774109
11
203.9799805
21
252.9000671
0
LINE
8
right_labelLayer
10
203.9799805
20
252.9000671
11
205.8280273
21
252.9000671
0
LINE
8
right_labelLayer
10
205.8280273
20
252.9000671
11
205.8280273
21
247.6565125
0
LINE
8
right_labelLayer
10
205.7389648
20
246.0867859
11
205.850293
21
246.0867859
0
LINE
8
right_labelLayer
10
214.1776367
20
243.5373718
11
214.1776367
21
235.5774109
0
ARC
8
right_labelLayer
10
207.105712
20
243.5005328
40
5.2239637
50
359.6714238
51
8.687736
0
ARC
8
right_labelLayer
10
209.0418605
20
243.807594
40
3.2636678
50
8.4931436
51
22.6579894
0
ARC
8
right_labelLayer
10
210.0255588
20
244.2163883
40
2.1984116
50
22.7024458
51
42.3419665
0
ARC
8
right_labelLayer
10
210.1361297
20
244.2661253
40
2.0835253
50
43.3791083
51
71.5385894
0
ARC
8
right_labelLayer
10
209.7226464
20
243.1107463
40
3.3104861
50
71.0827923
51
84.3691089
0
ARC
8
right_labelLayer
10
209.53704
20
241.5326467
40
4.8992732
50
84.0198022
51
90.1510835
0
ARC
8
right_labelLayer
10
209.4842938
20
240.8395805
40
5.5924644
50
89.5919591
51
100.3595159
0
ARC
8
right_labelLayer
10
209.0882963
20
242.9206045
40
3.4741876
50
100.1067952
51
118.0847406
0
ARC
8
right_labelLayer
10
208.6855346
20
243.7109201
40
2.5873732
50
118.4551065
51
139.670606
0
ARC
8
right_labelLayer
10
209.0898816
20
243.4345432
40
3.0749102
50
140.6208273
51
160.504905
0
ARC
8
right_labelLayer
10
211.2212421
20
242.6455213
40
5.347496
50
160.1567185
51
171.5312694
0
ARC
8
right_labelLayer
10
214.6697661
20
242.0991428
40
8.8389436
50
171.3202206
51
178.3406882
0
ARC
8
right_labelLayer
10
217.755385
20
241.961292
40
11.9273586
50
178.107973
51
180.0229598
0
ARC
8
right_labelLayer
10
189.2034328
20
247.6366958
40
16.6246063
50
357.8674263
51
0.0682971
0
ARC
8
right_labelLayer
10
194.8511848
20
247.4212256
40
10.9727491
50
354.9828357
51
357.8943582
0
ARC
8
right_labelLayer
10
198.5807604
20
247.0964612
40
7.2290618
50
351.9713111
51
354.9618569
0
ARC
8
right_labelLayer
10
208.9805735
20
244.1286859
40
3.6922638
50
119.8316057
51
147.9725792
0
ARC
8
right_labelLayer
10
209.4275942
20
243.4419996
40
4.5105662
50
116.6657508
51
120.4183822
0
ARC
8
right_labelLayer
10
209.5111449
20
243.2225854
40
4.7441994
50
96.6652452
51
116.3782498
0
ARC
8
right_labelLayer
10
209.6910168
20
241.9815738
40
5.9978007
50
89.8927289
51
96.9959083
0
ARC
8
right_labelLayer
10
209.7485339
20
240.4817153
40
7.4977916
50
80.6863066
51
90.3537194
0
ARC
8
right_labelLayer
10
210.2153943
20
243.2277232
40
4.7124557
50
65.6022874
51
80.8844001
0
ARC
8
right_labelLayer
10
210.7760086
20
244.4903544
40
3.3310235
50
46.7400878
51
65.4130616
0
ARC
8
right_labelLayer
10
210.8141143
20
244.610663
40
3.2177594
50
19.2204286
51
45.7660812
0
ARC
8
right_labelLayer
10
208.9587244
20
243.9228549
40
5.1963005
50
6.4733912
51
19.6468013
0
ARC
8
right_labelLayer
10
206.1863426
20
243.5660326
40
7.9913455
50
359.7945098
51
6.7744073
0
LINE
8
right_labelLayer
10
223.5848633
20
237.1026062
11
223.5848633
21
235.688739
0
LINE
8
right_labelLayer
10
218.1075195
20
239.0842468
11
218.1075195
21
246.3428406
0
LINE
8
right_labelLayer
10
218.1075195
20
246.3428406
11
216.359668
21
246.3428406
0
LINE
8
right_labelLayer
10
216.359668
20
246.3428406
11
216.359668
21
247.2334656
0
LINE
8
right_labelLayer
10
216.359668
20
247.2334656
11
218.1075195
21
248.0016296
0
LINE
8
right_labelLayer
10
218.1075195
20
248.0016296
11
218.8868164
21
250.6067078
0
LINE
8
right_labelLayer
10
218.8868164
20
250.6067078
11
219.9555664
21
250.6067078
0
LINE
8
right_labelLayer
10
219.9555664
20
250.6067078
11
219.9555664
21
247.7789734
0
LINE
8
right_labelLayer
10
219.9555664
20
247.7789734
11
223.4958008
21
247.7789734
0
LINE
8
right_labelLayer
10
223.4958008
20
247.7789734
11
223.4958008
21
246.3428406
0
LINE
8
right_labelLayer
10
223.4958008
20
246.3428406
11
219.9555664
21
246.3428406
0
LINE
8
right_labelLayer
10
219.9555664
20
246.3428406
11
219.9555664
21
239.1621765
0
ARC
8
right_labelLayer
10
221.9276137
20
242.9491941
40
6.0692574
50
269.880369
51
278.3028208
0
ARC
8
right_labelLayer
10
221.9845814
20
242.4823419
40
5.5990829
50
278.4158464
51
279.0078686
0
ARC
8
right_labelLayer
10
221.3043857
20
246.827601
40
9.9972533
50
278.9589768
51
280.5104114
0
ARC
8
right_labelLayer
10
221.9533448
20
243.3454743
40
6.4551717
50
280.4848365
51
282.6268135
0
ARC
8
right_labelLayer
10
222.5225596
20
240.8166047
40
3.8630347
50
282.5876952
51
285.5794595
0
ARC
8
right_labelLayer
10
222.8085646
20
239.7647902
40
2.7730601
50
285.7239607
51
286.2567991
0
ARC
8
right_labelLayer
10
222.8078949
20
237.3320713
40
1.8177516
50
287.9888224
51
295.3048094
0
ARC
8
right_labelLayer
10
222.3694491
20
238.6585815
40
3.214832
50
283.3069917
51
288.1197292
0
ARC
8
right_labelLayer
10
221.9063312
20
240.5903994
40
5.2013807
50
280.0069678
51
283.3735239
0
ARC
8
right_labelLayer
10
221.5960132
20
242.2746343
40
6.9139282
50
279.1864374
51
280.1141274
0
ARC
8
right_labelLayer
10
221.4062011
20
243.3541882
40
8.0099529
50
275.5260526
51
279.2939444
0
ARC
8
right_labelLayer
10
221.6205574
20
241.1152758
40
5.7608041
50
270.8932902
51
275.5483664
0
ARC
8
right_labelLayer
10
221.6474782
20
240.0929371
40
4.7381825
50
270.0033339
51
270.7605274
0
ARC
8
right_labelLayer
10
221.5731789
20
240.1810002
40
4.8268217
50
253.7847817
51
270.8852627
0
ARC
8
right_labelLayer
10
221.0013285
20
238.2307777
40
2.7944966
50
190.3817622
51
253.8772446
0
ARC
8
right_labelLayer
10
223.9160373
20
239.018865
40
5.8088859
50
179.3550945
51
192.8477727
0
ARC
8
right_labelLayer
10
223.6768392
20
239.1389021
40
3.7213456
50
179.6416529
51
189.7506082
0
ARC
8
right_labelLayer
10
222.3631422
20
238.9045878
40
2.3869574
50
189.5479745
51
205.7873511
0
ARC
8
right_labelLayer
10
221.8232515
20
238.6556264
40
1.7925577
50
206.1294007
51
221.4084273
0
ARC
8
right_labelLayer
10
221.7627236
20
238.6096986
40
1.7167922
50
221.5949216
51
262.3505103
0
ARC
8
right_labelLayer
10
221.9066936
20
239.350036
40
2.4701
50
261.3265815
51
270.191315
0
LINE
8
bottom_outsideCutPath
10
260
20
123
11
260
21
3
0
LINE
8
bottom_outsideCutPath
10
260
20
3
11
400
21
3
0
LINE
8
bottom_outsideCutPath
10
400
20
3
11
400
21
123
0
LINE
8
bottom_outsideCutPath
10
400
20
123
11
260
21
123
0
LINE
8
bottom_labelLayer
10
292.4647869
20
55.652647
11
292.3241619
21
55.652647
0
LINE
8
bottom_labelLayer
10
292.3241619
20
55.652647
11
291.9140056
21
54.0003032
0
LINE
8
bottom_labelLayer
10
291.9140056
20
54.0003032
11
290.5194744
21
54.0003032
0
LINE
8
bottom_labelLayer
10
290.5194744
20
54.0003032
11
290.5194744
21
72.2346782
0
LINE
8
bottom_labelLayer
10
290.5194744
20
72.2346782
11
292.4647869
21
72.2346782
0
LINE
8
bottom_labelLayer
10
292.4647869
20
72.2346782
11
292.4647869
21
67.8049907
0
LINE
8
bottom_labelLayer
10
292.3710369
20
65.1331157
11
292.4647869
21
65.1331157
0
ARC
8
bottom_labelLayer
10
296.5543936
20
61.1097246
40
5.9455525
50
74.2393375
51
90.5623776
0
ARC
8
bottom_labelLayer
10
296.9475325
20
62.5519759
40
4.4507589
50
38.5631365
51
74.0670293
0
ARC
8
bottom_labelLayer
10
295.9358109
20
61.7653037
40
5.7322603
50
16.4709215
51
38.4075341
0
ARC
8
bottom_labelLayer
10
293.0211901
20
60.8513615
40
8.7865474
50
5.133838
51
16.7973492
0
ARC
8
bottom_labelLayer
10
289.3416894
20
60.4604976
40
12.4864073
50
359.8779389
51
5.4093642
0
ARC
8
bottom_labelLayer
10
290.4224385
20
60.3666065
40
11.4058281
50
350.6562831
51
0.3380273
0
ARC
8
bottom_labelLayer
10
294.3987049
20
59.6902875
40
7.3725456
50
335.8305891
51
350.8254844
0
ARC
8
bottom_labelLayer
10
296.1477856
20
58.9353586
40
5.4677649
50
321.3161458
51
335.5436187
0
ARC
8
bottom_labelLayer
10
296.8164712
20
58.3904812
40
4.6052297
50
274.0640024
51
321.4081028
0
ARC
8
bottom_labelLayer
10
296.5049506
20
60.3637943
40
6.5978721
50
269.9225933
51
275.5481475
0
ARC
8
bottom_labelLayer
10
296.4632326
20
59.666398
40
5.900561
50
255.7755484
51
270.3185388
0
ARC
8
bottom_labelLayer
10
296.2948442
20
58.9182696
40
5.1340345
50
245.9801715
51
255.5455942
0
ARC
8
bottom_labelLayer
10
295.9687006
20
58.159817
40
4.3085161
50
215.5850158
51
245.8361621
0
ARC
8
bottom_labelLayer
10
251.9066206
20
67.7706973
40
40.5581808
50
358.1123256
51
0.0484457
0
ARC
8
bottom_labelLayer
10
263.1943416
20
67.3917464
40
29.2641033
50
355.7238694
51
358.1258854
0
ARC
8
bottom_labelLayer
10
268.1315853
20
67.0528312
40
24.3153517
50
355.4717421
51
355.6527888
0
ARC
8
bottom_labelLayer
10
296.0927097
20
62.6032678
40
4.4228898
50
95.1835114
51
145.1109019
0
ARC
8
bottom_labelLayer
10
296.481465
20
60.4110508
40
6.6439559
50
89.8743359
51
96.8145463
0
ARC
8
bottom_labelLayer
10
296.1740599
20
59.959758
40
5.4664782
50
89.5731239
51
100.7324421
0
ARC
8
bottom_labelLayer
10
295.7693878
20
62.0042921
40
3.3823909
50
100.4469409
51
119.6700738
0
ARC
8
bottom_labelLayer
10
295.3941332
20
62.7058748
40
2.5871268
50
120.1402921
51
142.4249147
0
ARC
8
bottom_labelLayer
10
296.0149601
20
62.2951767
40
3.3300333
50
143.3382316
51
161.2559928
0
ARC
8
bottom_labelLayer
10
298.611132
20
61.3734477
40
6.0848252
50
160.89263
51
171.233437
0
ARC
8
bottom_labelLayer
10
302.9451404
20
60.6742675
40
10.4748073
50
171.0667716
51
177.8456918
0
ARC
8
bottom_labelLayer
10
307.4522447
20
60.445028
40
14.987462
50
177.6176493
51
180.0425531
0
ARC
8
bottom_labelLayer
10
305.3269319
20
60.3836722
40
12.8622431
50
179.7762696
51
185.7075296
0
ARC
8
bottom_labelLayer
10
300.2557842
20
59.8611614
40
7.7642873
50
185.5924686
51
194.2050835
0
ARC
8
bottom_labelLayer
10
297.0072915
20
59.0180613
40
4.4082768
50
193.9430235
51
208.0218478
0
ARC
8
bottom_labelLayer
10
295.6929281
20
58.349407
40
2.9339851
50
208.5536475
51
217.5605739
0
ARC
8
bottom_labelLayer
10
295.5858566
20
58.3048748
40
2.822121
50
218.1690414
51
253.8047132
0
ARC
8
bottom_labelLayer
10
296.1093069
20
59.9187292
40
4.5182343
50
253.1382536
51
266.8482973
0
ARC
8
bottom_labelLayer
10
296.2560887
20
61.649757
40
6.254925
50
266.3775715
51
270.0510514
0
ARC
8
bottom_labelLayer
10
296.3031577
20
59.2725744
40
3.8779619
50
269.3869
51
285.8630723
0
ARC
8
bottom_labelLayer
10
296.5912665
20
58.2313114
40
2.7976114
50
286.0162882
51
326.8497398
0
ARC
8
bottom_labelLayer
10
295.2007068
20
59.1525072
40
4.4655995
50
326.7104982
51
343.6661705
0
ARC
8
bottom_labelLayer
10
292.5976453
20
59.9479161
40
7.1873631
50
343.4171489
51
353.6369015
0
ARC
8
bottom_labelLayer
10
288.6660206
20
60.4144306
40
11.1465053
50
353.4934728
51
0.220537
0
ARC
8
bottom_labelLayer
10
288.3194568
20
60.5038539
40
11.4930805
50
359.768089
51
6.3095294
0
ARC
8
bottom_labelLayer
10
292.6486631
20
61.000658
40
7.1355218
50
6.1648611
51
16.0396304
0
ARC
8
bottom_labelLayer
10
295.4374763
20
61.8225196
40
4.2282367
50
15.7779367
51
32.0151266
0
ARC
8
bottom_labelLayer
10
296.3072162
20
62.3205993
40
3.2269563
50
32.7033549
51
35.5242843
0
ARC
8
bottom_labelLayer
10
296.6251898
20
62.5466038
40
2.836848
50
35.5408415
51
79.801127
0
ARC
8
bottom_labelLayer
10
296.244229
20
60.9270659
40
4.4991151
50
78.6781277
51
90.3749445
0
ARC
8
bottom_labelLayer
10
306.2643465
20
60.3661551
40
10.048325
50
349.1761848
51
0.3862689
0
ARC
8
bottom_labelLayer
10
309.6473704
20
59.691742
40
6.5988955
50
330.2507088
51
349.4116414
0
ARC
8
bottom_labelLayer
10
310.6884957
20
59.1506074
40
5.4266731
50
318.1439818
51
329.7566157
0
ARC
8
bottom_labelLayer
10
310.87641
20
59.0000129
40
5.186241
50
278.8959142
51
317.9979157
0
ARC
8
bottom_labelLayer
10
310.3922402
20
61.3197039
40
7.5538476
50
269.7502864
51
279.8033342
0
ARC
8
bottom_labelLayer
10
310.3137168
20
60.0127046
40
6.2469429
50
253.5436952
51
270.4182511
0
ARC
8
bottom_labelLayer
10
310.1057683
20
59.2083086
40
5.4166642
50
238.8115546
51
253.2428384
0
ARC
8
bottom_labelLayer
10
310.0386567
20
59.0733473
40
5.2664697
50
207.7947012
51
238.6757963
0
ARC
8
bottom_labelLayer
10
311.0016669
20
59.663148
40
6.3938119
50
205.6560415
51
208.4461506
0
ARC
8
bottom_labelLayer
10
311.743426
20
59.9722111
40
7.1963807
50
188.9102519
51
205.3171454
0
ARC
8
bottom_labelLayer
10
314.2431893
20
60.3955899
40
9.7316027
50
179.774463
51
189.0932878
0
ARC
8
bottom_labelLayer
10
314.6119518
20
60.5023095
40
10.1005216
50
169.2442975
51
180.3880772
0
ARC
8
bottom_labelLayer
10
311.1818936
20
61.1803076
40
6.604245
50
150.7111509
51
169.4695445
0
ARC
8
bottom_labelLayer
10
310.0869002
20
61.7426291
40
5.3743262
50
138.1759262
51
150.2287565
0
ARC
8
bottom_labelLayer
10
309.9047709
20
61.8823923
40
5.1454329
50
99.1759396
51
137.9832734
0
ARC
8
bottom_labelLayer
10
310.4060919
20
59.5231129
40
7.5553974
50
89.7326269
51
100.0759727
0
ARC
8
bottom_labelLayer
10
310.5062905
20
60.5420113
40
6.5367395
50
73.5222687
51
90.5692303
0
ARC
8
bottom_labelLayer
10
310.8896311
20
61.9347876
40
5.0925067
50
41.1445685
51
73.2133837
0
ARC
8
bottom_labelLayer
10
310.1578645
20
61.305844
40
6.0573904
50
13.5014349
51
41.0703455
0
ARC
8
bottom_labelLayer
10
307.3306949
20
60.5660108
40
8.9793531
50
1.1277128
51
13.8800049
0
ARC
8
bottom_labelLayer
10
304.8948999
20
60.4355037
40
11.4175433
50
359.9919372
51
1.5419349
0
ARC
8
bottom_labelLayer
10
316.3781934
20
60.3833439
40
9.8510362
50
179.705971
51
187.9160766
0
ARC
8
bottom_labelLayer
10
312.765137
20
59.8643327
40
6.2009516
50
187.7639294
51
200.0976817
0
ARC
8
bottom_labelLayer
10
310.774718
20
59.1350406
40
4.0811324
50
200.0845823
51
216.9131551
0
ARC
8
bottom_labelLayer
10
310.0478889
20
58.616051
40
3.1883642
50
217.3009547
51
261.7099106
0
ARC
8
bottom_labelLayer
10
310.3853069
20
60.2261753
40
4.8313858
50
260.5033213
51
270.2476922
0
ARC
8
bottom_labelLayer
10
310.4497121
20
59.913086
40
4.5184611
50
269.4481552
51
284.7255622
0
ARC
8
bottom_labelLayer
10
310.8074111
20
58.5864933
40
3.1445297
50
284.5662336
51
322.6333806
0
ARC
8
bottom_labelLayer
10
309.9710902
20
59.1906977
40
4.1760003
50
323.0089257
51
342.6390464
0
ARC
8
bottom_labelLayer
10
307.5790408
20
59.9724887
40
6.6924346
50
342.3615655
51
353.7537662
0
ARC
8
bottom_labelLayer
10
304.0499514
20
60.3978733
40
10.2469298
50
353.5363176
51
0.2014268
0
ARC
8
bottom_labelLayer
10
304.5906704
20
60.4834373
40
9.7062742
50
359.7075639
51
7.8972796
0
ARC
8
bottom_labelLayer
10
308.1453705
20
60.9930386
40
6.1152909
50
7.7439865
51
20.0690117
0
ARC
8
bottom_labelLayer
10
310.1262037
20
61.71993
40
4.0053009
50
20.0256933
51
37.4350686
0
ARC
8
bottom_labelLayer
10
310.7834204
20
62.1862823
40
3.2000982
50
37.9577645
51
80.400624
0
ARC
8
bottom_labelLayer
10
310.4099417
20
60.5198508
40
4.9063088
50
79.345361
51
90.3174798
0
ARC
8
bottom_labelLayer
10
310.3407874
20
60.7966592
40
4.6296155
50
89.4805969
51
103.8805122
0
ARC
8
bottom_labelLayer
10
309.9517791
20
62.2779972
40
3.0982933
50
103.4685158
51
142.3118982
0
ARC
8
bottom_labelLayer
10
310.7080426
20
61.7461387
40
4.022135
50
142.90258
51
162.3749602
0
ARC
8
bottom_labelLayer
10
313.0910265
20
60.9520162
40
6.5338029
50
162.0653208
51
173.1674858
0
ARC
8
bottom_labelLayer
10
316.8067088
20
60.4781026
40
10.2795168
50
173.0086176
51
180.2463933
0
LINE
8
bottom_labelLayer
10
325.6288494
20
55.605772
11
325.6288494
21
54.1174907
0
LINE
8
bottom_labelLayer
10
319.8632244
20
57.6917095
11
319.8632244
21
65.3323345
0
LINE
8
bottom_labelLayer
10
319.8632244
20
65.3323345
11
318.0233806
21
65.3323345
0
LINE
8
bottom_labelLayer
10
318.0233806
20
65.3323345
11
318.0233806
21
66.2698345
0
LINE
8
bottom_labelLayer
10
318.0233806
20
66.2698345
11
319.8632244
21
67.0784282
0
LINE
8
bottom_labelLayer
10
319.8632244
20
67.0784282
11
320.6835369
21
69.8206157
0
LINE
8
bottom_labelLayer
10
320.6835369
20
69.8206157
11
321.8085369
21
69.8206157
0
LINE
8
bottom_labelLayer
10
321.8085369
20
69.8206157
11
321.8085369
21
66.8440532
0
LINE
8
bottom_labelLayer
10
321.8085369
20
66.8440532
11
325.5350994
21
66.8440532
0
LINE
8
bottom_labelLayer
10
325.5350994
20
66.8440532
11
325.5350994
21
65.3323345
0
LINE
8
bottom_labelLayer
10
325.5350994
20
65.3323345
11
321.8085369
21
65.3323345
0
LINE
8
bottom_labelLayer
10
321.8085369
20
65.3323345
11
321.8085369
21
57.7737407
0
ARC
8
bottom_labelLayer
10
323.8843775
20
61.760056
40
6.3886729
50
269.8803567
51
278.3028336
0
ARC
8
bottom_labelLayer
10
323.9452588
20
61.2626708
40
5.8877209
50
278.4155406
51
279.0081712
0
ARC
8
bottom_labelLayer
10
323.2282875
20
65.8429448
40
10.5237659
50
278.9590101
51
280.5103943
0
ARC
8
bottom_labelLayer
10
323.911475
20
62.17717
40
6.7948739
50
280.4847891
51
282.6267799
0
ARC
8
bottom_labelLayer
10
324.5106443
20
59.515214
40
4.0663209
50
282.58766
51
285.5794473
0
ARC
8
bottom_labelLayer
10
324.8097406
20
58.4149032
40
2.9261164
50
285.7245036
51
286.256048
0
ARC
8
bottom_labelLayer
10
324.810994
20
55.8472997
40
1.9134071
50
287.9887831
51
295.3048298
0
ARC
8
bottom_labelLayer
10
324.3495129
20
57.2434736
40
3.3838602
50
283.3068705
51
288.1198548
0
ARC
8
bottom_labelLayer
10
323.8619362
20
59.27731
40
5.4753182
50
280.0070318
51
283.3734769
0
ARC
8
bottom_labelLayer
10
323.5356142
20
61.0483217
40
7.2761039
50
279.186299
51
280.1142077
0
ARC
8
bottom_labelLayer
10
323.3355242
20
62.1863634
40
8.431508
50
275.5260434
51
279.2939448
0
ARC
8
bottom_labelLayer
10
323.5611662
20
59.8295655
40
6.0639347
50
270.8932317
51
275.5483613
0
ARC
8
bottom_labelLayer
10
323.5895129
20
58.7529524
40
4.9870241
50
270.0031482
51
270.7604232
0
ARC
8
bottom_labelLayer
10
323.5112882
20
58.8461975
40
5.0808757
50
253.7848016
51
270.8852459
0
ARC
8
bottom_labelLayer
10
322.9093392
20
56.7933208
40
2.9415753
50
190.3817606
51
253.8772428
0
ARC
8
bottom_labelLayer
10
325.9774572
20
57.6228858
40
6.11462
50
179.3550883
51
192.8477587
0
ARC
8
bottom_labelLayer
10
325.7256876
20
57.7492425
40
3.9172273
50
179.6416712
51
189.7505711
0
ARC
8
bottom_labelLayer
10
324.3428186
20
57.5025919
40
2.5125779
50
189.5479422
51
205.7873769
0
ARC
8
bottom_labelLayer
10
323.7745299
20
57.2405356
40
1.886913
50
206.1294343
51
221.408378
0
ARC
8
bottom_labelLayer
10
323.7108077
20
57.1921849
40
1.8071497
50
221.5949186
51
262.3505072
0
ARC
8
bottom_labelLayer
10
323.8623539
20
57.9714937
40
2.6001111
50
261.3266248
51
270.1913377
0
LINE
8
bottom_labelLayer
10
334.1015056
20
55.605772
11
334.1015056
21
54.1174907
0
LINE
8
bottom_labelLayer
10
328.3358806
20
57.6917095
11
328.3358806
21
65.3323345
0
LINE
8
bottom_labelLayer
10
328.3358806
20
65.3323345
11
326.4960369
21
65.3323345
0
LINE
8
bottom_labelLayer
10
326.4960369
20
65.3323345
11
326.4960369
21
66.2698345
0
LINE
8
bottom_labelLayer
10
326.4960369
20
66.2698345
11
328.3358806
21
67.0784282
0
LINE
8
bottom_labelLayer
10
328.3358806
20
67.0784282
11
329.1561931
21
69.8206157
0
LINE
8
bottom_labelLayer
10
329.1561931
20
69.8206157
11
330.2811931
21
69.8206157
0
LINE
8
bottom_labelLayer
10
330.2811931
20
69.8206157
11
330.2811931
21
66.8440532
0
LINE
8
bottom_labelLayer
10
330.2811931
20
66.8440532
11
334.0077556
21
66.8440532
0
LINE
8
bottom_labelLayer
10
334.0077556
20
66.8440532
11
334.0077556
21
65.3323345
0
LINE
8
bottom_labelLayer
10
334.0077556
20
65.3323345
11
330.2811931
21
65.3323345
0
LINE
8
bottom_labelLayer
10
330.2811931
20
65.3323345
11
330.2811931
21
57.7737407
0
ARC
8
bottom_labelLayer
10
332.3570338
20
61.760056
40
6.3886729
50
269.8803567
51
278.3028336
0
ARC
8
bottom_labelLayer
10
332.4179151
20
61.2626708
40
5.8877209
50
278.4155406
51
279.0081712
0
ARC
8
bottom_labelLayer
10
331.7009437
20
65.8429448
40
10.5237659
50
278.9590101
51
280.5103943
0
ARC
8
bottom_labelLayer
10
332.3841312
20
62.17717
40
6.7948739
50
280.4847891
51
282.6267799
0
ARC
8
bottom_labelLayer
10
332.9833006
20
59.515214
40
4.0663209
50
282.58766
51
285.5794473
0
ARC
8
bottom_labelLayer
10
333.2823968
20
58.4149032
40
2.9261164
50
285.7245036
51
286.256048
0
ARC
8
bottom_labelLayer
10
333.2836503
20
55.8472997
40
1.9134071
50
287.9887831
51
295.3048298
0
ARC
8
bottom_labelLayer
10
332.8221692
20
57.2434736
40
3.3838602
50
283.3068705
51
288.1198548
0
ARC
8
bottom_labelLayer
10
332.3345924
20
59.27731
40
5.4753182
50
280.0070318
51
283.3734769
0
ARC
8
bottom_labelLayer
10
332.0082704
20
61.0483217
40
7.2761039
50
279.186299
51
280.1142077
0
ARC
8
bottom_labelLayer
10
331.8081805
20
62.1863634
40
8.431508
50
275.5260434
51
279.2939448
0
ARC
8
bottom_labelLayer
10
332.0338225
20
59.8295655
40
6.0639347
50
270.8932317
51
275.5483613
0
ARC
8
bottom_labelLayer
10
332.0621691
20
58.7529524
40
4.9870241
50
270.0031482
51
270.7604232
0
ARC
8
bottom_labelLayer
10
331.9839444
20
58.8461975
40
5.0808757
50
253.7848016
51
270.8852459
0
ARC
8
bottom_labelLayer
10
331.3819955
20
56.7933208
40
2.9415753
50
190.3817606
51
253.8772428
0
ARC
8
bottom_labelLayer
10
334.4501135
20
57.6228858
40
6.11462
50
179.3550883
51
192.8477587
0
ARC
8
bottom_labelLayer
10
334.1983439
20
57.7492425
40
3.9172273
50
179.6416712
51
189.7505711
0
ARC
8
bottom_labelLayer
10
332.8154749
20
57.5025919
40
2.5125779
50
189.5479422
51
205.7873769
0
ARC
8
bottom_labelLayer
10
332.2471862
20
57.2405356
40
1.886913
50
206.1294343
51
221.408378
0
ARC
8
bottom_labelLayer
10
332.1834639
20
57.1921849
40
1.8071497
50
221.5949186
51
262.3505072
0
ARC
8
bottom_labelLayer
10
332.3350102
20
57.9714937
40
2.6001111
50
261.3266248
51
270.1913377
0
ARC
8
bottom_labelLayer
10
337.7057527
20
60.3661551
40
10.048325
50
349.1761848
51
0.3862689
0
ARC
8
bottom_labelLayer
10
341.0887767
20
59.691742
40
6.5988955
50
330.2507088
51
349.4116414
0
ARC
8
bottom_labelLayer
10
342.1299019
20
59.1506074
40
5.4266731
50
318.1439818
51
329.7566157
0
ARC
8
bottom_labelLayer
10
342.3178162
20
59.0000129
40
5.186241
50
278.8959142
51
317.9979157
0
ARC
8
bottom_labelLayer
10
341.8336464
20
61.3197039
40
7.5538476
50
269.7502864
51
279.8033342
0
ARC
8
bottom_labelLayer
10
341.755123
20
60.0127046
40
6.2469429
50
253.5436952
51
270.4182511
0
ARC
8
bottom_labelLayer
10
341.5471745
20
59.2083086
40
5.4166642
50
238.8115546
51
253.2428384
0
ARC
8
bottom_labelLayer
10
341.480063
20
59.0733473
40
5.2664697
50
207.7947012
51
238.6757963
0
ARC
8
bottom_labelLayer
10
342.4430732
20
59.663148
40
6.3938119
50
205.6560415
51
208.4461506
0
ARC
8
bottom_labelLayer
10
343.1848322
20
59.9722111
40
7.1963807
50
188.9102519
51
205.3171454
0
ARC
8
bottom_labelLayer
10
345.6845955
20
60.3955899
40
9.7316027
50
179.774463
51
189.0932878
0
ARC
8
bottom_labelLayer
10
346.053358
20
60.5023095
40
10.1005216
50
169.2442975
51
180.3880772
0
ARC
8
bottom_labelLayer
10
342.6232999
20
61.1803076
40
6.604245
50
150.7111509
51
169.4695445
0
ARC
8
bottom_labelLayer
10
341.5283064
20
61.7426291
40
5.3743262
50
138.1759262
51
150.2287565
0
ARC
8
bottom_labelLayer
10
341.3461772
20
61.8823923
40
5.1454329
50
99.1759396
51
137.9832734
0
ARC
8
bottom_labelLayer
10
341.8474982
20
59.5231129
40
7.5553974
50
89.7326269
51
100.0759727
0
ARC
8
bottom_labelLayer
10
341.9476967
20
60.5420113
40
6.5367395
50
73.5222687
51
90.5692303
0
ARC
8
bottom_labelLayer
10
342.3310374
20
61.9347876
40
5.0925067
50
41.1445685
51
73.2133837
0
ARC
8
bottom_labelLayer
10
341.5992708
20
61.305844
40
6.0573904
50
13.5014349
51
41.0703455
0
ARC
8
bottom_labelLayer
10
338.7721012
20
60.5660108
40
8.9793531
50
1.1277128
51
13.8800049
0
ARC
8
bottom_labelLayer
10
336.3363062
20
60.4355037
40
11.4175433
50
359.9919372
51
1.5419349
0
ARC
8
bottom_labelLayer
10
347.8195996
20
60.3833439
40
9.8510362
50
179.705971
51
187.9160766
0
ARC
8
bottom_labelLayer
10
344.2065433
20
59.8643327
40
6.2009516
50
187.7639294
51
200.0976817
0
ARC
8
bottom_labelLayer
10
342.2161243
20
59.1350406
40
4.0811324
50
200.0845823
51
216.9131551
0
ARC
8
bottom_labelLayer
10
341.4892951
20
58.616051
40
3.1883642
50
217.3009547
51
261.7099106
0
ARC
8
bottom_labelLayer
10
341.8267132
20
60.2261753
40
4.8313858
50
260.5033213
51
270.2476922
0
ARC
8
bottom_labelLayer
10
341.8911183
20
59.913086
40
4.5184611
50
269.4481552
51
284.7255622
0
ARC
8
bottom_labelLayer
10
342.2488174
20
58.5864933
40
3.1445297
50
284.5662336
51
322.6333806
0
ARC
8
bottom_labelLayer
10
341.4124964
20
59.1906977
40
4.1760003
50
323.0089257
51
342.6390464
0
ARC
8
bottom_labelLayer
10
339.0204471
20
59.9724887
40
6.6924346
50
342.3615655
51
353.7537662
0
ARC
8
bottom_labelLayer
10
335.4913577
20
60.3978733
40
10.2469298
50
353.5363176
51
0.2014268
0
ARC
8
bottom_labelLayer
10
336.0320766
20
60.4834373
40
9.7062742
50
359.7075639
51
7.8972796
0
ARC
8
bottom_labelLayer
10
339.5867768
20
60.9930386
40
6.1152909
50
7.7439865
51
20.0690117
0
ARC
8
bottom_labelLayer
10
341.5676099
20
61.71993
40
4.0053009
50
20.0256933
51
37.4350686
0
ARC
8
bottom_labelLayer
10
342.2248266
20
62.1862823
40
3.2000982
50
37.9577645
51
80.400624
0
ARC
8
bottom_labelLayer
10
341.8513479
20
60.5198508
40
4.9063088
50
79.345361
51
90.3174798
0
ARC
8
bottom_labelLayer
10
341.7821936
20
60.7966592
40
4.6296155
50
89.4805969
51
103.8805122
0
ARC
8
bottom_labelLayer
10
341.3931853
20
62.2779972
40
3.0982933
50
103.4685158
51
142.3118982
0
ARC
8
bottom_labelLayer
10
342.1494489
20
61.7461387
40
4.022135
50
142.90258
51
162.3749602
0
ARC
8
bottom_labelLayer
10
344.5324328
20
60.9520162
40
6.5338029
50
162.0653208
51
173.1674858
0
ARC
8
bottom_labelLayer
10
348.248115
20
60.4781026
40
10.2795168
50
173.0086176
51
180.2463933
0
LINE
8
bottom_labelLayer
10
369.4804119
20
54.0003032
11
367.5350994
21
54.0003032
0
LINE
8
bottom_labelLayer
10
367.5350994
20
54.0003032
11
367.5350994
21
62.355772
0
LINE
8
bottom_labelLayer
10
361.2890056
20
61.1721782
11
361.2890056
21
54.0003032
0
LINE
8
bottom_labelLayer
10
361.2890056
20
54.0003032
11
359.3436931
21
54.0003032
0
LINE
8
bottom_labelLayer
10
359.3436931
20
54.0003032
11
359.3436931
21
62.355772
0
LINE
8
bottom_labelLayer
10
353.1093181
20
60.7385845
11
353.1093181
21
54.0003032
0
LINE
8
bottom_labelLayer
10
353.1093181
20
54.0003032
11
351.1640056
21
54.0003032
0
LINE
8
bottom_labelLayer
10
351.1640056
20
54.0003032
11
351.1640056
21
66.8440532
0
LINE
8
bottom_labelLayer
10
351.1640056
20
66.8440532
11
352.7460369
21
66.8440532
0
LINE
8
bottom_labelLayer
10
352.7460369
20
66.8440532
11
353.0624431
21
65.0862407
0
LINE
8
bottom_labelLayer
10
353.0624431
20
65.0862407
11
353.1561931
21
65.0862407
0
LINE
8
bottom_labelLayer
10
360.8905681
20
64.8987407
11
360.9843181
21
64.8987407
0
LINE
8
bottom_labelLayer
10
369.4804119
20
62.3792095
11
369.4804119
21
54.0003032
0
ARC
8
bottom_labelLayer
10
361.7963538
20
62.386338
40
5.738827
50
359.6948306
51
8.1471464
0
ARC
8
bottom_labelLayer
10
363.9101425
20
62.6991537
40
3.6020551
50
7.9864714
51
20.794961
0
ARC
8
bottom_labelLayer
10
365.0785855
20
63.146741
40
2.3508264
50
20.7071265
51
40.0217442
0
ARC
8
bottom_labelLayer
10
365.3349185
20
63.3144555
40
2.0469966
50
41.040815
51
73.1792698
0
ARC
8
bottom_labelLayer
10
364.9640109
20
62.1926395
40
3.2282915
50
72.6395588
51
86.2568116
0
ARC
8
bottom_labelLayer
10
364.8451905
20
60.9104919
40
4.5155957
50
85.8144564
51
90.0685631
0
ARC
8
bottom_labelLayer
10
364.8015328
20
60.4206395
40
5.0055912
50
89.5621262
51
101.2961714
0
ARC
8
bottom_labelLayer
10
364.4245267
20
62.2254939
40
3.1618939
50
101.0032182
51
121.7840557
0
ARC
8
bottom_labelLayer
10
364.1379124
20
62.7371824
40
2.5761033
50
122.3597321
51
140.2883936
0
ARC
8
bottom_labelLayer
10
364.6535635
20
62.3590899
40
3.2145823
50
140.9765189
51
161.1699563
0
ARC
8
bottom_labelLayer
10
366.5961537
20
61.6677652
40
5.2764094
50
160.8731749
51
172.5272558
0
ARC
8
bottom_labelLayer
10
369.842163
20
61.2194646
40
8.5531826
50
172.3776394
51
180.1829645
0
ARC
8
bottom_labelLayer
10
372.1165053
20
61.1721902
40
10.8274996
50
179.8943709
51
180.0000634
0
ARC
8
bottom_labelLayer
10
353.6049475
20
62.386338
40
5.738827
50
359.6948306
51
8.1471464
0
ARC
8
bottom_labelLayer
10
355.7187363
20
62.6991537
40
3.6020551
50
7.9864714
51
20.794961
0
ARC
8
bottom_labelLayer
10
356.8871793
20
63.146741
40
2.3508264
50
20.7071265
51
40.0217442
0
ARC
8
bottom_labelLayer
10
357.148843
20
63.3181401
40
2.0405568
50
41.0610636
51
72.8993765
0
ARC
8
bottom_labelLayer
10
356.7709057
20
62.192977
40
3.227252
50
72.3601236
51
85.9561587
0
ARC
8
bottom_labelLayer
10
356.6429682
20
60.8707356
40
4.5553533
50
85.5237991
51
90.079319
0
ARC
8
bottom_labelLayer
10
356.5993326
20
60.5946328
40
4.8315958
50
89.5573242
51
101.4832207
0
ARC
8
bottom_labelLayer
10
356.2284923
20
62.3321033
40
3.0551273
50
101.15465
51
123.0655549
0
ARC
8
bottom_labelLayer
10
355.9764096
20
62.771219
40
2.5497493
50
123.7020334
51
142.3022232
0
ARC
8
bottom_labelLayer
10
356.5668943
20
62.3706266
40
3.2622277
50
143.076996
51
161.3913819
0
ARC
8
bottom_labelLayer
10
358.94707
20
61.5300041
40
5.7863325
50
161.0234575
51
171.4469212
0
ARC
8
bottom_labelLayer
10
362.8873935
20
60.9127628
40
9.7746638
50
171.3041906
51
178.3501659
0
ARC
8
bottom_labelLayer
10
366.6533344
20
60.7445639
40
13.5440178
50
178.0975982
51
180.025295
0
ARC
8
bottom_labelLayer
10
356.4518147
20
63.148253
40
3.8232078
50
117.1209502
51
149.5423758
0
ARC
8
bottom_labelLayer
10
356.8420065
20
62.4547372
40
4.6184507
50
93.8343264
51
117.507214
0
ARC
8
bottom_labelLayer
10
356.9497771
20
61.5002172
40
5.5782122
50
89.9661966
51
94.2831787
0
ARC
8
bottom_labelLayer
10
357.0143486
20
60.7097503
40
6.3689728
50
77.5572325
51
90.5512927
0
ARC
8
bottom_labelLayer
10
357.6053207
20
63.2516322
40
3.7595768
50
52.7026985
51
78.005389
0
ARC
8
bottom_labelLayer
10
357.8158704
20
63.6433664
40
3.321104
50
22.2097981
51
51.4970546
0
ARC
8
bottom_labelLayer
10
364.5083374
20
62.8791171
40
4.0617227
50
119.4041794
51
150.1828776
0
ARC
8
bottom_labelLayer
10
364.9588053
20
62.1940839
40
4.8799962
50
118.2583504
51
120.062965
0
ARC
8
bottom_labelLayer
10
364.9575191
20
62.1440164
40
4.9235505
50
95.8635224
51
117.9693158
0
ARC
8
bottom_labelLayer
10
365.1241488
20
60.9391599
40
6.1392743
50
89.9196748
51
96.261756
0
ARC
8
bottom_labelLayer
10
365.1776455
20
60.3165646
40
6.7620126
50
79.936093
51
90.3803632
0
ARC
8
bottom_labelLayer
10
365.6282093
20
62.7567629
40
4.2806609
50
62.9723209
51
80.1665129
0
ARC
8
bottom_labelLayer
10
366.0992134
20
63.7230817
40
3.2059021
50
44.228992
51
62.6229026
0
ARC
8
bottom_labelLayer
10
365.9591258
20
63.6611955
40
3.3498757
50
19.5612034
51
43.3161219
0
ARC
8
bottom_labelLayer
10
363.9246043
20
62.8970262
40
5.5229646
50
7.5041831
51
19.9645449
0
ARC
8
bottom_labelLayer
10
360.5579939
20
62.4242541
40
8.9225317
50
359.7107459
51
7.6907169
0
ENDSEC
0
EOF